<svg width="252" height="312" viewBox="0 0 252 312" fill="none" xmlns="http://www.w3.org/2000/svg">
<rect x="40" width="113" height="48" rx="8" fill="#D2DDF8"/>
<path d="M77.918 21.776L76.98 20.866C77.3253 20.4087 77.7267 20.0727 78.184 19.858C78.6507 19.6247 79.2153 19.508 79.878 19.508C80.8113 19.508 81.5347 19.7553 82.048 20.25C82.496 20.6887 82.72 21.2347 82.72 21.888C82.72 22.336 82.6173 22.7233 82.412 23.05C82.216 23.386 81.936 23.6567 81.572 23.862C82.0853 23.9927 82.5053 24.268 82.832 24.688C83.1493 25.0893 83.308 25.6167 83.308 26.27C83.308 27.11 82.9953 27.8053 82.37 28.356C81.7353 28.8973 80.8953 29.168 79.85 29.168C78.9633 29.168 78.198 28.9253 77.554 28.44C77.05 28.048 76.6533 27.544 76.364 26.928L77.624 26.284C77.8107 26.76 78.1 27.138 78.492 27.418C78.9027 27.7073 79.416 27.852 80.032 27.852C80.648 27.852 81.124 27.684 81.46 27.348C81.7587 27.0493 81.908 26.6667 81.908 26.2C81.908 25.7147 81.726 25.3507 81.362 25.108C81.0167 24.8653 80.452 24.744 79.668 24.744H78.828V23.4H79.584C80.1813 23.4 80.6293 23.274 80.928 23.022C81.208 22.7887 81.348 22.4713 81.348 22.07C81.348 21.65 81.1987 21.328 80.9 21.104C80.6573 20.9173 80.298 20.824 79.822 20.824C79.374 20.824 78.996 20.9127 78.688 21.09C78.3893 21.258 78.1327 21.4867 77.918 21.776ZM89.1644 23.792V23.106H90.5364V29H89.1644V28.384C88.707 28.916 88.119 29.182 87.4004 29.182C86.5324 29.182 85.837 28.874 85.3144 28.258C84.801 27.642 84.5444 26.9047 84.5444 26.046C84.5444 25.1127 84.8197 24.366 85.3704 23.806C85.9304 23.2367 86.6117 22.952 87.4144 22.952C88.1517 22.952 88.735 23.232 89.1644 23.792ZM87.5824 24.184C87.097 24.184 86.7004 24.366 86.3924 24.73C86.0937 25.094 85.9444 25.542 85.9444 26.074C85.9444 26.5967 86.0937 27.04 86.3924 27.404C86.7004 27.768 87.097 27.95 87.5824 27.95C88.049 27.95 88.441 27.7867 88.7584 27.46C89.085 27.1333 89.2484 26.676 89.2484 26.088C89.2484 25.4813 89.085 25.0147 88.7584 24.688C88.441 24.352 88.049 24.184 87.5824 24.184ZM91.5202 29L93.3682 26.662C93.0042 26.606 92.6915 26.4567 92.4302 26.214C92.1035 25.8967 91.9402 25.4907 91.9402 24.996C91.9402 24.436 92.1222 23.9833 92.4862 23.638C92.8595 23.2833 93.4289 23.106 94.1942 23.106H96.3922V29H95.0202V26.83H94.7402L93.1302 29H91.5202ZM95.0202 25.71V24.282H94.2222C93.8955 24.282 93.6575 24.324 93.5082 24.408C93.2842 24.548 93.1722 24.744 93.1722 24.996C93.1722 25.248 93.2655 25.4393 93.4522 25.57C93.5922 25.6633 93.8442 25.71 94.2082 25.71H95.0202ZM98.1278 23.106H100.438C101.026 23.106 101.474 23.2227 101.782 23.456C102.146 23.7453 102.328 24.1233 102.328 24.59C102.328 25.122 102.094 25.5047 101.628 25.738C101.926 25.794 102.192 25.9247 102.426 26.13C102.734 26.41 102.888 26.788 102.888 27.264C102.888 27.8333 102.673 28.2813 102.244 28.608C101.889 28.8693 101.436 29 100.886 29H98.1278V23.106ZM99.4998 25.402H100.2C100.442 25.402 100.624 25.36 100.746 25.276C100.923 25.164 101.012 25.0053 101.012 24.8C101.012 24.604 100.932 24.45 100.774 24.338C100.662 24.2633 100.461 24.226 100.172 24.226H99.4998V25.402ZM99.4998 27.88H100.522C100.83 27.88 101.068 27.824 101.236 27.712C101.422 27.5907 101.516 27.418 101.516 27.194C101.516 26.9513 101.427 26.7787 101.25 26.676C101.091 26.5733 100.862 26.522 100.564 26.522H99.4998V27.88ZM104.321 23.106H105.693V25.206L107.653 23.106H109.473L106.897 25.682L109.613 29H107.877L105.917 26.578L105.693 26.802V29H104.321V23.106ZM110.514 23.106H111.886V26.452L115.918 22.574V29H114.546V25.57L110.514 29.448V23.106Z" fill="black"/>
<rect x="40.5" y="264.5" width="112" height="47" rx="7.5" stroke="#6A8EE8"/>
<path d="M77.918 285.776L76.98 284.866C77.3253 284.409 77.7267 284.073 78.184 283.858C78.6507 283.625 79.2153 283.508 79.878 283.508C80.8113 283.508 81.5347 283.755 82.048 284.25C82.496 284.689 82.72 285.235 82.72 285.888C82.72 286.336 82.6173 286.723 82.412 287.05C82.216 287.386 81.936 287.657 81.572 287.862C82.0853 287.993 82.5053 288.268 82.832 288.688C83.1493 289.089 83.308 289.617 83.308 290.27C83.308 291.11 82.9953 291.805 82.37 292.356C81.7353 292.897 80.8953 293.168 79.85 293.168C78.9633 293.168 78.198 292.925 77.554 292.44C77.05 292.048 76.6533 291.544 76.364 290.928L77.624 290.284C77.8107 290.76 78.1 291.138 78.492 291.418C78.9027 291.707 79.416 291.852 80.032 291.852C80.648 291.852 81.124 291.684 81.46 291.348C81.7587 291.049 81.908 290.667 81.908 290.2C81.908 289.715 81.726 289.351 81.362 289.108C81.0167 288.865 80.452 288.744 79.668 288.744H78.828V287.4H79.584C80.1813 287.4 80.6293 287.274 80.928 287.022C81.208 286.789 81.348 286.471 81.348 286.07C81.348 285.65 81.1987 285.328 80.9 285.104C80.6573 284.917 80.298 284.824 79.822 284.824C79.374 284.824 78.996 284.913 78.688 285.09C78.3893 285.258 78.1327 285.487 77.918 285.776ZM89.1644 287.792V287.106H90.5364V293H89.1644V292.384C88.707 292.916 88.119 293.182 87.4004 293.182C86.5324 293.182 85.837 292.874 85.3144 292.258C84.801 291.642 84.5444 290.905 84.5444 290.046C84.5444 289.113 84.8197 288.366 85.3704 287.806C85.9304 287.237 86.6117 286.952 87.4144 286.952C88.1517 286.952 88.735 287.232 89.1644 287.792ZM87.5824 288.184C87.097 288.184 86.7004 288.366 86.3924 288.73C86.0937 289.094 85.9444 289.542 85.9444 290.074C85.9444 290.597 86.0937 291.04 86.3924 291.404C86.7004 291.768 87.097 291.95 87.5824 291.95C88.049 291.95 88.441 291.787 88.7584 291.46C89.085 291.133 89.2484 290.676 89.2484 290.088C89.2484 289.481 89.085 289.015 88.7584 288.688C88.441 288.352 88.049 288.184 87.5824 288.184ZM91.5202 293L93.3682 290.662C93.0042 290.606 92.6915 290.457 92.4302 290.214C92.1035 289.897 91.9402 289.491 91.9402 288.996C91.9402 288.436 92.1222 287.983 92.4862 287.638C92.8595 287.283 93.4289 287.106 94.1942 287.106H96.3922V293H95.0202V290.83H94.7402L93.1302 293H91.5202ZM95.0202 289.71V288.282H94.2222C93.8955 288.282 93.6575 288.324 93.5082 288.408C93.2842 288.548 93.1722 288.744 93.1722 288.996C93.1722 289.248 93.2655 289.439 93.4522 289.57C93.5922 289.663 93.8442 289.71 94.2082 289.71H95.0202ZM98.1278 287.106H100.438C101.026 287.106 101.474 287.223 101.782 287.456C102.146 287.745 102.328 288.123 102.328 288.59C102.328 289.122 102.094 289.505 101.628 289.738C101.926 289.794 102.192 289.925 102.426 290.13C102.734 290.41 102.888 290.788 102.888 291.264C102.888 291.833 102.673 292.281 102.244 292.608C101.889 292.869 101.436 293 100.886 293H98.1278V287.106ZM99.4998 289.402H100.2C100.442 289.402 100.624 289.36 100.746 289.276C100.923 289.164 101.012 289.005 101.012 288.8C101.012 288.604 100.932 288.45 100.774 288.338C100.662 288.263 100.461 288.226 100.172 288.226H99.4998V289.402ZM99.4998 291.88H100.522C100.83 291.88 101.068 291.824 101.236 291.712C101.422 291.591 101.516 291.418 101.516 291.194C101.516 290.951 101.427 290.779 101.25 290.676C101.091 290.573 100.862 290.522 100.564 290.522H99.4998V291.88ZM104.321 287.106H105.693V289.206L107.653 287.106H109.473L106.897 289.682L109.613 293H107.877L105.917 290.578L105.693 290.802V293H104.321V287.106ZM110.514 287.106H111.886V290.452L115.918 286.574V293H114.546V289.57L110.514 293.448V287.106Z" fill="black"/>
<rect x="40.5" y="176.5" width="211" height="47" rx="7.5" stroke="#6A8EE8"/>
<path d="M81.068 205V203.684H80.816C79.4347 203.684 78.3987 203.348 77.708 202.676C77.0173 201.995 76.672 201.117 76.672 200.044C76.672 198.971 77.0173 198.098 77.708 197.426C78.3987 196.745 79.4347 196.404 80.816 196.404H81.068V195.284H82.496V196.404H82.748C84.1293 196.404 85.1653 196.745 85.856 197.426C86.5467 198.098 86.892 198.971 86.892 200.044C86.892 201.117 86.5467 201.995 85.856 202.676C85.1653 203.348 84.1293 203.684 82.748 203.684H82.496V205H81.068ZM81.068 202.368V197.72H80.788C79.892 197.72 79.22 197.935 78.772 198.364C78.324 198.784 78.1 199.344 78.1 200.044C78.1 200.744 78.324 201.309 78.772 201.738C79.22 202.158 79.892 202.368 80.788 202.368H81.068ZM82.496 197.72V202.368H82.776C83.672 202.368 84.344 202.158 84.792 201.738C85.24 201.309 85.464 200.744 85.464 200.044C85.464 199.344 85.24 198.784 84.792 198.364C84.344 197.935 83.672 197.72 82.776 197.72H82.496ZM89.0224 199.834C89.6291 199.246 90.3804 198.952 91.2764 198.952C92.1724 198.952 92.9191 199.246 93.5164 199.834C94.1231 200.413 94.4264 201.155 94.4264 202.06C94.4264 202.956 94.1231 203.703 93.5164 204.3C92.9191 204.888 92.1724 205.182 91.2764 205.182C90.3804 205.182 89.6291 204.888 89.0224 204.3C88.4251 203.703 88.1264 202.956 88.1264 202.06C88.1264 201.155 88.4251 200.413 89.0224 199.834ZM90.0024 203.446C90.3197 203.782 90.7444 203.95 91.2764 203.95C91.8084 203.95 92.2331 203.782 92.5504 203.446C92.8677 203.101 93.0264 202.643 93.0264 202.074C93.0264 201.449 92.8537 200.977 92.5084 200.66C92.1724 200.343 91.7617 200.184 91.2764 200.184C90.7911 200.184 90.3757 200.343 90.0304 200.66C89.6944 200.977 89.5264 201.449 89.5264 202.074C89.5264 202.643 89.6851 203.101 90.0024 203.446ZM97.2302 204.314V208.206H95.8582V199.106H97.2302V199.75C97.6782 199.218 98.2616 198.952 98.9802 198.952C99.7829 198.952 100.46 199.237 101.01 199.806C101.57 200.366 101.85 201.103 101.85 202.018C101.85 202.961 101.561 203.726 100.982 204.314C100.404 204.893 99.7409 205.182 98.9942 205.182C98.2942 205.182 97.7062 204.893 97.2302 204.314ZM98.8122 200.184C98.3456 200.184 97.9489 200.352 97.6222 200.688C97.3049 201.015 97.1462 201.481 97.1462 202.088C97.1462 202.676 97.3049 203.133 97.6222 203.46C97.9489 203.787 98.3456 203.95 98.8122 203.95C99.2976 203.95 99.6896 203.768 99.9882 203.404C100.296 203.04 100.45 202.597 100.45 202.074C100.45 201.542 100.296 201.094 99.9882 200.73C99.6896 200.366 99.2976 200.184 98.8122 200.184ZM102.61 205L104.038 198.574L106.474 203.068L108.91 198.574L110.338 205H108.938L108.35 202.046L106.474 205.448L104.598 202.046L104.01 205H102.61ZM115.715 199.792V199.106H117.087V205H115.715V204.384C115.258 204.916 114.67 205.182 113.951 205.182C113.083 205.182 112.388 204.874 111.865 204.258C111.352 203.642 111.095 202.905 111.095 202.046C111.095 201.113 111.37 200.366 111.921 199.806C112.481 199.237 113.162 198.952 113.965 198.952C114.702 198.952 115.286 199.232 115.715 199.792ZM114.133 200.184C113.648 200.184 113.251 200.366 112.943 200.73C112.644 201.094 112.495 201.542 112.495 202.074C112.495 202.597 112.644 203.04 112.943 203.404C113.251 203.768 113.648 203.95 114.133 203.95C114.6 203.95 114.992 203.787 115.309 203.46C115.636 203.133 115.799 202.676 115.799 202.088C115.799 201.481 115.636 201.015 115.309 200.688C114.992 200.352 114.6 200.184 114.133 200.184ZM122.095 199.106H127.219V205H125.847V200.366H123.467V205H122.095V199.106ZM129.546 199.834C130.153 199.246 130.904 198.952 131.8 198.952C132.696 198.952 133.443 199.246 134.04 199.834C134.647 200.413 134.95 201.155 134.95 202.06C134.95 202.956 134.647 203.703 134.04 204.3C133.443 204.888 132.696 205.182 131.8 205.182C130.904 205.182 130.153 204.888 129.546 204.3C128.949 203.703 128.65 202.956 128.65 202.06C128.65 201.155 128.949 200.413 129.546 199.834ZM130.526 203.446C130.843 203.782 131.268 203.95 131.8 203.95C132.332 203.95 132.757 203.782 133.074 203.446C133.391 203.101 133.55 202.643 133.55 202.074C133.55 201.449 133.377 200.977 133.032 200.66C132.696 200.343 132.285 200.184 131.8 200.184C131.315 200.184 130.899 200.343 130.554 200.66C130.218 200.977 130.05 201.449 130.05 202.074C130.05 202.643 130.209 203.101 130.526 203.446ZM136.382 199.106H137.754V202.452L141.786 198.574V205H140.414V201.57L136.382 205.448V199.106ZM148.082 199.372V200.912C147.588 200.427 147.032 200.184 146.416 200.184C145.894 200.184 145.46 200.357 145.114 200.702C144.778 201.038 144.61 201.491 144.61 202.06C144.61 202.648 144.788 203.119 145.142 203.474C145.478 203.791 145.894 203.95 146.388 203.95C147.07 203.95 147.634 203.698 148.082 203.194V204.72C147.588 205.028 146.99 205.182 146.29 205.182C145.348 205.182 144.601 204.893 144.05 204.314C143.49 203.735 143.21 202.998 143.21 202.102C143.21 201.178 143.509 200.417 144.106 199.82C144.685 199.241 145.474 198.952 146.472 198.952C147.042 198.952 147.578 199.092 148.082 199.372ZM149.397 199.106H150.769V201.206L152.729 199.106H154.549L151.973 201.682L154.689 205H152.953L150.993 202.578L150.769 202.802V205H149.397V199.106ZM159.903 199.792V199.106H161.275V205H159.903V204.384C159.445 204.916 158.857 205.182 158.139 205.182C157.271 205.182 156.575 204.874 156.053 204.258C155.539 203.642 155.283 202.905 155.283 202.046C155.283 201.113 155.558 200.366 156.109 199.806C156.669 199.237 157.35 198.952 158.153 198.952C158.89 198.952 159.473 199.232 159.903 199.792ZM158.321 200.184C157.835 200.184 157.439 200.366 157.131 200.73C156.832 201.094 156.683 201.542 156.683 202.074C156.683 202.597 156.832 203.04 157.131 203.404C157.439 203.768 157.835 203.95 158.321 203.95C158.787 203.95 159.179 203.787 159.497 203.46C159.823 203.133 159.987 202.676 159.987 202.088C159.987 201.481 159.823 201.015 159.497 200.688C159.179 200.352 158.787 200.184 158.321 200.184ZM166.282 199.106H171.406V205H170.034V200.366H167.654V205H166.282V199.106ZM173.733 199.834C174.34 199.246 175.091 198.952 175.987 198.952C176.883 198.952 177.63 199.246 178.227 199.834C178.834 200.413 179.137 201.155 179.137 202.06C179.137 202.956 178.834 203.703 178.227 204.3C177.63 204.888 176.883 205.182 175.987 205.182C175.091 205.182 174.34 204.888 173.733 204.3C173.136 203.703 172.837 202.956 172.837 202.06C172.837 201.155 173.136 200.413 173.733 199.834ZM174.713 203.446C175.031 203.782 175.455 203.95 175.987 203.95C176.519 203.95 176.944 203.782 177.261 203.446C177.579 203.101 177.737 202.643 177.737 202.074C177.737 201.449 177.565 200.977 177.219 200.66C176.883 200.343 176.473 200.184 175.987 200.184C175.502 200.184 175.087 200.343 174.741 200.66C174.405 200.977 174.237 201.449 174.237 202.074C174.237 202.643 174.396 203.101 174.713 203.446ZM183.837 199.106H188.961V205H187.589V200.366H185.209V205H183.837V199.106ZM191.288 199.834C191.895 199.246 192.646 198.952 193.542 198.952C194.438 198.952 195.185 199.246 195.782 199.834C196.389 200.413 196.692 201.155 196.692 202.06C196.692 202.956 196.389 203.703 195.782 204.3C195.185 204.888 194.438 205.182 193.542 205.182C192.646 205.182 191.895 204.888 191.288 204.3C190.691 203.703 190.392 202.956 190.392 202.06C190.392 201.155 190.691 200.413 191.288 199.834ZM192.268 203.446C192.585 203.782 193.01 203.95 193.542 203.95C194.074 203.95 194.499 203.782 194.816 203.446C195.133 203.101 195.292 202.643 195.292 202.074C195.292 201.449 195.119 200.977 194.774 200.66C194.438 200.343 194.027 200.184 193.542 200.184C193.057 200.184 192.641 200.343 192.296 200.66C191.96 200.977 191.792 201.449 191.792 202.074C191.792 202.643 191.951 203.101 192.268 203.446ZM201.316 205V202.718C200.896 202.802 200.495 202.844 200.112 202.844C199.44 202.844 198.922 202.699 198.558 202.41C198.175 202.102 197.984 201.631 197.984 200.996V199.106H199.356V200.716C199.356 201.117 199.473 201.388 199.706 201.528C199.865 201.621 200.093 201.668 200.392 201.668C200.728 201.668 201.036 201.617 201.316 201.514V199.106H202.688V205H201.316ZM208.487 200.366H206.765V205H205.393V200.366H203.671V199.106H208.487V200.366ZM213.451 203.012L214.599 203.656C214.338 204.123 214.006 204.482 213.605 204.734C213.148 205.033 212.569 205.182 211.869 205.182C211.048 205.182 210.385 204.93 209.881 204.426C209.302 203.847 209.013 203.096 209.013 202.172C209.013 201.201 209.326 200.394 209.951 199.75C210.483 199.218 211.141 198.952 211.925 198.952C212.69 198.952 213.32 199.209 213.815 199.722C214.366 200.291 214.641 201.122 214.641 202.214V202.382H210.413C210.45 202.877 210.618 203.273 210.917 203.572C211.169 203.824 211.519 203.95 211.967 203.95C212.331 203.95 212.644 203.852 212.905 203.656C213.12 203.488 213.302 203.273 213.451 203.012ZM210.511 201.262H213.241C213.185 200.935 213.045 200.669 212.821 200.464C212.578 200.24 212.27 200.128 211.897 200.128C211.505 200.128 211.183 200.254 210.931 200.506C210.726 200.693 210.586 200.945 210.511 201.262Z" fill="black"/>
<path d="M1 199.5C0.447715 199.5 -1.56661e-07 199.948 0 200.5C1.56661e-07 201.052 0.447716 201.5 1 201.5L1 199.5ZM39.7071 201.207C40.0976 200.817 40.0976 200.183 39.7071 199.793L33.3431 193.429C32.9526 193.038 32.3194 193.038 31.9289 193.429C31.5384 193.819 31.5384 194.453 31.9289 194.843L37.5858 200.5L31.9289 206.157C31.5384 206.547 31.5384 207.181 31.9289 207.571C32.3194 207.962 32.9526 207.962 33.3431 207.571L39.7071 201.207ZM1 201.5L39 201.5L39 199.5L1 199.5L1 201.5Z" fill="#A6AEBF"/>
<path d="M1 111C0.447715 111 -1.56661e-07 111.448 0 112C1.56661e-07 112.552 0.447716 113 1 113L1 111ZM39.7071 112.707C40.0976 112.317 40.0976 111.683 39.7071 111.293L33.3431 104.929C32.9526 104.538 32.3194 104.538 31.9289 104.929C31.5384 105.319 31.5384 105.953 31.9289 106.343L37.5858 112L31.9289 117.657C31.5384 118.047 31.5384 118.681 31.9289 119.071C32.3194 119.462 32.9526 119.462 33.3431 119.071L39.7071 112.707ZM1 113L39 113L39 111L1 111L1 113Z" fill="#A6AEBF"/>
<path d="M39 25L40 25L40 23L39 23L39 25ZM39.7071 288.707C40.0976 288.317 40.0976 287.683 39.7071 287.293L33.3432 280.929C32.9526 280.538 32.3195 280.538 31.9289 280.929C31.5384 281.319 31.5384 281.953 31.9289 282.343L37.5858 288L31.9289 293.657C31.5384 294.047 31.5384 294.681 31.9289 295.071C32.3195 295.462 32.9526 295.462 33.3432 295.071L39.7071 288.707ZM2 280L1.99999 32L-1.11901e-05 32L-3.49691e-07 280L2 280ZM8.99999 25L39 25L39 23L8.99999 23L8.99999 25ZM39 287L9 287L9 289L39 289L39 287ZM1.99999 32C1.99999 28.134 5.134 25 8.99999 25L8.99999 23C4.02942 23 -1.14074e-05 27.0294 -1.11901e-05 32L1.99999 32ZM-3.49691e-07 280C-1.32421e-07 284.971 4.02944 289 9 289L9 287C5.13401 287 2 283.866 2 280L-3.49691e-07 280Z" fill="#A6AEBF"/>
<rect x="40.5" y="88.5" width="178" height="47" rx="7.5" stroke="#6A8EE8"/>
<path d="M77.12 107.662H83.98V117H82.552V109.006H78.548V117H77.12V107.662ZM90.2855 111.792V111.106H91.6575V117H90.2855V116.384C89.8281 116.916 89.2401 117.182 88.5215 117.182C87.6535 117.182 86.9581 116.874 86.4355 116.258C85.9221 115.642 85.6655 114.905 85.6655 114.046C85.6655 113.113 85.9408 112.366 86.4915 111.806C87.0515 111.237 87.7328 110.952 88.5355 110.952C89.2728 110.952 89.8561 111.232 90.2855 111.792ZM88.7035 112.184C88.2181 112.184 87.8215 112.366 87.5135 112.73C87.2148 113.094 87.0655 113.542 87.0655 114.074C87.0655 114.597 87.2148 115.04 87.5135 115.404C87.8215 115.768 88.2181 115.95 88.7035 115.95C89.1701 115.95 89.5621 115.787 89.8795 115.46C90.2061 115.133 90.3695 114.676 90.3695 114.088C90.3695 113.481 90.2061 113.015 89.8795 112.688C89.5621 112.352 89.1701 112.184 88.7035 112.184ZM93.3973 117V111.106H94.7693V113.29H97.2053V111.106H98.5773V117H97.2053V114.55H94.7693V117H93.3973ZM104.445 115.012L105.593 115.656C105.332 116.123 105.001 116.482 104.599 116.734C104.142 117.033 103.563 117.182 102.863 117.182C102.042 117.182 101.379 116.93 100.875 116.426C100.297 115.847 100.007 115.096 100.007 114.172C100.007 113.201 100.32 112.394 100.945 111.75C101.477 111.218 102.135 110.952 102.919 110.952C103.685 110.952 104.315 111.209 104.809 111.722C105.36 112.291 105.635 113.122 105.635 114.214V114.382H101.407C101.445 114.877 101.613 115.273 101.911 115.572C102.163 115.824 102.513 115.95 102.961 115.95C103.325 115.95 103.638 115.852 103.899 115.656C104.114 115.488 104.296 115.273 104.445 115.012ZM101.505 113.262H104.235C104.179 112.935 104.039 112.669 103.815 112.464C103.573 112.24 103.265 112.128 102.891 112.128C102.499 112.128 102.177 112.254 101.925 112.506C101.72 112.693 101.58 112.945 101.505 113.262ZM111.913 111.106V117H110.541V112.366H108.805V114.704C108.805 115.432 108.619 115.997 108.245 116.398C107.769 116.93 107.125 117.131 106.313 117V115.74C106.715 115.833 107.037 115.745 107.279 115.474C107.419 115.306 107.489 115.049 107.489 114.704V111.106H111.913ZM113.645 117V111.106H115.017V113.192H115.801C116.053 113.192 116.259 113.201 116.417 113.22C116.576 113.229 116.767 113.281 116.991 113.374C117.215 113.467 117.411 113.607 117.579 113.794C117.887 114.139 118.041 114.569 118.041 115.082C118.041 115.67 117.864 116.141 117.509 116.496C117.351 116.655 117.159 116.776 116.935 116.86C116.721 116.935 116.539 116.977 116.389 116.986C116.249 116.995 116.049 117 115.787 117H113.645ZM115.017 115.824H115.647C115.983 115.824 116.221 115.782 116.361 115.698C116.567 115.549 116.669 115.348 116.669 115.096C116.669 114.835 116.571 114.639 116.375 114.508C116.226 114.415 115.988 114.368 115.661 114.368H115.017V115.824ZM122.518 117V111.106H123.89V113.29H126.326V111.106H127.698V117H126.326V114.55H123.89V117H122.518ZM133.748 111.792V111.106H135.12V117H133.748V116.384C133.291 116.916 132.703 117.182 131.984 117.182C131.116 117.182 130.421 116.874 129.898 116.258C129.385 115.642 129.128 114.905 129.128 114.046C129.128 113.113 129.404 112.366 129.954 111.806C130.514 111.237 131.196 110.952 131.998 110.952C132.736 110.952 133.319 111.232 133.748 111.792ZM132.166 112.184C131.681 112.184 131.284 112.366 130.976 112.73C130.678 113.094 130.528 113.542 130.528 114.074C130.528 114.597 130.678 115.04 130.976 115.404C131.284 115.768 131.681 115.95 132.166 115.95C132.633 115.95 133.025 115.787 133.342 115.46C133.669 115.133 133.832 114.676 133.832 114.088C133.832 113.481 133.669 113.015 133.342 112.688C133.025 112.352 132.633 112.184 132.166 112.184ZM136.86 111.106H139.17C139.758 111.106 140.206 111.223 140.514 111.456C140.878 111.745 141.06 112.123 141.06 112.59C141.06 113.122 140.827 113.505 140.36 113.738C140.659 113.794 140.925 113.925 141.158 114.13C141.466 114.41 141.62 114.788 141.62 115.264C141.62 115.833 141.406 116.281 140.976 116.608C140.622 116.869 140.169 117 139.618 117H136.86V111.106ZM138.232 113.402H138.932C139.175 113.402 139.357 113.36 139.478 113.276C139.656 113.164 139.744 113.005 139.744 112.8C139.744 112.604 139.665 112.45 139.506 112.338C139.394 112.263 139.194 112.226 138.904 112.226H138.232V113.402ZM138.232 115.88H139.254C139.562 115.88 139.8 115.824 139.968 115.712C140.155 115.591 140.248 115.418 140.248 115.194C140.248 114.951 140.16 114.779 139.982 114.676C139.824 114.573 139.595 114.522 139.296 114.522H138.232V115.88ZM143.054 111.106H144.426V114.452L148.458 110.574V117H147.086V113.57L143.054 117.448V111.106ZM150.19 117V111.106H153.802V112.366H151.562V117H150.19ZM158.959 111.792V111.106H160.331V117H158.959V116.384C158.502 116.916 157.914 117.182 157.195 117.182C156.327 117.182 155.632 116.874 155.109 116.258C154.596 115.642 154.339 114.905 154.339 114.046C154.339 113.113 154.615 112.366 155.165 111.806C155.725 111.237 156.407 110.952 157.209 110.952C157.947 110.952 158.53 111.232 158.959 111.792ZM157.377 112.184C156.892 112.184 156.495 112.366 156.187 112.73C155.889 113.094 155.739 113.542 155.739 114.074C155.739 114.597 155.889 115.04 156.187 115.404C156.495 115.768 156.892 115.95 157.377 115.95C157.844 115.95 158.236 115.787 158.553 115.46C158.88 115.133 159.043 114.676 159.043 114.088C159.043 113.481 158.88 113.015 158.553 112.688C158.236 112.352 157.844 112.184 157.377 112.184ZM162.071 117V111.106H163.443V115.74H165.767V111.106H167.139V115.74H168.119V118.68H166.859V117H162.071ZM169.098 111.106H170.47V114.452L174.502 110.574V117H173.13V113.57L169.098 117.448V111.106ZM176.235 111.106H177.607V114.452L181.639 110.574V117H180.267V113.57L176.235 117.448V111.106Z" fill="black"/>
</svg>
