<svg width="311" height="664" viewBox="0 0 311 664" fill="none" xmlns="http://www.w3.org/2000/svg">
<rect x="40" width="154" height="48" rx="8" fill="#D2DDF8"/>
<path d="M77.12 19.662H83.98V29H82.552V21.006H78.548V29H77.12V19.662ZM86.5615 23.834C87.1681 23.246 87.9195 22.952 88.8155 22.952C89.7115 22.952 90.4581 23.246 91.0555 23.834C91.6621 24.4127 91.9655 25.1547 91.9655 26.06C91.9655 26.956 91.6621 27.7027 91.0555 28.3C90.4581 28.888 89.7115 29.182 88.8155 29.182C87.9195 29.182 87.1681 28.888 86.5615 28.3C85.9641 27.7027 85.6655 26.956 85.6655 26.06C85.6655 25.1547 85.9641 24.4127 86.5615 23.834ZM87.5415 27.446C87.8588 27.782 88.2835 27.95 88.8155 27.95C89.3475 27.95 89.7721 27.782 90.0895 27.446C90.4068 27.1007 90.5655 26.6433 90.5655 26.074C90.5655 25.4487 90.3928 24.9773 90.0475 24.66C89.7115 24.3427 89.3008 24.184 88.8155 24.184C88.3301 24.184 87.9148 24.3427 87.5695 24.66C87.2335 24.9773 87.0655 25.4487 87.0655 26.074C87.0655 26.6433 87.2241 27.1007 87.5415 27.446ZM98.2413 23.106V29H96.8693V24.366H95.1333V26.704C95.1333 27.432 94.9466 27.9967 94.5733 28.398C94.0973 28.93 93.4533 29.1307 92.6413 29V27.74C93.0426 27.8333 93.3646 27.7447 93.6073 27.474C93.7473 27.306 93.8173 27.0493 93.8173 26.704V23.106H98.2413ZM99.9735 29V23.106H101.345V25.192H102.129C102.381 25.192 102.587 25.2013 102.745 25.22C102.904 25.2293 103.095 25.2807 103.319 25.374C103.543 25.4673 103.739 25.6073 103.907 25.794C104.215 26.1393 104.369 26.5687 104.369 27.082C104.369 27.67 104.192 28.1413 103.837 28.496C103.679 28.6547 103.487 28.776 103.263 28.86C103.049 28.9347 102.867 28.9767 102.717 28.986C102.577 28.9953 102.377 29 102.115 29H99.9735ZM101.345 27.824H101.975C102.311 27.824 102.549 27.782 102.689 27.698C102.895 27.5487 102.997 27.348 102.997 27.096C102.997 26.8347 102.899 26.6387 102.703 26.508C102.554 26.4147 102.316 26.368 101.989 26.368H101.345V27.824ZM106.227 24.632L105.345 23.862C105.569 23.5913 105.867 23.372 106.241 23.204C106.633 23.036 107.095 22.952 107.627 22.952C108.243 22.952 108.742 23.0873 109.125 23.358C109.535 23.6567 109.741 24.058 109.741 24.562C109.741 24.8887 109.657 25.1593 109.489 25.374C109.349 25.5607 109.162 25.7007 108.929 25.794C109.283 25.8687 109.568 26.0133 109.783 26.228C110.035 26.48 110.161 26.8067 110.161 27.208C110.161 27.74 109.993 28.174 109.657 28.51C109.209 28.958 108.518 29.182 107.585 29.182C106.959 29.182 106.446 29.0653 106.045 28.832C105.625 28.5893 105.317 28.2393 105.121 27.782L106.213 27.222C106.343 27.502 106.516 27.7073 106.731 27.838C106.964 27.9873 107.258 28.062 107.613 28.062C108.042 28.062 108.355 27.964 108.551 27.768C108.691 27.6093 108.761 27.4367 108.761 27.25C108.761 27.054 108.7 26.8953 108.579 26.774C108.42 26.606 108.093 26.522 107.599 26.522H106.983V25.402H107.501C107.799 25.402 108.023 25.3507 108.173 25.248C108.341 25.1173 108.425 24.9447 108.425 24.73C108.425 24.506 108.341 24.338 108.173 24.226C108.033 24.1233 107.813 24.072 107.515 24.072C107.235 24.072 106.978 24.128 106.745 24.24C106.549 24.3333 106.376 24.464 106.227 24.632ZM112.183 23.834C112.789 23.246 113.541 22.952 114.437 22.952C115.333 22.952 116.079 23.246 116.677 23.834C117.283 24.4127 117.587 25.1547 117.587 26.06C117.587 26.956 117.283 27.7027 116.677 28.3C116.079 28.888 115.333 29.182 114.437 29.182C113.541 29.182 112.789 28.888 112.183 28.3C111.585 27.7027 111.287 26.956 111.287 26.06C111.287 25.1547 111.585 24.4127 112.183 23.834ZM113.163 27.446C113.48 27.782 113.905 27.95 114.437 27.95C114.969 27.95 115.393 27.782 115.711 27.446C116.028 27.1007 116.187 26.6433 116.187 26.074C116.187 25.4487 116.014 24.9773 115.669 24.66C115.333 24.3427 114.922 24.184 114.437 24.184C113.951 24.184 113.536 24.3427 113.191 24.66C112.855 24.9773 112.687 25.4487 112.687 26.074C112.687 26.6433 112.845 27.1007 113.163 27.446ZM119.018 23.106H121.328C121.916 23.106 122.364 23.2227 122.672 23.456C123.036 23.7453 123.218 24.1233 123.218 24.59C123.218 25.122 122.985 25.5047 122.518 25.738C122.817 25.794 123.083 25.9247 123.316 26.13C123.624 26.41 123.778 26.788 123.778 27.264C123.778 27.8333 123.564 28.2813 123.134 28.608C122.78 28.8693 122.327 29 121.776 29H119.018V23.106ZM120.39 25.402H121.09C121.333 25.402 121.515 25.36 121.636 25.276C121.814 25.164 121.902 25.0053 121.902 24.8C121.902 24.604 121.823 24.45 121.664 24.338C121.552 24.2633 121.352 24.226 121.062 24.226H120.39V25.402ZM120.39 27.88H121.412C121.72 27.88 121.958 27.824 122.126 27.712C122.313 27.5907 122.406 27.418 122.406 27.194C122.406 26.9513 122.318 26.7787 122.14 26.676C121.982 26.5733 121.753 26.522 121.454 26.522H120.39V27.88ZM129.524 23.792V23.106H130.896V29H129.524V28.384C129.066 28.916 128.478 29.182 127.76 29.182C126.892 29.182 126.196 28.874 125.674 28.258C125.16 27.642 124.904 26.9047 124.904 26.046C124.904 25.1127 125.179 24.366 125.73 23.806C126.29 23.2367 126.971 22.952 127.774 22.952C128.511 22.952 129.094 23.232 129.524 23.792ZM127.942 24.184C127.456 24.184 127.06 24.366 126.752 24.73C126.453 25.094 126.304 25.542 126.304 26.074C126.304 26.5967 126.453 27.04 126.752 27.404C127.06 27.768 127.456 27.95 127.942 27.95C128.408 27.95 128.8 27.7867 129.118 27.46C129.444 27.1333 129.608 26.676 129.608 26.088C129.608 25.4813 129.444 25.0147 129.118 24.688C128.8 24.352 128.408 24.184 127.942 24.184ZM136.696 24.366H134.974V29H133.602V24.366H131.88V23.106H136.696V24.366ZM141.66 27.012L142.808 27.656C142.547 28.1227 142.215 28.482 141.814 28.734C141.357 29.0327 140.778 29.182 140.078 29.182C139.257 29.182 138.594 28.93 138.09 28.426C137.511 27.8473 137.222 27.096 137.222 26.172C137.222 25.2013 137.535 24.394 138.16 23.75C138.692 23.218 139.35 22.952 140.134 22.952C140.899 22.952 141.529 23.2087 142.024 23.722C142.575 24.2913 142.85 25.122 142.85 26.214V26.382H138.622C138.659 26.8767 138.827 27.2733 139.126 27.572C139.378 27.824 139.728 27.95 140.176 27.95C140.54 27.95 140.853 27.852 141.114 27.656C141.329 27.488 141.511 27.2733 141.66 27.012ZM138.72 25.262H141.45C141.394 24.9353 141.254 24.6693 141.03 24.464C140.787 24.24 140.479 24.128 140.106 24.128C139.714 24.128 139.392 24.254 139.14 24.506C138.935 24.6927 138.795 24.9447 138.72 25.262ZM149.128 23.106V29H147.756V24.366H146.02V26.704C146.02 27.432 145.833 27.9967 145.46 28.398C144.984 28.93 144.34 29.1307 143.528 29V27.74C143.929 27.8333 144.251 27.7447 144.494 27.474C144.634 27.306 144.704 27.0493 144.704 26.704V23.106H149.128ZM150.86 23.106H152.232V26.452L156.264 22.574V29H154.892V25.57L150.86 29.448V23.106Z" fill="black"/>
<rect x="40.5" y="264.5" width="209" height="47" rx="7.5" stroke="#6A8EE8"/>
<path d="M81.852 285.006H79.71V293H78.282V285.006H76.14V283.662H81.852V285.006ZM86.6077 287.792V287.106H87.9797V293H86.6077V292.384C86.1504 292.916 85.5624 293.182 84.8437 293.182C83.9757 293.182 83.2804 292.874 82.7577 292.258C82.2444 291.642 81.9877 290.905 81.9877 290.046C81.9877 289.113 82.2631 288.366 82.8137 287.806C83.3737 287.237 84.0551 286.952 84.8577 286.952C85.5951 286.952 86.1784 287.232 86.6077 287.792ZM85.0257 288.184C84.5404 288.184 84.1437 288.366 83.8357 288.73C83.5371 289.094 83.3877 289.542 83.3877 290.074C83.3877 290.597 83.5371 291.04 83.8357 291.404C84.1437 291.768 84.5404 291.95 85.0257 291.95C85.4924 291.95 85.8844 291.787 86.2017 291.46C86.5284 291.133 86.6917 290.676 86.6917 290.088C86.6917 289.481 86.5284 289.015 86.2017 288.688C85.8844 288.352 85.4924 288.184 85.0257 288.184ZM94.1716 283.06H95.5716C95.4689 283.545 95.2542 283.965 94.9276 284.32C94.6009 284.675 94.1996 284.917 93.7236 285.048L92.7996 285.3C92.5569 285.365 92.3702 285.421 92.2396 285.468C92.1089 285.515 91.9456 285.603 91.7496 285.734C91.5629 285.855 91.4042 286.005 91.2736 286.182C90.9656 286.593 90.8022 287.125 90.7836 287.778H90.7976C91.2082 287.227 91.8756 286.952 92.7996 286.952C93.6302 286.952 94.3162 287.232 94.8576 287.792C95.4269 288.38 95.7116 289.127 95.7116 290.032C95.7116 290.947 95.4082 291.703 94.8016 292.3C94.2042 292.888 93.4576 293.182 92.5616 293.182C91.6656 293.182 90.9469 292.921 90.4056 292.398C90.1069 292.118 89.8782 291.773 89.7196 291.362C89.5609 290.951 89.4676 290.615 89.4396 290.354C89.4209 290.083 89.4116 289.757 89.4116 289.374C89.4116 287.545 89.7102 286.196 90.3076 285.328C90.7556 284.665 91.3436 284.245 92.0716 284.068L93.0516 283.83C93.6956 283.671 94.0689 283.415 94.1716 283.06ZM91.2876 291.446C91.6049 291.782 92.0296 291.95 92.5616 291.95C93.0936 291.95 93.5182 291.782 93.8356 291.446C94.1529 291.101 94.3116 290.643 94.3116 290.074C94.3116 289.449 94.1389 288.977 93.7936 288.66C93.4576 288.343 93.0469 288.184 92.5616 288.184C92.0762 288.184 91.6609 288.343 91.3156 288.66C90.9796 288.977 90.8116 289.449 90.8116 290.074C90.8116 290.643 90.9702 291.101 91.2876 291.446ZM101.987 287.106V293H100.615V288.366H98.8794V290.704C98.8794 291.432 98.6927 291.997 98.3194 292.398C97.8434 292.93 97.1994 293.131 96.3874 293V291.74C96.7887 291.833 97.1107 291.745 97.3534 291.474C97.4934 291.306 97.5634 291.049 97.5634 290.704V287.106H101.987ZM103.72 287.106H105.092V290.452L109.124 286.574V293H107.752V289.57L103.72 293.448V287.106ZM110.856 293V287.106H112.228V291.74H114.552V287.106H115.924V291.74H116.904V294.68H115.644V293H110.856ZM122.196 287.792V287.106H123.568V293H122.196V292.384C121.738 292.916 121.15 293.182 120.432 293.182C119.564 293.182 118.868 292.874 118.346 292.258C117.832 291.642 117.576 290.905 117.576 290.046C117.576 289.113 117.851 288.366 118.402 287.806C118.962 287.237 119.643 286.952 120.446 286.952C121.183 286.952 121.766 287.232 122.196 287.792ZM120.614 288.184C120.128 288.184 119.732 288.366 119.424 288.73C119.125 289.094 118.976 289.542 118.976 290.074C118.976 290.597 119.125 291.04 119.424 291.404C119.732 291.768 120.128 291.95 120.614 291.95C121.08 291.95 121.472 291.787 121.79 291.46C122.116 291.133 122.28 290.676 122.28 290.088C122.28 289.481 122.116 289.015 121.79 288.688C121.472 288.352 121.08 288.184 120.614 288.184ZM128.575 287.106H133.699V293H132.327V288.366H129.947V293H128.575V287.106ZM136.026 287.834C136.633 287.246 137.384 286.952 138.28 286.952C139.176 286.952 139.923 287.246 140.52 287.834C141.127 288.413 141.43 289.155 141.43 290.06C141.43 290.956 141.127 291.703 140.52 292.3C139.923 292.888 139.176 293.182 138.28 293.182C137.384 293.182 136.633 292.888 136.026 292.3C135.429 291.703 135.13 290.956 135.13 290.06C135.13 289.155 135.429 288.413 136.026 287.834ZM137.006 291.446C137.324 291.782 137.748 291.95 138.28 291.95C138.812 291.95 139.237 291.782 139.554 291.446C139.872 291.101 140.03 290.643 140.03 290.074C140.03 289.449 139.858 288.977 139.512 288.66C139.176 288.343 138.766 288.184 138.28 288.184C137.795 288.184 137.38 288.343 137.034 288.66C136.698 288.977 136.53 289.449 136.53 290.074C136.53 290.643 136.689 291.101 137.006 291.446ZM147.706 287.106V293H146.334V288.366H144.598V290.704C144.598 291.432 144.411 291.997 144.038 292.398C143.562 292.93 142.918 293.131 142.106 293V291.74C142.507 291.833 142.829 291.745 143.072 291.474C143.212 291.306 143.282 291.049 143.282 290.704V287.106H147.706ZM149.438 293V287.106H150.81V289.192H151.594C151.846 289.192 152.052 289.201 152.21 289.22C152.369 289.229 152.56 289.281 152.784 289.374C153.008 289.467 153.204 289.607 153.372 289.794C153.68 290.139 153.834 290.569 153.834 291.082C153.834 291.67 153.657 292.141 153.302 292.496C153.144 292.655 152.952 292.776 152.728 292.86C152.514 292.935 152.332 292.977 152.182 292.986C152.042 292.995 151.842 293 151.58 293H149.438ZM150.81 291.824H151.44C151.776 291.824 152.014 291.782 152.154 291.698C152.36 291.549 152.462 291.348 152.462 291.096C152.462 290.835 152.364 290.639 152.168 290.508C152.019 290.415 151.781 290.368 151.454 290.368H150.81V291.824ZM155.691 288.632L154.809 287.862C155.033 287.591 155.332 287.372 155.705 287.204C156.097 287.036 156.559 286.952 157.091 286.952C157.707 286.952 158.207 287.087 158.589 287.358C159 287.657 159.205 288.058 159.205 288.562C159.205 288.889 159.121 289.159 158.953 289.374C158.813 289.561 158.627 289.701 158.393 289.794C158.748 289.869 159.033 290.013 159.247 290.228C159.499 290.48 159.625 290.807 159.625 291.208C159.625 291.74 159.457 292.174 159.121 292.51C158.673 292.958 157.983 293.182 157.049 293.182C156.424 293.182 155.911 293.065 155.509 292.832C155.089 292.589 154.781 292.239 154.585 291.782L155.677 291.222C155.808 291.502 155.981 291.707 156.195 291.838C156.429 291.987 156.723 292.062 157.077 292.062C157.507 292.062 157.819 291.964 158.015 291.768C158.155 291.609 158.225 291.437 158.225 291.25C158.225 291.054 158.165 290.895 158.043 290.774C157.885 290.606 157.558 290.522 157.063 290.522H156.447V289.402H156.965C157.264 289.402 157.488 289.351 157.637 289.248C157.805 289.117 157.889 288.945 157.889 288.73C157.889 288.506 157.805 288.338 157.637 288.226C157.497 288.123 157.278 288.072 156.979 288.072C156.699 288.072 156.443 288.128 156.209 288.24C156.013 288.333 155.841 288.464 155.691 288.632ZM161.647 287.834C162.254 287.246 163.005 286.952 163.901 286.952C164.797 286.952 165.544 287.246 166.141 287.834C166.748 288.413 167.051 289.155 167.051 290.06C167.051 290.956 166.748 291.703 166.141 292.3C165.544 292.888 164.797 293.182 163.901 293.182C163.005 293.182 162.254 292.888 161.647 292.3C161.05 291.703 160.751 290.956 160.751 290.06C160.751 289.155 161.05 288.413 161.647 287.834ZM162.627 291.446C162.945 291.782 163.369 291.95 163.901 291.95C164.433 291.95 164.858 291.782 165.175 291.446C165.493 291.101 165.651 290.643 165.651 290.074C165.651 289.449 165.479 288.977 165.133 288.66C164.797 288.343 164.387 288.184 163.901 288.184C163.416 288.184 163.001 288.343 162.655 288.66C162.319 288.977 162.151 289.449 162.151 290.074C162.151 290.643 162.31 291.101 162.627 291.446ZM168.483 287.106H170.793C171.381 287.106 171.829 287.223 172.137 287.456C172.501 287.745 172.683 288.123 172.683 288.59C172.683 289.122 172.45 289.505 171.983 289.738C172.282 289.794 172.548 289.925 172.781 290.13C173.089 290.41 173.243 290.788 173.243 291.264C173.243 291.833 173.029 292.281 172.599 292.608C172.245 292.869 171.792 293 171.241 293H168.483V287.106ZM169.855 289.402H170.555C170.798 289.402 170.98 289.36 171.101 289.276C171.279 289.164 171.367 289.005 171.367 288.8C171.367 288.604 171.288 288.45 171.129 288.338C171.017 288.263 170.817 288.226 170.527 288.226H169.855V289.402ZM169.855 291.88H170.877C171.185 291.88 171.423 291.824 171.591 291.712C171.778 291.591 171.871 291.418 171.871 291.194C171.871 290.951 171.783 290.779 171.605 290.676C171.447 290.573 171.218 290.522 170.919 290.522H169.855V291.88ZM178.989 287.792V287.106H180.361V293H178.989V292.384C178.531 292.916 177.943 293.182 177.225 293.182C176.357 293.182 175.661 292.874 175.139 292.258C174.625 291.642 174.369 290.905 174.369 290.046C174.369 289.113 174.644 288.366 175.195 287.806C175.755 287.237 176.436 286.952 177.239 286.952C177.976 286.952 178.559 287.232 178.989 287.792ZM177.407 288.184C176.921 288.184 176.525 288.366 176.217 288.73C175.918 289.094 175.769 289.542 175.769 290.074C175.769 290.597 175.918 291.04 176.217 291.404C176.525 291.768 176.921 291.95 177.407 291.95C177.873 291.95 178.265 291.787 178.583 291.46C178.909 291.133 179.073 290.676 179.073 290.088C179.073 289.481 178.909 289.015 178.583 288.688C178.265 288.352 177.873 288.184 177.407 288.184ZM186.16 288.366H184.438V293H183.066V288.366H181.344V287.106H186.16V288.366ZM191.125 291.012L192.273 291.656C192.012 292.123 191.68 292.482 191.279 292.734C190.822 293.033 190.243 293.182 189.543 293.182C188.722 293.182 188.059 292.93 187.555 292.426C186.976 291.847 186.687 291.096 186.687 290.172C186.687 289.201 187 288.394 187.625 287.75C188.157 287.218 188.815 286.952 189.599 286.952C190.364 286.952 190.994 287.209 191.489 287.722C192.04 288.291 192.315 289.122 192.315 290.214V290.382H188.087C188.124 290.877 188.292 291.273 188.591 291.572C188.843 291.824 189.193 291.95 189.641 291.95C190.005 291.95 190.318 291.852 190.579 291.656C190.794 291.488 190.976 291.273 191.125 291.012ZM188.185 289.262H190.915C190.859 288.935 190.719 288.669 190.495 288.464C190.252 288.24 189.944 288.128 189.571 288.128C189.179 288.128 188.857 288.254 188.605 288.506C188.4 288.693 188.26 288.945 188.185 289.262ZM198.593 287.106V293H197.221V288.366H195.485V290.704C195.485 291.432 195.298 291.997 194.925 292.398C194.449 292.93 193.805 293.131 192.993 293V291.74C193.394 291.833 193.716 291.745 193.959 291.474C194.099 291.306 194.169 291.049 194.169 290.704V287.106H198.593ZM204.455 291.012L205.603 291.656C205.342 292.123 205.01 292.482 204.609 292.734C204.152 293.033 203.573 293.182 202.873 293.182C202.052 293.182 201.389 292.93 200.885 292.426C200.306 291.847 200.017 291.096 200.017 290.172C200.017 289.201 200.33 288.394 200.955 287.75C201.487 287.218 202.145 286.952 202.929 286.952C203.694 286.952 204.324 287.209 204.819 287.722C205.37 288.291 205.645 289.122 205.645 290.214V290.382H201.417C201.454 290.877 201.622 291.273 201.921 291.572C202.173 291.824 202.523 291.95 202.971 291.95C203.335 291.95 203.648 291.852 203.909 291.656C204.124 291.488 204.306 291.273 204.455 291.012ZM201.515 289.262H204.245C204.189 288.935 204.049 288.669 203.825 288.464C203.582 288.24 203.274 288.128 202.901 288.128C202.509 288.128 202.187 288.254 201.935 288.506C201.73 288.693 201.59 288.945 201.515 289.262ZM207.079 287.106H208.451V290.452L212.483 286.574V293H211.111V289.57L207.079 293.448V287.106ZM207.527 284.558L208.647 284.236C208.824 284.843 209.207 285.146 209.795 285.146C210.374 285.146 210.756 284.843 210.943 284.236L212.063 284.558C211.914 285.09 211.61 285.501 211.153 285.79C210.705 286.07 210.252 286.21 209.795 286.21C209.338 286.21 208.88 286.07 208.423 285.79C207.975 285.501 207.676 285.09 207.527 284.558Z" fill="black"/>
<rect x="40.5" y="528.5" width="251" height="47" rx="7.5" stroke="#6A8EE8"/>
<path d="M81.068 557V555.684H80.816C79.4347 555.684 78.3987 555.348 77.708 554.676C77.0173 553.995 76.672 553.117 76.672 552.044C76.672 550.971 77.0173 550.098 77.708 549.426C78.3987 548.745 79.4347 548.404 80.816 548.404H81.068V547.284H82.496V548.404H82.748C84.1293 548.404 85.1653 548.745 85.856 549.426C86.5467 550.098 86.892 550.971 86.892 552.044C86.892 553.117 86.5467 553.995 85.856 554.676C85.1653 555.348 84.1293 555.684 82.748 555.684H82.496V557H81.068ZM81.068 554.368V549.72H80.788C79.892 549.72 79.22 549.935 78.772 550.364C78.324 550.784 78.1 551.344 78.1 552.044C78.1 552.744 78.324 553.309 78.772 553.738C79.22 554.158 79.892 554.368 80.788 554.368H81.068ZM82.496 549.72V554.368H82.776C83.672 554.368 84.344 554.158 84.792 553.738C85.24 553.309 85.464 552.744 85.464 552.044C85.464 551.344 85.24 550.784 84.792 550.364C84.344 549.935 83.672 549.72 82.776 549.72H82.496ZM89.0224 551.834C89.6291 551.246 90.3804 550.952 91.2764 550.952C92.1724 550.952 92.9191 551.246 93.5164 551.834C94.1231 552.413 94.4264 553.155 94.4264 554.06C94.4264 554.956 94.1231 555.703 93.5164 556.3C92.9191 556.888 92.1724 557.182 91.2764 557.182C90.3804 557.182 89.6291 556.888 89.0224 556.3C88.4251 555.703 88.1264 554.956 88.1264 554.06C88.1264 553.155 88.4251 552.413 89.0224 551.834ZM90.0024 555.446C90.3197 555.782 90.7444 555.95 91.2764 555.95C91.8084 555.95 92.2331 555.782 92.5504 555.446C92.8677 555.101 93.0264 554.643 93.0264 554.074C93.0264 553.449 92.8537 552.977 92.5084 552.66C92.1724 552.343 91.7617 552.184 91.2764 552.184C90.7911 552.184 90.3757 552.343 90.0304 552.66C89.6944 552.977 89.5264 553.449 89.5264 554.074C89.5264 554.643 89.6851 555.101 90.0024 555.446ZM97.2302 556.314V560.206H95.8582V551.106H97.2302V551.75C97.6782 551.218 98.2616 550.952 98.9802 550.952C99.7829 550.952 100.46 551.237 101.01 551.806C101.57 552.366 101.85 553.103 101.85 554.018C101.85 554.961 101.561 555.726 100.982 556.314C100.404 556.893 99.7409 557.182 98.9942 557.182C98.2942 557.182 97.7062 556.893 97.2302 556.314ZM98.8122 552.184C98.3456 552.184 97.9489 552.352 97.6222 552.688C97.3049 553.015 97.1462 553.481 97.1462 554.088C97.1462 554.676 97.3049 555.133 97.6222 555.46C97.9489 555.787 98.3456 555.95 98.8122 555.95C99.2976 555.95 99.6896 555.768 99.9882 555.404C100.296 555.04 100.45 554.597 100.45 554.074C100.45 553.542 100.296 553.094 99.9882 552.73C99.6896 552.366 99.2976 552.184 98.8122 552.184ZM102.61 557L104.038 550.574L106.474 555.068L108.91 550.574L110.338 557H108.938L108.35 554.046L106.474 557.448L104.598 554.046L104.01 557H102.61ZM115.715 551.792V551.106H117.087V557H115.715V556.384C115.258 556.916 114.67 557.182 113.951 557.182C113.083 557.182 112.388 556.874 111.865 556.258C111.352 555.642 111.095 554.905 111.095 554.046C111.095 553.113 111.37 552.366 111.921 551.806C112.481 551.237 113.162 550.952 113.965 550.952C114.702 550.952 115.286 551.232 115.715 551.792ZM114.133 552.184C113.648 552.184 113.251 552.366 112.943 552.73C112.644 553.094 112.495 553.542 112.495 554.074C112.495 554.597 112.644 555.04 112.943 555.404C113.251 555.768 113.648 555.95 114.133 555.95C114.6 555.95 114.992 555.787 115.309 555.46C115.636 555.133 115.799 554.676 115.799 554.088C115.799 553.481 115.636 553.015 115.309 552.688C114.992 552.352 114.6 552.184 114.133 552.184ZM126.659 551.372V552.912C126.164 552.427 125.609 552.184 124.993 552.184C124.47 552.184 124.036 552.357 123.691 552.702C123.355 553.038 123.187 553.491 123.187 554.06C123.187 554.648 123.364 555.119 123.719 555.474C124.055 555.791 124.47 555.95 124.965 555.95C125.646 555.95 126.211 555.698 126.659 555.194V556.72C126.164 557.028 125.567 557.182 124.867 557.182C123.924 557.182 123.177 556.893 122.627 556.314C122.067 555.735 121.787 554.998 121.787 554.102C121.787 553.178 122.085 552.417 122.683 551.82C123.261 551.241 124.05 550.952 125.049 550.952C125.618 550.952 126.155 551.092 126.659 551.372ZM128.561 551.834C129.168 551.246 129.919 550.952 130.815 550.952C131.711 550.952 132.458 551.246 133.055 551.834C133.662 552.413 133.965 553.155 133.965 554.06C133.965 554.956 133.662 555.703 133.055 556.3C132.458 556.888 131.711 557.182 130.815 557.182C129.919 557.182 129.168 556.888 128.561 556.3C127.964 555.703 127.665 554.956 127.665 554.06C127.665 553.155 127.964 552.413 128.561 551.834ZM129.541 555.446C129.859 555.782 130.283 555.95 130.815 555.95C131.347 555.95 131.772 555.782 132.089 555.446C132.407 555.101 132.565 554.643 132.565 554.074C132.565 553.449 132.393 552.977 132.047 552.66C131.711 552.343 131.301 552.184 130.815 552.184C130.33 552.184 129.915 552.343 129.569 552.66C129.233 552.977 129.065 553.449 129.065 554.074C129.065 554.643 129.224 555.101 129.541 555.446ZM135.895 552.632L135.013 551.862C135.237 551.591 135.535 551.372 135.909 551.204C136.301 551.036 136.763 550.952 137.295 550.952C137.911 550.952 138.41 551.087 138.793 551.358C139.203 551.657 139.409 552.058 139.409 552.562C139.409 552.889 139.325 553.159 139.157 553.374C139.017 553.561 138.83 553.701 138.597 553.794C138.951 553.869 139.236 554.013 139.451 554.228C139.703 554.48 139.829 554.807 139.829 555.208C139.829 555.74 139.661 556.174 139.325 556.51C138.877 556.958 138.186 557.182 137.253 557.182C136.627 557.182 136.114 557.065 135.713 556.832C135.293 556.589 134.985 556.239 134.789 555.782L135.881 555.222C136.011 555.502 136.184 555.707 136.399 555.838C136.632 555.987 136.926 556.062 137.281 556.062C137.71 556.062 138.023 555.964 138.219 555.768C138.359 555.609 138.429 555.437 138.429 555.25C138.429 555.054 138.368 554.895 138.247 554.774C138.088 554.606 137.761 554.522 137.267 554.522H136.651V553.402H137.169C137.467 553.402 137.691 553.351 137.841 553.248C138.009 553.117 138.093 552.945 138.093 552.73C138.093 552.506 138.009 552.338 137.841 552.226C137.701 552.123 137.481 552.072 137.183 552.072C136.903 552.072 136.646 552.128 136.413 552.24C136.217 552.333 136.044 552.464 135.895 552.632ZM141.767 551.106H146.191V555.74H147.087V558.68H145.827V557H141.711V558.68H140.451V555.74C140.927 555.712 141.286 555.455 141.529 554.97C141.687 554.625 141.767 554.107 141.767 553.416V551.106ZM144.819 555.74V552.366H143.083V553.934C143.083 554.783 142.854 555.385 142.397 555.74H144.819ZM152.383 551.792V551.106H153.755V557H152.383V556.384C151.926 556.916 151.338 557.182 150.619 557.182C149.751 557.182 149.056 556.874 148.533 556.258C148.02 555.642 147.763 554.905 147.763 554.046C147.763 553.113 148.038 552.366 148.589 551.806C149.149 551.237 149.83 550.952 150.633 550.952C151.37 550.952 151.954 551.232 152.383 551.792ZM150.801 552.184C150.316 552.184 149.919 552.366 149.611 552.73C149.312 553.094 149.163 553.542 149.163 554.074C149.163 554.597 149.312 555.04 149.611 555.404C149.919 555.768 150.316 555.95 150.801 555.95C151.268 555.95 151.66 555.787 151.977 555.46C152.304 555.133 152.467 554.676 152.467 554.088C152.467 553.481 152.304 553.015 151.977 552.688C151.66 552.352 151.268 552.184 150.801 552.184ZM155.495 557V551.106H156.867V553.29H159.303V551.106H160.675V557H159.303V554.55H156.867V557H155.495ZM162.413 551.106H163.785V554.452L167.817 550.574V557H166.445V553.57L162.413 557.448V551.106ZM168.794 557L170.642 554.662C170.278 554.606 169.965 554.457 169.704 554.214C169.377 553.897 169.214 553.491 169.214 552.996C169.214 552.436 169.396 551.983 169.76 551.638C170.133 551.283 170.702 551.106 171.468 551.106H173.666V557H172.294V554.83H172.014L170.404 557H168.794ZM172.294 553.71V552.282H171.496C171.169 552.282 170.931 552.324 170.782 552.408C170.558 552.548 170.446 552.744 170.446 552.996C170.446 553.248 170.539 553.439 170.726 553.57C170.866 553.663 171.118 553.71 171.482 553.71H172.294ZM178.669 551.106H183.793V557H182.421V552.366H180.041V557H178.669V551.106ZM186.12 551.834C186.727 551.246 187.478 550.952 188.374 550.952C189.27 550.952 190.017 551.246 190.614 551.834C191.221 552.413 191.524 553.155 191.524 554.06C191.524 554.956 191.221 555.703 190.614 556.3C190.017 556.888 189.27 557.182 188.374 557.182C187.478 557.182 186.727 556.888 186.12 556.3C185.523 555.703 185.224 554.956 185.224 554.06C185.224 553.155 185.523 552.413 186.12 551.834ZM187.1 555.446C187.417 555.782 187.842 555.95 188.374 555.95C188.906 555.95 189.331 555.782 189.648 555.446C189.965 555.101 190.124 554.643 190.124 554.074C190.124 553.449 189.951 552.977 189.606 552.66C189.27 552.343 188.859 552.184 188.374 552.184C187.889 552.184 187.473 552.343 187.128 552.66C186.792 552.977 186.624 553.449 186.624 554.074C186.624 554.643 186.783 555.101 187.1 555.446ZM197.8 551.106V557H196.428V552.366H194.692V554.704C194.692 555.432 194.505 555.997 194.132 556.398C193.656 556.93 193.012 557.131 192.2 557V555.74C192.601 555.833 192.923 555.745 193.166 555.474C193.306 555.306 193.376 555.049 193.376 554.704V551.106H197.8ZM199.532 557V551.106H200.904V553.192H201.688C201.94 553.192 202.145 553.201 202.304 553.22C202.463 553.229 202.654 553.281 202.878 553.374C203.102 553.467 203.298 553.607 203.466 553.794C203.774 554.139 203.928 554.569 203.928 555.082C203.928 555.67 203.751 556.141 203.396 556.496C203.237 556.655 203.046 556.776 202.822 556.86C202.607 556.935 202.425 556.977 202.276 556.986C202.136 556.995 201.935 557 201.674 557H199.532ZM200.904 555.824H201.534C201.87 555.824 202.108 555.782 202.248 555.698C202.453 555.549 202.556 555.348 202.556 555.096C202.556 554.835 202.458 554.639 202.262 554.508C202.113 554.415 201.875 554.368 201.548 554.368H200.904V555.824ZM205.785 552.632L204.903 551.862C205.127 551.591 205.426 551.372 205.799 551.204C206.191 551.036 206.653 550.952 207.185 550.952C207.801 550.952 208.3 551.087 208.683 551.358C209.094 551.657 209.299 552.058 209.299 552.562C209.299 552.889 209.215 553.159 209.047 553.374C208.907 553.561 208.72 553.701 208.487 553.794C208.842 553.869 209.126 554.013 209.341 554.228C209.593 554.48 209.719 554.807 209.719 555.208C209.719 555.74 209.551 556.174 209.215 556.51C208.767 556.958 208.076 557.182 207.143 557.182C206.518 557.182 206.004 557.065 205.603 556.832C205.183 556.589 204.875 556.239 204.679 555.782L205.771 555.222C205.902 555.502 206.074 555.707 206.289 555.838C206.522 555.987 206.816 556.062 207.171 556.062C207.6 556.062 207.913 555.964 208.109 555.768C208.249 555.609 208.319 555.437 208.319 555.25C208.319 555.054 208.258 554.895 208.137 554.774C207.978 554.606 207.652 554.522 207.157 554.522H206.541V553.402H207.059C207.358 553.402 207.582 553.351 207.731 553.248C207.899 553.117 207.983 552.945 207.983 552.73C207.983 552.506 207.899 552.338 207.731 552.226C207.591 552.123 207.372 552.072 207.073 552.072C206.793 552.072 206.536 552.128 206.303 552.24C206.107 552.333 205.934 552.464 205.785 552.632ZM211.741 551.834C212.348 551.246 213.099 550.952 213.995 550.952C214.891 550.952 215.638 551.246 216.235 551.834C216.842 552.413 217.145 553.155 217.145 554.06C217.145 554.956 216.842 555.703 216.235 556.3C215.638 556.888 214.891 557.182 213.995 557.182C213.099 557.182 212.348 556.888 211.741 556.3C211.144 555.703 210.845 554.956 210.845 554.06C210.845 553.155 211.144 552.413 211.741 551.834ZM212.721 555.446C213.038 555.782 213.463 555.95 213.995 555.95C214.527 555.95 214.952 555.782 215.269 555.446C215.586 555.101 215.745 554.643 215.745 554.074C215.745 553.449 215.572 552.977 215.227 552.66C214.891 552.343 214.48 552.184 213.995 552.184C213.51 552.184 213.094 552.343 212.749 552.66C212.413 552.977 212.245 553.449 212.245 554.074C212.245 554.643 212.404 555.101 212.721 555.446ZM218.577 551.106H220.887C221.475 551.106 221.923 551.223 222.231 551.456C222.595 551.745 222.777 552.123 222.777 552.59C222.777 553.122 222.544 553.505 222.077 553.738C222.376 553.794 222.642 553.925 222.875 554.13C223.183 554.41 223.337 554.788 223.337 555.264C223.337 555.833 223.122 556.281 222.693 556.608C222.338 556.869 221.886 557 221.335 557H218.577V551.106ZM219.949 553.402H220.649C220.892 553.402 221.074 553.36 221.195 553.276C221.372 553.164 221.461 553.005 221.461 552.8C221.461 552.604 221.382 552.45 221.223 552.338C221.111 552.263 220.91 552.226 220.621 552.226H219.949V553.402ZM219.949 555.88H220.971C221.279 555.88 221.517 555.824 221.685 555.712C221.872 555.591 221.965 555.418 221.965 555.194C221.965 554.951 221.876 554.779 221.699 554.676C221.54 554.573 221.312 554.522 221.013 554.522H219.949V555.88ZM229.082 551.792V551.106H230.454V557H229.082V556.384C228.625 556.916 228.037 557.182 227.318 557.182C226.45 557.182 225.755 556.874 225.232 556.258C224.719 555.642 224.462 554.905 224.462 554.046C224.462 553.113 224.738 552.366 225.288 551.806C225.848 551.237 226.53 550.952 227.332 550.952C228.07 550.952 228.653 551.232 229.082 551.792ZM227.5 552.184C227.015 552.184 226.618 552.366 226.31 552.73C226.012 553.094 225.862 553.542 225.862 554.074C225.862 554.597 226.012 555.04 226.31 555.404C226.618 555.768 227.015 555.95 227.5 555.95C227.967 555.95 228.359 555.787 228.676 555.46C229.003 555.133 229.166 554.676 229.166 554.088C229.166 553.481 229.003 553.015 228.676 552.688C228.359 552.352 227.967 552.184 227.5 552.184ZM236.254 552.366H234.532V557H233.16V552.366H231.438V551.106H236.254V552.366ZM241.219 555.012L242.367 555.656C242.105 556.123 241.774 556.482 241.373 556.734C240.915 557.033 240.337 557.182 239.637 557.182C238.815 557.182 238.153 556.93 237.649 556.426C237.07 555.847 236.781 555.096 236.781 554.172C236.781 553.201 237.093 552.394 237.719 551.75C238.251 551.218 238.909 550.952 239.693 550.952C240.458 550.952 241.088 551.209 241.583 551.722C242.133 552.291 242.409 553.122 242.409 554.214V554.382H238.181C238.218 554.877 238.386 555.273 238.685 555.572C238.937 555.824 239.287 555.95 239.735 555.95C240.099 555.95 240.411 555.852 240.673 555.656C240.887 555.488 241.069 555.273 241.219 555.012ZM238.279 553.262H241.009C240.953 552.935 240.813 552.669 240.589 552.464C240.346 552.24 240.038 552.128 239.665 552.128C239.273 552.128 238.951 552.254 238.699 552.506C238.493 552.693 238.353 552.945 238.279 553.262ZM248.687 551.106V557H247.315V552.366H245.579V554.704C245.579 555.432 245.392 555.997 245.019 556.398C244.543 556.93 243.899 557.131 243.087 557V555.74C243.488 555.833 243.81 555.745 244.053 555.474C244.193 555.306 244.263 555.049 244.263 554.704V551.106H248.687ZM249.663 557L251.511 554.662C251.147 554.606 250.834 554.457 250.573 554.214C250.246 553.897 250.083 553.491 250.083 552.996C250.083 552.436 250.265 551.983 250.629 551.638C251.002 551.283 251.571 551.106 252.337 551.106H254.535V557H253.163V554.83H252.883L251.273 557H249.663ZM253.163 553.71V552.282H252.365C252.038 552.282 251.8 552.324 251.651 552.408C251.427 552.548 251.315 552.744 251.315 552.996C251.315 553.248 251.408 553.439 251.595 553.57C251.735 553.663 251.987 553.71 252.351 553.71H253.163Z" fill="black"/>
<rect x="40.5" y="616.5" width="270" height="47" rx="7.5" stroke="#6A8EE8"/>
<path d="M81.068 645V643.684H80.816C79.4347 643.684 78.3987 643.348 77.708 642.676C77.0173 641.995 76.672 641.117 76.672 640.044C76.672 638.971 77.0173 638.098 77.708 637.426C78.3987 636.745 79.4347 636.404 80.816 636.404H81.068V635.284H82.496V636.404H82.748C84.1293 636.404 85.1653 636.745 85.856 637.426C86.5467 638.098 86.892 638.971 86.892 640.044C86.892 641.117 86.5467 641.995 85.856 642.676C85.1653 643.348 84.1293 643.684 82.748 643.684H82.496V645H81.068ZM81.068 642.368V637.72H80.788C79.892 637.72 79.22 637.935 78.772 638.364C78.324 638.784 78.1 639.344 78.1 640.044C78.1 640.744 78.324 641.309 78.772 641.738C79.22 642.158 79.892 642.368 80.788 642.368H81.068ZM82.496 637.72V642.368H82.776C83.672 642.368 84.344 642.158 84.792 641.738C85.24 641.309 85.464 640.744 85.464 640.044C85.464 639.344 85.24 638.784 84.792 638.364C84.344 637.935 83.672 637.72 82.776 637.72H82.496ZM89.0224 639.834C89.6291 639.246 90.3804 638.952 91.2764 638.952C92.1724 638.952 92.9191 639.246 93.5164 639.834C94.1231 640.413 94.4264 641.155 94.4264 642.06C94.4264 642.956 94.1231 643.703 93.5164 644.3C92.9191 644.888 92.1724 645.182 91.2764 645.182C90.3804 645.182 89.6291 644.888 89.0224 644.3C88.4251 643.703 88.1264 642.956 88.1264 642.06C88.1264 641.155 88.4251 640.413 89.0224 639.834ZM90.0024 643.446C90.3197 643.782 90.7444 643.95 91.2764 643.95C91.8084 643.95 92.2331 643.782 92.5504 643.446C92.8677 643.101 93.0264 642.643 93.0264 642.074C93.0264 641.449 92.8537 640.977 92.5084 640.66C92.1724 640.343 91.7617 640.184 91.2764 640.184C90.7911 640.184 90.3757 640.343 90.0304 640.66C89.6944 640.977 89.5264 641.449 89.5264 642.074C89.5264 642.643 89.6851 643.101 90.0024 643.446ZM97.2302 644.314V648.206H95.8582V639.106H97.2302V639.75C97.6782 639.218 98.2616 638.952 98.9802 638.952C99.7829 638.952 100.46 639.237 101.01 639.806C101.57 640.366 101.85 641.103 101.85 642.018C101.85 642.961 101.561 643.726 100.982 644.314C100.404 644.893 99.7409 645.182 98.9942 645.182C98.2942 645.182 97.7062 644.893 97.2302 644.314ZM98.8122 640.184C98.3456 640.184 97.9489 640.352 97.6222 640.688C97.3049 641.015 97.1462 641.481 97.1462 642.088C97.1462 642.676 97.3049 643.133 97.6222 643.46C97.9489 643.787 98.3456 643.95 98.8122 643.95C99.2976 643.95 99.6896 643.768 99.9882 643.404C100.296 643.04 100.45 642.597 100.45 642.074C100.45 641.542 100.296 641.094 99.9882 640.73C99.6896 640.366 99.2976 640.184 98.8122 640.184ZM102.61 645L104.038 638.574L106.474 643.068L108.91 638.574L110.338 645H108.938L108.35 642.046L106.474 645.448L104.598 642.046L104.01 645H102.61ZM115.715 639.792V639.106H117.087V645H115.715V644.384C115.258 644.916 114.67 645.182 113.951 645.182C113.083 645.182 112.388 644.874 111.865 644.258C111.352 643.642 111.095 642.905 111.095 642.046C111.095 641.113 111.37 640.366 111.921 639.806C112.481 639.237 113.162 638.952 113.965 638.952C114.702 638.952 115.286 639.232 115.715 639.792ZM114.133 640.184C113.648 640.184 113.251 640.366 112.943 640.73C112.644 641.094 112.495 641.542 112.495 642.074C112.495 642.597 112.644 643.04 112.943 643.404C113.251 643.768 113.648 643.95 114.133 643.95C114.6 643.95 114.992 643.787 115.309 643.46C115.636 643.133 115.799 642.676 115.799 642.088C115.799 641.481 115.636 641.015 115.309 640.688C114.992 640.352 114.6 640.184 114.133 640.184ZM126.659 639.372V640.912C126.164 640.427 125.609 640.184 124.993 640.184C124.47 640.184 124.036 640.357 123.691 640.702C123.355 641.038 123.187 641.491 123.187 642.06C123.187 642.648 123.364 643.119 123.719 643.474C124.055 643.791 124.47 643.95 124.965 643.95C125.646 643.95 126.211 643.698 126.659 643.194V644.72C126.164 645.028 125.567 645.182 124.867 645.182C123.924 645.182 123.177 644.893 122.627 644.314C122.067 643.735 121.787 642.998 121.787 642.102C121.787 641.178 122.085 640.417 122.683 639.82C123.261 639.241 124.05 638.952 125.049 638.952C125.618 638.952 126.155 639.092 126.659 639.372ZM128.561 639.834C129.168 639.246 129.919 638.952 130.815 638.952C131.711 638.952 132.458 639.246 133.055 639.834C133.662 640.413 133.965 641.155 133.965 642.06C133.965 642.956 133.662 643.703 133.055 644.3C132.458 644.888 131.711 645.182 130.815 645.182C129.919 645.182 129.168 644.888 128.561 644.3C127.964 643.703 127.665 642.956 127.665 642.06C127.665 641.155 127.964 640.413 128.561 639.834ZM129.541 643.446C129.859 643.782 130.283 643.95 130.815 643.95C131.347 643.95 131.772 643.782 132.089 643.446C132.407 643.101 132.565 642.643 132.565 642.074C132.565 641.449 132.393 640.977 132.047 640.66C131.711 640.343 131.301 640.184 130.815 640.184C130.33 640.184 129.915 640.343 129.569 640.66C129.233 640.977 129.065 641.449 129.065 642.074C129.065 642.643 129.224 643.101 129.541 643.446ZM135.895 640.632L135.013 639.862C135.237 639.591 135.535 639.372 135.909 639.204C136.301 639.036 136.763 638.952 137.295 638.952C137.911 638.952 138.41 639.087 138.793 639.358C139.203 639.657 139.409 640.058 139.409 640.562C139.409 640.889 139.325 641.159 139.157 641.374C139.017 641.561 138.83 641.701 138.597 641.794C138.951 641.869 139.236 642.013 139.451 642.228C139.703 642.48 139.829 642.807 139.829 643.208C139.829 643.74 139.661 644.174 139.325 644.51C138.877 644.958 138.186 645.182 137.253 645.182C136.627 645.182 136.114 645.065 135.713 644.832C135.293 644.589 134.985 644.239 134.789 643.782L135.881 643.222C136.011 643.502 136.184 643.707 136.399 643.838C136.632 643.987 136.926 644.062 137.281 644.062C137.71 644.062 138.023 643.964 138.219 643.768C138.359 643.609 138.429 643.437 138.429 643.25C138.429 643.054 138.368 642.895 138.247 642.774C138.088 642.606 137.761 642.522 137.267 642.522H136.651V641.402H137.169C137.467 641.402 137.691 641.351 137.841 641.248C138.009 641.117 138.093 640.945 138.093 640.73C138.093 640.506 138.009 640.338 137.841 640.226C137.701 640.123 137.481 640.072 137.183 640.072C136.903 640.072 136.646 640.128 136.413 640.24C136.217 640.333 136.044 640.464 135.895 640.632ZM141.767 639.106H146.191V643.74H147.087V646.68H145.827V645H141.711V646.68H140.451V643.74C140.927 643.712 141.286 643.455 141.529 642.97C141.687 642.625 141.767 642.107 141.767 641.416V639.106ZM144.819 643.74V640.366H143.083V641.934C143.083 642.783 142.854 643.385 142.397 643.74H144.819ZM152.383 639.792V639.106H153.755V645H152.383V644.384C151.926 644.916 151.338 645.182 150.619 645.182C149.751 645.182 149.056 644.874 148.533 644.258C148.02 643.642 147.763 642.905 147.763 642.046C147.763 641.113 148.038 640.366 148.589 639.806C149.149 639.237 149.83 638.952 150.633 638.952C151.37 638.952 151.954 639.232 152.383 639.792ZM150.801 640.184C150.316 640.184 149.919 640.366 149.611 640.73C149.312 641.094 149.163 641.542 149.163 642.074C149.163 642.597 149.312 643.04 149.611 643.404C149.919 643.768 150.316 643.95 150.801 643.95C151.268 643.95 151.66 643.787 151.977 643.46C152.304 643.133 152.467 642.676 152.467 642.088C152.467 641.481 152.304 641.015 151.977 640.688C151.66 640.352 151.268 640.184 150.801 640.184ZM155.495 645V639.106H156.867V641.29H159.303V639.106H160.675V645H159.303V642.55H156.867V645H155.495ZM162.413 639.106H163.785V642.452L167.817 638.574V645H166.445V641.57L162.413 645.448V639.106ZM168.794 645L170.642 642.662C170.278 642.606 169.965 642.457 169.704 642.214C169.377 641.897 169.214 641.491 169.214 640.996C169.214 640.436 169.396 639.983 169.76 639.638C170.133 639.283 170.702 639.106 171.468 639.106H173.666V645H172.294V642.83H172.014L170.404 645H168.794ZM172.294 641.71V640.282H171.496C171.169 640.282 170.931 640.324 170.782 640.408C170.558 640.548 170.446 640.744 170.446 640.996C170.446 641.248 170.539 641.439 170.726 641.57C170.866 641.663 171.118 641.71 171.482 641.71H172.294ZM182.981 639.792V639.106H184.353V645H182.981V644.384C182.523 644.916 181.935 645.182 181.217 645.182C180.349 645.182 179.653 644.874 179.131 644.258C178.617 643.642 178.361 642.905 178.361 642.046C178.361 641.113 178.636 640.366 179.187 639.806C179.747 639.237 180.428 638.952 181.231 638.952C181.968 638.952 182.551 639.232 182.981 639.792ZM181.399 640.184C180.913 640.184 180.517 640.366 180.209 640.73C179.91 641.094 179.761 641.542 179.761 642.074C179.761 642.597 179.91 643.04 180.209 643.404C180.517 643.768 180.913 643.95 181.399 643.95C181.865 643.95 182.257 643.787 182.575 643.46C182.901 643.133 183.065 642.676 183.065 642.088C183.065 641.481 182.901 641.015 182.575 640.688C182.257 640.352 181.865 640.184 181.399 640.184ZM186.597 639.106H191.021V643.74H191.917V646.68H190.657V645H186.541V646.68H185.281V643.74C185.757 643.712 186.116 643.455 186.359 642.97C186.517 642.625 186.597 642.107 186.597 641.416V639.106ZM189.649 643.74V640.366H187.913V641.934C187.913 642.783 187.684 643.385 187.227 643.74H189.649ZM192.366 645L193.794 638.574L196.23 643.068L198.666 638.574L200.094 645H198.694L198.106 642.046L196.23 645.448L194.354 642.046L193.766 645H192.366ZM201.159 639.106H202.531V642.452L206.563 638.574V645H205.191V641.57L201.159 645.448V639.106ZM208.296 645V639.106H209.668V641.29H212.104V639.106H213.476V645H212.104V642.55H209.668V645H208.296ZM215.214 639.106H216.586V642.452L220.618 638.574V645H219.246V641.57L215.214 645.448V639.106ZM226.914 639.372V640.912C226.42 640.427 225.864 640.184 225.248 640.184C224.726 640.184 224.292 640.357 223.946 640.702C223.61 641.038 223.442 641.491 223.442 642.06C223.442 642.648 223.62 643.119 223.974 643.474C224.31 643.791 224.726 643.95 225.22 643.95C225.902 643.95 226.466 643.698 226.914 643.194V644.72C226.42 645.028 225.822 645.182 225.122 645.182C224.18 645.182 223.433 644.893 222.882 644.314C222.322 643.735 222.042 642.998 222.042 642.102C222.042 641.178 222.341 640.417 222.938 639.82C223.517 639.241 224.306 638.952 225.304 638.952C225.874 638.952 226.41 639.092 226.914 639.372ZM232.426 640.366H230.704V645H229.332V640.366H227.61V639.106H232.426V640.366ZM234.783 644.314V648.206H233.411V639.106H234.783V639.75C235.231 639.218 235.814 638.952 236.533 638.952C237.336 638.952 238.012 639.237 238.563 639.806C239.123 640.366 239.403 641.103 239.403 642.018C239.403 642.961 239.114 643.726 238.535 644.314C237.956 644.893 237.294 645.182 236.547 645.182C235.847 645.182 235.259 644.893 234.783 644.314ZM236.365 640.184C235.898 640.184 235.502 640.352 235.175 640.688C234.858 641.015 234.699 641.481 234.699 642.088C234.699 642.676 234.858 643.133 235.175 643.46C235.502 643.787 235.898 643.95 236.365 643.95C236.85 643.95 237.242 643.768 237.541 643.404C237.849 643.04 238.003 642.597 238.003 642.074C238.003 641.542 237.849 641.094 237.541 640.73C237.242 640.366 236.85 640.184 236.365 640.184ZM245.147 639.792V639.106H246.519V645H245.147V644.384C244.689 644.916 244.101 645.182 243.383 645.182C242.515 645.182 241.819 644.874 241.297 644.258C240.783 643.642 240.527 642.905 240.527 642.046C240.527 641.113 240.802 640.366 241.353 639.806C241.913 639.237 242.594 638.952 243.397 638.952C244.134 638.952 244.717 639.232 245.147 639.792ZM243.565 640.184C243.079 640.184 242.683 640.366 242.375 640.73C242.076 641.094 241.927 641.542 241.927 642.074C241.927 642.597 242.076 643.04 242.375 643.404C242.683 643.768 243.079 643.95 243.565 643.95C244.031 643.95 244.423 643.787 244.741 643.46C245.067 643.133 245.231 642.676 245.231 642.088C245.231 641.481 245.067 641.015 244.741 640.688C244.423 640.352 244.031 640.184 243.565 640.184ZM252.319 640.366H250.597V645H249.225V640.366H247.503V639.106H252.319V640.366ZM253.741 639.834C254.348 639.246 255.099 638.952 255.995 638.952C256.891 638.952 257.638 639.246 258.235 639.834C258.842 640.413 259.145 641.155 259.145 642.06C259.145 642.956 258.842 643.703 258.235 644.3C257.638 644.888 256.891 645.182 255.995 645.182C255.099 645.182 254.348 644.888 253.741 644.3C253.144 643.703 252.845 642.956 252.845 642.06C252.845 641.155 253.144 640.413 253.741 639.834ZM254.721 643.446C255.038 643.782 255.463 643.95 255.995 643.95C256.527 643.95 256.952 643.782 257.269 643.446C257.586 643.101 257.745 642.643 257.745 642.074C257.745 641.449 257.572 640.977 257.227 640.66C256.891 640.343 256.48 640.184 255.995 640.184C255.51 640.184 255.094 640.343 254.749 640.66C254.413 640.977 254.245 641.449 254.245 642.074C254.245 642.643 254.404 643.101 254.721 643.446ZM261.949 644.314V648.206H260.577V639.106H261.949V639.75C262.397 639.218 262.98 638.952 263.699 638.952C264.502 638.952 265.178 639.237 265.729 639.806C266.289 640.366 266.569 641.103 266.569 642.018C266.569 642.961 266.28 643.726 265.701 644.314C265.122 644.893 264.46 645.182 263.713 645.182C263.013 645.182 262.425 644.893 261.949 644.314ZM263.531 640.184C263.064 640.184 262.668 640.352 262.341 640.688C262.024 641.015 261.865 641.481 261.865 642.088C261.865 642.676 262.024 643.133 262.341 643.46C262.668 643.787 263.064 643.95 263.531 643.95C264.016 643.95 264.408 643.768 264.707 643.404C265.015 643.04 265.169 642.597 265.169 642.074C265.169 641.542 265.015 641.094 264.707 640.73C264.408 640.366 264.016 640.184 263.531 640.184ZM272.313 639.792V639.106H273.685V645H272.313V644.384C271.855 644.916 271.267 645.182 270.549 645.182C269.681 645.182 268.985 644.874 268.463 644.258C267.949 643.642 267.693 642.905 267.693 642.046C267.693 641.113 267.968 640.366 268.519 639.806C269.079 639.237 269.76 638.952 270.563 638.952C271.3 638.952 271.883 639.232 272.313 639.792ZM270.731 640.184C270.245 640.184 269.849 640.366 269.541 640.73C269.242 641.094 269.093 641.542 269.093 642.074C269.093 642.597 269.242 643.04 269.541 643.404C269.849 643.768 270.245 643.95 270.731 643.95C271.197 643.95 271.589 643.787 271.907 643.46C272.233 643.133 272.397 642.676 272.397 642.088C272.397 641.481 272.233 641.015 271.907 640.688C271.589 640.352 271.197 640.184 270.731 640.184Z" fill="black"/>
<rect x="40.5" y="440.5" width="226" height="47" rx="7.5" stroke="#6A8EE8"/>
<path d="M78.548 459.662V463.386L82.16 459.662H84.036L79.822 463.89L84.064 469H82.16L78.828 464.856L78.548 465.136V469H77.12V459.662H78.548ZM88.8089 463.792V463.106H90.1809V469H88.8089V468.384C88.3516 468.916 87.7636 469.182 87.0449 469.182C86.1769 469.182 85.4816 468.874 84.9589 468.258C84.4456 467.642 84.1889 466.905 84.1889 466.046C84.1889 465.113 84.4642 464.366 85.0149 463.806C85.5749 463.237 86.2562 462.952 87.0589 462.952C87.7962 462.952 88.3796 463.232 88.8089 463.792ZM87.2269 464.184C86.7416 464.184 86.3449 464.366 86.0369 464.73C85.7382 465.094 85.5889 465.542 85.5889 466.074C85.5889 466.597 85.7382 467.04 86.0369 467.404C86.3449 467.768 86.7416 467.95 87.2269 467.95C87.6936 467.95 88.0856 467.787 88.4029 467.46C88.7296 467.133 88.8929 466.676 88.8929 466.088C88.8929 465.481 88.7296 465.015 88.4029 464.688C88.0856 464.352 87.6936 464.184 87.2269 464.184ZM93.2927 468.314V472.206H91.9207V463.106H93.2927V463.75C93.7407 463.218 94.3241 462.952 95.0427 462.952C95.8454 462.952 96.5221 463.237 97.0727 463.806C97.6327 464.366 97.9127 465.103 97.9127 466.018C97.9127 466.961 97.6234 467.726 97.0447 468.314C96.4661 468.893 95.8034 469.182 95.0567 469.182C94.3567 469.182 93.7687 468.893 93.2927 468.314ZM94.8747 464.184C94.4081 464.184 94.0114 464.352 93.6847 464.688C93.3674 465.015 93.2087 465.481 93.2087 466.088C93.2087 466.676 93.3674 467.133 93.6847 467.46C94.0114 467.787 94.4081 467.95 94.8747 467.95C95.3601 467.95 95.7521 467.768 96.0507 467.404C96.3587 467.04 96.5127 466.597 96.5127 466.074C96.5127 465.542 96.3587 465.094 96.0507 464.73C95.7521 464.366 95.3601 464.184 94.8747 464.184ZM103.405 464.366H101.683V469H100.311V464.366H98.5886V463.106H103.405V464.366ZM104.827 463.834C105.434 463.246 106.185 462.952 107.081 462.952C107.977 462.952 108.724 463.246 109.321 463.834C109.928 464.413 110.231 465.155 110.231 466.06C110.231 466.956 109.928 467.703 109.321 468.3C108.724 468.888 107.977 469.182 107.081 469.182C106.185 469.182 105.434 468.888 104.827 468.3C104.23 467.703 103.931 466.956 103.931 466.06C103.931 465.155 104.23 464.413 104.827 463.834ZM105.807 467.446C106.124 467.782 106.549 467.95 107.081 467.95C107.613 467.95 108.038 467.782 108.355 467.446C108.672 467.101 108.831 466.643 108.831 466.074C108.831 465.449 108.658 464.977 108.313 464.66C107.977 464.343 107.566 464.184 107.081 464.184C106.596 464.184 106.18 464.343 105.835 464.66C105.499 464.977 105.331 465.449 105.331 466.074C105.331 466.643 105.49 467.101 105.807 467.446ZM114.855 469V466.718C114.435 466.802 114.034 466.844 113.651 466.844C112.979 466.844 112.461 466.699 112.097 466.41C111.714 466.102 111.523 465.631 111.523 464.996V463.106H112.895V464.716C112.895 465.117 113.012 465.388 113.245 465.528C113.404 465.621 113.632 465.668 113.931 465.668C114.267 465.668 114.575 465.617 114.855 465.514V463.106H116.227V469H114.855ZM117.966 463.106H119.338V465.206L121.298 463.106H123.118L120.542 465.682L123.258 469H121.522L119.562 466.578L119.338 466.802V469H117.966V463.106ZM128.471 463.792V463.106H129.843V469H128.471V468.384C128.014 468.916 127.426 469.182 126.707 469.182C125.839 469.182 125.144 468.874 124.621 468.258C124.108 467.642 123.851 466.905 123.851 466.046C123.851 465.113 124.126 464.366 124.677 463.806C125.237 463.237 125.918 462.952 126.721 462.952C127.458 462.952 128.042 463.232 128.471 463.792ZM126.889 464.184C126.404 464.184 126.007 464.366 125.699 464.73C125.4 465.094 125.251 465.542 125.251 466.074C125.251 466.597 125.4 467.04 125.699 467.404C126.007 467.768 126.404 467.95 126.889 467.95C127.356 467.95 127.748 467.787 128.065 467.46C128.392 467.133 128.555 466.676 128.555 466.088C128.555 465.481 128.392 465.015 128.065 464.688C127.748 464.352 127.356 464.184 126.889 464.184ZM139.162 463.792V463.106H140.534V469H139.162V468.384C138.705 468.916 138.117 469.182 137.398 469.182C136.53 469.182 135.835 468.874 135.312 468.258C134.799 467.642 134.542 466.905 134.542 466.046C134.542 465.113 134.818 464.366 135.368 463.806C135.928 463.237 136.61 462.952 137.412 462.952C138.15 462.952 138.733 463.232 139.162 463.792ZM137.58 464.184C137.095 464.184 136.698 464.366 136.39 464.73C136.092 465.094 135.942 465.542 135.942 466.074C135.942 466.597 136.092 467.04 136.39 467.404C136.698 467.768 137.095 467.95 137.58 467.95C138.047 467.95 138.439 467.787 138.756 467.46C139.083 467.133 139.246 466.676 139.246 466.088C139.246 465.481 139.083 465.015 138.756 464.688C138.439 464.352 138.047 464.184 137.58 464.184ZM142.778 463.106H147.202V467.74H148.098V470.68H146.838V469H142.722V470.68H141.462V467.74C141.938 467.712 142.298 467.455 142.54 466.97C142.699 466.625 142.778 466.107 142.778 465.416V463.106ZM145.83 467.74V464.366H144.094V465.934C144.094 466.783 143.866 467.385 143.408 467.74H145.83ZM148.548 469L149.976 462.574L152.412 467.068L154.848 462.574L156.276 469H154.876L154.288 466.046L152.412 469.448L150.536 466.046L149.948 469H148.548ZM157.341 463.106H158.713V466.452L162.745 462.574V469H161.373V465.57L157.341 469.448V463.106ZM164.477 469V463.106H165.849V465.29H168.285V463.106H169.657V469H168.285V466.55H165.849V469H164.477ZM171.395 463.106H172.767V466.452L176.799 462.574V469H175.427V465.57L171.395 469.448V463.106ZM183.096 463.372V464.912C182.601 464.427 182.046 464.184 181.43 464.184C180.907 464.184 180.473 464.357 180.128 464.702C179.792 465.038 179.624 465.491 179.624 466.06C179.624 466.648 179.801 467.119 180.156 467.474C180.492 467.791 180.907 467.95 181.402 467.95C182.083 467.95 182.648 467.698 183.096 467.194V468.72C182.601 469.028 182.004 469.182 181.304 469.182C180.361 469.182 179.615 468.893 179.064 468.314C178.504 467.735 178.224 466.998 178.224 466.102C178.224 465.178 178.523 464.417 179.12 463.82C179.699 463.241 180.487 462.952 181.486 462.952C182.055 462.952 182.592 463.092 183.096 463.372ZM188.608 464.366H186.886V469H185.514V464.366H183.792V463.106H188.608V464.366ZM190.965 468.314V472.206H189.593V463.106H190.965V463.75C191.413 463.218 191.996 462.952 192.715 462.952C193.517 462.952 194.194 463.237 194.745 463.806C195.305 464.366 195.585 465.103 195.585 466.018C195.585 466.961 195.295 467.726 194.717 468.314C194.138 468.893 193.475 469.182 192.729 469.182C192.029 469.182 191.441 468.893 190.965 468.314ZM192.547 464.184C192.08 464.184 191.683 464.352 191.357 464.688C191.039 465.015 190.881 465.481 190.881 466.088C190.881 466.676 191.039 467.133 191.357 467.46C191.683 467.787 192.08 467.95 192.547 467.95C193.032 467.95 193.424 467.768 193.723 467.404C194.031 467.04 194.185 466.597 194.185 466.074C194.185 465.542 194.031 465.094 193.723 464.73C193.424 464.366 193.032 464.184 192.547 464.184ZM201.328 463.792V463.106H202.7V469H201.328V468.384C200.871 468.916 200.283 469.182 199.564 469.182C198.696 469.182 198.001 468.874 197.478 468.258C196.965 467.642 196.708 466.905 196.708 466.046C196.708 465.113 196.984 464.366 197.534 463.806C198.094 463.237 198.776 462.952 199.578 462.952C200.316 462.952 200.899 463.232 201.328 463.792ZM199.746 464.184C199.261 464.184 198.864 464.366 198.556 464.73C198.258 465.094 198.108 465.542 198.108 466.074C198.108 466.597 198.258 467.04 198.556 467.404C198.864 467.768 199.261 467.95 199.746 467.95C200.213 467.95 200.605 467.787 200.922 467.46C201.249 467.133 201.412 466.676 201.412 466.088C201.412 465.481 201.249 465.015 200.922 464.688C200.605 464.352 200.213 464.184 199.746 464.184ZM208.5 464.366H206.778V469H205.406V464.366H203.684V463.106H208.5V464.366ZM209.923 463.834C210.529 463.246 211.281 462.952 212.177 462.952C213.073 462.952 213.819 463.246 214.417 463.834C215.023 464.413 215.327 465.155 215.327 466.06C215.327 466.956 215.023 467.703 214.417 468.3C213.819 468.888 213.073 469.182 212.177 469.182C211.281 469.182 210.529 468.888 209.923 468.3C209.325 467.703 209.027 466.956 209.027 466.06C209.027 465.155 209.325 464.413 209.923 463.834ZM210.903 467.446C211.22 467.782 211.645 467.95 212.177 467.95C212.709 467.95 213.133 467.782 213.451 467.446C213.768 467.101 213.927 466.643 213.927 466.074C213.927 465.449 213.754 464.977 213.409 464.66C213.073 464.343 212.662 464.184 212.177 464.184C211.691 464.184 211.276 464.343 210.931 464.66C210.595 464.977 210.427 465.449 210.427 466.074C210.427 466.643 210.585 467.101 210.903 467.446ZM218.131 468.314V472.206H216.759V463.106H218.131V463.75C218.579 463.218 219.162 462.952 219.881 462.952C220.683 462.952 221.36 463.237 221.911 463.806C222.471 464.366 222.751 465.103 222.751 466.018C222.751 466.961 222.461 467.726 221.883 468.314C221.304 468.893 220.641 469.182 219.895 469.182C219.195 469.182 218.607 468.893 218.131 468.314ZM219.713 464.184C219.246 464.184 218.849 464.352 218.523 464.688C218.205 465.015 218.047 465.481 218.047 466.088C218.047 466.676 218.205 467.133 218.523 467.46C218.849 467.787 219.246 467.95 219.713 467.95C220.198 467.95 220.59 467.768 220.889 467.404C221.197 467.04 221.351 466.597 221.351 466.074C221.351 465.542 221.197 465.094 220.889 464.73C220.59 464.366 220.198 464.184 219.713 464.184ZM228.494 463.792V463.106H229.866V469H228.494V468.384C228.037 468.916 227.449 469.182 226.73 469.182C225.862 469.182 225.167 468.874 224.644 468.258C224.131 467.642 223.874 466.905 223.874 466.046C223.874 465.113 224.15 464.366 224.7 463.806C225.26 463.237 225.942 462.952 226.744 462.952C227.482 462.952 228.065 463.232 228.494 463.792ZM226.912 464.184C226.427 464.184 226.03 464.366 225.722 464.73C225.424 465.094 225.274 465.542 225.274 466.074C225.274 466.597 225.424 467.04 225.722 467.404C226.03 467.768 226.427 467.95 226.912 467.95C227.379 467.95 227.771 467.787 228.088 467.46C228.415 467.133 228.578 466.676 228.578 466.088C228.578 465.481 228.415 465.015 228.088 464.688C227.771 464.352 227.379 464.184 226.912 464.184Z" fill="black"/>
<rect x="40.5" y="352.5" width="207" height="47" rx="7.5" stroke="#6A8EE8"/>
<path d="M78.548 371.662V375.386L82.16 371.662H84.036L79.822 375.89L84.064 381H82.16L78.828 376.856L78.548 377.136V381H77.12V371.662H78.548ZM88.8089 375.792V375.106H90.1809V381H88.8089V380.384C88.3516 380.916 87.7636 381.182 87.0449 381.182C86.1769 381.182 85.4816 380.874 84.9589 380.258C84.4456 379.642 84.1889 378.905 84.1889 378.046C84.1889 377.113 84.4642 376.366 85.0149 375.806C85.5749 375.237 86.2562 374.952 87.0589 374.952C87.7962 374.952 88.3796 375.232 88.8089 375.792ZM87.2269 376.184C86.7416 376.184 86.3449 376.366 86.0369 376.73C85.7382 377.094 85.5889 377.542 85.5889 378.074C85.5889 378.597 85.7382 379.04 86.0369 379.404C86.3449 379.768 86.7416 379.95 87.2269 379.95C87.6936 379.95 88.0856 379.787 88.4029 379.46C88.7296 379.133 88.8929 378.676 88.8929 378.088C88.8929 377.481 88.7296 377.015 88.4029 376.688C88.0856 376.352 87.6936 376.184 87.2269 376.184ZM93.2927 380.314V384.206H91.9207V375.106H93.2927V375.75C93.7407 375.218 94.3241 374.952 95.0427 374.952C95.8454 374.952 96.5221 375.237 97.0727 375.806C97.6327 376.366 97.9127 377.103 97.9127 378.018C97.9127 378.961 97.6234 379.726 97.0447 380.314C96.4661 380.893 95.8034 381.182 95.0567 381.182C94.3567 381.182 93.7687 380.893 93.2927 380.314ZM94.8747 376.184C94.4081 376.184 94.0114 376.352 93.6847 376.688C93.3674 377.015 93.2087 377.481 93.2087 378.088C93.2087 378.676 93.3674 379.133 93.6847 379.46C94.0114 379.787 94.4081 379.95 94.8747 379.95C95.3601 379.95 95.7521 379.768 96.0507 379.404C96.3587 379.04 96.5127 378.597 96.5127 378.074C96.5127 377.542 96.3587 377.094 96.0507 376.73C95.7521 376.366 95.3601 376.184 94.8747 376.184ZM103.405 376.366H101.683V381H100.311V376.366H98.5886V375.106H103.405V376.366ZM104.827 375.834C105.434 375.246 106.185 374.952 107.081 374.952C107.977 374.952 108.724 375.246 109.321 375.834C109.928 376.413 110.231 377.155 110.231 378.06C110.231 378.956 109.928 379.703 109.321 380.3C108.724 380.888 107.977 381.182 107.081 381.182C106.185 381.182 105.434 380.888 104.827 380.3C104.23 379.703 103.931 378.956 103.931 378.06C103.931 377.155 104.23 376.413 104.827 375.834ZM105.807 379.446C106.124 379.782 106.549 379.95 107.081 379.95C107.613 379.95 108.038 379.782 108.355 379.446C108.672 379.101 108.831 378.643 108.831 378.074C108.831 377.449 108.658 376.977 108.313 376.66C107.977 376.343 107.566 376.184 107.081 376.184C106.596 376.184 106.18 376.343 105.835 376.66C105.499 376.977 105.331 377.449 105.331 378.074C105.331 378.643 105.49 379.101 105.807 379.446ZM114.855 381V378.718C114.435 378.802 114.034 378.844 113.651 378.844C112.979 378.844 112.461 378.699 112.097 378.41C111.714 378.102 111.523 377.631 111.523 376.996V375.106H112.895V376.716C112.895 377.117 113.012 377.388 113.245 377.528C113.404 377.621 113.632 377.668 113.931 377.668C114.267 377.668 114.575 377.617 114.855 377.514V375.106H116.227V381H114.855ZM117.966 375.106H119.338V377.206L121.298 375.106H123.118L120.542 377.682L123.258 381H121.522L119.562 378.578L119.338 378.802V381H117.966V375.106ZM128.471 375.792V375.106H129.843V381H128.471V380.384C128.014 380.916 127.426 381.182 126.707 381.182C125.839 381.182 125.144 380.874 124.621 380.258C124.108 379.642 123.851 378.905 123.851 378.046C123.851 377.113 124.126 376.366 124.677 375.806C125.237 375.237 125.918 374.952 126.721 374.952C127.458 374.952 128.042 375.232 128.471 375.792ZM126.889 376.184C126.404 376.184 126.007 376.366 125.699 376.73C125.4 377.094 125.251 377.542 125.251 378.074C125.251 378.597 125.4 379.04 125.699 379.404C126.007 379.768 126.404 379.95 126.889 379.95C127.356 379.95 127.748 379.787 128.065 379.46C128.392 379.133 128.555 378.676 128.555 378.088C128.555 377.481 128.392 377.015 128.065 376.688C127.748 376.352 127.356 376.184 126.889 376.184ZM134.85 375.106H139.974V381H138.602V376.366H136.222V381H134.85V375.106ZM142.302 375.834C142.908 375.246 143.66 374.952 144.556 374.952C145.452 374.952 146.198 375.246 146.796 375.834C147.402 376.413 147.706 377.155 147.706 378.06C147.706 378.956 147.402 379.703 146.796 380.3C146.198 380.888 145.452 381.182 144.556 381.182C143.66 381.182 142.908 380.888 142.302 380.3C141.704 379.703 141.406 378.956 141.406 378.06C141.406 377.155 141.704 376.413 142.302 375.834ZM143.282 379.446C143.599 379.782 144.024 379.95 144.556 379.95C145.088 379.95 145.512 379.782 145.83 379.446C146.147 379.101 146.306 378.643 146.306 378.074C146.306 377.449 146.133 376.977 145.788 376.66C145.452 376.343 145.041 376.184 144.556 376.184C144.07 376.184 143.655 376.343 143.31 376.66C142.974 376.977 142.806 377.449 142.806 378.074C142.806 378.643 142.964 379.101 143.282 379.446ZM153.982 375.106V381H152.61V376.366H150.874V378.704C150.874 379.432 150.687 379.997 150.314 380.398C149.838 380.93 149.194 381.131 148.382 381V379.74C148.783 379.833 149.105 379.745 149.348 379.474C149.488 379.306 149.558 379.049 149.558 378.704V375.106H153.982ZM155.714 381V375.106H157.086V377.192H157.87C158.122 377.192 158.327 377.201 158.486 377.22C158.644 377.229 158.836 377.281 159.06 377.374C159.284 377.467 159.48 377.607 159.648 377.794C159.956 378.139 160.11 378.569 160.11 379.082C160.11 379.67 159.932 380.141 159.578 380.496C159.419 380.655 159.228 380.776 159.004 380.86C158.789 380.935 158.607 380.977 158.458 380.986C158.318 380.995 158.117 381 157.856 381H155.714ZM157.086 379.824H157.716C158.052 379.824 158.29 379.782 158.43 379.698C158.635 379.549 158.738 379.348 158.738 379.096C158.738 378.835 158.64 378.639 158.444 378.508C158.294 378.415 158.056 378.368 157.73 378.368H157.086V379.824ZM161.967 376.632L161.085 375.862C161.309 375.591 161.607 375.372 161.981 375.204C162.373 375.036 162.835 374.952 163.367 374.952C163.983 374.952 164.482 375.087 164.865 375.358C165.275 375.657 165.481 376.058 165.481 376.562C165.481 376.889 165.397 377.159 165.229 377.374C165.089 377.561 164.902 377.701 164.669 377.794C165.023 377.869 165.308 378.013 165.523 378.228C165.775 378.48 165.901 378.807 165.901 379.208C165.901 379.74 165.733 380.174 165.397 380.51C164.949 380.958 164.258 381.182 163.325 381.182C162.699 381.182 162.186 381.065 161.785 380.832C161.365 380.589 161.057 380.239 160.861 379.782L161.953 379.222C162.083 379.502 162.256 379.707 162.471 379.838C162.704 379.987 162.998 380.062 163.353 380.062C163.782 380.062 164.095 379.964 164.291 379.768C164.431 379.609 164.501 379.437 164.501 379.25C164.501 379.054 164.44 378.895 164.319 378.774C164.16 378.606 163.833 378.522 163.339 378.522H162.723V377.402H163.241C163.539 377.402 163.763 377.351 163.913 377.248C164.081 377.117 164.165 376.945 164.165 376.73C164.165 376.506 164.081 376.338 163.913 376.226C163.773 376.123 163.553 376.072 163.255 376.072C162.975 376.072 162.718 376.128 162.485 376.24C162.289 376.333 162.116 376.464 161.967 376.632ZM167.923 375.834C168.529 375.246 169.281 374.952 170.177 374.952C171.073 374.952 171.819 375.246 172.417 375.834C173.023 376.413 173.327 377.155 173.327 378.06C173.327 378.956 173.023 379.703 172.417 380.3C171.819 380.888 171.073 381.182 170.177 381.182C169.281 381.182 168.529 380.888 167.923 380.3C167.325 379.703 167.027 378.956 167.027 378.06C167.027 377.155 167.325 376.413 167.923 375.834ZM168.903 379.446C169.22 379.782 169.645 379.95 170.177 379.95C170.709 379.95 171.133 379.782 171.451 379.446C171.768 379.101 171.927 378.643 171.927 378.074C171.927 377.449 171.754 376.977 171.409 376.66C171.073 376.343 170.662 376.184 170.177 376.184C169.691 376.184 169.276 376.343 168.931 376.66C168.595 376.977 168.427 377.449 168.427 378.074C168.427 378.643 168.585 379.101 168.903 379.446ZM174.759 375.106H177.069C177.657 375.106 178.105 375.223 178.413 375.456C178.777 375.745 178.959 376.123 178.959 376.59C178.959 377.122 178.725 377.505 178.259 377.738C178.557 377.794 178.823 377.925 179.057 378.13C179.365 378.41 179.519 378.788 179.519 379.264C179.519 379.833 179.304 380.281 178.875 380.608C178.52 380.869 178.067 381 177.517 381H174.759V375.106ZM176.131 377.402H176.831C177.073 377.402 177.255 377.36 177.377 377.276C177.554 377.164 177.643 377.005 177.643 376.8C177.643 376.604 177.563 376.45 177.405 376.338C177.293 376.263 177.092 376.226 176.803 376.226H176.131V377.402ZM176.131 379.88H177.153C177.461 379.88 177.699 379.824 177.867 379.712C178.053 379.591 178.147 379.418 178.147 379.194C178.147 378.951 178.058 378.779 177.881 378.676C177.722 378.573 177.493 378.522 177.195 378.522H176.131V379.88ZM185.264 375.792V375.106H186.636V381H185.264V380.384C184.807 380.916 184.219 381.182 183.5 381.182C182.632 381.182 181.937 380.874 181.414 380.258C180.901 379.642 180.644 378.905 180.644 378.046C180.644 377.113 180.919 376.366 181.47 375.806C182.03 375.237 182.711 374.952 183.514 374.952C184.251 374.952 184.835 375.232 185.264 375.792ZM183.682 376.184C183.197 376.184 182.8 376.366 182.492 376.73C182.193 377.094 182.044 377.542 182.044 378.074C182.044 378.597 182.193 379.04 182.492 379.404C182.8 379.768 183.197 379.95 183.682 379.95C184.149 379.95 184.541 379.787 184.858 379.46C185.185 379.133 185.348 378.676 185.348 378.088C185.348 377.481 185.185 377.015 184.858 376.688C184.541 376.352 184.149 376.184 183.682 376.184ZM192.436 376.366H190.714V381H189.342V376.366H187.62V375.106H192.436V376.366ZM197.4 379.012L198.548 379.656C198.287 380.123 197.956 380.482 197.554 380.734C197.097 381.033 196.518 381.182 195.818 381.182C194.997 381.182 194.334 380.93 193.83 380.426C193.252 379.847 192.962 379.096 192.962 378.172C192.962 377.201 193.275 376.394 193.9 375.75C194.432 375.218 195.09 374.952 195.874 374.952C196.64 374.952 197.27 375.209 197.764 375.722C198.315 376.291 198.59 377.122 198.59 378.214V378.382H194.362C194.4 378.877 194.568 379.273 194.866 379.572C195.118 379.824 195.468 379.95 195.916 379.95C196.28 379.95 196.593 379.852 196.854 379.656C197.069 379.488 197.251 379.273 197.4 379.012ZM194.46 377.262H197.19C197.134 376.935 196.994 376.669 196.77 376.464C196.528 376.24 196.22 376.128 195.846 376.128C195.454 376.128 195.132 376.254 194.88 376.506C194.675 376.693 194.535 376.945 194.46 377.262ZM204.868 375.106V381H203.496V376.366H201.76V378.704C201.76 379.432 201.574 379.997 201.2 380.398C200.724 380.93 200.08 381.131 199.268 381V379.74C199.67 379.833 199.992 379.745 200.234 379.474C200.374 379.306 200.444 379.049 200.444 378.704V375.106H204.868ZM205.844 381L207.692 378.662C207.328 378.606 207.016 378.457 206.754 378.214C206.428 377.897 206.264 377.491 206.264 376.996C206.264 376.436 206.446 375.983 206.81 375.638C207.184 375.283 207.753 375.106 208.518 375.106H210.716V381H209.344V378.83H209.064L207.454 381H205.844ZM209.344 377.71V376.282H208.546C208.22 376.282 207.982 376.324 207.832 376.408C207.608 376.548 207.496 376.744 207.496 376.996C207.496 377.248 207.59 377.439 207.776 377.57C207.916 377.663 208.168 377.71 208.532 377.71H209.344Z" fill="black"/>
<rect x="40.5" y="176.5" width="218" height="47" rx="7.5" stroke="#6A8EE8"/>
<path d="M81.068 205V203.684H80.816C79.4347 203.684 78.3987 203.348 77.708 202.676C77.0173 201.995 76.672 201.117 76.672 200.044C76.672 198.971 77.0173 198.098 77.708 197.426C78.3987 196.745 79.4347 196.404 80.816 196.404H81.068V195.284H82.496V196.404H82.748C84.1293 196.404 85.1653 196.745 85.856 197.426C86.5467 198.098 86.892 198.971 86.892 200.044C86.892 201.117 86.5467 201.995 85.856 202.676C85.1653 203.348 84.1293 203.684 82.748 203.684H82.496V205H81.068ZM81.068 202.368V197.72H80.788C79.892 197.72 79.22 197.935 78.772 198.364C78.324 198.784 78.1 199.344 78.1 200.044C78.1 200.744 78.324 201.309 78.772 201.738C79.22 202.158 79.892 202.368 80.788 202.368H81.068ZM82.496 197.72V202.368H82.776C83.672 202.368 84.344 202.158 84.792 201.738C85.24 201.309 85.464 200.744 85.464 200.044C85.464 199.344 85.24 198.784 84.792 198.364C84.344 197.935 83.672 197.72 82.776 197.72H82.496ZM89.0224 199.834C89.6291 199.246 90.3804 198.952 91.2764 198.952C92.1724 198.952 92.9191 199.246 93.5164 199.834C94.1231 200.413 94.4264 201.155 94.4264 202.06C94.4264 202.956 94.1231 203.703 93.5164 204.3C92.9191 204.888 92.1724 205.182 91.2764 205.182C90.3804 205.182 89.6291 204.888 89.0224 204.3C88.4251 203.703 88.1264 202.956 88.1264 202.06C88.1264 201.155 88.4251 200.413 89.0224 199.834ZM90.0024 203.446C90.3197 203.782 90.7444 203.95 91.2764 203.95C91.8084 203.95 92.2331 203.782 92.5504 203.446C92.8677 203.101 93.0264 202.643 93.0264 202.074C93.0264 201.449 92.8537 200.977 92.5084 200.66C92.1724 200.343 91.7617 200.184 91.2764 200.184C90.7911 200.184 90.3757 200.343 90.0304 200.66C89.6944 200.977 89.5264 201.449 89.5264 202.074C89.5264 202.643 89.6851 203.101 90.0024 203.446ZM97.2302 204.314V208.206H95.8582V199.106H97.2302V199.75C97.6782 199.218 98.2616 198.952 98.9802 198.952C99.7829 198.952 100.46 199.237 101.01 199.806C101.57 200.366 101.85 201.103 101.85 202.018C101.85 202.961 101.561 203.726 100.982 204.314C100.404 204.893 99.7409 205.182 98.9942 205.182C98.2942 205.182 97.7062 204.893 97.2302 204.314ZM98.8122 200.184C98.3456 200.184 97.9489 200.352 97.6222 200.688C97.3049 201.015 97.1462 201.481 97.1462 202.088C97.1462 202.676 97.3049 203.133 97.6222 203.46C97.9489 203.787 98.3456 203.95 98.8122 203.95C99.2976 203.95 99.6896 203.768 99.9882 203.404C100.296 203.04 100.45 202.597 100.45 202.074C100.45 201.542 100.296 201.094 99.9882 200.73C99.6896 200.366 99.2976 200.184 98.8122 200.184ZM102.61 205L104.038 198.574L106.474 203.068L108.91 198.574L110.338 205H108.938L108.35 202.046L106.474 205.448L104.598 202.046L104.01 205H102.61ZM115.715 199.792V199.106H117.087V205H115.715V204.384C115.258 204.916 114.67 205.182 113.951 205.182C113.083 205.182 112.388 204.874 111.865 204.258C111.352 203.642 111.095 202.905 111.095 202.046C111.095 201.113 111.37 200.366 111.921 199.806C112.481 199.237 113.162 198.952 113.965 198.952C114.702 198.952 115.286 199.232 115.715 199.792ZM114.133 200.184C113.648 200.184 113.251 200.366 112.943 200.73C112.644 201.094 112.495 201.542 112.495 202.074C112.495 202.597 112.644 203.04 112.943 203.404C113.251 203.768 113.648 203.95 114.133 203.95C114.6 203.95 114.992 203.787 115.309 203.46C115.636 203.133 115.799 202.676 115.799 202.088C115.799 201.481 115.636 201.015 115.309 200.688C114.992 200.352 114.6 200.184 114.133 200.184ZM122.095 199.106H127.219V205H125.847V200.366H123.467V205H122.095V199.106ZM129.546 199.834C130.153 199.246 130.904 198.952 131.8 198.952C132.696 198.952 133.443 199.246 134.04 199.834C134.647 200.413 134.95 201.155 134.95 202.06C134.95 202.956 134.647 203.703 134.04 204.3C133.443 204.888 132.696 205.182 131.8 205.182C130.904 205.182 130.153 204.888 129.546 204.3C128.949 203.703 128.65 202.956 128.65 202.06C128.65 201.155 128.949 200.413 129.546 199.834ZM130.526 203.446C130.843 203.782 131.268 203.95 131.8 203.95C132.332 203.95 132.757 203.782 133.074 203.446C133.391 203.101 133.55 202.643 133.55 202.074C133.55 201.449 133.377 200.977 133.032 200.66C132.696 200.343 132.285 200.184 131.8 200.184C131.315 200.184 130.899 200.343 130.554 200.66C130.218 200.977 130.05 201.449 130.05 202.074C130.05 202.643 130.209 203.101 130.526 203.446ZM136.382 199.106H137.754V202.452L141.786 198.574V205H140.414V201.57L136.382 205.448V199.106ZM148.082 199.372V200.912C147.588 200.427 147.032 200.184 146.416 200.184C145.894 200.184 145.46 200.357 145.114 200.702C144.778 201.038 144.61 201.491 144.61 202.06C144.61 202.648 144.788 203.119 145.142 203.474C145.478 203.791 145.894 203.95 146.388 203.95C147.07 203.95 147.634 203.698 148.082 203.194V204.72C147.588 205.028 146.99 205.182 146.29 205.182C145.348 205.182 144.601 204.893 144.05 204.314C143.49 203.735 143.21 202.998 143.21 202.102C143.21 201.178 143.509 200.417 144.106 199.82C144.685 199.241 145.474 198.952 146.472 198.952C147.042 198.952 147.578 199.092 148.082 199.372ZM149.397 199.106H150.769V201.206L152.729 199.106H154.549L151.973 201.682L154.689 205H152.953L150.993 202.578L150.769 202.802V205H149.397V199.106ZM159.903 199.792V199.106H161.275V205H159.903V204.384C159.445 204.916 158.857 205.182 158.139 205.182C157.271 205.182 156.575 204.874 156.053 204.258C155.539 203.642 155.283 202.905 155.283 202.046C155.283 201.113 155.558 200.366 156.109 199.806C156.669 199.237 157.35 198.952 158.153 198.952C158.89 198.952 159.473 199.232 159.903 199.792ZM158.321 200.184C157.835 200.184 157.439 200.366 157.131 200.73C156.832 201.094 156.683 201.542 156.683 202.074C156.683 202.597 156.832 203.04 157.131 203.404C157.439 203.768 157.835 203.95 158.321 203.95C158.787 203.95 159.179 203.787 159.497 203.46C159.823 203.133 159.987 202.676 159.987 202.088C159.987 201.481 159.823 201.015 159.497 200.688C159.179 200.352 158.787 200.184 158.321 200.184ZM166.282 199.106H171.406V205H170.034V200.366H167.654V205H166.282V199.106ZM173.733 199.834C174.34 199.246 175.091 198.952 175.987 198.952C176.883 198.952 177.63 199.246 178.227 199.834C178.834 200.413 179.137 201.155 179.137 202.06C179.137 202.956 178.834 203.703 178.227 204.3C177.63 204.888 176.883 205.182 175.987 205.182C175.091 205.182 174.34 204.888 173.733 204.3C173.136 203.703 172.837 202.956 172.837 202.06C172.837 201.155 173.136 200.413 173.733 199.834ZM174.713 203.446C175.031 203.782 175.455 203.95 175.987 203.95C176.519 203.95 176.944 203.782 177.261 203.446C177.579 203.101 177.737 202.643 177.737 202.074C177.737 201.449 177.565 200.977 177.219 200.66C176.883 200.343 176.473 200.184 175.987 200.184C175.502 200.184 175.087 200.343 174.741 200.66C174.405 200.977 174.237 201.449 174.237 202.074C174.237 202.643 174.396 203.101 174.713 203.446ZM188.681 199.106V205H187.309V200.366H185.573V202.704C185.573 203.432 185.386 203.997 185.013 204.398C184.537 204.93 183.893 205.131 183.081 205V203.74C183.482 203.833 183.804 203.745 184.047 203.474C184.187 203.306 184.257 203.049 184.257 202.704V199.106H188.681ZM191.001 199.834C191.608 199.246 192.359 198.952 193.255 198.952C194.151 198.952 194.898 199.246 195.495 199.834C196.102 200.413 196.405 201.155 196.405 202.06C196.405 202.956 196.102 203.703 195.495 204.3C194.898 204.888 194.151 205.182 193.255 205.182C192.359 205.182 191.608 204.888 191.001 204.3C190.404 203.703 190.105 202.956 190.105 202.06C190.105 201.155 190.404 200.413 191.001 199.834ZM191.981 203.446C192.298 203.782 192.723 203.95 193.255 203.95C193.787 203.95 194.212 203.782 194.529 203.446C194.846 203.101 195.005 202.643 195.005 202.074C195.005 201.449 194.832 200.977 194.487 200.66C194.151 200.343 193.74 200.184 193.255 200.184C192.77 200.184 192.354 200.343 192.009 200.66C191.673 200.977 191.505 201.449 191.505 202.074C191.505 202.643 191.664 203.101 191.981 203.446ZM197.837 205V199.106H201.449V200.366H199.209V205H197.837ZM202.431 199.106H203.803V202.452L207.835 198.574V205H206.463V201.57L202.431 205.448V199.106ZM209.567 205V199.106H210.939V201.29H213.375V199.106H214.747V205H213.375V202.55H210.939V205H209.567ZM216.051 208.206L218.221 204.076L215.701 199.106H217.353L219.033 202.55L220.741 199.106H222.281L217.591 208.206H216.051Z" fill="black"/>
<rect x="40.5" y="88.5" width="178" height="47" rx="7.5" stroke="#6A8EE8"/>
<path d="M77.12 107.662H83.98V117H82.552V109.006H78.548V117H77.12V107.662ZM90.2855 111.792V111.106H91.6575V117H90.2855V116.384C89.8281 116.916 89.2401 117.182 88.5215 117.182C87.6535 117.182 86.9581 116.874 86.4355 116.258C85.9221 115.642 85.6655 114.905 85.6655 114.046C85.6655 113.113 85.9408 112.366 86.4915 111.806C87.0515 111.237 87.7328 110.952 88.5355 110.952C89.2728 110.952 89.8561 111.232 90.2855 111.792ZM88.7035 112.184C88.2181 112.184 87.8215 112.366 87.5135 112.73C87.2148 113.094 87.0655 113.542 87.0655 114.074C87.0655 114.597 87.2148 115.04 87.5135 115.404C87.8215 115.768 88.2181 115.95 88.7035 115.95C89.1701 115.95 89.5621 115.787 89.8795 115.46C90.2061 115.133 90.3695 114.676 90.3695 114.088C90.3695 113.481 90.2061 113.015 89.8795 112.688C89.5621 112.352 89.1701 112.184 88.7035 112.184ZM93.3973 117V111.106H94.7693V113.29H97.2053V111.106H98.5773V117H97.2053V114.55H94.7693V117H93.3973ZM104.445 115.012L105.593 115.656C105.332 116.123 105.001 116.482 104.599 116.734C104.142 117.033 103.563 117.182 102.863 117.182C102.042 117.182 101.379 116.93 100.875 116.426C100.297 115.847 100.007 115.096 100.007 114.172C100.007 113.201 100.32 112.394 100.945 111.75C101.477 111.218 102.135 110.952 102.919 110.952C103.685 110.952 104.315 111.209 104.809 111.722C105.36 112.291 105.635 113.122 105.635 114.214V114.382H101.407C101.445 114.877 101.613 115.273 101.911 115.572C102.163 115.824 102.513 115.95 102.961 115.95C103.325 115.95 103.638 115.852 103.899 115.656C104.114 115.488 104.296 115.273 104.445 115.012ZM101.505 113.262H104.235C104.179 112.935 104.039 112.669 103.815 112.464C103.573 112.24 103.265 112.128 102.891 112.128C102.499 112.128 102.177 112.254 101.925 112.506C101.72 112.693 101.58 112.945 101.505 113.262ZM111.913 111.106V117H110.541V112.366H108.805V114.704C108.805 115.432 108.619 115.997 108.245 116.398C107.769 116.93 107.125 117.131 106.313 117V115.74C106.715 115.833 107.037 115.745 107.279 115.474C107.419 115.306 107.489 115.049 107.489 114.704V111.106H111.913ZM113.645 117V111.106H115.017V113.192H115.801C116.053 113.192 116.259 113.201 116.417 113.22C116.576 113.229 116.767 113.281 116.991 113.374C117.215 113.467 117.411 113.607 117.579 113.794C117.887 114.139 118.041 114.569 118.041 115.082C118.041 115.67 117.864 116.141 117.509 116.496C117.351 116.655 117.159 116.776 116.935 116.86C116.721 116.935 116.539 116.977 116.389 116.986C116.249 116.995 116.049 117 115.787 117H113.645ZM115.017 115.824H115.647C115.983 115.824 116.221 115.782 116.361 115.698C116.567 115.549 116.669 115.348 116.669 115.096C116.669 114.835 116.571 114.639 116.375 114.508C116.226 114.415 115.988 114.368 115.661 114.368H115.017V115.824ZM122.518 117V111.106H123.89V113.29H126.326V111.106H127.698V117H126.326V114.55H123.89V117H122.518ZM133.748 111.792V111.106H135.12V117H133.748V116.384C133.291 116.916 132.703 117.182 131.984 117.182C131.116 117.182 130.421 116.874 129.898 116.258C129.385 115.642 129.128 114.905 129.128 114.046C129.128 113.113 129.404 112.366 129.954 111.806C130.514 111.237 131.196 110.952 131.998 110.952C132.736 110.952 133.319 111.232 133.748 111.792ZM132.166 112.184C131.681 112.184 131.284 112.366 130.976 112.73C130.678 113.094 130.528 113.542 130.528 114.074C130.528 114.597 130.678 115.04 130.976 115.404C131.284 115.768 131.681 115.95 132.166 115.95C132.633 115.95 133.025 115.787 133.342 115.46C133.669 115.133 133.832 114.676 133.832 114.088C133.832 113.481 133.669 113.015 133.342 112.688C133.025 112.352 132.633 112.184 132.166 112.184ZM136.86 111.106H139.17C139.758 111.106 140.206 111.223 140.514 111.456C140.878 111.745 141.06 112.123 141.06 112.59C141.06 113.122 140.827 113.505 140.36 113.738C140.659 113.794 140.925 113.925 141.158 114.13C141.466 114.41 141.62 114.788 141.62 115.264C141.62 115.833 141.406 116.281 140.976 116.608C140.622 116.869 140.169 117 139.618 117H136.86V111.106ZM138.232 113.402H138.932C139.175 113.402 139.357 113.36 139.478 113.276C139.656 113.164 139.744 113.005 139.744 112.8C139.744 112.604 139.665 112.45 139.506 112.338C139.394 112.263 139.194 112.226 138.904 112.226H138.232V113.402ZM138.232 115.88H139.254C139.562 115.88 139.8 115.824 139.968 115.712C140.155 115.591 140.248 115.418 140.248 115.194C140.248 114.951 140.16 114.779 139.982 114.676C139.824 114.573 139.595 114.522 139.296 114.522H138.232V115.88ZM143.054 111.106H144.426V114.452L148.458 110.574V117H147.086V113.57L143.054 117.448V111.106ZM150.19 117V111.106H153.802V112.366H151.562V117H150.19ZM158.959 111.792V111.106H160.331V117H158.959V116.384C158.502 116.916 157.914 117.182 157.195 117.182C156.327 117.182 155.632 116.874 155.109 116.258C154.596 115.642 154.339 114.905 154.339 114.046C154.339 113.113 154.615 112.366 155.165 111.806C155.725 111.237 156.407 110.952 157.209 110.952C157.947 110.952 158.53 111.232 158.959 111.792ZM157.377 112.184C156.892 112.184 156.495 112.366 156.187 112.73C155.889 113.094 155.739 113.542 155.739 114.074C155.739 114.597 155.889 115.04 156.187 115.404C156.495 115.768 156.892 115.95 157.377 115.95C157.844 115.95 158.236 115.787 158.553 115.46C158.88 115.133 159.043 114.676 159.043 114.088C159.043 113.481 158.88 113.015 158.553 112.688C158.236 112.352 157.844 112.184 157.377 112.184ZM162.071 117V111.106H163.443V115.74H165.767V111.106H167.139V115.74H168.119V118.68H166.859V117H162.071ZM169.098 111.106H170.47V114.452L174.502 110.574V117H173.13V113.57L169.098 117.448V111.106ZM176.235 111.106H177.607V114.452L181.639 110.574V117H180.267V113.57L176.235 117.448V111.106Z" fill="black"/>
<path d="M1.00006 199.1C0.447776 199.1 6.09112e-05 199.548 6.10352e-05 200.1C6.11591e-05 200.652 0.447776 201.1 1.00006 201.1L1.00006 199.1ZM39.7071 200.807C40.0977 200.417 40.0977 199.784 39.7071 199.393L33.3432 193.029C32.9527 192.639 32.3195 192.639 31.929 193.029C31.5384 193.42 31.5384 194.053 31.929 194.443L37.5858 200.1L31.929 205.757C31.5384 206.147 31.5384 206.781 31.929 207.171C32.3195 207.562 32.9527 207.562 33.3432 207.171L39.7071 200.807ZM1.00006 201.1L39 201.1L39 199.1L1.00006 199.1L1.00006 201.1Z" fill="#A6AEBF"/>
<path d="M1.00006 287.35C0.447776 287.35 6.09112e-05 287.798 6.10352e-05 288.35C6.11591e-05 288.902 0.447776 289.35 1.00006 289.35L1.00006 287.35ZM39.7071 289.057C40.0977 288.667 40.0977 288.034 39.7071 287.643L33.3432 281.279C32.9527 280.889 32.3195 280.889 31.929 281.279C31.5384 281.67 31.5384 282.303 31.929 282.693L37.5858 288.35L31.929 294.007C31.5384 294.397 31.5384 295.031 31.929 295.421C32.3195 295.812 32.9527 295.812 33.3432 295.421L39.7071 289.057ZM1.00006 289.35L39 289.35L39 287.35L1.00006 287.35L1.00006 289.35Z" fill="#A6AEBF"/>
<path d="M1.00006 375.35C0.447776 375.35 6.09112e-05 375.798 6.10352e-05 376.35C6.11591e-05 376.902 0.447776 377.35 1.00006 377.35L1.00006 375.35ZM39.7071 377.057C40.0977 376.667 40.0977 376.034 39.7071 375.643L33.3432 369.279C32.9527 368.889 32.3195 368.889 31.929 369.279C31.5384 369.67 31.5384 370.303 31.929 370.693L37.5858 376.35L31.929 382.007C31.5384 382.397 31.5384 383.031 31.929 383.421C32.3195 383.812 32.9527 383.812 33.3432 383.421L39.7071 377.057ZM1.00006 377.35L39 377.35L39 375.35L1.00006 375.35L1.00006 377.35Z" fill="#A6AEBF"/>
<path d="M1.00006 463.35C0.447776 463.35 6.09112e-05 463.798 6.10352e-05 464.35C6.11591e-05 464.902 0.447776 465.35 1.00006 465.35L1.00006 463.35ZM39.7071 465.057C40.0977 464.667 40.0977 464.034 39.7071 463.643L33.3432 457.279C32.9527 456.889 32.3195 456.889 31.929 457.279C31.5384 457.67 31.5384 458.303 31.929 458.693L37.5858 464.35L31.929 470.007C31.5384 470.397 31.5384 471.031 31.929 471.421C32.3195 471.812 32.9527 471.812 33.3432 471.421L39.7071 465.057ZM1.00006 465.35L39 465.35L39 463.35L1.00006 463.35L1.00006 465.35Z" fill="#A6AEBF"/>
<path d="M1.00006 551.35C0.447776 551.35 6.09112e-05 551.798 6.10352e-05 552.35C6.11591e-05 552.902 0.447776 553.35 1.00006 553.35L1.00006 551.35ZM39.7071 553.057C40.0977 552.667 40.0977 552.034 39.7071 551.643L33.3432 545.279C32.9527 544.889 32.3195 544.889 31.929 545.279C31.5384 545.67 31.5384 546.303 31.929 546.693L37.5858 552.35L31.929 558.007C31.5384 558.397 31.5384 559.031 31.929 559.421C32.3195 559.812 32.9527 559.812 33.3432 559.421L39.7071 553.057ZM1.00006 553.35L39 553.35L39 551.35L1.00006 551.35L1.00006 553.35Z" fill="#A6AEBF"/>
<path d="M1.00006 110.975C0.447776 110.975 6.09112e-05 111.423 6.10352e-05 111.975C6.11591e-05 112.527 0.447776 112.975 1.00006 112.975L1.00006 110.975ZM39.7071 112.682C40.0977 112.292 40.0977 111.659 39.7071 111.268L33.3432 104.904C32.9527 104.514 32.3195 104.514 31.929 104.904C31.5384 105.295 31.5384 105.928 31.929 106.318L37.5858 111.975L31.929 117.632C31.5384 118.022 31.5384 118.656 31.929 119.046C32.3195 119.437 32.9527 119.437 33.3432 119.046L39.7071 112.682ZM1.00006 112.975L39 112.975L39 110.975L1.00006 110.975L1.00006 112.975Z" fill="#A6AEBF"/>
<path d="M39 25L40 25L40 23L39 23L39 25ZM39.7071 640.707C40.0977 640.317 40.0977 639.683 39.7071 639.293L33.3432 632.929C32.9526 632.538 32.3195 632.538 31.929 632.929C31.5384 633.319 31.5384 633.953 31.929 634.343L37.5858 640L31.929 645.657C31.5384 646.047 31.5384 646.681 31.929 647.071C32.3195 647.462 32.9526 647.462 33.3432 647.071L39.7071 640.707ZM2 632L1.99997 32L-2.65765e-05 32L-3.49691e-07 632L2 632ZM8.99997 25L39 25L39 23L8.99997 23L8.99997 25ZM39 639L9 639L9 641L39 641L39 639ZM1.99997 32C1.99997 28.134 5.13398 25 8.99997 25L8.99997 23C4.02941 23 -2.67938e-05 27.0294 -2.65765e-05 32L1.99997 32ZM-3.49691e-07 632C-1.32421e-07 636.971 4.02944 641 9 641L9 639C5.13401 639 2 635.866 2 632L-3.49691e-07 632Z" fill="#A6AEBF"/>
</svg>
