<svg width="964" height="664" viewBox="0 0 964 664" fill="none" xmlns="http://www.w3.org/2000/svg">
<path d="M350 552L349 552L349 554L350 554L350 552ZM680.707 553.707C681.098 553.317 681.098 552.683 680.707 552.293L674.343 545.929C673.953 545.538 673.319 545.538 672.929 545.929C672.538 546.319 672.538 546.953 672.929 547.343L678.586 553L672.929 558.657C672.538 559.047 672.538 559.681 672.929 560.071C673.319 560.462 673.953 560.462 674.343 560.071L680.707 553.707ZM350 554L680 554L680 552L350 552L350 554Z" fill="#A6AEBF"/>
<path d="M351 489L351 488L349 488L349 489L351 489ZM680.707 641.707C681.098 641.317 681.098 640.683 680.707 640.293L674.343 633.929C673.953 633.538 673.319 633.538 672.929 633.929C672.538 634.319 672.538 634.953 672.929 635.343L678.586 641L672.929 646.657C672.538 647.047 672.538 647.681 672.929 648.071C673.319 648.462 673.953 648.462 674.343 648.071L680.707 641.707ZM351 633L351 489L349 489L349 633L351 633ZM680 640L358 640L358 642L680 642L680 640ZM349 633C349 637.971 353.029 642 358 642L358 640C354.134 640 351 636.866 351 633L349 633Z" fill="#A6AEBF"/>
<rect x="40" width="113" height="48" rx="8" fill="#D2DDF8"/>
<path d="M77.918 21.776L76.98 20.866C77.3253 20.4087 77.7267 20.0727 78.184 19.858C78.6507 19.6247 79.2153 19.508 79.878 19.508C80.8113 19.508 81.5347 19.7553 82.048 20.25C82.496 20.6887 82.72 21.2347 82.72 21.888C82.72 22.336 82.6173 22.7233 82.412 23.05C82.216 23.386 81.936 23.6567 81.572 23.862C82.0853 23.9927 82.5053 24.268 82.832 24.688C83.1493 25.0893 83.308 25.6167 83.308 26.27C83.308 27.11 82.9953 27.8053 82.37 28.356C81.7353 28.8973 80.8953 29.168 79.85 29.168C78.9633 29.168 78.198 28.9253 77.554 28.44C77.05 28.048 76.6533 27.544 76.364 26.928L77.624 26.284C77.8107 26.76 78.1 27.138 78.492 27.418C78.9027 27.7073 79.416 27.852 80.032 27.852C80.648 27.852 81.124 27.684 81.46 27.348C81.7587 27.0493 81.908 26.6667 81.908 26.2C81.908 25.7147 81.726 25.3507 81.362 25.108C81.0167 24.8653 80.452 24.744 79.668 24.744H78.828V23.4H79.584C80.1813 23.4 80.6293 23.274 80.928 23.022C81.208 22.7887 81.348 22.4713 81.348 22.07C81.348 21.65 81.1987 21.328 80.9 21.104C80.6573 20.9173 80.298 20.824 79.822 20.824C79.374 20.824 78.996 20.9127 78.688 21.09C78.3893 21.258 78.1327 21.4867 77.918 21.776ZM89.1644 23.792V23.106H90.5364V29H89.1644V28.384C88.707 28.916 88.119 29.182 87.4004 29.182C86.5324 29.182 85.837 28.874 85.3144 28.258C84.801 27.642 84.5444 26.9047 84.5444 26.046C84.5444 25.1127 84.8197 24.366 85.3704 23.806C85.9304 23.2367 86.6117 22.952 87.4144 22.952C88.1517 22.952 88.735 23.232 89.1644 23.792ZM87.5824 24.184C87.097 24.184 86.7004 24.366 86.3924 24.73C86.0937 25.094 85.9444 25.542 85.9444 26.074C85.9444 26.5967 86.0937 27.04 86.3924 27.404C86.7004 27.768 87.097 27.95 87.5824 27.95C88.049 27.95 88.441 27.7867 88.7584 27.46C89.085 27.1333 89.2484 26.676 89.2484 26.088C89.2484 25.4813 89.085 25.0147 88.7584 24.688C88.441 24.352 88.049 24.184 87.5824 24.184ZM91.5202 29L93.3682 26.662C93.0042 26.606 92.6915 26.4567 92.4302 26.214C92.1035 25.8967 91.9402 25.4907 91.9402 24.996C91.9402 24.436 92.1222 23.9833 92.4862 23.638C92.8595 23.2833 93.4289 23.106 94.1942 23.106H96.3922V29H95.0202V26.83H94.7402L93.1302 29H91.5202ZM95.0202 25.71V24.282H94.2222C93.8955 24.282 93.6575 24.324 93.5082 24.408C93.2842 24.548 93.1722 24.744 93.1722 24.996C93.1722 25.248 93.2655 25.4393 93.4522 25.57C93.5922 25.6633 93.8442 25.71 94.2082 25.71H95.0202ZM98.1278 23.106H100.438C101.026 23.106 101.474 23.2227 101.782 23.456C102.146 23.7453 102.328 24.1233 102.328 24.59C102.328 25.122 102.094 25.5047 101.628 25.738C101.926 25.794 102.192 25.9247 102.426 26.13C102.734 26.41 102.888 26.788 102.888 27.264C102.888 27.8333 102.673 28.2813 102.244 28.608C101.889 28.8693 101.436 29 100.886 29H98.1278V23.106ZM99.4998 25.402H100.2C100.442 25.402 100.624 25.36 100.746 25.276C100.923 25.164 101.012 25.0053 101.012 24.8C101.012 24.604 100.932 24.45 100.774 24.338C100.662 24.2633 100.461 24.226 100.172 24.226H99.4998V25.402ZM99.4998 27.88H100.522C100.83 27.88 101.068 27.824 101.236 27.712C101.422 27.5907 101.516 27.418 101.516 27.194C101.516 26.9513 101.427 26.7787 101.25 26.676C101.091 26.5733 100.862 26.522 100.564 26.522H99.4998V27.88ZM104.321 23.106H105.693V25.206L107.653 23.106H109.473L106.897 25.682L109.613 29H107.877L105.917 26.578L105.693 26.802V29H104.321V23.106ZM110.514 23.106H111.886V26.452L115.918 22.574V29H114.546V25.57L110.514 29.448V23.106Z" fill="black"/>
<rect x="40.5" y="352.5" width="156" height="47" rx="7.5" stroke="#6A8EE8"/>
<path d="M84.036 372.166V373.846C83.2707 373.155 82.426 372.81 81.502 372.81C80.494 372.81 79.6727 373.146 79.038 373.818C78.4127 374.481 78.1 375.33 78.1 376.366C78.1 377.365 78.422 378.2 79.066 378.872C79.71 379.535 80.5267 379.866 81.516 379.866C82.44 379.866 83.28 379.507 84.036 378.788V380.482C83.252 380.949 82.398 381.182 81.474 381.182C80.1767 381.182 79.0753 380.753 78.17 379.894C77.1713 378.961 76.672 377.785 76.672 376.366C76.672 374.873 77.1713 373.655 78.17 372.712C79.0287 371.9 80.1533 371.494 81.544 371.494C82.5053 371.494 83.336 371.718 84.036 372.166ZM85.5496 375.106H90.6736V381H89.3016V376.366H86.9216V381H85.5496V375.106ZM92.4129 375.106H93.7849V378.452L97.8169 374.574V381H96.4449V377.57L92.4129 381.448V375.106ZM104.114 375.372V376.912C103.619 376.427 103.064 376.184 102.448 376.184C101.925 376.184 101.491 376.357 101.146 376.702C100.81 377.038 100.642 377.491 100.642 378.06C100.642 378.648 100.819 379.119 101.174 379.474C101.51 379.791 101.925 379.95 102.42 379.95C103.101 379.95 103.666 379.698 104.114 379.194V380.72C103.619 381.028 103.022 381.182 102.322 381.182C101.379 381.182 100.632 380.893 100.082 380.314C99.5216 379.735 99.2416 378.998 99.2416 378.102C99.2416 377.178 99.5403 376.417 100.138 375.82C100.716 375.241 101.505 374.952 102.504 374.952C103.073 374.952 103.61 375.092 104.114 375.372ZM106.017 375.834C106.623 375.246 107.375 374.952 108.271 374.952C109.167 374.952 109.913 375.246 110.511 375.834C111.117 376.413 111.421 377.155 111.421 378.06C111.421 378.956 111.117 379.703 110.511 380.3C109.913 380.888 109.167 381.182 108.271 381.182C107.375 381.182 106.623 380.888 106.017 380.3C105.419 379.703 105.121 378.956 105.121 378.06C105.121 377.155 105.419 376.413 106.017 375.834ZM106.997 379.446C107.314 379.782 107.739 379.95 108.271 379.95C108.803 379.95 109.227 379.782 109.545 379.446C109.862 379.101 110.021 378.643 110.021 378.074C110.021 377.449 109.848 376.977 109.503 376.66C109.167 376.343 108.756 376.184 108.271 376.184C107.785 376.184 107.37 376.343 107.025 376.66C106.689 376.977 106.521 377.449 106.521 378.074C106.521 378.643 106.679 379.101 106.997 379.446ZM112.852 375.106H114.224V377.206L116.184 375.106H118.004L115.428 377.682L118.144 381H116.408L114.448 378.578L114.224 378.802V381H112.852V375.106ZM123.111 376.632L122.229 375.862C122.453 375.591 122.752 375.372 123.125 375.204C123.517 375.036 123.979 374.952 124.511 374.952C125.127 374.952 125.627 375.087 126.009 375.358C126.42 375.657 126.625 376.058 126.625 376.562C126.625 376.889 126.541 377.159 126.373 377.374C126.233 377.561 126.047 377.701 125.813 377.794C126.168 377.869 126.453 378.013 126.667 378.228C126.919 378.48 127.045 378.807 127.045 379.208C127.045 379.74 126.877 380.174 126.541 380.51C126.093 380.958 125.403 381.182 124.469 381.182C123.844 381.182 123.331 381.065 122.929 380.832C122.509 380.589 122.201 380.239 122.005 379.782L123.097 379.222C123.228 379.502 123.401 379.707 123.615 379.838C123.849 379.987 124.143 380.062 124.497 380.062C124.927 380.062 125.239 379.964 125.435 379.768C125.575 379.609 125.645 379.437 125.645 379.25C125.645 379.054 125.585 378.895 125.463 378.774C125.305 378.606 124.978 378.522 124.483 378.522H123.867V377.402H124.385C124.684 377.402 124.908 377.351 125.057 377.248C125.225 377.117 125.309 376.945 125.309 376.73C125.309 376.506 125.225 376.338 125.057 376.226C124.917 376.123 124.698 376.072 124.399 376.072C124.119 376.072 123.863 376.128 123.629 376.24C123.433 376.333 123.261 376.464 123.111 376.632ZM132.791 375.792V375.106H134.163V381H132.791V380.384C132.334 380.916 131.746 381.182 131.027 381.182C130.159 381.182 129.464 380.874 128.941 380.258C128.428 379.642 128.171 378.905 128.171 378.046C128.171 377.113 128.447 376.366 128.997 375.806C129.557 375.237 130.239 374.952 131.041 374.952C131.779 374.952 132.362 375.232 132.791 375.792ZM131.209 376.184C130.724 376.184 130.327 376.366 130.019 376.73C129.721 377.094 129.571 377.542 129.571 378.074C129.571 378.597 129.721 379.04 130.019 379.404C130.327 379.768 130.724 379.95 131.209 379.95C131.676 379.95 132.068 379.787 132.385 379.46C132.712 379.133 132.875 378.676 132.875 378.088C132.875 377.481 132.712 377.015 132.385 376.688C132.068 376.352 131.676 376.184 131.209 376.184ZM135.147 381L136.995 378.662C136.631 378.606 136.318 378.457 136.057 378.214C135.73 377.897 135.567 377.491 135.567 376.996C135.567 376.436 135.749 375.983 136.113 375.638C136.486 375.283 137.056 375.106 137.821 375.106H140.019V381H138.647V378.83H138.367L136.757 381H135.147ZM138.647 377.71V376.282H137.849C137.522 376.282 137.284 376.324 137.135 376.408C136.911 376.548 136.799 376.744 136.799 376.996C136.799 377.248 136.892 377.439 137.079 377.57C137.219 377.663 137.471 377.71 137.835 377.71H138.647ZM141.755 375.106H144.065C144.653 375.106 145.101 375.223 145.409 375.456C145.773 375.745 145.955 376.123 145.955 376.59C145.955 377.122 145.721 377.505 145.255 377.738C145.553 377.794 145.819 377.925 146.053 378.13C146.361 378.41 146.515 378.788 146.515 379.264C146.515 379.833 146.3 380.281 145.871 380.608C145.516 380.869 145.063 381 144.513 381H141.755V375.106ZM143.127 377.402H143.827C144.069 377.402 144.251 377.36 144.373 377.276C144.55 377.164 144.639 377.005 144.639 376.8C144.639 376.604 144.559 376.45 144.401 376.338C144.289 376.263 144.088 376.226 143.799 376.226H143.127V377.402ZM143.127 379.88H144.149C144.457 379.88 144.695 379.824 144.863 379.712C145.049 379.591 145.143 379.418 145.143 379.194C145.143 378.951 145.054 378.779 144.877 378.676C144.718 378.573 144.489 378.522 144.191 378.522H143.127V379.88ZM148.536 375.834C149.143 375.246 149.894 374.952 150.79 374.952C151.686 374.952 152.433 375.246 153.03 375.834C153.637 376.413 153.94 377.155 153.94 378.06C153.94 378.956 153.637 379.703 153.03 380.3C152.433 380.888 151.686 381.182 150.79 381.182C149.894 381.182 149.143 380.888 148.536 380.3C147.939 379.703 147.64 378.956 147.64 378.06C147.64 377.155 147.939 376.413 148.536 375.834ZM149.516 379.446C149.833 379.782 150.258 379.95 150.79 379.95C151.322 379.95 151.747 379.782 152.064 379.446C152.381 379.101 152.54 378.643 152.54 378.074C152.54 377.449 152.367 376.977 152.022 376.66C151.686 376.343 151.275 376.184 150.79 376.184C150.305 376.184 149.889 376.343 149.544 376.66C149.208 376.977 149.04 377.449 149.04 378.074C149.04 378.643 149.199 379.101 149.516 379.446ZM155.372 375.106H156.744V377.206L158.704 375.106H160.524L157.948 377.682L160.664 381H158.928L156.968 378.578L156.744 378.802V381H155.372V375.106Z" fill="black"/>
<rect x="40.5" y="264.5" width="211" height="47" rx="7.5" stroke="#6A8EE8"/>
<path d="M81.068 293V291.684H80.816C79.4347 291.684 78.3987 291.348 77.708 290.676C77.0173 289.995 76.672 289.117 76.672 288.044C76.672 286.971 77.0173 286.098 77.708 285.426C78.3987 284.745 79.4347 284.404 80.816 284.404H81.068V283.284H82.496V284.404H82.748C84.1293 284.404 85.1653 284.745 85.856 285.426C86.5467 286.098 86.892 286.971 86.892 288.044C86.892 289.117 86.5467 289.995 85.856 290.676C85.1653 291.348 84.1293 291.684 82.748 291.684H82.496V293H81.068ZM81.068 290.368V285.72H80.788C79.892 285.72 79.22 285.935 78.772 286.364C78.324 286.784 78.1 287.344 78.1 288.044C78.1 288.744 78.324 289.309 78.772 289.738C79.22 290.158 79.892 290.368 80.788 290.368H81.068ZM82.496 285.72V290.368H82.776C83.672 290.368 84.344 290.158 84.792 289.738C85.24 289.309 85.464 288.744 85.464 288.044C85.464 287.344 85.24 286.784 84.792 286.364C84.344 285.935 83.672 285.72 82.776 285.72H82.496ZM89.0224 287.834C89.6291 287.246 90.3804 286.952 91.2764 286.952C92.1724 286.952 92.9191 287.246 93.5164 287.834C94.1231 288.413 94.4264 289.155 94.4264 290.06C94.4264 290.956 94.1231 291.703 93.5164 292.3C92.9191 292.888 92.1724 293.182 91.2764 293.182C90.3804 293.182 89.6291 292.888 89.0224 292.3C88.4251 291.703 88.1264 290.956 88.1264 290.06C88.1264 289.155 88.4251 288.413 89.0224 287.834ZM90.0024 291.446C90.3197 291.782 90.7444 291.95 91.2764 291.95C91.8084 291.95 92.2331 291.782 92.5504 291.446C92.8677 291.101 93.0264 290.643 93.0264 290.074C93.0264 289.449 92.8537 288.977 92.5084 288.66C92.1724 288.343 91.7617 288.184 91.2764 288.184C90.7911 288.184 90.3757 288.343 90.0304 288.66C89.6944 288.977 89.5264 289.449 89.5264 290.074C89.5264 290.643 89.6851 291.101 90.0024 291.446ZM97.2302 292.314V296.206H95.8582V287.106H97.2302V287.75C97.6782 287.218 98.2616 286.952 98.9802 286.952C99.7829 286.952 100.46 287.237 101.01 287.806C101.57 288.366 101.85 289.103 101.85 290.018C101.85 290.961 101.561 291.726 100.982 292.314C100.404 292.893 99.7409 293.182 98.9942 293.182C98.2942 293.182 97.7062 292.893 97.2302 292.314ZM98.8122 288.184C98.3456 288.184 97.9489 288.352 97.6222 288.688C97.3049 289.015 97.1462 289.481 97.1462 290.088C97.1462 290.676 97.3049 291.133 97.6222 291.46C97.9489 291.787 98.3456 291.95 98.8122 291.95C99.2976 291.95 99.6896 291.768 99.9882 291.404C100.296 291.04 100.45 290.597 100.45 290.074C100.45 289.542 100.296 289.094 99.9882 288.73C99.6896 288.366 99.2976 288.184 98.8122 288.184ZM102.61 293L104.038 286.574L106.474 291.068L108.91 286.574L110.338 293H108.938L108.35 290.046L106.474 293.448L104.598 290.046L104.01 293H102.61ZM115.715 287.792V287.106H117.087V293H115.715V292.384C115.258 292.916 114.67 293.182 113.951 293.182C113.083 293.182 112.388 292.874 111.865 292.258C111.352 291.642 111.095 290.905 111.095 290.046C111.095 289.113 111.37 288.366 111.921 287.806C112.481 287.237 113.162 286.952 113.965 286.952C114.702 286.952 115.286 287.232 115.715 287.792ZM114.133 288.184C113.648 288.184 113.251 288.366 112.943 288.73C112.644 289.094 112.495 289.542 112.495 290.074C112.495 290.597 112.644 291.04 112.943 291.404C113.251 291.768 113.648 291.95 114.133 291.95C114.6 291.95 114.992 291.787 115.309 291.46C115.636 291.133 115.799 290.676 115.799 290.088C115.799 289.481 115.636 289.015 115.309 288.688C114.992 288.352 114.6 288.184 114.133 288.184ZM122.095 287.106H127.219V293H125.847V288.366H123.467V293H122.095V287.106ZM129.546 287.834C130.153 287.246 130.904 286.952 131.8 286.952C132.696 286.952 133.443 287.246 134.04 287.834C134.647 288.413 134.95 289.155 134.95 290.06C134.95 290.956 134.647 291.703 134.04 292.3C133.443 292.888 132.696 293.182 131.8 293.182C130.904 293.182 130.153 292.888 129.546 292.3C128.949 291.703 128.65 290.956 128.65 290.06C128.65 289.155 128.949 288.413 129.546 287.834ZM130.526 291.446C130.843 291.782 131.268 291.95 131.8 291.95C132.332 291.95 132.757 291.782 133.074 291.446C133.391 291.101 133.55 290.643 133.55 290.074C133.55 289.449 133.377 288.977 133.032 288.66C132.696 288.343 132.285 288.184 131.8 288.184C131.315 288.184 130.899 288.343 130.554 288.66C130.218 288.977 130.05 289.449 130.05 290.074C130.05 290.643 130.209 291.101 130.526 291.446ZM136.382 287.106H137.754V290.452L141.786 286.574V293H140.414V289.57L136.382 293.448V287.106ZM148.082 287.372V288.912C147.588 288.427 147.032 288.184 146.416 288.184C145.894 288.184 145.46 288.357 145.114 288.702C144.778 289.038 144.61 289.491 144.61 290.06C144.61 290.648 144.788 291.119 145.142 291.474C145.478 291.791 145.894 291.95 146.388 291.95C147.07 291.95 147.634 291.698 148.082 291.194V292.72C147.588 293.028 146.99 293.182 146.29 293.182C145.348 293.182 144.601 292.893 144.05 292.314C143.49 291.735 143.21 290.998 143.21 290.102C143.21 289.178 143.509 288.417 144.106 287.82C144.685 287.241 145.474 286.952 146.472 286.952C147.042 286.952 147.578 287.092 148.082 287.372ZM149.397 287.106H150.769V289.206L152.729 287.106H154.549L151.973 289.682L154.689 293H152.953L150.993 290.578L150.769 290.802V293H149.397V287.106ZM159.903 287.792V287.106H161.275V293H159.903V292.384C159.445 292.916 158.857 293.182 158.139 293.182C157.271 293.182 156.575 292.874 156.053 292.258C155.539 291.642 155.283 290.905 155.283 290.046C155.283 289.113 155.558 288.366 156.109 287.806C156.669 287.237 157.35 286.952 158.153 286.952C158.89 286.952 159.473 287.232 159.903 287.792ZM158.321 288.184C157.835 288.184 157.439 288.366 157.131 288.73C156.832 289.094 156.683 289.542 156.683 290.074C156.683 290.597 156.832 291.04 157.131 291.404C157.439 291.768 157.835 291.95 158.321 291.95C158.787 291.95 159.179 291.787 159.497 291.46C159.823 291.133 159.987 290.676 159.987 290.088C159.987 289.481 159.823 289.015 159.497 288.688C159.179 288.352 158.787 288.184 158.321 288.184ZM166.282 287.106H171.406V293H170.034V288.366H167.654V293H166.282V287.106ZM173.733 287.834C174.34 287.246 175.091 286.952 175.987 286.952C176.883 286.952 177.63 287.246 178.227 287.834C178.834 288.413 179.137 289.155 179.137 290.06C179.137 290.956 178.834 291.703 178.227 292.3C177.63 292.888 176.883 293.182 175.987 293.182C175.091 293.182 174.34 292.888 173.733 292.3C173.136 291.703 172.837 290.956 172.837 290.06C172.837 289.155 173.136 288.413 173.733 287.834ZM174.713 291.446C175.031 291.782 175.455 291.95 175.987 291.95C176.519 291.95 176.944 291.782 177.261 291.446C177.579 291.101 177.737 290.643 177.737 290.074C177.737 289.449 177.565 288.977 177.219 288.66C176.883 288.343 176.473 288.184 175.987 288.184C175.502 288.184 175.087 288.343 174.741 288.66C174.405 288.977 174.237 289.449 174.237 290.074C174.237 290.643 174.396 291.101 174.713 291.446ZM183.837 287.106H188.961V293H187.589V288.366H185.209V293H183.837V287.106ZM191.288 287.834C191.895 287.246 192.646 286.952 193.542 286.952C194.438 286.952 195.185 287.246 195.782 287.834C196.389 288.413 196.692 289.155 196.692 290.06C196.692 290.956 196.389 291.703 195.782 292.3C195.185 292.888 194.438 293.182 193.542 293.182C192.646 293.182 191.895 292.888 191.288 292.3C190.691 291.703 190.392 290.956 190.392 290.06C190.392 289.155 190.691 288.413 191.288 287.834ZM192.268 291.446C192.585 291.782 193.01 291.95 193.542 291.95C194.074 291.95 194.499 291.782 194.816 291.446C195.133 291.101 195.292 290.643 195.292 290.074C195.292 289.449 195.119 288.977 194.774 288.66C194.438 288.343 194.027 288.184 193.542 288.184C193.057 288.184 192.641 288.343 192.296 288.66C191.96 288.977 191.792 289.449 191.792 290.074C191.792 290.643 191.951 291.101 192.268 291.446ZM201.316 293V290.718C200.896 290.802 200.495 290.844 200.112 290.844C199.44 290.844 198.922 290.699 198.558 290.41C198.175 290.102 197.984 289.631 197.984 288.996V287.106H199.356V288.716C199.356 289.117 199.473 289.388 199.706 289.528C199.865 289.621 200.093 289.668 200.392 289.668C200.728 289.668 201.036 289.617 201.316 289.514V287.106H202.688V293H201.316ZM208.487 288.366H206.765V293H205.393V288.366H203.671V287.106H208.487V288.366ZM213.451 291.012L214.599 291.656C214.338 292.123 214.006 292.482 213.605 292.734C213.148 293.033 212.569 293.182 211.869 293.182C211.048 293.182 210.385 292.93 209.881 292.426C209.302 291.847 209.013 291.096 209.013 290.172C209.013 289.201 209.326 288.394 209.951 287.75C210.483 287.218 211.141 286.952 211.925 286.952C212.69 286.952 213.32 287.209 213.815 287.722C214.366 288.291 214.641 289.122 214.641 290.214V290.382H210.413C210.45 290.877 210.618 291.273 210.917 291.572C211.169 291.824 211.519 291.95 211.967 291.95C212.331 291.95 212.644 291.852 212.905 291.656C213.12 291.488 213.302 291.273 213.451 291.012ZM210.511 289.262H213.241C213.185 288.935 213.045 288.669 212.821 288.464C212.578 288.24 212.27 288.128 211.897 288.128C211.505 288.128 211.183 288.254 210.931 288.506C210.726 288.693 210.586 288.945 210.511 289.262Z" fill="black"/>
<rect x="311.5" y="440.5" width="168" height="47" rx="7.5" stroke="#015CA3"/>
<path d="M349.548 459.662V463.386L353.16 459.662H355.036L350.822 463.89L355.064 469H353.16L349.828 464.856L349.548 465.136V469H348.12V459.662H349.548ZM359.809 463.792V463.106H361.181V469H359.809V468.384C359.352 468.916 358.764 469.182 358.045 469.182C357.177 469.182 356.482 468.874 355.959 468.258C355.446 467.642 355.189 466.905 355.189 466.046C355.189 465.113 355.464 464.366 356.015 463.806C356.575 463.237 357.256 462.952 358.059 462.952C358.796 462.952 359.38 463.232 359.809 463.792ZM358.227 464.184C357.742 464.184 357.345 464.366 357.037 464.73C356.738 465.094 356.589 465.542 356.589 466.074C356.589 466.597 356.738 467.04 357.037 467.404C357.345 467.768 357.742 467.95 358.227 467.95C358.694 467.95 359.086 467.787 359.403 467.46C359.73 467.133 359.893 466.676 359.893 466.088C359.893 465.481 359.73 465.015 359.403 464.688C359.086 464.352 358.694 464.184 358.227 464.184ZM364.293 468.314V472.206H362.921V463.106H364.293V463.75C364.741 463.218 365.324 462.952 366.043 462.952C366.845 462.952 367.522 463.237 368.073 463.806C368.633 464.366 368.913 465.103 368.913 466.018C368.913 466.961 368.623 467.726 368.045 468.314C367.466 468.893 366.803 469.182 366.057 469.182C365.357 469.182 364.769 468.893 364.293 468.314ZM365.875 464.184C365.408 464.184 365.011 464.352 364.685 464.688C364.367 465.015 364.209 465.481 364.209 466.088C364.209 466.676 364.367 467.133 364.685 467.46C365.011 467.787 365.408 467.95 365.875 467.95C366.36 467.95 366.752 467.768 367.051 467.404C367.359 467.04 367.513 466.597 367.513 466.074C367.513 465.542 367.359 465.094 367.051 464.73C366.752 464.366 366.36 464.184 365.875 464.184ZM374.405 464.366H372.683V469H371.311V464.366H369.589V463.106H374.405V464.366ZM375.827 463.834C376.434 463.246 377.185 462.952 378.081 462.952C378.977 462.952 379.724 463.246 380.321 463.834C380.928 464.413 381.231 465.155 381.231 466.06C381.231 466.956 380.928 467.703 380.321 468.3C379.724 468.888 378.977 469.182 378.081 469.182C377.185 469.182 376.434 468.888 375.827 468.3C375.23 467.703 374.931 466.956 374.931 466.06C374.931 465.155 375.23 464.413 375.827 463.834ZM376.807 467.446C377.124 467.782 377.549 467.95 378.081 467.95C378.613 467.95 379.038 467.782 379.355 467.446C379.672 467.101 379.831 466.643 379.831 466.074C379.831 465.449 379.658 464.977 379.313 464.66C378.977 464.343 378.566 464.184 378.081 464.184C377.596 464.184 377.18 464.343 376.835 464.66C376.499 464.977 376.331 465.449 376.331 466.074C376.331 466.643 376.49 467.101 376.807 467.446ZM385.855 469V466.718C385.435 466.802 385.034 466.844 384.651 466.844C383.979 466.844 383.461 466.699 383.097 466.41C382.714 466.102 382.523 465.631 382.523 464.996V463.106H383.895V464.716C383.895 465.117 384.012 465.388 384.245 465.528C384.404 465.621 384.632 465.668 384.931 465.668C385.267 465.668 385.575 465.617 385.855 465.514V463.106H387.227V469H385.855ZM388.966 463.106H390.338V465.206L392.298 463.106H394.118L391.542 465.682L394.258 469H392.522L390.562 466.578L390.338 466.802V469H388.966V463.106ZM399.471 463.792V463.106H400.843V469H399.471V468.384C399.014 468.916 398.426 469.182 397.707 469.182C396.839 469.182 396.144 468.874 395.621 468.258C395.108 467.642 394.851 466.905 394.851 466.046C394.851 465.113 395.126 464.366 395.677 463.806C396.237 463.237 396.918 462.952 397.721 462.952C398.458 462.952 399.042 463.232 399.471 463.792ZM397.889 464.184C397.404 464.184 397.007 464.366 396.699 464.73C396.4 465.094 396.251 465.542 396.251 466.074C396.251 466.597 396.4 467.04 396.699 467.404C397.007 467.768 397.404 467.95 397.889 467.95C398.356 467.95 398.748 467.787 399.065 467.46C399.392 467.133 399.555 466.676 399.555 466.088C399.555 465.481 399.392 465.015 399.065 464.688C398.748 464.352 398.356 464.184 397.889 464.184ZM406.648 464.632L405.766 463.862C405.99 463.591 406.289 463.372 406.662 463.204C407.054 463.036 407.516 462.952 408.048 462.952C408.664 462.952 409.164 463.087 409.546 463.358C409.957 463.657 410.162 464.058 410.162 464.562C410.162 464.889 410.078 465.159 409.91 465.374C409.77 465.561 409.584 465.701 409.35 465.794C409.705 465.869 409.99 466.013 410.204 466.228C410.456 466.48 410.582 466.807 410.582 467.208C410.582 467.74 410.414 468.174 410.078 468.51C409.63 468.958 408.94 469.182 408.006 469.182C407.381 469.182 406.868 469.065 406.466 468.832C406.046 468.589 405.738 468.239 405.542 467.782L406.634 467.222C406.765 467.502 406.938 467.707 407.152 467.838C407.386 467.987 407.68 468.062 408.034 468.062C408.464 468.062 408.776 467.964 408.972 467.768C409.112 467.609 409.182 467.437 409.182 467.25C409.182 467.054 409.122 466.895 409 466.774C408.842 466.606 408.515 466.522 408.02 466.522H407.404V465.402H407.922C408.221 465.402 408.445 465.351 408.594 465.248C408.762 465.117 408.846 464.945 408.846 464.73C408.846 464.506 408.762 464.338 408.594 464.226C408.454 464.123 408.235 464.072 407.936 464.072C407.656 464.072 407.4 464.128 407.166 464.24C406.97 464.333 406.798 464.464 406.648 464.632ZM416.328 463.792V463.106H417.7V469H416.328V468.384C415.871 468.916 415.283 469.182 414.564 469.182C413.696 469.182 413.001 468.874 412.478 468.258C411.965 467.642 411.708 466.905 411.708 466.046C411.708 465.113 411.984 464.366 412.534 463.806C413.094 463.237 413.776 462.952 414.578 462.952C415.316 462.952 415.899 463.232 416.328 463.792ZM414.746 464.184C414.261 464.184 413.864 464.366 413.556 464.73C413.258 465.094 413.108 465.542 413.108 466.074C413.108 466.597 413.258 467.04 413.556 467.404C413.864 467.768 414.261 467.95 414.746 467.95C415.213 467.95 415.605 467.787 415.922 467.46C416.249 467.133 416.412 466.676 416.412 466.088C416.412 465.481 416.249 465.015 415.922 464.688C415.605 464.352 415.213 464.184 414.746 464.184ZM418.684 469L420.532 466.662C420.168 466.606 419.856 466.457 419.594 466.214C419.268 465.897 419.104 465.491 419.104 464.996C419.104 464.436 419.286 463.983 419.65 463.638C420.024 463.283 420.593 463.106 421.358 463.106H423.556V469H422.184V466.83H421.904L420.294 469H418.684ZM422.184 465.71V464.282H421.386C421.06 464.282 420.822 464.324 420.672 464.408C420.448 464.548 420.336 464.744 420.336 464.996C420.336 465.248 420.43 465.439 420.616 465.57C420.756 465.663 421.008 465.71 421.372 465.71H422.184ZM425.292 463.106H427.602C428.19 463.106 428.638 463.223 428.946 463.456C429.31 463.745 429.492 464.123 429.492 464.59C429.492 465.122 429.258 465.505 428.792 465.738C429.09 465.794 429.356 465.925 429.59 466.13C429.898 466.41 430.052 466.788 430.052 467.264C430.052 467.833 429.837 468.281 429.408 468.608C429.053 468.869 428.6 469 428.05 469H425.292V463.106ZM426.664 465.402H427.364C427.606 465.402 427.788 465.36 427.91 465.276C428.087 465.164 428.176 465.005 428.176 464.8C428.176 464.604 428.096 464.45 427.938 464.338C427.826 464.263 427.625 464.226 427.336 464.226H426.664V465.402ZM426.664 467.88H427.686C427.994 467.88 428.232 467.824 428.4 467.712C428.586 467.591 428.68 467.418 428.68 467.194C428.68 466.951 428.591 466.779 428.414 466.676C428.255 466.573 428.026 466.522 427.728 466.522H426.664V467.88ZM431.485 463.106H432.857V465.206L434.817 463.106H436.637L434.061 465.682L436.777 469H435.041L433.081 466.578L432.857 466.802V469H431.485V463.106ZM437.679 463.106H439.051V466.452L443.083 462.574V469H441.711V465.57L437.679 469.448V463.106Z" fill="black"/>
<rect x="681.5" y="528.5" width="282" height="47" rx="7.5" stroke="#5201A3"/>
<path d="M722.068 557V555.684H721.816C720.435 555.684 719.399 555.348 718.708 554.676C718.017 553.995 717.672 553.117 717.672 552.044C717.672 550.971 718.017 550.098 718.708 549.426C719.399 548.745 720.435 548.404 721.816 548.404H722.068V547.284H723.496V548.404H723.748C725.129 548.404 726.165 548.745 726.856 549.426C727.547 550.098 727.892 550.971 727.892 552.044C727.892 553.117 727.547 553.995 726.856 554.676C726.165 555.348 725.129 555.684 723.748 555.684H723.496V557H722.068ZM722.068 554.368V549.72H721.788C720.892 549.72 720.22 549.935 719.772 550.364C719.324 550.784 719.1 551.344 719.1 552.044C719.1 552.744 719.324 553.309 719.772 553.738C720.22 554.158 720.892 554.368 721.788 554.368H722.068ZM723.496 549.72V554.368H723.776C724.672 554.368 725.344 554.158 725.792 553.738C726.24 553.309 726.464 552.744 726.464 552.044C726.464 551.344 726.24 550.784 725.792 550.364C725.344 549.935 724.672 549.72 723.776 549.72H723.496ZM730.022 551.834C730.629 551.246 731.38 550.952 732.276 550.952C733.172 550.952 733.919 551.246 734.516 551.834C735.123 552.413 735.426 553.155 735.426 554.06C735.426 554.956 735.123 555.703 734.516 556.3C733.919 556.888 733.172 557.182 732.276 557.182C731.38 557.182 730.629 556.888 730.022 556.3C729.425 555.703 729.126 554.956 729.126 554.06C729.126 553.155 729.425 552.413 730.022 551.834ZM731.002 555.446C731.32 555.782 731.744 555.95 732.276 555.95C732.808 555.95 733.233 555.782 733.55 555.446C733.868 555.101 734.026 554.643 734.026 554.074C734.026 553.449 733.854 552.977 733.508 552.66C733.172 552.343 732.762 552.184 732.276 552.184C731.791 552.184 731.376 552.343 731.03 552.66C730.694 552.977 730.526 553.449 730.526 554.074C730.526 554.643 730.685 555.101 731.002 555.446ZM738.23 556.314V560.206H736.858V551.106H738.23V551.75C738.678 551.218 739.262 550.952 739.98 550.952C740.783 550.952 741.46 551.237 742.01 551.806C742.57 552.366 742.85 553.103 742.85 554.018C742.85 554.961 742.561 555.726 741.982 556.314C741.404 556.893 740.741 557.182 739.994 557.182C739.294 557.182 738.706 556.893 738.23 556.314ZM739.812 552.184C739.346 552.184 738.949 552.352 738.622 552.688C738.305 553.015 738.146 553.481 738.146 554.088C738.146 554.676 738.305 555.133 738.622 555.46C738.949 555.787 739.346 555.95 739.812 555.95C740.298 555.95 740.69 555.768 740.988 555.404C741.296 555.04 741.45 554.597 741.45 554.074C741.45 553.542 741.296 553.094 740.988 552.73C740.69 552.366 740.298 552.184 739.812 552.184ZM743.61 557L745.038 550.574L747.474 555.068L749.91 550.574L751.338 557H749.938L749.35 554.046L747.474 557.448L745.598 554.046L745.01 557H743.61ZM756.715 551.792V551.106H758.087V557H756.715V556.384C756.258 556.916 755.67 557.182 754.951 557.182C754.083 557.182 753.388 556.874 752.865 556.258C752.352 555.642 752.095 554.905 752.095 554.046C752.095 553.113 752.37 552.366 752.921 551.806C753.481 551.237 754.162 550.952 754.965 550.952C755.702 550.952 756.286 551.232 756.715 551.792ZM755.133 552.184C754.648 552.184 754.251 552.366 753.943 552.73C753.644 553.094 753.495 553.542 753.495 554.074C753.495 554.597 753.644 555.04 753.943 555.404C754.251 555.768 754.648 555.95 755.133 555.95C755.6 555.95 755.992 555.787 756.309 555.46C756.636 555.133 756.799 554.676 756.799 554.088C756.799 553.481 756.636 553.015 756.309 552.688C755.992 552.352 755.6 552.184 755.133 552.184ZM763.095 551.106H768.219V557H766.847V552.366H764.467V557H763.095V551.106ZM770.546 551.834C771.153 551.246 771.904 550.952 772.8 550.952C773.696 550.952 774.443 551.246 775.04 551.834C775.647 552.413 775.95 553.155 775.95 554.06C775.95 554.956 775.647 555.703 775.04 556.3C774.443 556.888 773.696 557.182 772.8 557.182C771.904 557.182 771.153 556.888 770.546 556.3C769.949 555.703 769.65 554.956 769.65 554.06C769.65 553.155 769.949 552.413 770.546 551.834ZM771.526 555.446C771.843 555.782 772.268 555.95 772.8 555.95C773.332 555.95 773.757 555.782 774.074 555.446C774.391 555.101 774.55 554.643 774.55 554.074C774.55 553.449 774.377 552.977 774.032 552.66C773.696 552.343 773.285 552.184 772.8 552.184C772.315 552.184 771.899 552.343 771.554 552.66C771.218 552.977 771.05 553.449 771.05 554.074C771.05 554.643 771.209 555.101 771.526 555.446ZM777.886 551.106H782.31V555.74H783.206V558.68H781.946V557H777.83V558.68H776.57V555.74C777.046 555.712 777.405 555.455 777.648 554.97C777.806 554.625 777.886 554.107 777.886 553.416V551.106ZM780.938 555.74V552.366H779.202V553.934C779.202 554.783 778.973 555.385 778.516 555.74H780.938ZM788.25 552.366H786.528V557H785.156V552.366H783.434V551.106H788.25V552.366ZM789.235 551.106H791.545C792.133 551.106 792.581 551.223 792.889 551.456C793.253 551.745 793.435 552.123 793.435 552.59C793.435 553.122 793.202 553.505 792.735 553.738C793.034 553.794 793.3 553.925 793.533 554.13C793.841 554.41 793.995 554.788 793.995 555.264C793.995 555.833 793.781 556.281 793.351 556.608C792.997 556.869 792.544 557 791.993 557H789.235V551.106ZM790.607 553.402H791.307C791.55 553.402 791.732 553.36 791.853 553.276C792.031 553.164 792.119 553.005 792.119 552.8C792.119 552.604 792.04 552.45 791.881 552.338C791.769 552.263 791.569 552.226 791.279 552.226H790.607V553.402ZM790.607 555.88H791.629C791.937 555.88 792.175 555.824 792.343 555.712C792.53 555.591 792.623 555.418 792.623 555.194C792.623 554.951 792.535 554.779 792.357 554.676C792.199 554.573 791.97 554.522 791.671 554.522H790.607V555.88ZM799.559 555.012L800.707 555.656C800.445 556.123 800.114 556.482 799.713 556.734C799.255 557.033 798.677 557.182 797.977 557.182C797.155 557.182 796.493 556.93 795.989 556.426C795.41 555.847 795.121 555.096 795.121 554.172C795.121 553.201 795.433 552.394 796.059 551.75C796.591 551.218 797.249 550.952 798.033 550.952C798.798 550.952 799.428 551.209 799.923 551.722C800.473 552.291 800.749 553.122 800.749 554.214V554.382H796.521C796.558 554.877 796.726 555.273 797.025 555.572C797.277 555.824 797.627 555.95 798.075 555.95C798.439 555.95 798.751 555.852 799.013 555.656C799.227 555.488 799.409 555.273 799.559 555.012ZM796.619 553.262H799.349C799.293 552.935 799.153 552.669 798.929 552.464C798.686 552.24 798.378 552.128 798.005 552.128C797.613 552.128 797.291 552.254 797.039 552.506C796.833 552.693 796.693 552.945 796.619 553.262ZM803.554 556.314V560.206H802.182V551.106H803.554V551.75C804.002 551.218 804.586 550.952 805.304 550.952C806.107 550.952 806.784 551.237 807.334 551.806C807.894 552.366 808.174 553.103 808.174 554.018C808.174 554.961 807.885 555.726 807.306 556.314C806.728 556.893 806.065 557.182 805.318 557.182C804.618 557.182 804.03 556.893 803.554 556.314ZM805.136 552.184C804.67 552.184 804.273 552.352 803.946 552.688C803.629 553.015 803.47 553.481 803.47 554.088C803.47 554.676 803.629 555.133 803.946 555.46C804.273 555.787 804.67 555.95 805.136 555.95C805.622 555.95 806.014 555.768 806.312 555.404C806.62 555.04 806.774 554.597 806.774 554.074C806.774 553.542 806.62 553.094 806.312 552.73C806.014 552.366 805.622 552.184 805.136 552.184ZM812.42 551.106H813.792V553.29L815.57 551.106H817.222L814.94 553.794L817.446 557H815.738L813.96 554.634L813.792 554.83V557H812.42V554.83L812.252 554.634L810.474 557H808.766L811.272 553.794L808.99 551.106H810.642L812.42 553.29V551.106ZM819.147 551.106H823.571V555.74H824.467V558.68H823.207V557H819.091V558.68H817.831V555.74C818.307 555.712 818.667 555.455 818.909 554.97C819.068 554.625 819.147 554.107 819.147 553.416V551.106ZM822.199 555.74V552.366H820.463V553.934C820.463 554.783 820.235 555.385 819.777 555.74H822.199ZM829.582 555.012L830.73 555.656C830.469 556.123 830.137 556.482 829.736 556.734C829.279 557.033 828.7 557.182 828 557.182C827.179 557.182 826.516 556.93 826.012 556.426C825.433 555.847 825.144 555.096 825.144 554.172C825.144 553.201 825.457 552.394 826.082 551.75C826.614 551.218 827.272 550.952 828.056 550.952C828.821 550.952 829.451 551.209 829.946 551.722C830.497 552.291 830.772 553.122 830.772 554.214V554.382H826.544C826.581 554.877 826.749 555.273 827.048 555.572C827.3 555.824 827.65 555.95 828.098 555.95C828.462 555.95 828.775 555.852 829.036 555.656C829.251 555.488 829.433 555.273 829.582 555.012ZM826.642 553.262H829.372C829.316 552.935 829.176 552.669 828.952 552.464C828.709 552.24 828.401 552.128 828.028 552.128C827.636 552.128 827.314 552.254 827.062 552.506C826.857 552.693 826.717 552.945 826.642 553.262ZM832.206 557V551.106H833.578V553.29H836.014V551.106H837.386V557H836.014V554.55H833.578V557H832.206ZM839.124 551.106H840.496V554.452L844.528 550.574V557H843.156V553.57L839.124 557.448V551.106ZM845.505 557L847.353 554.662C846.989 554.606 846.676 554.457 846.415 554.214C846.088 553.897 845.925 553.491 845.925 552.996C845.925 552.436 846.107 551.983 846.471 551.638C846.844 551.283 847.413 551.106 848.179 551.106H850.377V557H849.005V554.83H848.725L847.115 557H845.505ZM849.005 553.71V552.282H848.207C847.88 552.282 847.642 552.324 847.493 552.408C847.269 552.548 847.157 552.744 847.157 552.996C847.157 553.248 847.25 553.439 847.437 553.57C847.577 553.663 847.829 553.71 848.193 553.71H849.005ZM856.752 556.314V560.206H855.38V551.106H856.752V551.75C857.2 551.218 857.783 550.952 858.502 550.952C859.304 550.952 859.981 551.237 860.532 551.806C861.092 552.366 861.372 553.103 861.372 554.018C861.372 554.961 861.082 555.726 860.504 556.314C859.925 556.893 859.262 557.182 858.516 557.182C857.816 557.182 857.228 556.893 856.752 556.314ZM858.334 552.184C857.867 552.184 857.47 552.352 857.144 552.688C856.826 553.015 856.668 553.481 856.668 554.088C856.668 554.676 856.826 555.133 857.144 555.46C857.47 555.787 857.867 555.95 858.334 555.95C858.819 555.95 859.211 555.768 859.51 555.404C859.818 555.04 859.972 554.597 859.972 554.074C859.972 553.542 859.818 553.094 859.51 552.73C859.211 552.366 858.819 552.184 858.334 552.184ZM866.934 555.012L868.082 555.656C867.82 556.123 867.489 556.482 867.088 556.734C866.63 557.033 866.052 557.182 865.352 557.182C864.53 557.182 863.868 556.93 863.364 556.426C862.785 555.847 862.496 555.096 862.496 554.172C862.496 553.201 862.808 552.394 863.434 551.75C863.966 551.218 864.624 550.952 865.408 550.952C866.173 550.952 866.803 551.209 867.298 551.722C867.848 552.291 868.124 553.122 868.124 554.214V554.382H863.896C863.933 554.877 864.101 555.273 864.4 555.572C864.652 555.824 865.002 555.95 865.45 555.95C865.814 555.95 866.126 555.852 866.388 555.656C866.602 555.488 866.784 555.273 866.934 555.012ZM863.994 553.262H866.724C866.668 552.935 866.528 552.669 866.304 552.464C866.061 552.24 865.753 552.128 865.38 552.128C864.988 552.128 864.666 552.254 864.414 552.506C864.208 552.693 864.068 552.945 863.994 553.262ZM869.557 557V551.106H873.169V552.366H870.929V557H869.557ZM874.151 551.106H875.523V554.452L879.555 550.574V557H878.183V553.57L874.151 557.448V551.106ZM885.852 551.372V552.912C885.357 552.427 884.802 552.184 884.186 552.184C883.663 552.184 883.229 552.357 882.884 552.702C882.548 553.038 882.38 553.491 882.38 554.06C882.38 554.648 882.557 555.119 882.912 555.474C883.248 555.791 883.663 555.95 884.158 555.95C884.839 555.95 885.404 555.698 885.852 555.194V556.72C885.357 557.028 884.76 557.182 884.06 557.182C883.117 557.182 882.371 556.893 881.82 556.314C881.26 555.735 880.98 554.998 880.98 554.102C880.98 553.178 881.279 552.417 881.876 551.82C882.455 551.241 883.243 550.952 884.242 550.952C884.811 550.952 885.348 551.092 885.852 551.372ZM891.364 552.366H889.642V557H888.27V552.366H886.548V551.106H891.364V552.366ZM893.72 556.314V560.206H892.348V551.106H893.72V551.75C894.168 551.218 894.752 550.952 895.47 550.952C896.273 550.952 896.95 551.237 897.5 551.806C898.06 552.366 898.34 553.103 898.34 554.018C898.34 554.961 898.051 555.726 897.472 556.314C896.894 556.893 896.231 557.182 895.484 557.182C894.784 557.182 894.196 556.893 893.72 556.314ZM895.302 552.184C894.836 552.184 894.439 552.352 894.112 552.688C893.795 553.015 893.636 553.481 893.636 554.088C893.636 554.676 893.795 555.133 894.112 555.46C894.439 555.787 894.836 555.95 895.302 555.95C895.788 555.95 896.18 555.768 896.478 555.404C896.786 555.04 896.94 554.597 896.94 554.074C896.94 553.542 896.786 553.094 896.478 552.73C896.18 552.366 895.788 552.184 895.302 552.184ZM904.084 551.792V551.106H905.456V557H904.084V556.384C903.627 556.916 903.039 557.182 902.32 557.182C901.452 557.182 900.757 556.874 900.234 556.258C899.721 555.642 899.464 554.905 899.464 554.046C899.464 553.113 899.74 552.366 900.29 551.806C900.85 551.237 901.532 550.952 902.334 550.952C903.072 550.952 903.655 551.232 904.084 551.792ZM902.502 552.184C902.017 552.184 901.62 552.366 901.312 552.73C901.014 553.094 900.864 553.542 900.864 554.074C900.864 554.597 901.014 555.04 901.312 555.404C901.62 555.768 902.017 555.95 902.502 555.95C902.969 555.95 903.361 555.787 903.678 555.46C904.005 555.133 904.168 554.676 904.168 554.088C904.168 553.481 904.005 553.015 903.678 552.688C903.361 552.352 902.969 552.184 902.502 552.184ZM907.196 557V551.106H908.568V555.74H910.892V551.106H912.264V555.74H913.244V558.68H911.984V557H907.196ZM914.223 551.106H915.595V554.452L919.627 550.574V557H918.255V553.57L914.223 557.448V551.106ZM921.36 551.106H922.732V554.452L926.764 550.574V557H925.392V553.57L921.36 557.448V551.106Z" fill="black"/>
<rect x="681.5" y="616.5" width="193" height="47" rx="7.5" stroke="#5201A3"/>
<path d="M719.058 636.88C719.982 635.956 721.139 635.494 722.53 635.494C723.921 635.494 725.078 635.956 726.002 636.88C726.926 637.804 727.388 638.957 727.388 640.338C727.388 641.719 726.926 642.872 726.002 643.796C725.078 644.72 723.921 645.182 722.53 645.182C721.139 645.182 719.982 644.72 719.058 643.796C718.134 642.872 717.672 641.719 717.672 640.338C717.672 638.957 718.134 637.804 719.058 636.88ZM720.066 642.886C720.71 643.539 721.531 643.866 722.53 643.866C723.529 643.866 724.35 643.539 724.994 642.886C725.638 642.223 725.96 641.374 725.96 640.338C725.96 639.302 725.638 638.457 724.994 637.804C724.35 637.141 723.529 636.81 722.53 636.81C721.531 636.81 720.71 637.141 720.066 637.804C719.422 638.457 719.1 639.302 719.1 640.338C719.1 641.374 719.422 642.223 720.066 642.886ZM732.989 640.366H731.267V645H729.895V640.366H728.173V639.106H732.989V640.366ZM733.973 639.106H735.345V641.206L737.305 639.106H739.125L736.549 641.682L739.265 645H737.529L735.569 642.578L735.345 642.802V645H733.973V639.106ZM744.479 639.792V639.106H745.851V645H744.479V644.384C744.021 644.916 743.433 645.182 742.715 645.182C741.847 645.182 741.151 644.874 740.629 644.258C740.115 643.642 739.859 642.905 739.859 642.046C739.859 641.113 740.134 640.366 740.685 639.806C741.245 639.237 741.926 638.952 742.729 638.952C743.466 638.952 744.049 639.232 744.479 639.792ZM742.897 640.184C742.411 640.184 742.015 640.366 741.707 640.73C741.408 641.094 741.259 641.542 741.259 642.074C741.259 642.597 741.408 643.04 741.707 643.404C742.015 643.768 742.411 643.95 742.897 643.95C743.363 643.95 743.755 643.787 744.073 643.46C744.399 643.133 744.563 642.676 744.563 642.088C744.563 641.481 744.399 641.015 744.073 640.688C743.755 640.352 743.363 640.184 742.897 640.184ZM748.389 640.632L747.507 639.862C747.731 639.591 748.029 639.372 748.403 639.204C748.795 639.036 749.257 638.952 749.789 638.952C750.405 638.952 750.904 639.087 751.287 639.358C751.697 639.657 751.903 640.058 751.903 640.562C751.903 640.889 751.819 641.159 751.651 641.374C751.511 641.561 751.324 641.701 751.091 641.794C751.445 641.869 751.73 642.013 751.945 642.228C752.197 642.48 752.323 642.807 752.323 643.208C752.323 643.74 752.155 644.174 751.819 644.51C751.371 644.958 750.68 645.182 749.747 645.182C749.121 645.182 748.608 645.065 748.207 644.832C747.787 644.589 747.479 644.239 747.283 643.782L748.375 643.222C748.505 643.502 748.678 643.707 748.893 643.838C749.126 643.987 749.42 644.062 749.775 644.062C750.204 644.062 750.517 643.964 750.713 643.768C750.853 643.609 750.923 643.437 750.923 643.25C750.923 643.054 750.862 642.895 750.741 642.774C750.582 642.606 750.255 642.522 749.761 642.522H749.145V641.402H749.663C749.961 641.402 750.185 641.351 750.335 641.248C750.503 641.117 750.587 640.945 750.587 640.73C750.587 640.506 750.503 640.338 750.335 640.226C750.195 640.123 749.975 640.072 749.677 640.072C749.397 640.072 749.14 640.128 748.907 640.24C748.711 640.333 748.538 640.464 748.389 640.632ZM757.024 639.106H759.334C759.922 639.106 760.37 639.223 760.678 639.456C761.042 639.745 761.224 640.123 761.224 640.59C761.224 641.122 760.991 641.505 760.524 641.738C760.823 641.794 761.089 641.925 761.322 642.13C761.63 642.41 761.784 642.788 761.784 643.264C761.784 643.833 761.57 644.281 761.14 644.608C760.786 644.869 760.333 645 759.782 645H757.024V639.106ZM758.396 641.402H759.096C759.339 641.402 759.521 641.36 759.642 641.276C759.82 641.164 759.908 641.005 759.908 640.8C759.908 640.604 759.829 640.45 759.67 640.338C759.558 640.263 759.358 640.226 759.068 640.226H758.396V641.402ZM758.396 643.88H759.418C759.726 643.88 759.964 643.824 760.132 643.712C760.319 643.591 760.412 643.418 760.412 643.194C760.412 642.951 760.324 642.779 760.146 642.676C759.988 642.573 759.759 642.522 759.46 642.522H758.396V643.88ZM767.857 644.314V648.206H766.485V639.106H767.857V639.75C768.305 639.218 768.889 638.952 769.607 638.952C770.41 638.952 771.087 639.237 771.637 639.806C772.197 640.366 772.477 641.103 772.477 642.018C772.477 642.961 772.188 643.726 771.609 644.314C771.031 644.893 770.368 645.182 769.621 645.182C768.921 645.182 768.333 644.893 767.857 644.314ZM769.439 640.184C768.973 640.184 768.576 640.352 768.249 640.688C767.932 641.015 767.773 641.481 767.773 642.088C767.773 642.676 767.932 643.133 768.249 643.46C768.576 643.787 768.973 643.95 769.439 643.95C769.925 643.95 770.317 643.768 770.615 643.404C770.923 643.04 771.077 642.597 771.077 642.074C771.077 641.542 770.923 641.094 770.615 640.73C770.317 640.366 769.925 640.184 769.439 640.184ZM778.039 643.012L779.187 643.656C778.926 644.123 778.594 644.482 778.193 644.734C777.736 645.033 777.157 645.182 776.457 645.182C775.636 645.182 774.973 644.93 774.469 644.426C773.89 643.847 773.601 643.096 773.601 642.172C773.601 641.201 773.914 640.394 774.539 639.75C775.071 639.218 775.729 638.952 776.513 638.952C777.278 638.952 777.908 639.209 778.403 639.722C778.954 640.291 779.229 641.122 779.229 642.214V642.382H775.001C775.038 642.877 775.206 643.273 775.505 643.572C775.757 643.824 776.107 643.95 776.555 643.95C776.919 643.95 777.232 643.852 777.493 643.656C777.708 643.488 777.89 643.273 778.039 643.012ZM775.099 641.262H777.829C777.773 640.935 777.633 640.669 777.409 640.464C777.166 640.24 776.858 640.128 776.485 640.128C776.093 640.128 775.771 640.254 775.519 640.506C775.314 640.693 775.174 640.945 775.099 641.262ZM780.663 645V639.106H784.275V640.366H782.035V645H780.663ZM785.257 639.106H786.629V642.452L790.661 638.574V645H789.289V641.57L785.257 645.448V639.106ZM796.957 639.372V640.912C796.463 640.427 795.907 640.184 795.291 640.184C794.769 640.184 794.335 640.357 793.989 640.702C793.653 641.038 793.485 641.491 793.485 642.06C793.485 642.648 793.663 643.119 794.017 643.474C794.353 643.791 794.769 643.95 795.263 643.95C795.945 643.95 796.509 643.698 796.957 643.194V644.72C796.463 645.028 795.865 645.182 795.165 645.182C794.223 645.182 793.476 644.893 792.925 644.314C792.365 643.735 792.085 642.998 792.085 642.102C792.085 641.178 792.384 640.417 792.981 639.82C793.56 639.241 794.349 638.952 795.347 638.952C795.917 638.952 796.453 639.092 796.957 639.372ZM802.469 640.366H800.747V645H799.375V640.366H797.653V639.106H802.469V640.366ZM804.826 644.314V648.206H803.454V639.106H804.826V639.75C805.274 639.218 805.857 638.952 806.576 638.952C807.379 638.952 808.055 639.237 808.606 639.806C809.166 640.366 809.446 641.103 809.446 642.018C809.446 642.961 809.157 643.726 808.578 644.314C807.999 644.893 807.337 645.182 806.59 645.182C805.89 645.182 805.302 644.893 804.826 644.314ZM806.408 640.184C805.941 640.184 805.545 640.352 805.218 640.688C804.901 641.015 804.742 641.481 804.742 642.088C804.742 642.676 804.901 643.133 805.218 643.46C805.545 643.787 805.941 643.95 806.408 643.95C806.893 643.95 807.285 643.768 807.584 643.404C807.892 643.04 808.046 642.597 808.046 642.074C808.046 641.542 807.892 641.094 807.584 640.73C807.285 640.366 806.893 640.184 806.408 640.184ZM815.19 639.792V639.106H816.562V645H815.19V644.384C814.732 644.916 814.144 645.182 813.426 645.182C812.558 645.182 811.862 644.874 811.34 644.258C810.826 643.642 810.57 642.905 810.57 642.046C810.57 641.113 810.845 640.366 811.396 639.806C811.956 639.237 812.637 638.952 813.44 638.952C814.177 638.952 814.76 639.232 815.19 639.792ZM813.608 640.184C813.122 640.184 812.726 640.366 812.418 640.73C812.119 641.094 811.97 641.542 811.97 642.074C811.97 642.597 812.119 643.04 812.418 643.404C812.726 643.768 813.122 643.95 813.608 643.95C814.074 643.95 814.466 643.787 814.784 643.46C815.11 643.133 815.274 642.676 815.274 642.088C815.274 641.481 815.11 641.015 814.784 640.688C814.466 640.352 814.074 640.184 813.608 640.184ZM818.302 645V639.106H819.674V643.74H821.998V639.106H823.37V643.74H824.35V646.68H823.09V645H818.302ZM825.329 639.106H826.701V642.452L830.733 638.574V645H829.361V641.57L825.329 645.448V639.106ZM832.466 639.106H833.838V642.452L837.87 638.574V645H836.498V641.57L832.466 645.448V639.106Z" fill="black"/>
<path d="M1 287.5C0.447715 287.5 -1.56661e-07 287.948 0 288.5C1.56661e-07 289.052 0.447716 289.5 1 289.5L1 287.5ZM39.7071 289.207C40.0976 288.817 40.0976 288.183 39.7071 287.793L33.3431 281.429C32.9526 281.038 32.3194 281.038 31.9289 281.429C31.5384 281.819 31.5384 282.453 31.9289 282.843L37.5858 288.5L31.9289 294.157C31.5384 294.547 31.5384 295.181 31.9289 295.571C32.3194 295.962 32.9526 295.962 33.3431 295.571L39.7071 289.207ZM1 289.5L39 289.5L39 287.5L1 287.5L1 289.5Z" fill="#A6AEBF"/>
<path d="M1 111C0.447715 111 -1.56661e-07 111.448 0 112C1.56661e-07 112.552 0.447716 113 1 113L1 111ZM39.7071 112.707C40.0976 112.317 40.0976 111.683 39.7071 111.293L33.3431 104.929C32.9526 104.538 32.3194 104.538 31.9289 104.929C31.5384 105.319 31.5384 105.953 31.9289 106.343L37.5858 112L31.9289 117.657C31.5384 118.047 31.5384 118.681 31.9289 119.071C32.3194 119.462 32.9526 119.462 33.3431 119.071L39.7071 112.707ZM1 113L39 113L39 111L1 111L1 113Z" fill="#A6AEBF"/>
<path d="M39 25L40 25L40 23L39 23L39 25ZM39.7071 376.707C40.0976 376.317 40.0976 375.683 39.7071 375.293L33.3432 368.929C32.9526 368.538 32.3195 368.538 31.9289 368.929C31.5384 369.319 31.5384 369.953 31.9289 370.343L37.5858 376L31.9289 381.657C31.5384 382.047 31.5384 382.681 31.9289 383.071C32.3195 383.462 32.9526 383.462 33.3432 383.071L39.7071 376.707ZM2 368L1.99998 32L-1.50367e-05 32L-3.49691e-07 368L2 368ZM8.99998 25L39 25L39 23L8.99998 23L8.99998 25ZM39 375L9 375L9 377L39 377L39 375ZM1.99998 32C1.99998 28.134 5.13399 25 8.99998 25L8.99998 23C4.02942 23 -1.5254e-05 27.0294 -1.50367e-05 32L1.99998 32ZM-3.49691e-07 368C-1.32421e-07 372.971 4.02944 377 9 377L9 375C5.13401 375 2 371.866 2 368L-3.49691e-07 368Z" fill="#A6AEBF"/>
<path d="M79 401L79 400L77 400L77 401L79 401ZM310.707 464.707C311.098 464.317 311.098 463.683 310.707 463.293L304.343 456.929C303.953 456.538 303.319 456.538 302.929 456.929C302.538 457.319 302.538 457.953 302.929 458.343L308.586 464L302.929 469.657C302.538 470.047 302.538 470.681 302.929 471.071C303.319 471.462 303.953 471.462 304.343 471.071L310.707 464.707ZM79 456L79 401L77 401L77 456L79 456ZM310 463L86 463L86 465L310 465L310 463ZM77 456C77 460.971 81.0294 465 86 465L86 463C82.134 463 79 459.866 79 456L77 456Z" fill="#A6AEBF"/>
<rect x="40.5" y="88.5" width="178" height="47" rx="7.5" stroke="#6A8EE8"/>
<path d="M77.12 107.662H83.98V117H82.552V109.006H78.548V117H77.12V107.662ZM90.2855 111.792V111.106H91.6575V117H90.2855V116.384C89.8281 116.916 89.2401 117.182 88.5215 117.182C87.6535 117.182 86.9581 116.874 86.4355 116.258C85.9221 115.642 85.6655 114.905 85.6655 114.046C85.6655 113.113 85.9408 112.366 86.4915 111.806C87.0515 111.237 87.7328 110.952 88.5355 110.952C89.2728 110.952 89.8561 111.232 90.2855 111.792ZM88.7035 112.184C88.2181 112.184 87.8215 112.366 87.5135 112.73C87.2148 113.094 87.0655 113.542 87.0655 114.074C87.0655 114.597 87.2148 115.04 87.5135 115.404C87.8215 115.768 88.2181 115.95 88.7035 115.95C89.1701 115.95 89.5621 115.787 89.8795 115.46C90.2061 115.133 90.3695 114.676 90.3695 114.088C90.3695 113.481 90.2061 113.015 89.8795 112.688C89.5621 112.352 89.1701 112.184 88.7035 112.184ZM93.3973 117V111.106H94.7693V113.29H97.2053V111.106H98.5773V117H97.2053V114.55H94.7693V117H93.3973ZM104.445 115.012L105.593 115.656C105.332 116.123 105.001 116.482 104.599 116.734C104.142 117.033 103.563 117.182 102.863 117.182C102.042 117.182 101.379 116.93 100.875 116.426C100.297 115.847 100.007 115.096 100.007 114.172C100.007 113.201 100.32 112.394 100.945 111.75C101.477 111.218 102.135 110.952 102.919 110.952C103.685 110.952 104.315 111.209 104.809 111.722C105.36 112.291 105.635 113.122 105.635 114.214V114.382H101.407C101.445 114.877 101.613 115.273 101.911 115.572C102.163 115.824 102.513 115.95 102.961 115.95C103.325 115.95 103.638 115.852 103.899 115.656C104.114 115.488 104.296 115.273 104.445 115.012ZM101.505 113.262H104.235C104.179 112.935 104.039 112.669 103.815 112.464C103.573 112.24 103.265 112.128 102.891 112.128C102.499 112.128 102.177 112.254 101.925 112.506C101.72 112.693 101.58 112.945 101.505 113.262ZM111.913 111.106V117H110.541V112.366H108.805V114.704C108.805 115.432 108.619 115.997 108.245 116.398C107.769 116.93 107.125 117.131 106.313 117V115.74C106.715 115.833 107.037 115.745 107.279 115.474C107.419 115.306 107.489 115.049 107.489 114.704V111.106H111.913ZM113.645 117V111.106H115.017V113.192H115.801C116.053 113.192 116.259 113.201 116.417 113.22C116.576 113.229 116.767 113.281 116.991 113.374C117.215 113.467 117.411 113.607 117.579 113.794C117.887 114.139 118.041 114.569 118.041 115.082C118.041 115.67 117.864 116.141 117.509 116.496C117.351 116.655 117.159 116.776 116.935 116.86C116.721 116.935 116.539 116.977 116.389 116.986C116.249 116.995 116.049 117 115.787 117H113.645ZM115.017 115.824H115.647C115.983 115.824 116.221 115.782 116.361 115.698C116.567 115.549 116.669 115.348 116.669 115.096C116.669 114.835 116.571 114.639 116.375 114.508C116.226 114.415 115.988 114.368 115.661 114.368H115.017V115.824ZM122.518 117V111.106H123.89V113.29H126.326V111.106H127.698V117H126.326V114.55H123.89V117H122.518ZM133.748 111.792V111.106H135.12V117H133.748V116.384C133.291 116.916 132.703 117.182 131.984 117.182C131.116 117.182 130.421 116.874 129.898 116.258C129.385 115.642 129.128 114.905 129.128 114.046C129.128 113.113 129.404 112.366 129.954 111.806C130.514 111.237 131.196 110.952 131.998 110.952C132.736 110.952 133.319 111.232 133.748 111.792ZM132.166 112.184C131.681 112.184 131.284 112.366 130.976 112.73C130.678 113.094 130.528 113.542 130.528 114.074C130.528 114.597 130.678 115.04 130.976 115.404C131.284 115.768 131.681 115.95 132.166 115.95C132.633 115.95 133.025 115.787 133.342 115.46C133.669 115.133 133.832 114.676 133.832 114.088C133.832 113.481 133.669 113.015 133.342 112.688C133.025 112.352 132.633 112.184 132.166 112.184ZM136.86 111.106H139.17C139.758 111.106 140.206 111.223 140.514 111.456C140.878 111.745 141.06 112.123 141.06 112.59C141.06 113.122 140.827 113.505 140.36 113.738C140.659 113.794 140.925 113.925 141.158 114.13C141.466 114.41 141.62 114.788 141.62 115.264C141.62 115.833 141.406 116.281 140.976 116.608C140.622 116.869 140.169 117 139.618 117H136.86V111.106ZM138.232 113.402H138.932C139.175 113.402 139.357 113.36 139.478 113.276C139.656 113.164 139.744 113.005 139.744 112.8C139.744 112.604 139.665 112.45 139.506 112.338C139.394 112.263 139.194 112.226 138.904 112.226H138.232V113.402ZM138.232 115.88H139.254C139.562 115.88 139.8 115.824 139.968 115.712C140.155 115.591 140.248 115.418 140.248 115.194C140.248 114.951 140.16 114.779 139.982 114.676C139.824 114.573 139.595 114.522 139.296 114.522H138.232V115.88ZM143.054 111.106H144.426V114.452L148.458 110.574V117H147.086V113.57L143.054 117.448V111.106ZM150.19 117V111.106H153.802V112.366H151.562V117H150.19ZM158.959 111.792V111.106H160.331V117H158.959V116.384C158.502 116.916 157.914 117.182 157.195 117.182C156.327 117.182 155.632 116.874 155.109 116.258C154.596 115.642 154.339 114.905 154.339 114.046C154.339 113.113 154.615 112.366 155.165 111.806C155.725 111.237 156.407 110.952 157.209 110.952C157.947 110.952 158.53 111.232 158.959 111.792ZM157.377 112.184C156.892 112.184 156.495 112.366 156.187 112.73C155.889 113.094 155.739 113.542 155.739 114.074C155.739 114.597 155.889 115.04 156.187 115.404C156.495 115.768 156.892 115.95 157.377 115.95C157.844 115.95 158.236 115.787 158.553 115.46C158.88 115.133 159.043 114.676 159.043 114.088C159.043 113.481 158.88 113.015 158.553 112.688C158.236 112.352 157.844 112.184 157.377 112.184ZM162.071 117V111.106H163.443V115.74H165.767V111.106H167.139V115.74H168.119V118.68H166.859V117H162.071ZM169.098 111.106H170.47V114.452L174.502 110.574V117H173.13V113.57L169.098 117.448V111.106ZM176.235 111.106H177.607V114.452L181.639 110.574V117H180.267V113.57L176.235 117.448V111.106Z" fill="black"/>
<rect x="311.5" y="176.5" width="108" height="47" rx="7.5" stroke="#015CA3"/>
<path d="M348.12 195.662H349.534C350.169 195.662 350.682 195.713 351.074 195.816C351.466 195.919 351.811 196.11 352.11 196.39C352.605 196.857 352.852 197.473 352.852 198.238C352.852 198.677 352.759 199.045 352.572 199.344C352.404 199.633 352.171 199.848 351.872 199.988C352.357 200.109 352.759 200.333 353.076 200.66C353.487 201.089 353.692 201.673 353.692 202.41C353.692 203.091 353.487 203.651 353.076 204.09C352.497 204.697 351.625 205 350.458 205H348.12V195.662ZM349.548 197.006V199.68H349.982C350.505 199.68 350.892 199.559 351.144 199.316C351.387 199.083 351.508 198.728 351.508 198.252C351.508 197.869 351.396 197.571 351.172 197.356C350.929 197.123 350.551 197.006 350.038 197.006H349.548ZM349.548 200.856V203.656H350.416C351.06 203.656 351.531 203.535 351.83 203.292C352.138 203.049 352.292 202.704 352.292 202.256C352.292 201.855 352.166 201.528 351.914 201.276C351.625 200.996 351.135 200.856 350.444 200.856H349.548ZM355.237 205V199.106H356.609V201.192H357.393C357.645 201.192 357.85 201.201 358.009 201.22C358.168 201.229 358.359 201.281 358.583 201.374C358.807 201.467 359.003 201.607 359.171 201.794C359.479 202.139 359.633 202.569 359.633 203.082C359.633 203.67 359.456 204.141 359.101 204.496C358.942 204.655 358.751 204.776 358.527 204.86C358.312 204.935 358.13 204.977 357.981 204.986C357.841 204.995 357.64 205 357.379 205H355.237ZM356.609 203.824H357.239C357.575 203.824 357.813 203.782 357.953 203.698C358.158 203.549 358.261 203.348 358.261 203.096C358.261 202.835 358.163 202.639 357.967 202.508C357.818 202.415 357.58 202.368 357.253 202.368H356.609V203.824ZM360.249 205V199.106H361.621V205H360.249ZM362.574 205L365.178 201.808L363.078 199.106H364.702L366.004 200.828L367.32 199.106H369L366.83 201.808L369.35 205H367.698L366.004 202.802L364.254 205H362.574ZM370.892 199.834C371.498 199.246 372.25 198.952 373.146 198.952C374.042 198.952 374.788 199.246 375.386 199.834C375.992 200.413 376.296 201.155 376.296 202.06C376.296 202.956 375.992 203.703 375.386 204.3C374.788 204.888 374.042 205.182 373.146 205.182C372.25 205.182 371.498 204.888 370.892 204.3C370.294 203.703 369.996 202.956 369.996 202.06C369.996 201.155 370.294 200.413 370.892 199.834ZM371.872 203.446C372.189 203.782 372.614 203.95 373.146 203.95C373.678 203.95 374.102 203.782 374.42 203.446C374.737 203.101 374.896 202.643 374.896 202.074C374.896 201.449 374.723 200.977 374.378 200.66C374.042 200.343 373.631 200.184 373.146 200.184C372.66 200.184 372.245 200.343 371.9 200.66C371.564 200.977 371.396 201.449 371.396 202.074C371.396 202.643 371.554 203.101 371.872 203.446ZM378.231 199.106H382.655V203.74H383.551V206.68H382.291V205H378.175V206.68H376.915V203.74C377.391 203.712 377.751 203.455 377.993 202.97C378.152 202.625 378.231 202.107 378.231 201.416V199.106ZM381.283 203.74V200.366H379.547V201.934C379.547 202.783 379.319 203.385 378.861 203.74H381.283Z" fill="black"/>
<path d="M79 137L79 136L77 136L77 137L79 137ZM310.707 200.707C311.098 200.317 311.098 199.683 310.707 199.293L304.343 192.929C303.953 192.538 303.319 192.538 302.929 192.929C302.538 193.319 302.538 193.953 302.929 194.343L308.586 200L302.929 205.657C302.538 206.047 302.538 206.681 302.929 207.071C303.319 207.462 303.953 207.462 304.343 207.071L310.707 200.707ZM79 192L79 137L77 137L77 192L79 192ZM310 199L86 199L86 201L310 201L310 199ZM77 192C77 196.971 81.0294 201 86 201L86 199C82.134 199 79 195.866 79 192L77 192Z" fill="#A6AEBF"/>
</svg>
