<svg width="81" height="24" viewBox="0 0 81 24" fill="none" xmlns="http://www.w3.org/2000/svg">
<path d="M29.987 16.56L28.6148 16.6773L28.593 16.5707C29.3263 15.4969 30.0306 14.4125 30.7058 13.3173C31.3811 12.2222 32.02 11.1058 32.6226 9.96799C32.6299 9.96086 32.6335 9.94313 32.6335 9.91466C32.6335 9.88619 32.6226 9.87199 32.6008 9.87199L31.5771 9.74399V9.33866H34.0166L35.2255 13.3173C35.3053 13.5662 35.3961 13.8471 35.4978 14.16C35.5994 14.4658 35.7156 14.7609 35.8463 15.0453C35.9769 15.3227 36.1221 15.5538 36.2819 15.7387C36.4416 15.9165 36.6122 16.0053 36.7938 16.0053C36.8882 16.0053 36.9898 15.9982 37.0987 15.984C37.2149 15.9627 37.3238 15.9413 37.4254 15.92L37.5017 16.2187C37.1894 16.3538 36.8627 16.4889 36.5215 16.624C36.1803 16.752 35.8499 16.816 35.5304 16.816C35.3126 16.816 35.1348 16.7627 34.9968 16.656C34.8588 16.5422 34.7499 16.4035 34.6701 16.24C34.5902 16.0765 34.5249 15.9129 34.474 15.7493L33.9186 13.808H31.185C31.0616 14.0355 30.9309 14.3058 30.7929 14.6187C30.655 14.9245 30.5171 15.248 30.3791 15.5893C30.2411 15.9235 30.1104 16.2471 29.987 16.56ZM33.581 13.2533C33.5955 13.2533 33.6137 13.2498 33.6354 13.2427C33.6645 13.2285 33.679 13.2142 33.679 13.2C33.679 13.1858 33.679 13.1609 33.679 13.1253C33.679 13.0898 33.6754 13.0685 33.6681 13.0613L32.9602 10.8747C32.9529 10.8391 32.9384 10.8178 32.9166 10.8107C32.8949 10.7965 32.8767 10.7893 32.8622 10.7893C32.8331 10.7893 32.8005 10.8178 32.7642 10.8747L31.6206 13.0933C31.6061 13.1147 31.5989 13.1467 31.5989 13.1893C31.5989 13.2035 31.6134 13.2178 31.6424 13.232C31.6715 13.2462 31.6969 13.2533 31.7187 13.2533H33.581ZM40.2672 11.376V9.95733C40.2672 9.87913 40.2418 9.82579 40.191 9.79733C40.1401 9.76886 40.0748 9.75819 39.995 9.76533L37.8059 9.87199L37.7079 9.77599V9.15733L37.795 9.07199C38.3178 9.07913 38.8405 9.09686 39.3633 9.12533C39.8861 9.15379 40.4088 9.16799 40.9316 9.16799C41.4761 9.16799 42.0206 9.15379 42.5652 9.12533C43.1097 9.09686 43.6543 9.07199 44.1988 9.05066L44.3077 9.15733V9.69066L44.1879 9.78666C44.1588 9.78666 44.0572 9.78666 43.883 9.78666C43.716 9.77953 43.5127 9.77246 43.2731 9.76533C43.0335 9.75819 42.7903 9.75466 42.5434 9.75466C42.2965 9.74753 42.0787 9.74399 41.89 9.74399C41.8101 9.74399 41.752 9.75466 41.7157 9.77599C41.6794 9.79019 41.6612 9.83286 41.6612 9.90399V11.376C41.6612 12.2009 41.6794 13.0293 41.7157 13.8613C41.752 14.6933 41.7955 15.5218 41.8464 16.3467L40.2781 16.784L40.1801 16.656C40.2092 15.7742 40.2309 14.896 40.2454 14.0213C40.2599 13.1395 40.2672 12.2578 40.2672 11.376ZM50.7115 9.40266L52.1273 9.08266L52.2362 9.18933C52.1708 9.80086 52.1237 10.416 52.0946 11.0347C52.0728 11.6462 52.0619 12.2578 52.0619 12.8693C52.0619 13.5733 52.0546 14.1493 52.0401 14.5973C52.0256 15.0382 52.0365 15.3831 52.0728 15.632C52.1091 15.8738 52.1962 16.048 52.3342 16.1547C52.4794 16.2542 52.7045 16.3111 53.0094 16.3253V16.5813L52.9441 16.7413H50.8095L50.559 16.5173C50.6171 15.9911 50.657 15.4649 50.6788 14.9387C50.7006 14.4053 50.7115 13.872 50.7115 13.3387C50.7115 13.2035 50.6715 13.1218 50.5917 13.0933C50.5118 13.0649 50.421 13.0507 50.3194 13.0507H47.1829C47.103 13.0507 47.0304 13.072 46.965 13.1147C46.8997 13.1502 46.867 13.2285 46.867 13.3493C46.867 14.352 46.8888 15.3511 46.9324 16.3467L45.571 16.7307C45.5637 16.7165 45.5492 16.6987 45.5275 16.6773C45.5057 16.656 45.4948 16.6418 45.4948 16.6347C45.5239 16.0018 45.5384 15.3689 45.5384 14.736C45.5456 14.1031 45.5492 13.4702 45.5492 12.8373V10.1387C45.5492 10.0178 45.4839 9.92179 45.3532 9.85066C45.2225 9.77953 45.0737 9.72266 44.9067 9.67999C44.7397 9.63019 44.5945 9.59466 44.4711 9.57333V9.32799L44.5582 9.22133H46.8888L46.9759 9.30666C46.9469 9.81153 46.9179 10.32 46.8888 10.832C46.867 11.344 46.8561 11.8205 46.8561 12.2613C46.8561 12.3609 46.8888 12.432 46.9542 12.4747C47.0268 12.5102 47.1066 12.528 47.1937 12.528H50.3412C50.5299 12.528 50.6388 12.5031 50.6679 12.4533C50.697 12.3965 50.7115 12.3325 50.7115 12.2613V9.40266ZM59.5207 15.856L59.6296 15.9413L59.3465 16.752C58.7293 16.7165 58.1085 16.6915 57.4842 16.6773C56.867 16.6702 56.2462 16.6667 55.6218 16.6667C55.4476 16.6667 55.2515 16.6667 55.0337 16.6667C54.8159 16.6595 54.6671 16.6453 54.5872 16.624C54.5074 16.5813 54.4275 16.5138 54.3476 16.4213C54.2678 16.3218 54.2278 16.2222 54.2278 16.1227V11.5467C54.2278 11.3902 54.2278 11.216 54.2278 11.024C54.2278 10.8249 54.2242 10.6435 54.2169 10.48C54.2096 10.3165 54.1987 10.2027 54.1843 10.1387C54.1407 9.97513 54.0608 9.85779 53.9447 9.78666C53.8357 9.70846 53.7087 9.65513 53.5635 9.62666C53.4255 9.59819 53.2912 9.57686 53.1605 9.56266V9.31733L53.2368 9.24266C53.6724 9.24266 54.1298 9.24266 54.609 9.24266C55.0882 9.24266 55.5638 9.23913 56.0357 9.23199C56.5076 9.21779 56.9505 9.20353 57.3644 9.18933C57.7782 9.16799 58.1376 9.13953 58.4425 9.10399L58.5841 9.15733V9.81866L58.4534 9.93599C58.2429 9.92179 57.996 9.90753 57.7129 9.89333C57.437 9.87199 57.1647 9.85419 56.8961 9.83999C56.6347 9.82579 56.4133 9.81513 56.2317 9.80799C56.0575 9.79379 55.9703 9.78666 55.9703 9.78666C55.7743 9.78666 55.6618 9.83999 55.6327 9.94666C55.6037 10.0533 55.5892 10.1778 55.5892 10.32V12.24C55.5892 12.2898 55.6073 12.3502 55.6436 12.4213C55.6872 12.4853 55.7416 12.5173 55.807 12.5173C55.9739 12.5173 56.1882 12.5102 56.4495 12.496C56.7182 12.4747 56.9832 12.4533 57.2446 12.432C57.5132 12.4107 57.7382 12.3893 57.9198 12.368C58.1013 12.3467 58.1957 12.336 58.2029 12.336C58.2102 12.336 58.2283 12.3467 58.2574 12.368C58.2937 12.3893 58.3227 12.4071 58.3445 12.4213V13.04C57.967 13.0258 57.5677 13.0187 57.1465 13.0187C56.7254 13.0115 56.3079 13.008 55.8941 13.008C55.7707 13.008 55.6872 13.0365 55.6436 13.0933C55.6073 13.1502 55.5892 13.2178 55.5892 13.296C55.5892 13.6445 55.5928 14.0071 55.6001 14.384C55.6073 14.7609 55.6363 15.0845 55.6872 15.3547C55.7452 15.7955 55.9885 16.016 56.4169 16.016C56.4459 16.016 56.562 16.0125 56.7654 16.0053C56.9759 15.9911 57.2337 15.9769 57.5386 15.9627C57.8508 15.9413 58.1812 15.9235 58.5297 15.9093C58.8782 15.888 59.2085 15.8702 59.5207 15.856ZM59.8075 9.29599L59.8946 9.21066H62.0619C62.7952 10.1067 63.5575 10.9885 64.3489 11.856C65.1476 12.7165 65.9538 13.5698 66.7665 14.416V9.34933L67.6486 9.06133L67.8664 9.21066C67.7793 10.1635 67.7072 11.1165 67.6486 12.0693C67.5908 13.0222 67.5615 13.9751 67.5615 14.928C67.5615 15.2125 67.5656 15.4969 67.5724 15.7813C67.5799 16.0587 67.5942 16.336 67.616 16.6133H66.7992L61.7569 11.12V16.304L60.8639 16.6987L60.7223 16.6133C60.7804 15.6178 60.8275 14.6258 60.8639 13.6373C60.9075 12.6489 60.9292 11.6605 60.9292 10.672C60.9292 10.4373 60.9111 10.2525 60.8748 10.1173C60.8384 10.0035 60.755 9.90753 60.6243 9.82933C60.4936 9.75113 60.352 9.69066 60.1996 9.64799C60.0471 9.59819 59.9164 9.55913 59.8075 9.53066V9.29599ZM70.0296 16.56L68.6574 16.6773L68.6356 16.5707C69.3687 15.4969 70.0732 14.4125 70.7484 13.3173C71.4236 12.2222 72.0628 11.1058 72.6652 9.96799C72.6727 9.96086 72.6761 9.94313 72.6761 9.91466C72.6761 9.88619 72.6652 9.87199 72.6434 9.87199L71.6197 9.74399V9.33866H74.0592L75.2681 13.3173C75.3477 13.5662 75.4389 13.8471 75.5403 14.16C75.6418 14.4658 75.7582 14.7609 75.8888 15.0453C76.0195 15.3227 76.1645 15.5538 76.3245 15.7387C76.4844 15.9165 76.6546 16.0053 76.8363 16.0053C76.931 16.0053 77.0324 15.9982 77.1413 15.984C77.2577 15.9627 77.3666 15.9413 77.468 15.92L77.5442 16.2187C77.2318 16.3538 76.9051 16.4889 76.5641 16.624C76.2231 16.752 75.8923 16.816 75.573 16.816C75.3552 16.816 75.1775 16.7627 75.0394 16.656C74.9012 16.5422 74.7923 16.4035 74.7126 16.24C74.633 16.0765 74.5677 15.9129 74.5166 15.7493L73.9612 13.808H71.2276C71.1044 14.0355 70.9737 14.3058 70.8355 14.6187C70.6974 14.9245 70.5599 15.248 70.4217 15.5893C70.2835 15.9235 70.1528 16.2471 70.0296 16.56ZM73.6236 13.2533C73.6379 13.2533 73.6562 13.2498 73.678 13.2427C73.7073 13.2285 73.7216 13.2142 73.7216 13.2C73.7216 13.1858 73.7216 13.1609 73.7216 13.1253C73.7216 13.0898 73.7182 13.0685 73.7107 13.0613L73.0028 10.8747C72.9953 10.8391 72.981 10.8178 72.9592 10.8107C72.9375 10.7965 72.9191 10.7893 72.9048 10.7893C72.8755 10.7893 72.8428 10.8178 72.8068 10.8747L71.6632 13.0933C71.6489 13.1147 71.6415 13.1467 71.6415 13.1893C71.6415 13.2035 71.6558 13.2178 71.685 13.232C71.7143 13.2462 71.7395 13.2533 71.7613 13.2533H73.6236Z" fill="#6A8EE8"/>
<path fill-rule="evenodd" clip-rule="evenodd" d="M8.14935 0.0632829C7.41524 0.176383 5.57167 0.649431 5.47132 0.750327C5.43189 0.790093 5.55693 1.15441 5.74922 1.55993C5.94151 1.96554 6.07226 2.29732 6.03968 2.29732C6.0072 2.29732 5.70273 2.00023 5.3632 1.63703C4.876 1.11587 4.70944 0.996053 4.57278 1.06827C4.12376 1.30555 2.7211 2.59024 2.17309 3.26609C0.98253 4.73447 0.54877 5.98253 0.644654 7.663C0.693217 8.51387 0.669558 8.80467 0.516393 9.241C-0.0992773 10.9949 -0.172746 13.6454 0.340813 15.568C0.864644 17.5285 2.07544 19.5175 3.60761 20.9341C6.67019 23.7658 11.0875 24.7248 15.1399 23.4377C16.0782 23.1397 17.656 22.3301 18.4679 21.7301C19.3139 21.1049 20.4741 19.9173 21.0479 19.0891C21.694 18.1566 22.3643 16.7165 22.6856 15.5703C22.9471 14.6375 23.1429 13.5007 23.1429 12.6208C23.1429 11.3845 22.9441 10.7788 22.7285 9.97633C21.6224 5.86231 18.3821 2.67089 14.3616 1.73589C13.2579 1.47927 13.3014 1.51762 13.6795 1.13529L14.0176 0.793347L13.4184 0.573658C13.0888 0.452726 12.5357 0.284906 12.1894 0.200691C11.4298 0.0159881 8.99379 -0.0669046 8.14935 0.0632829ZM12.0527 0.838407C12.4379 0.92262 12.7531 1.01039 12.7531 1.03359C12.7531 1.05667 12.482 1.43411 12.1506 1.87217C11.8192 2.31023 11.4892 2.80789 11.4173 2.97795L11.2866 3.28735L10.0223 3.28135C9.08847 3.27698 8.58763 3.32407 8.1066 3.46168C7.74823 3.5641 7.43798 3.63011 7.41694 3.60825C7.35112 3.5402 6.31934 1.26599 6.31934 1.1891C6.31934 1.08668 7.69874 0.772293 8.45626 0.702113C9.18268 0.634785 9.13557 0.582811 9.33297 1.66855C9.48156 2.48599 9.55398 2.46219 9.7396 1.5345C9.95361 0.465745 9.88139 0.537653 10.6623 0.616172C11.0417 0.654313 11.6673 0.754293 12.0527 0.838407ZM6.18713 3.49687L6.66375 4.03542L6.41367 4.19958C5.93695 4.51284 5.11591 5.40483 4.79308 5.96016C3.72528 7.7974 3.61716 10.0059 4.47752 12.4072C4.87994 13.5303 4.91802 13.7224 4.91398 14.6041C4.91127 15.1714 4.85306 15.6963 4.77285 15.8755L4.63608 16.1806L4.4578 15.5703C4.23947 14.8227 3.76928 13.7432 3.16658 12.6054L2.71238 11.7477L3.19273 11.5025L3.67319 11.2571L3.07828 11.2525L2.48336 11.2477L2.21968 10.7378C2.07472 10.4574 1.80865 9.80513 1.6284 9.28847C1.34904 8.48793 1.29976 8.1986 1.29509 7.33193C1.28989 6.36394 1.45116 5.552 1.64853 5.552C1.69616 5.552 2.12442 5.71229 2.60031 5.90819L3.46565 6.26437L2.94991 5.83191C2.66631 5.59401 2.29315 5.27779 2.12089 5.12909L1.80761 4.85865L2.3137 4.13265C2.59201 3.73335 3.222 3.03949 3.71345 2.59075L4.60713 1.77494L5.15888 2.36669C5.4623 2.69215 5.92511 3.20069 6.18713 3.49687ZM14.2578 2.61851C15.2196 2.85234 16.6867 3.51233 17.5724 4.10977C18.3679 4.64639 19.6068 5.84279 20.172 6.61995C21.6491 8.6516 22.3802 11.3349 22.1049 13.7141C21.6871 17.3252 19.6899 20.2296 16.4528 21.9337C15.6602 22.3509 15.6298 22.3582 15.3068 22.2071C14.7865 21.9639 13.8277 21.0488 13.5908 20.5694C13.3233 20.0277 13.3144 19.2721 13.5691 18.7233C13.8799 18.0535 14.011 17.9983 14.647 18.2695C15.6573 18.7002 16.5926 18.5214 16.5926 17.8974C16.5926 17.7681 16.6688 17.4435 16.7619 17.1758C16.8551 16.9081 16.9367 16.4145 16.9434 16.0789C16.9552 15.4982 16.9691 15.4671 17.2304 15.4375C17.3814 15.4203 17.5892 15.3151 17.6922 15.2035C17.8715 15.0094 17.8716 14.9887 17.6967 14.7261C17.3697 14.235 17.0277 13.4438 16.9589 13.0195L16.8917 12.6045L17.7804 12.4748C18.2692 12.4036 18.6903 12.3117 18.7162 12.2706C18.7421 12.2295 18.3389 11.6965 17.8203 11.0861C16.8819 9.9816 16.8788 9.97613 17.1663 9.92547C17.4429 9.87673 17.3723 9.78967 15.5162 7.89367C13.791 6.13123 13.5838 5.88317 13.6371 5.64496C13.6874 5.4208 13.65 5.35937 13.4067 5.2663C12.0944 4.76467 10.1596 4.59513 9.02 4.88195C6.95123 5.40249 5.66528 7.05147 5.52321 9.36607C5.45939 10.4065 5.63736 11.3457 6.04922 12.1423C6.22428 12.481 6.27181 12.6785 6.20592 12.7938C6.13961 12.9099 6.19419 13.1207 6.38886 13.5007C6.57378 13.8615 6.70464 14.3461 6.78122 14.9525L6.89596 15.8629L7.2659 15.4115C7.46929 15.1632 7.80391 14.7083 8.00927 14.4007C9.19908 12.6185 10.9159 11.9713 13.3758 12.3778C13.7467 12.439 14.6334 12.5187 15.3462 12.5549L16.6422 12.6208L16.7217 13.1801C16.7654 13.4879 16.9498 14.029 17.1315 14.3829C17.4856 15.0725 17.4524 15.2093 16.9299 15.2128C16.7168 15.2143 16.6964 15.2623 16.6964 15.7629C16.6964 16.1737 16.6543 16.3271 16.529 16.3743C16.392 16.4259 16.3854 16.4651 16.4923 16.5916C16.5932 16.7106 16.5958 16.8047 16.5041 17.0021C16.4386 17.1429 16.3851 17.4135 16.3851 17.6035C16.3851 17.9868 16.0929 18.2656 15.6913 18.2656C15.2624 18.2656 14.3674 17.8622 13.6615 17.3507L12.9615 16.8433L13.2841 16.3295C13.8223 15.4723 13.9993 14.8923 13.9897 14.0181L13.981 13.231L13.837 13.8135C13.5464 14.9885 12.906 15.8544 11.1007 17.5133C8.94369 19.4954 8.27289 20.8673 8.76542 22.2892C8.85507 22.5481 8.91299 22.7753 8.894 22.7939C8.87501 22.8125 8.49901 22.7109 8.05861 22.568C7.31001 22.3252 7.25358 22.2865 7.19402 21.9755C7.10356 21.5024 7.31117 20.6399 7.6596 20.0423C7.82371 19.7608 8.54686 18.8912 9.26674 18.1098C10.0931 17.2126 10.7082 16.4415 10.9357 16.0173C11.3679 15.2112 11.5778 14.1665 11.4548 13.4345L11.3691 12.9259L11.2915 13.3836C11.0772 14.6462 10.4817 15.5266 8.839 17.0094C6.42529 19.1883 5.90426 19.8927 5.90426 20.9771C5.90426 21.2759 5.86918 21.5203 5.82643 21.5202C5.78368 21.5202 5.48004 21.3135 5.15192 21.0611C4.61398 20.6471 4.55545 20.5645 4.55752 20.222C4.56272 19.3485 5.15421 18.6007 6.9841 17.1545C8.55775 15.9107 9.26796 15.1309 9.4883 14.4043C9.55378 14.1884 9.49027 14.2189 9.0298 14.6246C8.73581 14.8838 7.83052 15.4967 7.01814 15.9868C5.15752 17.1093 4.06275 18.1199 3.77862 18.9776C3.67672 19.2853 3.57575 19.5565 3.55437 19.5804C3.50031 19.6406 3.28799 19.3695 2.61618 18.3825C1.28751 16.4306 0.660633 13.9683 0.917362 11.7109C0.980352 11.1576 1.05921 10.5982 1.09263 10.4678C1.15635 10.2187 1.33836 10.1383 1.33836 10.3593C1.33836 10.4299 1.80574 11.3913 2.377 12.4955C4.02975 15.6907 4.27112 16.6812 3.77271 18.2229C3.6294 18.6663 4.80512 17.2413 5.15638 16.5458C5.50464 15.8563 5.54033 15.7046 5.57603 14.7612C5.61412 13.7528 5.60405 13.699 5.12172 12.3109C4.68744 11.0611 4.62269 10.7625 4.579 9.80913C4.44473 6.8742 5.80941 4.79468 8.34368 4.07265C8.83826 3.93168 9.2242 3.90747 10.3193 3.94836L11.6803 3.99931L11.7986 3.69205C11.8637 3.52301 12.0695 3.13794 12.2561 2.83627C12.5936 2.29061 12.5975 2.28806 13.0115 2.35224C13.2403 2.38773 13.8012 2.50755 14.2578 2.61851ZM12.3241 5.24891C13.3661 5.49372 13.4041 5.51345 13.2781 5.74413C13.1968 5.89293 13.4836 6.23375 14.9382 7.718C15.9051 8.7048 16.6964 9.53647 16.6964 9.56627C16.6964 9.59607 16.4648 9.62033 16.182 9.62033C15.6717 9.62033 15.663 9.61473 15.0986 8.93013L14.5296 8.23993L13.7711 8.27127C13.3539 8.2886 12.7629 8.32833 12.4578 8.3598L11.9031 8.41693L12.1465 8.67233C12.5359 9.081 12.8937 9.21253 13.5661 9.1944C14.3033 9.17447 14.5591 9.31013 15.0518 9.98267L15.3967 10.4533L16.1244 10.3898L16.852 10.3262L17.4533 11.0628C18.0396 11.7811 18.0486 11.8015 17.8165 11.8869C17.2339 12.1011 15.4155 12.0889 13.8212 11.8603C11.6262 11.5455 10.6512 11.5903 9.69883 12.0502C9.23468 12.2743 8.69974 12.6619 8.17079 13.1571C7.50666 13.779 7.35705 13.8786 7.35705 13.699C7.35705 13.5779 7.28993 13.3213 7.20791 13.1289C7.06524 12.7944 7.07647 12.7391 7.46207 11.8675C8.70532 9.05813 9.78153 7.73993 11.5513 6.85907C12.1789 6.54671 12.2986 6.45823 12.0267 6.50715C11.3889 6.62198 10.2332 7.2356 9.48598 7.856C8.54638 8.63613 7.88273 9.4522 7.31743 10.5224L6.86206 11.3845L6.70453 11.0859C6.12176 9.9814 6.06479 8.46787 6.56891 7.48447C6.72663 7.1768 7.01555 6.73387 7.21104 6.50003C7.57078 6.0697 8.7919 5.20904 9.17301 5.11709C9.73647 4.98121 11.4987 5.05495 12.3241 5.24891ZM13.4065 18.354C12.7546 19.4229 12.8704 20.3819 13.7859 21.4949L14.3088 22.1305H14.0167C13.5041 22.1305 12.6772 21.8329 11.4273 21.1985C10.7581 20.8589 10.1956 20.5678 10.1771 20.5515C10.1181 20.4997 10.4881 19.8554 10.8183 19.4353C10.9942 19.2115 11.5287 18.5642 12.0062 17.9968L12.8742 16.9651L13.3068 17.3865L13.7394 17.8079L13.4065 18.354ZM10.8895 21.2093C11.2279 21.3738 11.7144 21.6497 11.9706 21.8226C12.5074 22.1845 13.6657 22.7392 13.8946 22.7439C14.1549 22.7491 13.8024 22.907 13.354 22.9858C12.9175 23.0627 12.4396 22.8609 11.2068 22.0792C10.31 21.5106 10.1511 21.4933 10.2622 21.9761C10.307 22.1709 10.4441 22.4971 10.5668 22.7009C10.8831 23.2265 10.7539 23.2489 10.3738 22.7346C9.99281 22.2191 9.82305 21.6655 9.91215 21.2289C9.99281 20.8339 10.1127 20.8315 10.8895 21.2093Z" fill="#6A8EE8"/>
</svg>
