<svg width="219" height="224" viewBox="0 0 219 224" fill="none" xmlns="http://www.w3.org/2000/svg">
<rect x="40" width="148" height="48" rx="8" fill="#D2DDF8"/>
<path d="M76.084 19.662H77.82L80.228 24.646L82.412 19.662H83.896L79.682 29H78.198L79.402 26.354L76.084 19.662ZM84.0184 23.106H86.3284C86.9164 23.106 87.3644 23.2227 87.6724 23.456C88.0364 23.7453 88.2184 24.1233 88.2184 24.59C88.2184 25.122 87.9851 25.5047 87.5184 25.738C87.8171 25.794 88.0831 25.9247 88.3164 26.13C88.6244 26.41 88.7784 26.788 88.7784 27.264C88.7784 27.8333 88.5637 28.2813 88.1344 28.608C87.7797 28.8693 87.3271 29 86.7764 29H84.0184V23.106ZM85.3904 25.402H86.0904C86.3331 25.402 86.5151 25.36 86.6364 25.276C86.8137 25.164 86.9024 25.0053 86.9024 24.8C86.9024 24.604 86.8231 24.45 86.6644 24.338C86.5524 24.2633 86.3517 24.226 86.0624 24.226H85.3904V25.402ZM85.3904 27.88H86.4124C86.7204 27.88 86.9584 27.824 87.1264 27.712C87.3131 27.5907 87.4064 27.418 87.4064 27.194C87.4064 26.9513 87.3177 26.7787 87.1404 26.676C86.9817 26.5733 86.7531 26.522 86.4544 26.522H85.3904V27.88ZM94.3418 27.012L95.4898 27.656C95.2284 28.1227 94.8971 28.482 94.4958 28.734C94.0384 29.0327 93.4598 29.182 92.7598 29.182C91.9384 29.182 91.2758 28.93 90.7718 28.426C90.1931 27.8473 89.9038 27.096 89.9038 26.172C89.9038 25.2013 90.2164 24.394 90.8418 23.75C91.3738 23.218 92.0318 22.952 92.8158 22.952C93.5811 22.952 94.2111 23.2087 94.7058 23.722C95.2564 24.2913 95.5318 25.122 95.5318 26.214V26.382H91.3038C91.3411 26.8767 91.5091 27.2733 91.8078 27.572C92.0598 27.824 92.4098 27.95 92.8578 27.95C93.2218 27.95 93.5344 27.852 93.7958 27.656C94.0104 27.488 94.1924 27.2733 94.3418 27.012ZM91.4017 25.262H94.1318C94.0758 24.9353 93.9358 24.6693 93.7118 24.464C93.4691 24.24 93.1611 24.128 92.7878 24.128C92.3958 24.128 92.0738 24.254 91.8218 24.506C91.6164 24.6927 91.4764 24.9447 91.4017 25.262ZM97.4697 23.106H101.894V27.74H102.79V30.68H101.53V29H97.4137V30.68H96.1537V27.74C96.6297 27.712 96.989 27.4553 97.2317 26.97C97.3903 26.6247 97.4697 26.1067 97.4697 25.416V23.106ZM100.522 27.74V24.366H98.7857V25.934C98.7857 26.7833 98.557 27.3853 98.0997 27.74H100.522ZM104.362 23.834C104.969 23.246 105.72 22.952 106.616 22.952C107.512 22.952 108.259 23.246 108.856 23.834C109.463 24.4127 109.766 25.1547 109.766 26.06C109.766 26.956 109.463 27.7027 108.856 28.3C108.259 28.888 107.512 29.182 106.616 29.182C105.72 29.182 104.969 28.888 104.362 28.3C103.765 27.7027 103.466 26.956 103.466 26.06C103.466 25.1547 103.765 24.4127 104.362 23.834ZM105.342 27.446C105.66 27.782 106.084 27.95 106.616 27.95C107.148 27.95 107.573 27.782 107.89 27.446C108.208 27.1007 108.366 26.6433 108.366 26.074C108.366 25.4487 108.194 24.9773 107.848 24.66C107.512 24.3427 107.102 24.184 106.616 24.184C106.131 24.184 105.716 24.3427 105.37 24.66C105.034 24.9773 104.866 25.4487 104.866 26.074C104.866 26.6433 105.025 27.1007 105.342 27.446ZM110.526 29L111.954 22.574L114.39 27.068L116.826 22.574L118.254 29H116.854L116.266 26.046L114.39 29.448L112.514 26.046L111.926 29H110.526ZM124.464 23.106V29H123.092V24.366H121.356V26.704C121.356 27.432 121.169 27.9967 120.796 28.398C120.32 28.93 119.676 29.1307 118.864 29V27.74C119.265 27.8333 119.587 27.7447 119.83 27.474C119.97 27.306 120.04 27.0493 120.04 26.704V23.106H124.464ZM130.326 27.012L131.474 27.656C131.213 28.1227 130.881 28.482 130.48 28.734C130.023 29.0327 129.444 29.182 128.744 29.182C127.923 29.182 127.26 28.93 126.756 28.426C126.177 27.8473 125.888 27.096 125.888 26.172C125.888 25.2013 126.201 24.394 126.826 23.75C127.358 23.218 128.016 22.952 128.8 22.952C129.565 22.952 130.195 23.2087 130.69 23.722C131.241 24.2913 131.516 25.122 131.516 26.214V26.382H127.288C127.325 26.8767 127.493 27.2733 127.792 27.572C128.044 27.824 128.394 27.95 128.842 27.95C129.206 27.95 129.519 27.852 129.78 27.656C129.995 27.488 130.177 27.2733 130.326 27.012ZM127.386 25.262H130.116C130.06 24.9353 129.92 24.6693 129.696 24.464C129.453 24.24 129.145 24.128 128.772 24.128C128.38 24.128 128.058 24.254 127.806 24.506C127.601 24.6927 127.461 24.9447 127.386 25.262ZM132.95 29V23.106H134.322V25.29H136.758V23.106H138.13V29H136.758V26.55H134.322V29H132.95ZM139.868 23.106H141.24V26.452L145.272 22.574V29H143.9V25.57L139.868 29.448V23.106ZM146.249 29L148.097 26.662C147.733 26.606 147.42 26.4567 147.159 26.214C146.832 25.8967 146.669 25.4907 146.669 24.996C146.669 24.436 146.851 23.9833 147.215 23.638C147.588 23.2833 148.157 23.106 148.923 23.106H151.121V29H149.749V26.83H149.469L147.859 29H146.249ZM149.749 25.71V24.282H148.951C148.624 24.282 148.386 24.324 148.237 24.408C148.013 24.548 147.901 24.744 147.901 24.996C147.901 25.248 147.994 25.4393 148.181 25.57C148.321 25.6633 148.573 25.71 148.937 25.71H149.749Z" fill="black"/>
<rect x="40.5" y="88.5" width="178" height="47" rx="7.5" stroke="#6A8EE8"/>
<path d="M77.12 107.662H83.98V117H82.552V109.006H78.548V117H77.12V107.662ZM90.2855 111.792V111.106H91.6575V117H90.2855V116.384C89.8281 116.916 89.2401 117.182 88.5215 117.182C87.6535 117.182 86.9581 116.874 86.4355 116.258C85.9221 115.642 85.6655 114.905 85.6655 114.046C85.6655 113.113 85.9408 112.366 86.4915 111.806C87.0515 111.237 87.7328 110.952 88.5355 110.952C89.2728 110.952 89.8561 111.232 90.2855 111.792ZM88.7035 112.184C88.2181 112.184 87.8215 112.366 87.5135 112.73C87.2148 113.094 87.0655 113.542 87.0655 114.074C87.0655 114.597 87.2148 115.04 87.5135 115.404C87.8215 115.768 88.2181 115.95 88.7035 115.95C89.1701 115.95 89.5621 115.787 89.8795 115.46C90.2061 115.133 90.3695 114.676 90.3695 114.088C90.3695 113.481 90.2061 113.015 89.8795 112.688C89.5621 112.352 89.1701 112.184 88.7035 112.184ZM93.3973 117V111.106H94.7693V113.29H97.2053V111.106H98.5773V117H97.2053V114.55H94.7693V117H93.3973ZM104.445 115.012L105.593 115.656C105.332 116.123 105.001 116.482 104.599 116.734C104.142 117.033 103.563 117.182 102.863 117.182C102.042 117.182 101.379 116.93 100.875 116.426C100.297 115.847 100.007 115.096 100.007 114.172C100.007 113.201 100.32 112.394 100.945 111.75C101.477 111.218 102.135 110.952 102.919 110.952C103.685 110.952 104.315 111.209 104.809 111.722C105.36 112.291 105.635 113.122 105.635 114.214V114.382H101.407C101.445 114.877 101.613 115.273 101.911 115.572C102.163 115.824 102.513 115.95 102.961 115.95C103.325 115.95 103.638 115.852 103.899 115.656C104.114 115.488 104.296 115.273 104.445 115.012ZM101.505 113.262H104.235C104.179 112.935 104.039 112.669 103.815 112.464C103.573 112.24 103.265 112.128 102.891 112.128C102.499 112.128 102.177 112.254 101.925 112.506C101.72 112.693 101.58 112.945 101.505 113.262ZM111.913 111.106V117H110.541V112.366H108.805V114.704C108.805 115.432 108.619 115.997 108.245 116.398C107.769 116.93 107.125 117.131 106.313 117V115.74C106.715 115.833 107.037 115.745 107.279 115.474C107.419 115.306 107.489 115.049 107.489 114.704V111.106H111.913ZM113.645 117V111.106H115.017V113.192H115.801C116.053 113.192 116.259 113.201 116.417 113.22C116.576 113.229 116.767 113.281 116.991 113.374C117.215 113.467 117.411 113.607 117.579 113.794C117.887 114.139 118.041 114.569 118.041 115.082C118.041 115.67 117.864 116.141 117.509 116.496C117.351 116.655 117.159 116.776 116.935 116.86C116.721 116.935 116.539 116.977 116.389 116.986C116.249 116.995 116.049 117 115.787 117H113.645ZM115.017 115.824H115.647C115.983 115.824 116.221 115.782 116.361 115.698C116.567 115.549 116.669 115.348 116.669 115.096C116.669 114.835 116.571 114.639 116.375 114.508C116.226 114.415 115.988 114.368 115.661 114.368H115.017V115.824ZM122.518 117V111.106H123.89V113.29H126.326V111.106H127.698V117H126.326V114.55H123.89V117H122.518ZM133.748 111.792V111.106H135.12V117H133.748V116.384C133.291 116.916 132.703 117.182 131.984 117.182C131.116 117.182 130.421 116.874 129.898 116.258C129.385 115.642 129.128 114.905 129.128 114.046C129.128 113.113 129.404 112.366 129.954 111.806C130.514 111.237 131.196 110.952 131.998 110.952C132.736 110.952 133.319 111.232 133.748 111.792ZM132.166 112.184C131.681 112.184 131.284 112.366 130.976 112.73C130.678 113.094 130.528 113.542 130.528 114.074C130.528 114.597 130.678 115.04 130.976 115.404C131.284 115.768 131.681 115.95 132.166 115.95C132.633 115.95 133.025 115.787 133.342 115.46C133.669 115.133 133.832 114.676 133.832 114.088C133.832 113.481 133.669 113.015 133.342 112.688C133.025 112.352 132.633 112.184 132.166 112.184ZM136.86 111.106H139.17C139.758 111.106 140.206 111.223 140.514 111.456C140.878 111.745 141.06 112.123 141.06 112.59C141.06 113.122 140.827 113.505 140.36 113.738C140.659 113.794 140.925 113.925 141.158 114.13C141.466 114.41 141.62 114.788 141.62 115.264C141.62 115.833 141.406 116.281 140.976 116.608C140.622 116.869 140.169 117 139.618 117H136.86V111.106ZM138.232 113.402H138.932C139.175 113.402 139.357 113.36 139.478 113.276C139.656 113.164 139.744 113.005 139.744 112.8C139.744 112.604 139.665 112.45 139.506 112.338C139.394 112.263 139.194 112.226 138.904 112.226H138.232V113.402ZM138.232 115.88H139.254C139.562 115.88 139.8 115.824 139.968 115.712C140.155 115.591 140.248 115.418 140.248 115.194C140.248 114.951 140.16 114.779 139.982 114.676C139.824 114.573 139.595 114.522 139.296 114.522H138.232V115.88ZM143.054 111.106H144.426V114.452L148.458 110.574V117H147.086V113.57L143.054 117.448V111.106ZM150.19 117V111.106H153.802V112.366H151.562V117H150.19ZM158.959 111.792V111.106H160.331V117H158.959V116.384C158.502 116.916 157.914 117.182 157.195 117.182C156.327 117.182 155.632 116.874 155.109 116.258C154.596 115.642 154.339 114.905 154.339 114.046C154.339 113.113 154.615 112.366 155.165 111.806C155.725 111.237 156.407 110.952 157.209 110.952C157.947 110.952 158.53 111.232 158.959 111.792ZM157.377 112.184C156.892 112.184 156.495 112.366 156.187 112.73C155.889 113.094 155.739 113.542 155.739 114.074C155.739 114.597 155.889 115.04 156.187 115.404C156.495 115.768 156.892 115.95 157.377 115.95C157.844 115.95 158.236 115.787 158.553 115.46C158.88 115.133 159.043 114.676 159.043 114.088C159.043 113.481 158.88 113.015 158.553 112.688C158.236 112.352 157.844 112.184 157.377 112.184ZM162.071 117V111.106H163.443V115.74H165.767V111.106H167.139V115.74H168.119V118.68H166.859V117H162.071ZM169.098 111.106H170.47V114.452L174.502 110.574V117H173.13V113.57L169.098 117.448V111.106ZM176.235 111.106H177.607V114.452L181.639 110.574V117H180.267V113.57L176.235 117.448V111.106Z" fill="black"/>
<rect x="40.5" y="176.5" width="147" height="47" rx="7.5" stroke="#6A8EE8"/>
<path d="M76.084 195.662H77.82L80.228 200.646L82.412 195.662H83.896L79.682 205H78.198L79.402 202.354L76.084 195.662ZM84.0184 199.106H86.3284C86.9164 199.106 87.3644 199.223 87.6724 199.456C88.0364 199.745 88.2184 200.123 88.2184 200.59C88.2184 201.122 87.9851 201.505 87.5184 201.738C87.8171 201.794 88.0831 201.925 88.3164 202.13C88.6244 202.41 88.7784 202.788 88.7784 203.264C88.7784 203.833 88.5637 204.281 88.1344 204.608C87.7797 204.869 87.3271 205 86.7764 205H84.0184V199.106ZM85.3904 201.402H86.0904C86.3331 201.402 86.5151 201.36 86.6364 201.276C86.8137 201.164 86.9024 201.005 86.9024 200.8C86.9024 200.604 86.8231 200.45 86.6644 200.338C86.5524 200.263 86.3517 200.226 86.0624 200.226H85.3904V201.402ZM85.3904 203.88H86.4124C86.7204 203.88 86.9584 203.824 87.1264 203.712C87.3131 203.591 87.4064 203.418 87.4064 203.194C87.4064 202.951 87.3177 202.779 87.1404 202.676C86.9817 202.573 86.7531 202.522 86.4544 202.522H85.3904V203.88ZM94.3418 203.012L95.4898 203.656C95.2284 204.123 94.8971 204.482 94.4958 204.734C94.0384 205.033 93.4598 205.182 92.7598 205.182C91.9384 205.182 91.2758 204.93 90.7718 204.426C90.1931 203.847 89.9038 203.096 89.9038 202.172C89.9038 201.201 90.2164 200.394 90.8418 199.75C91.3738 199.218 92.0318 198.952 92.8158 198.952C93.5811 198.952 94.2111 199.209 94.7058 199.722C95.2564 200.291 95.5318 201.122 95.5318 202.214V202.382H91.3038C91.3411 202.877 91.5091 203.273 91.8078 203.572C92.0598 203.824 92.4098 203.95 92.8578 203.95C93.2218 203.95 93.5344 203.852 93.7958 203.656C94.0104 203.488 94.1924 203.273 94.3418 203.012ZM91.4017 201.262H94.1318C94.0758 200.935 93.9358 200.669 93.7118 200.464C93.4691 200.24 93.1611 200.128 92.7878 200.128C92.3958 200.128 92.0738 200.254 91.8218 200.506C91.6164 200.693 91.4764 200.945 91.4017 201.262ZM97.4697 199.106H101.894V203.74H102.79V206.68H101.53V205H97.4137V206.68H96.1537V203.74C96.6297 203.712 96.989 203.455 97.2317 202.97C97.3903 202.625 97.4697 202.107 97.4697 201.416V199.106ZM100.522 203.74V200.366H98.7857V201.934C98.7857 202.783 98.557 203.385 98.0997 203.74H100.522ZM104.362 199.834C104.969 199.246 105.72 198.952 106.616 198.952C107.512 198.952 108.259 199.246 108.856 199.834C109.463 200.413 109.766 201.155 109.766 202.06C109.766 202.956 109.463 203.703 108.856 204.3C108.259 204.888 107.512 205.182 106.616 205.182C105.72 205.182 104.969 204.888 104.362 204.3C103.765 203.703 103.466 202.956 103.466 202.06C103.466 201.155 103.765 200.413 104.362 199.834ZM105.342 203.446C105.66 203.782 106.084 203.95 106.616 203.95C107.148 203.95 107.573 203.782 107.89 203.446C108.208 203.101 108.366 202.643 108.366 202.074C108.366 201.449 108.194 200.977 107.848 200.66C107.512 200.343 107.102 200.184 106.616 200.184C106.131 200.184 105.716 200.343 105.37 200.66C105.034 200.977 104.866 201.449 104.866 202.074C104.866 202.643 105.025 203.101 105.342 203.446ZM110.526 205L111.954 198.574L114.39 203.068L116.826 198.574L118.254 205H116.854L116.266 202.046L114.39 205.448L112.514 202.046L111.926 205H110.526ZM124.464 199.106V205H123.092V200.366H121.356V202.704C121.356 203.432 121.169 203.997 120.796 204.398C120.32 204.93 119.676 205.131 118.864 205V203.74C119.265 203.833 119.587 203.745 119.83 203.474C119.97 203.306 120.04 203.049 120.04 202.704V199.106H124.464ZM130.326 203.012L131.474 203.656C131.213 204.123 130.881 204.482 130.48 204.734C130.023 205.033 129.444 205.182 128.744 205.182C127.923 205.182 127.26 204.93 126.756 204.426C126.177 203.847 125.888 203.096 125.888 202.172C125.888 201.201 126.201 200.394 126.826 199.75C127.358 199.218 128.016 198.952 128.8 198.952C129.565 198.952 130.195 199.209 130.69 199.722C131.241 200.291 131.516 201.122 131.516 202.214V202.382H127.288C127.325 202.877 127.493 203.273 127.792 203.572C128.044 203.824 128.394 203.95 128.842 203.95C129.206 203.95 129.519 203.852 129.78 203.656C129.995 203.488 130.177 203.273 130.326 203.012ZM127.386 201.262H130.116C130.06 200.935 129.92 200.669 129.696 200.464C129.453 200.24 129.145 200.128 128.772 200.128C128.38 200.128 128.058 200.254 127.806 200.506C127.601 200.693 127.461 200.945 127.386 201.262ZM132.95 205V199.106H134.322V201.29H136.758V199.106H138.13V205H136.758V202.55H134.322V205H132.95ZM139.868 199.106H141.24V202.452L145.272 198.574V205H143.9V201.57L139.868 205.448V199.106ZM146.249 205L148.097 202.662C147.733 202.606 147.42 202.457 147.159 202.214C146.832 201.897 146.669 201.491 146.669 200.996C146.669 200.436 146.851 199.983 147.215 199.638C147.588 199.283 148.157 199.106 148.923 199.106H151.121V205H149.749V202.83H149.469L147.859 205H146.249ZM149.749 201.71V200.282H148.951C148.624 200.282 148.386 200.324 148.237 200.408C148.013 200.548 147.901 200.744 147.901 200.996C147.901 201.248 147.994 201.439 148.181 201.57C148.321 201.663 148.573 201.71 148.937 201.71H149.749Z" fill="black"/>
<path d="M0.999999 110.941C0.447715 110.941 -2.78374e-07 111.389 0 111.941C2.78374e-07 112.493 0.447716 112.941 1 112.941L0.999999 110.941ZM39.7071 112.648C40.0976 112.258 40.0976 111.625 39.7071 111.234L33.3431 104.87C32.9526 104.48 32.3194 104.48 31.9289 104.87C31.5384 105.261 31.5384 105.894 31.9289 106.284L37.5858 111.941L31.9289 117.598C31.5384 117.989 31.5384 118.622 31.9289 119.012C32.3194 119.403 32.9526 119.403 33.3431 119.012L39.7071 112.648ZM1 112.941L39 112.941L39 110.941L0.999999 110.941L1 112.941Z" fill="#A6AEBF"/>
<path d="M39 25L40 25L40 23L39 23L39 25ZM39.7071 200.707C40.0976 200.317 40.0976 199.683 39.7071 199.293L33.3431 192.929C32.9526 192.538 32.3194 192.538 31.9289 192.929C31.5384 193.319 31.5384 193.953 31.9289 194.343L37.5858 200L31.9289 205.657C31.5384 206.047 31.5384 206.681 31.9289 207.071C32.3194 207.462 32.9526 207.462 33.3431 207.071L39.7071 200.707ZM2 192L1.99999 32L-7.34351e-06 32L-3.49691e-07 192L2 192ZM8.99999 25L39 25L39 23L8.99999 23L8.99999 25ZM39 199L9 199L9 201L39 201L39 199ZM1.99999 32C1.99999 28.134 5.134 25 8.99999 25L8.99999 23C4.02943 23 -7.56078e-06 27.0294 -7.34351e-06 32L1.99999 32ZM-3.49691e-07 192C-1.32421e-07 196.971 4.02943 201 9 201L9 199C5.134 199 2 195.866 2 192L-3.49691e-07 192Z" fill="#A6AEBF"/>
</svg>
