<svg width="889" height="1016" viewBox="0 0 889 1016" fill="none" xmlns="http://www.w3.org/2000/svg">
<rect x="40" width="102" height="48" rx="8" fill="#D2DDF8"/>
<path d="M81.936 29V25.164C81.0867 25.2293 80.452 25.262 80.032 25.262C78.996 25.262 78.2353 25.0707 77.75 24.688C77.1433 24.212 76.84 23.456 76.84 22.42V19.662H78.268V22.21C78.268 22.91 78.436 23.3907 78.772 23.652C79.024 23.848 79.5187 23.946 80.256 23.946C80.788 23.946 81.348 23.9133 81.936 23.848V19.662H83.364V29H81.936ZM89.6702 23.792V23.106H91.0422V29H89.6702V28.384C89.2129 28.916 88.6249 29.182 87.9062 29.182C87.0382 29.182 86.3429 28.874 85.8202 28.258C85.3069 27.642 85.0502 26.9047 85.0502 26.046C85.0502 25.1127 85.3256 24.366 85.8762 23.806C86.4362 23.2367 87.1176 22.952 87.9202 22.952C88.6576 22.952 89.2409 23.232 89.6702 23.792ZM88.0882 24.184C87.6029 24.184 87.2062 24.366 86.8982 24.73C86.5996 25.094 86.4502 25.542 86.4502 26.074C86.4502 26.5967 86.5996 27.04 86.8982 27.404C87.2062 27.768 87.6029 27.95 88.0882 27.95C88.5549 27.95 88.9469 27.7867 89.2642 27.46C89.5909 27.1333 89.7542 26.676 89.7542 26.088C89.7542 25.4813 89.5909 25.0147 89.2642 24.688C88.9469 24.352 88.5549 24.184 88.0882 24.184ZM96.8421 24.366H95.1201V29H93.7481V24.366H92.0261V23.106H96.8421V24.366ZM97.827 29V23.106H99.199V25.192H99.983C100.235 25.192 100.44 25.2013 100.599 25.22C100.758 25.2293 100.949 25.2807 101.173 25.374C101.397 25.4673 101.593 25.6073 101.761 25.794C102.069 26.1393 102.223 26.5687 102.223 27.082C102.223 27.67 102.046 28.1413 101.691 28.496C101.532 28.6547 101.341 28.776 101.117 28.86C100.902 28.9347 100.72 28.9767 100.571 28.986C100.431 28.9953 100.23 29 99.969 29H97.827ZM99.199 27.824H99.829C100.165 27.824 100.403 27.782 100.543 27.698C100.748 27.5487 100.851 27.348 100.851 27.096C100.851 26.8347 100.753 26.6387 100.557 26.508C100.408 26.4147 100.17 26.368 99.843 26.368H99.199V27.824ZM102.839 29V23.106H104.211V29H102.839Z" fill="black"/>
<rect x="40.5" y="88.5" width="178" height="47" rx="7.5" stroke="#6A8EE8"/>
<path d="M77.12 107.662H83.98V117H82.552V109.006H78.548V117H77.12V107.662ZM90.2855 111.792V111.106H91.6575V117H90.2855V116.384C89.8281 116.916 89.2401 117.182 88.5215 117.182C87.6535 117.182 86.9581 116.874 86.4355 116.258C85.9221 115.642 85.6655 114.905 85.6655 114.046C85.6655 113.113 85.9408 112.366 86.4915 111.806C87.0515 111.237 87.7328 110.952 88.5355 110.952C89.2728 110.952 89.8561 111.232 90.2855 111.792ZM88.7035 112.184C88.2181 112.184 87.8215 112.366 87.5135 112.73C87.2148 113.094 87.0655 113.542 87.0655 114.074C87.0655 114.597 87.2148 115.04 87.5135 115.404C87.8215 115.768 88.2181 115.95 88.7035 115.95C89.1701 115.95 89.5621 115.787 89.8795 115.46C90.2061 115.133 90.3695 114.676 90.3695 114.088C90.3695 113.481 90.2061 113.015 89.8795 112.688C89.5621 112.352 89.1701 112.184 88.7035 112.184ZM93.3973 117V111.106H94.7693V113.29H97.2053V111.106H98.5773V117H97.2053V114.55H94.7693V117H93.3973ZM104.445 115.012L105.593 115.656C105.332 116.123 105.001 116.482 104.599 116.734C104.142 117.033 103.563 117.182 102.863 117.182C102.042 117.182 101.379 116.93 100.875 116.426C100.297 115.847 100.007 115.096 100.007 114.172C100.007 113.201 100.32 112.394 100.945 111.75C101.477 111.218 102.135 110.952 102.919 110.952C103.685 110.952 104.315 111.209 104.809 111.722C105.36 112.291 105.635 113.122 105.635 114.214V114.382H101.407C101.445 114.877 101.613 115.273 101.911 115.572C102.163 115.824 102.513 115.95 102.961 115.95C103.325 115.95 103.638 115.852 103.899 115.656C104.114 115.488 104.296 115.273 104.445 115.012ZM101.505 113.262H104.235C104.179 112.935 104.039 112.669 103.815 112.464C103.573 112.24 103.265 112.128 102.891 112.128C102.499 112.128 102.177 112.254 101.925 112.506C101.72 112.693 101.58 112.945 101.505 113.262ZM111.913 111.106V117H110.541V112.366H108.805V114.704C108.805 115.432 108.619 115.997 108.245 116.398C107.769 116.93 107.125 117.131 106.313 117V115.74C106.715 115.833 107.037 115.745 107.279 115.474C107.419 115.306 107.489 115.049 107.489 114.704V111.106H111.913ZM113.645 117V111.106H115.017V113.192H115.801C116.053 113.192 116.259 113.201 116.417 113.22C116.576 113.229 116.767 113.281 116.991 113.374C117.215 113.467 117.411 113.607 117.579 113.794C117.887 114.139 118.041 114.569 118.041 115.082C118.041 115.67 117.864 116.141 117.509 116.496C117.351 116.655 117.159 116.776 116.935 116.86C116.721 116.935 116.539 116.977 116.389 116.986C116.249 116.995 116.049 117 115.787 117H113.645ZM115.017 115.824H115.647C115.983 115.824 116.221 115.782 116.361 115.698C116.567 115.549 116.669 115.348 116.669 115.096C116.669 114.835 116.571 114.639 116.375 114.508C116.226 114.415 115.988 114.368 115.661 114.368H115.017V115.824ZM122.518 117V111.106H123.89V113.29H126.326V111.106H127.698V117H126.326V114.55H123.89V117H122.518ZM133.748 111.792V111.106H135.12V117H133.748V116.384C133.291 116.916 132.703 117.182 131.984 117.182C131.116 117.182 130.421 116.874 129.898 116.258C129.385 115.642 129.128 114.905 129.128 114.046C129.128 113.113 129.404 112.366 129.954 111.806C130.514 111.237 131.196 110.952 131.998 110.952C132.736 110.952 133.319 111.232 133.748 111.792ZM132.166 112.184C131.681 112.184 131.284 112.366 130.976 112.73C130.678 113.094 130.528 113.542 130.528 114.074C130.528 114.597 130.678 115.04 130.976 115.404C131.284 115.768 131.681 115.95 132.166 115.95C132.633 115.95 133.025 115.787 133.342 115.46C133.669 115.133 133.832 114.676 133.832 114.088C133.832 113.481 133.669 113.015 133.342 112.688C133.025 112.352 132.633 112.184 132.166 112.184ZM136.86 111.106H139.17C139.758 111.106 140.206 111.223 140.514 111.456C140.878 111.745 141.06 112.123 141.06 112.59C141.06 113.122 140.827 113.505 140.36 113.738C140.659 113.794 140.925 113.925 141.158 114.13C141.466 114.41 141.62 114.788 141.62 115.264C141.62 115.833 141.406 116.281 140.976 116.608C140.622 116.869 140.169 117 139.618 117H136.86V111.106ZM138.232 113.402H138.932C139.175 113.402 139.357 113.36 139.478 113.276C139.656 113.164 139.744 113.005 139.744 112.8C139.744 112.604 139.665 112.45 139.506 112.338C139.394 112.263 139.194 112.226 138.904 112.226H138.232V113.402ZM138.232 115.88H139.254C139.562 115.88 139.8 115.824 139.968 115.712C140.155 115.591 140.248 115.418 140.248 115.194C140.248 114.951 140.16 114.779 139.982 114.676C139.824 114.573 139.595 114.522 139.296 114.522H138.232V115.88ZM143.054 111.106H144.426V114.452L148.458 110.574V117H147.086V113.57L143.054 117.448V111.106ZM150.19 117V111.106H153.802V112.366H151.562V117H150.19ZM158.959 111.792V111.106H160.331V117H158.959V116.384C158.502 116.916 157.914 117.182 157.195 117.182C156.327 117.182 155.632 116.874 155.109 116.258C154.596 115.642 154.339 114.905 154.339 114.046C154.339 113.113 154.615 112.366 155.165 111.806C155.725 111.237 156.407 110.952 157.209 110.952C157.947 110.952 158.53 111.232 158.959 111.792ZM157.377 112.184C156.892 112.184 156.495 112.366 156.187 112.73C155.889 113.094 155.739 113.542 155.739 114.074C155.739 114.597 155.889 115.04 156.187 115.404C156.495 115.768 156.892 115.95 157.377 115.95C157.844 115.95 158.236 115.787 158.553 115.46C158.88 115.133 159.043 114.676 159.043 114.088C159.043 113.481 158.88 113.015 158.553 112.688C158.236 112.352 157.844 112.184 157.377 112.184ZM162.071 117V111.106H163.443V115.74H165.767V111.106H167.139V115.74H168.119V118.68H166.859V117H162.071ZM169.098 111.106H170.47V114.452L174.502 110.574V117H173.13V113.57L169.098 117.448V111.106ZM176.235 111.106H177.607V114.452L181.639 110.574V117H180.267V113.57L176.235 117.448V111.106Z" fill="black"/>
<rect x="40.5" y="176.5" width="149" height="47" rx="7.5" stroke="#6A8EE8"/>
<path d="M84.036 196.166V197.846C83.2707 197.155 82.426 196.81 81.502 196.81C80.494 196.81 79.6727 197.146 79.038 197.818C78.4127 198.481 78.1 199.33 78.1 200.366C78.1 201.365 78.422 202.2 79.066 202.872C79.71 203.535 80.5267 203.866 81.516 203.866C82.44 203.866 83.28 203.507 84.036 202.788V204.482C83.252 204.949 82.398 205.182 81.474 205.182C80.1767 205.182 79.0753 204.753 78.17 203.894C77.1713 202.961 76.672 201.785 76.672 200.366C76.672 198.873 77.1713 197.655 78.17 196.712C79.0287 195.9 80.1533 195.494 81.544 195.494C82.5053 195.494 83.336 195.718 84.036 196.166ZM85.5496 199.106H90.6736V205H89.3016V200.366H86.9216V205H85.5496V199.106ZM92.4129 199.106H93.7849V202.452L97.8169 198.574V205H96.4449V201.57L92.4129 205.448V199.106ZM104.114 199.372V200.912C103.619 200.427 103.064 200.184 102.448 200.184C101.925 200.184 101.491 200.357 101.146 200.702C100.81 201.038 100.642 201.491 100.642 202.06C100.642 202.648 100.819 203.119 101.174 203.474C101.51 203.791 101.925 203.95 102.42 203.95C103.101 203.95 103.666 203.698 104.114 203.194V204.72C103.619 205.028 103.022 205.182 102.322 205.182C101.379 205.182 100.632 204.893 100.082 204.314C99.5216 203.735 99.2416 202.998 99.2416 202.102C99.2416 201.178 99.5403 200.417 100.138 199.82C100.716 199.241 101.505 198.952 102.504 198.952C103.073 198.952 103.61 199.092 104.114 199.372ZM106.017 199.834C106.623 199.246 107.375 198.952 108.271 198.952C109.167 198.952 109.913 199.246 110.511 199.834C111.117 200.413 111.421 201.155 111.421 202.06C111.421 202.956 111.117 203.703 110.511 204.3C109.913 204.888 109.167 205.182 108.271 205.182C107.375 205.182 106.623 204.888 106.017 204.3C105.419 203.703 105.121 202.956 105.121 202.06C105.121 201.155 105.419 200.413 106.017 199.834ZM106.997 203.446C107.314 203.782 107.739 203.95 108.271 203.95C108.803 203.95 109.227 203.782 109.545 203.446C109.862 203.101 110.021 202.643 110.021 202.074C110.021 201.449 109.848 200.977 109.503 200.66C109.167 200.343 108.756 200.184 108.271 200.184C107.785 200.184 107.37 200.343 107.025 200.66C106.689 200.977 106.521 201.449 106.521 202.074C106.521 202.643 106.679 203.101 106.997 203.446ZM112.852 199.106H114.224V201.206L116.184 199.106H118.004L115.428 201.682L118.144 205H116.408L114.448 202.578L114.224 202.802V205H112.852V199.106ZM125.505 205V202.718C125.085 202.802 124.684 202.844 124.301 202.844C123.629 202.844 123.111 202.699 122.747 202.41C122.365 202.102 122.173 201.631 122.173 200.996V199.106H123.545V200.716C123.545 201.117 123.662 201.388 123.895 201.528C124.054 201.621 124.283 201.668 124.581 201.668C124.917 201.668 125.225 201.617 125.505 201.514V199.106H126.877V205H125.505ZM132.928 199.792V199.106H134.3V205H132.928V204.384C132.471 204.916 131.883 205.182 131.164 205.182C130.296 205.182 129.601 204.874 129.078 204.258C128.565 203.642 128.308 202.905 128.308 202.046C128.308 201.113 128.583 200.366 129.134 199.806C129.694 199.237 130.375 198.952 131.178 198.952C131.915 198.952 132.499 199.232 132.928 199.792ZM131.346 200.184C130.861 200.184 130.464 200.366 130.156 200.73C129.857 201.094 129.708 201.542 129.708 202.074C129.708 202.597 129.857 203.04 130.156 203.404C130.464 203.768 130.861 203.95 131.346 203.95C131.813 203.95 132.205 203.787 132.522 203.46C132.849 203.133 133.012 202.676 133.012 202.088C133.012 201.481 132.849 201.015 132.522 200.688C132.205 200.352 131.813 200.184 131.346 200.184ZM140.1 200.366H138.378V205H137.006V200.366H135.284V199.106H140.1V200.366ZM141.522 199.834C142.129 199.246 142.88 198.952 143.776 198.952C144.672 198.952 145.419 199.246 146.016 199.834C146.623 200.413 146.926 201.155 146.926 202.06C146.926 202.956 146.623 203.703 146.016 204.3C145.419 204.888 144.672 205.182 143.776 205.182C142.88 205.182 142.129 204.888 141.522 204.3C140.925 203.703 140.626 202.956 140.626 202.06C140.626 201.155 140.925 200.413 141.522 199.834ZM142.502 203.446C142.82 203.782 143.244 203.95 143.776 203.95C144.308 203.95 144.733 203.782 145.05 203.446C145.368 203.101 145.526 202.643 145.526 202.074C145.526 201.449 145.354 200.977 145.008 200.66C144.672 200.343 144.262 200.184 143.776 200.184C143.291 200.184 142.876 200.343 142.53 200.66C142.194 200.977 142.026 201.449 142.026 202.074C142.026 202.643 142.185 203.101 142.502 203.446ZM148.358 199.106H150.668C151.256 199.106 151.704 199.223 152.012 199.456C152.376 199.745 152.558 200.123 152.558 200.59C152.558 201.122 152.325 201.505 151.858 201.738C152.157 201.794 152.423 201.925 152.656 202.13C152.964 202.41 153.118 202.788 153.118 203.264C153.118 203.833 152.904 204.281 152.474 204.608C152.12 204.869 151.667 205 151.116 205H148.358V199.106ZM149.73 201.402H150.43C150.673 201.402 150.855 201.36 150.976 201.276C151.154 201.164 151.242 201.005 151.242 200.8C151.242 200.604 151.163 200.45 151.004 200.338C150.892 200.263 150.692 200.226 150.402 200.226H149.73V201.402ZM149.73 203.88H150.752C151.06 203.88 151.298 203.824 151.466 203.712C151.653 203.591 151.746 203.418 151.746 203.194C151.746 202.951 151.658 202.779 151.48 202.676C151.322 202.573 151.093 202.522 150.794 202.522H149.73V203.88Z" fill="black"/>
<rect x="311.5" y="440.5" width="203" height="47" rx="7.5" stroke="#015CA3"/>
<path d="M355.036 460.166V461.846C354.271 461.155 353.426 460.81 352.502 460.81C351.494 460.81 350.673 461.146 350.038 461.818C349.413 462.481 349.1 463.33 349.1 464.366C349.1 465.365 349.422 466.2 350.066 466.872C350.71 467.535 351.527 467.866 352.516 467.866C353.44 467.866 354.28 467.507 355.036 466.788V468.482C354.252 468.949 353.398 469.182 352.474 469.182C351.177 469.182 350.075 468.753 349.17 467.894C348.171 466.961 347.672 465.785 347.672 464.366C347.672 462.873 348.171 461.655 349.17 460.712C350.029 459.9 351.153 459.494 352.544 459.494C353.505 459.494 354.336 459.718 355.036 460.166ZM356.55 463.106H361.674V469H360.302V464.366H357.922V469H356.55V463.106ZM363.413 463.106H364.785V466.452L368.817 462.574V469H367.445V465.57L363.413 469.448V463.106ZM375.114 463.372V464.912C374.619 464.427 374.064 464.184 373.448 464.184C372.925 464.184 372.491 464.357 372.146 464.702C371.81 465.038 371.642 465.491 371.642 466.06C371.642 466.648 371.819 467.119 372.174 467.474C372.51 467.791 372.925 467.95 373.42 467.95C374.101 467.95 374.666 467.698 375.114 467.194V468.72C374.619 469.028 374.022 469.182 373.322 469.182C372.379 469.182 371.632 468.893 371.082 468.314C370.522 467.735 370.242 466.998 370.242 466.102C370.242 465.178 370.54 464.417 371.138 463.82C371.716 463.241 372.505 462.952 373.504 462.952C374.073 462.952 374.61 463.092 375.114 463.372ZM377.017 463.834C377.623 463.246 378.375 462.952 379.271 462.952C380.167 462.952 380.913 463.246 381.511 463.834C382.117 464.413 382.421 465.155 382.421 466.06C382.421 466.956 382.117 467.703 381.511 468.3C380.913 468.888 380.167 469.182 379.271 469.182C378.375 469.182 377.623 468.888 377.017 468.3C376.419 467.703 376.121 466.956 376.121 466.06C376.121 465.155 376.419 464.413 377.017 463.834ZM377.997 467.446C378.314 467.782 378.739 467.95 379.271 467.95C379.803 467.95 380.227 467.782 380.545 467.446C380.862 467.101 381.021 466.643 381.021 466.074C381.021 465.449 380.848 464.977 380.503 464.66C380.167 464.343 379.756 464.184 379.271 464.184C378.785 464.184 378.37 464.343 378.025 464.66C377.689 464.977 377.521 465.449 377.521 466.074C377.521 466.643 377.679 467.101 377.997 467.446ZM383.852 463.106H385.224V465.206L387.184 463.106H389.004L386.428 465.682L389.144 469H387.408L385.448 466.578L385.224 466.802V469H383.852V463.106ZM393.313 463.106H398.437V469H397.065V464.366H394.685V469H393.313V463.106ZM400.765 463.834C401.371 463.246 402.123 462.952 403.019 462.952C403.915 462.952 404.661 463.246 405.259 463.834C405.865 464.413 406.169 465.155 406.169 466.06C406.169 466.956 405.865 467.703 405.259 468.3C404.661 468.888 403.915 469.182 403.019 469.182C402.123 469.182 401.371 468.888 400.765 468.3C400.167 467.703 399.869 466.956 399.869 466.06C399.869 465.155 400.167 464.413 400.765 463.834ZM401.745 467.446C402.062 467.782 402.487 467.95 403.019 467.95C403.551 467.95 403.975 467.782 404.293 467.446C404.61 467.101 404.769 466.643 404.769 466.074C404.769 465.449 404.596 464.977 404.251 464.66C403.915 464.343 403.504 464.184 403.019 464.184C402.533 464.184 402.118 464.343 401.773 464.66C401.437 464.977 401.269 465.449 401.269 466.074C401.269 466.643 401.427 467.101 401.745 467.446ZM412.444 463.106V469H411.072V464.366H409.336V466.704C409.336 467.432 409.15 467.997 408.776 468.398C408.3 468.93 407.656 469.131 406.844 469V467.74C407.246 467.833 407.568 467.745 407.81 467.474C407.95 467.306 408.02 467.049 408.02 466.704V463.106H412.444ZM414.177 469V463.106H415.549V465.192H416.333C416.585 465.192 416.79 465.201 416.949 465.22C417.107 465.229 417.299 465.281 417.523 465.374C417.747 465.467 417.943 465.607 418.111 465.794C418.419 466.139 418.573 466.569 418.573 467.082C418.573 467.67 418.395 468.141 418.041 468.496C417.882 468.655 417.691 468.776 417.467 468.86C417.252 468.935 417.07 468.977 416.921 468.986C416.781 468.995 416.58 469 416.319 469H414.177ZM415.549 467.824H416.179C416.515 467.824 416.753 467.782 416.893 467.698C417.098 467.549 417.201 467.348 417.201 467.096C417.201 466.835 417.103 466.639 416.907 466.508C416.757 466.415 416.519 466.368 416.193 466.368H415.549V467.824ZM420.43 464.632L419.548 463.862C419.772 463.591 420.07 463.372 420.444 463.204C420.836 463.036 421.298 462.952 421.83 462.952C422.446 462.952 422.945 463.087 423.328 463.358C423.738 463.657 423.944 464.058 423.944 464.562C423.944 464.889 423.86 465.159 423.692 465.374C423.552 465.561 423.365 465.701 423.132 465.794C423.486 465.869 423.771 466.013 423.986 466.228C424.238 466.48 424.364 466.807 424.364 467.208C424.364 467.74 424.196 468.174 423.86 468.51C423.412 468.958 422.721 469.182 421.788 469.182C421.162 469.182 420.649 469.065 420.248 468.832C419.828 468.589 419.52 468.239 419.324 467.782L420.416 467.222C420.546 467.502 420.719 467.707 420.934 467.838C421.167 467.987 421.461 468.062 421.816 468.062C422.245 468.062 422.558 467.964 422.754 467.768C422.894 467.609 422.964 467.437 422.964 467.25C422.964 467.054 422.903 466.895 422.782 466.774C422.623 466.606 422.296 466.522 421.802 466.522H421.186V465.402H421.704C422.002 465.402 422.226 465.351 422.376 465.248C422.544 465.117 422.628 464.945 422.628 464.73C422.628 464.506 422.544 464.338 422.376 464.226C422.236 464.123 422.016 464.072 421.718 464.072C421.438 464.072 421.181 464.128 420.948 464.24C420.752 464.333 420.579 464.464 420.43 464.632ZM426.386 463.834C426.992 463.246 427.744 462.952 428.64 462.952C429.536 462.952 430.282 463.246 430.88 463.834C431.486 464.413 431.79 465.155 431.79 466.06C431.79 466.956 431.486 467.703 430.88 468.3C430.282 468.888 429.536 469.182 428.64 469.182C427.744 469.182 426.992 468.888 426.386 468.3C425.788 467.703 425.49 466.956 425.49 466.06C425.49 465.155 425.788 464.413 426.386 463.834ZM427.366 467.446C427.683 467.782 428.108 467.95 428.64 467.95C429.172 467.95 429.596 467.782 429.914 467.446C430.231 467.101 430.39 466.643 430.39 466.074C430.39 465.449 430.217 464.977 429.872 464.66C429.536 464.343 429.125 464.184 428.64 464.184C428.154 464.184 427.739 464.343 427.394 464.66C427.058 464.977 426.89 465.449 426.89 466.074C426.89 466.643 427.048 467.101 427.366 467.446ZM433.222 463.106H435.532C436.12 463.106 436.568 463.223 436.876 463.456C437.24 463.745 437.422 464.123 437.422 464.59C437.422 465.122 437.188 465.505 436.722 465.738C437.02 465.794 437.286 465.925 437.52 466.13C437.828 466.41 437.982 466.788 437.982 467.264C437.982 467.833 437.767 468.281 437.338 468.608C436.983 468.869 436.53 469 435.98 469H433.222V463.106ZM434.594 465.402H435.294C435.536 465.402 435.718 465.36 435.84 465.276C436.017 465.164 436.106 465.005 436.106 464.8C436.106 464.604 436.026 464.45 435.868 464.338C435.756 464.263 435.555 464.226 435.266 464.226H434.594V465.402ZM434.594 467.88H435.616C435.924 467.88 436.162 467.824 436.33 467.712C436.516 467.591 436.61 467.418 436.61 467.194C436.61 466.951 436.521 466.779 436.344 466.676C436.185 466.573 435.956 466.522 435.658 466.522H434.594V467.88ZM443.727 463.792V463.106H445.099V469H443.727V468.384C443.27 468.916 442.682 469.182 441.963 469.182C441.095 469.182 440.4 468.874 439.877 468.258C439.364 467.642 439.107 466.905 439.107 466.046C439.107 465.113 439.382 464.366 439.933 463.806C440.493 463.237 441.174 462.952 441.977 462.952C442.714 462.952 443.298 463.232 443.727 463.792ZM442.145 464.184C441.66 464.184 441.263 464.366 440.955 464.73C440.656 465.094 440.507 465.542 440.507 466.074C440.507 466.597 440.656 467.04 440.955 467.404C441.263 467.768 441.66 467.95 442.145 467.95C442.612 467.95 443.004 467.787 443.321 467.46C443.648 467.133 443.811 466.676 443.811 466.088C443.811 465.481 443.648 465.015 443.321 464.688C443.004 464.352 442.612 464.184 442.145 464.184ZM450.899 464.366H449.177V469H447.805V464.366H446.083V463.106H450.899V464.366ZM455.863 467.012L457.011 467.656C456.75 468.123 456.419 468.482 456.017 468.734C455.56 469.033 454.981 469.182 454.281 469.182C453.46 469.182 452.797 468.93 452.293 468.426C451.715 467.847 451.425 467.096 451.425 466.172C451.425 465.201 451.738 464.394 452.363 463.75C452.895 463.218 453.553 462.952 454.337 462.952C455.103 462.952 455.733 463.209 456.227 463.722C456.778 464.291 457.053 465.122 457.053 466.214V466.382H452.825C452.863 466.877 453.031 467.273 453.329 467.572C453.581 467.824 453.931 467.95 454.379 467.95C454.743 467.95 455.056 467.852 455.317 467.656C455.532 467.488 455.714 467.273 455.863 467.012ZM452.923 465.262H455.653C455.597 464.935 455.457 464.669 455.233 464.464C454.991 464.24 454.683 464.128 454.309 464.128C453.917 464.128 453.595 464.254 453.343 464.506C453.138 464.693 452.998 464.945 452.923 465.262ZM463.331 463.106V469H461.959V464.366H460.223V466.704C460.223 467.432 460.036 467.997 459.663 468.398C459.187 468.93 458.543 469.131 457.731 469V467.74C458.132 467.833 458.454 467.745 458.697 467.474C458.837 467.306 458.907 467.049 458.907 466.704V463.106H463.331ZM469.193 467.012L470.341 467.656C470.08 468.123 469.749 468.482 469.347 468.734C468.89 469.033 468.311 469.182 467.611 469.182C466.79 469.182 466.127 468.93 465.623 468.426C465.045 467.847 464.755 467.096 464.755 466.172C464.755 465.201 465.068 464.394 465.693 463.75C466.225 463.218 466.883 462.952 467.667 462.952C468.433 462.952 469.063 463.209 469.557 463.722C470.108 464.291 470.383 465.122 470.383 466.214V466.382H466.155C466.193 466.877 466.361 467.273 466.659 467.572C466.911 467.824 467.261 467.95 467.709 467.95C468.073 467.95 468.386 467.852 468.647 467.656C468.862 467.488 469.044 467.273 469.193 467.012ZM466.253 465.262H468.983C468.927 464.935 468.787 464.669 468.563 464.464C468.321 464.24 468.013 464.128 467.639 464.128C467.247 464.128 466.925 464.254 466.673 464.506C466.468 464.693 466.328 464.945 466.253 465.262ZM471.817 463.106H473.189V466.452L477.221 462.574V469H475.849V465.57L471.817 469.448V463.106ZM472.265 460.558L473.385 460.236C473.563 460.843 473.945 461.146 474.533 461.146C475.112 461.146 475.495 460.843 475.681 460.236L476.801 460.558C476.652 461.09 476.349 461.501 475.891 461.79C475.443 462.07 474.991 462.21 474.533 462.21C474.076 462.21 473.619 462.07 473.161 461.79C472.713 461.501 472.415 461.09 472.265 460.558Z" fill="black"/>
<rect x="40.5" y="352.5" width="185" height="47" rx="7.5" stroke="#6A8EE8"/>
<path d="M77.12 381V371.662H81.796V373.006H78.548V375.428H79.472C80.4707 375.428 81.25 375.675 81.81 376.17C82.398 376.683 82.692 377.369 82.692 378.228C82.692 378.676 82.5893 379.105 82.384 379.516C82.188 379.917 81.9033 380.244 81.53 380.496C81.026 380.832 80.3447 381 79.486 381H77.12ZM78.548 376.772V379.656H79.416C80.6667 379.656 81.292 379.185 81.292 378.242C81.292 377.831 81.152 377.486 80.872 377.206C80.6013 376.917 80.1253 376.772 79.444 376.772H78.548ZM89.0811 375.106V381H87.7091V376.366H85.9731V378.704C85.9731 379.432 85.7865 379.997 85.4131 380.398C84.9371 380.93 84.2931 381.131 83.4811 381V379.74C83.8825 379.833 84.2045 379.745 84.4471 379.474C84.5871 379.306 84.6571 379.049 84.6571 378.704V375.106H89.0811ZM91.4013 375.834C92.008 375.246 92.7593 374.952 93.6553 374.952C94.5513 374.952 95.298 375.246 95.8953 375.834C96.502 376.413 96.8053 377.155 96.8053 378.06C96.8053 378.956 96.502 379.703 95.8953 380.3C95.298 380.888 94.5513 381.182 93.6553 381.182C92.7593 381.182 92.008 380.888 91.4013 380.3C90.804 379.703 90.5053 378.956 90.5053 378.06C90.5053 377.155 90.804 376.413 91.4013 375.834ZM92.3813 379.446C92.6986 379.782 93.1233 379.95 93.6553 379.95C94.1873 379.95 94.612 379.782 94.9293 379.446C95.2466 379.101 95.4053 378.643 95.4053 378.074C95.4053 377.449 95.2326 376.977 94.8873 376.66C94.5513 376.343 94.1406 376.184 93.6553 376.184C93.17 376.184 92.7546 376.343 92.4093 376.66C92.0733 376.977 91.9053 377.449 91.9053 378.074C91.9053 378.643 92.064 379.101 92.3813 379.446ZM98.2371 375.106H99.6091V377.206L101.569 375.106H103.389L100.813 377.682L103.529 381H101.793L99.8331 378.578L99.6091 378.802V381H98.2371V375.106ZM112.262 375.372V376.912C111.767 376.427 111.212 376.184 110.596 376.184C110.073 376.184 109.639 376.357 109.294 376.702C108.958 377.038 108.79 377.491 108.79 378.06C108.79 378.648 108.967 379.119 109.322 379.474C109.658 379.791 110.073 379.95 110.568 379.95C111.249 379.95 111.814 379.698 112.262 379.194V380.72C111.767 381.028 111.17 381.182 110.47 381.182C109.527 381.182 108.781 380.893 108.23 380.314C107.67 379.735 107.39 378.998 107.39 378.102C107.39 377.178 107.689 376.417 108.286 375.82C108.865 375.241 109.653 374.952 110.652 374.952C111.221 374.952 111.758 375.092 112.262 375.372ZM114.165 375.834C114.772 375.246 115.523 374.952 116.419 374.952C117.315 374.952 118.062 375.246 118.659 375.834C119.266 376.413 119.569 377.155 119.569 378.06C119.569 378.956 119.266 379.703 118.659 380.3C118.062 380.888 117.315 381.182 116.419 381.182C115.523 381.182 114.772 380.888 114.165 380.3C113.568 379.703 113.269 378.956 113.269 378.06C113.269 377.155 113.568 376.413 114.165 375.834ZM115.145 379.446C115.462 379.782 115.887 379.95 116.419 379.95C116.951 379.95 117.376 379.782 117.693 379.446C118.01 379.101 118.169 378.643 118.169 378.074C118.169 377.449 117.996 376.977 117.651 376.66C117.315 376.343 116.904 376.184 116.419 376.184C115.934 376.184 115.518 376.343 115.173 376.66C114.837 376.977 114.669 377.449 114.669 378.074C114.669 378.643 114.828 379.101 115.145 379.446ZM121.498 376.632L120.616 375.862C120.84 375.591 121.139 375.372 121.512 375.204C121.904 375.036 122.366 374.952 122.898 374.952C123.514 374.952 124.013 375.087 124.396 375.358C124.807 375.657 125.012 376.058 125.012 376.562C125.012 376.889 124.928 377.159 124.76 377.374C124.62 377.561 124.433 377.701 124.2 377.794C124.555 377.869 124.839 378.013 125.054 378.228C125.306 378.48 125.432 378.807 125.432 379.208C125.432 379.74 125.264 380.174 124.928 380.51C124.48 380.958 123.789 381.182 122.856 381.182C122.231 381.182 121.717 381.065 121.316 380.832C120.896 380.589 120.588 380.239 120.392 379.782L121.484 379.222C121.615 379.502 121.787 379.707 122.002 379.838C122.235 379.987 122.529 380.062 122.884 380.062C123.313 380.062 123.626 379.964 123.822 379.768C123.962 379.609 124.032 379.437 124.032 379.25C124.032 379.054 123.971 378.895 123.85 378.774C123.691 378.606 123.365 378.522 122.87 378.522H122.254V377.402H122.772C123.071 377.402 123.295 377.351 123.444 377.248C123.612 377.117 123.696 376.945 123.696 376.73C123.696 376.506 123.612 376.338 123.444 376.226C123.304 376.123 123.085 376.072 122.786 376.072C122.506 376.072 122.249 376.128 122.016 376.24C121.82 376.333 121.647 376.464 121.498 376.632ZM127.37 375.106H131.794V379.74H132.69V382.68H131.43V381H127.314V382.68H126.054V379.74C126.53 379.712 126.889 379.455 127.132 378.97C127.291 378.625 127.37 378.107 127.37 377.416V375.106ZM130.422 379.74V376.366H128.686V377.934C128.686 378.783 128.457 379.385 128 379.74H130.422ZM137.987 375.792V375.106H139.359V381H137.987V380.384C137.529 380.916 136.941 381.182 136.223 381.182C135.355 381.182 134.659 380.874 134.137 380.258C133.623 379.642 133.367 378.905 133.367 378.046C133.367 377.113 133.642 376.366 134.193 375.806C134.753 375.237 135.434 374.952 136.237 374.952C136.974 374.952 137.557 375.232 137.987 375.792ZM136.405 376.184C135.919 376.184 135.523 376.366 135.215 376.73C134.916 377.094 134.767 377.542 134.767 378.074C134.767 378.597 134.916 379.04 135.215 379.404C135.523 379.768 135.919 379.95 136.405 379.95C136.871 379.95 137.263 379.787 137.581 379.46C137.907 379.133 138.071 378.676 138.071 378.088C138.071 377.481 137.907 377.015 137.581 376.688C137.263 376.352 136.871 376.184 136.405 376.184ZM141.098 381V375.106H142.47V377.29H144.906V375.106H146.278V381H144.906V378.55H142.47V381H141.098ZM148.016 375.106H149.388V378.452L153.42 374.574V381H152.048V377.57L148.016 381.448V375.106ZM154.397 381L156.245 378.662C155.881 378.606 155.568 378.457 155.307 378.214C154.98 377.897 154.817 377.491 154.817 376.996C154.817 376.436 154.999 375.983 155.363 375.638C155.736 375.283 156.306 375.106 157.071 375.106H159.269V381H157.897V378.83H157.617L156.007 381H154.397ZM157.897 377.71V376.282H157.099C156.772 376.282 156.534 376.324 156.385 376.408C156.161 376.548 156.049 376.744 156.049 376.996C156.049 377.248 156.142 377.439 156.329 377.57C156.469 377.663 156.721 377.71 157.085 377.71H157.897ZM167.464 381V378.718C167.044 378.802 166.643 378.844 166.26 378.844C165.588 378.844 165.07 378.699 164.706 378.41C164.324 378.102 164.132 377.631 164.132 376.996V375.106H165.504V376.716C165.504 377.117 165.621 377.388 165.854 377.528C166.013 377.621 166.242 377.668 166.54 377.668C166.876 377.668 167.184 377.617 167.464 377.514V375.106H168.836V381H167.464ZM174.887 375.792V375.106H176.259V381H174.887V380.384C174.43 380.916 173.842 381.182 173.123 381.182C172.255 381.182 171.56 380.874 171.037 380.258C170.524 379.642 170.267 378.905 170.267 378.046C170.267 377.113 170.542 376.366 171.093 375.806C171.653 375.237 172.334 374.952 173.137 374.952C173.874 374.952 174.458 375.232 174.887 375.792ZM173.305 376.184C172.82 376.184 172.423 376.366 172.115 376.73C171.816 377.094 171.667 377.542 171.667 378.074C171.667 378.597 171.816 379.04 172.115 379.404C172.423 379.768 172.82 379.95 173.305 379.95C173.772 379.95 174.164 379.787 174.481 379.46C174.808 379.133 174.971 378.676 174.971 378.088C174.971 377.481 174.808 377.015 174.481 376.688C174.164 376.352 173.772 376.184 173.305 376.184ZM182.059 376.366H180.337V381H178.965V376.366H177.243V375.106H182.059V376.366ZM187.205 375.792V375.106H188.577V381H187.205V380.384C186.748 380.916 186.16 381.182 185.441 381.182C184.573 381.182 183.878 380.874 183.355 380.258C182.842 379.642 182.585 378.905 182.585 378.046C182.585 377.113 182.861 376.366 183.411 375.806C183.971 375.237 184.653 374.952 185.455 374.952C186.193 374.952 186.776 375.232 187.205 375.792ZM185.623 376.184C185.138 376.184 184.741 376.366 184.433 376.73C184.135 377.094 183.985 377.542 183.985 378.074C183.985 378.597 184.135 379.04 184.433 379.404C184.741 379.768 185.138 379.95 185.623 379.95C186.09 379.95 186.482 379.787 186.799 379.46C187.126 379.133 187.289 378.676 187.289 378.088C187.289 377.481 187.126 377.015 186.799 376.688C186.482 376.352 186.09 376.184 185.623 376.184Z" fill="black"/>
<rect x="40.5" y="704.5" width="92" height="47" rx="7.5" stroke="#6A8EE8"/>
<path d="M81.936 733V729.164C81.0867 729.229 80.452 729.262 80.032 729.262C78.996 729.262 78.2353 729.071 77.75 728.688C77.1433 728.212 76.84 727.456 76.84 726.42V723.662H78.268V726.21C78.268 726.91 78.436 727.391 78.772 727.652C79.024 727.848 79.5187 727.946 80.256 727.946C80.788 727.946 81.348 727.913 81.936 727.848V723.662H83.364V733H81.936ZM89.6702 727.792V727.106H91.0422V733H89.6702V732.384C89.2129 732.916 88.6249 733.182 87.9062 733.182C87.0382 733.182 86.3429 732.874 85.8202 732.258C85.3069 731.642 85.0502 730.905 85.0502 730.046C85.0502 729.113 85.3256 728.366 85.8762 727.806C86.4362 727.237 87.1176 726.952 87.9202 726.952C88.6576 726.952 89.2409 727.232 89.6702 727.792ZM88.0882 728.184C87.6029 728.184 87.2062 728.366 86.8982 728.73C86.5996 729.094 86.4502 729.542 86.4502 730.074C86.4502 730.597 86.5996 731.04 86.8982 731.404C87.2062 731.768 87.6029 731.95 88.0882 731.95C88.5549 731.95 88.9469 731.787 89.2642 731.46C89.5909 731.133 89.7542 730.676 89.7542 730.088C89.7542 729.481 89.5909 729.015 89.2642 728.688C88.9469 728.352 88.5549 728.184 88.0882 728.184ZM96.8421 728.366H95.1201V733H93.7481V728.366H92.0261V727.106H96.8421V728.366Z" fill="black"/>
<rect x="311.5" y="792.5" width="183" height="47" rx="7.5" stroke="#015CA3"/>
<path d="M355.036 812.166V813.846C354.271 813.155 353.426 812.81 352.502 812.81C351.494 812.81 350.673 813.146 350.038 813.818C349.413 814.481 349.1 815.33 349.1 816.366C349.1 817.365 349.422 818.2 350.066 818.872C350.71 819.535 351.527 819.866 352.516 819.866C353.44 819.866 354.28 819.507 355.036 818.788V820.482C354.252 820.949 353.398 821.182 352.474 821.182C351.177 821.182 350.075 820.753 349.17 819.894C348.171 818.961 347.672 817.785 347.672 816.366C347.672 814.873 348.171 813.655 349.17 812.712C350.029 811.9 351.153 811.494 352.544 811.494C353.505 811.494 354.336 811.718 355.036 812.166ZM356.55 815.106H361.674V821H360.302V816.366H357.922V821H356.55V815.106ZM363.413 815.106H364.785V818.452L368.817 814.574V821H367.445V817.57L363.413 821.448V815.106ZM375.114 815.372V816.912C374.619 816.427 374.064 816.184 373.448 816.184C372.925 816.184 372.491 816.357 372.146 816.702C371.81 817.038 371.642 817.491 371.642 818.06C371.642 818.648 371.819 819.119 372.174 819.474C372.51 819.791 372.925 819.95 373.42 819.95C374.101 819.95 374.666 819.698 375.114 819.194V820.72C374.619 821.028 374.022 821.182 373.322 821.182C372.379 821.182 371.632 820.893 371.082 820.314C370.522 819.735 370.242 818.998 370.242 818.102C370.242 817.178 370.54 816.417 371.138 815.82C371.716 815.241 372.505 814.952 373.504 814.952C374.073 814.952 374.61 815.092 375.114 815.372ZM377.017 815.834C377.623 815.246 378.375 814.952 379.271 814.952C380.167 814.952 380.913 815.246 381.511 815.834C382.117 816.413 382.421 817.155 382.421 818.06C382.421 818.956 382.117 819.703 381.511 820.3C380.913 820.888 380.167 821.182 379.271 821.182C378.375 821.182 377.623 820.888 377.017 820.3C376.419 819.703 376.121 818.956 376.121 818.06C376.121 817.155 376.419 816.413 377.017 815.834ZM377.997 819.446C378.314 819.782 378.739 819.95 379.271 819.95C379.803 819.95 380.227 819.782 380.545 819.446C380.862 819.101 381.021 818.643 381.021 818.074C381.021 817.449 380.848 816.977 380.503 816.66C380.167 816.343 379.756 816.184 379.271 816.184C378.785 816.184 378.37 816.343 378.025 816.66C377.689 816.977 377.521 817.449 377.521 818.074C377.521 818.643 377.679 819.101 377.997 819.446ZM383.852 815.106H385.224V817.206L387.184 815.106H389.004L386.428 817.682L389.144 821H387.408L385.448 818.578L385.224 818.802V821H383.852V815.106ZM397.877 815.372V816.912C397.383 816.427 396.827 816.184 396.211 816.184C395.689 816.184 395.255 816.357 394.909 816.702C394.573 817.038 394.405 817.491 394.405 818.06C394.405 818.648 394.583 819.119 394.937 819.474C395.273 819.791 395.689 819.95 396.183 819.95C396.865 819.95 397.429 819.698 397.877 819.194V820.72C397.383 821.028 396.785 821.182 396.085 821.182C395.143 821.182 394.396 820.893 393.845 820.314C393.285 819.735 393.005 818.998 393.005 818.102C393.005 817.178 393.304 816.417 393.901 815.82C394.48 815.241 395.269 814.952 396.267 814.952C396.837 814.952 397.373 815.092 397.877 815.372ZM399.78 815.834C400.387 815.246 401.138 814.952 402.034 814.952C402.93 814.952 403.677 815.246 404.274 815.834C404.881 816.413 405.184 817.155 405.184 818.06C405.184 818.956 404.881 819.703 404.274 820.3C403.677 820.888 402.93 821.182 402.034 821.182C401.138 821.182 400.387 820.888 399.78 820.3C399.183 819.703 398.884 818.956 398.884 818.06C398.884 817.155 399.183 816.413 399.78 815.834ZM400.76 819.446C401.078 819.782 401.502 819.95 402.034 819.95C402.566 819.95 402.991 819.782 403.308 819.446C403.626 819.101 403.784 818.643 403.784 818.074C403.784 817.449 403.612 816.977 403.266 816.66C402.93 816.343 402.52 816.184 402.034 816.184C401.549 816.184 401.134 816.343 400.788 816.66C400.452 816.977 400.284 817.449 400.284 818.074C400.284 818.643 400.443 819.101 400.76 819.446ZM407.204 815.834C407.811 815.246 408.562 814.952 409.458 814.952C410.354 814.952 411.101 815.246 411.698 815.834C412.305 816.413 412.608 817.155 412.608 818.06C412.608 818.956 412.305 819.703 411.698 820.3C411.101 820.888 410.354 821.182 409.458 821.182C408.562 821.182 407.811 820.888 407.204 820.3C406.607 819.703 406.308 818.956 406.308 818.06C406.308 817.155 406.607 816.413 407.204 815.834ZM408.184 819.446C408.501 819.782 408.926 819.95 409.458 819.95C409.99 819.95 410.415 819.782 410.732 819.446C411.049 819.101 411.208 818.643 411.208 818.074C411.208 817.449 411.035 816.977 410.69 816.66C410.354 816.343 409.943 816.184 409.458 816.184C408.973 816.184 408.557 816.343 408.212 816.66C407.876 816.977 407.708 817.449 407.708 818.074C407.708 818.643 407.867 819.101 408.184 819.446ZM418.492 811.06H419.892C419.789 811.545 419.575 811.965 419.248 812.32C418.921 812.675 418.52 812.917 418.044 813.048L417.12 813.3C416.877 813.365 416.691 813.421 416.56 813.468C416.429 813.515 416.266 813.603 416.07 813.734C415.883 813.855 415.725 814.005 415.594 814.182C415.286 814.593 415.123 815.125 415.104 815.778H415.118C415.529 815.227 416.196 814.952 417.12 814.952C417.951 814.952 418.637 815.232 419.178 815.792C419.747 816.38 420.032 817.127 420.032 818.032C420.032 818.947 419.729 819.703 419.122 820.3C418.525 820.888 417.778 821.182 416.882 821.182C415.986 821.182 415.267 820.921 414.726 820.398C414.427 820.118 414.199 819.773 414.04 819.362C413.881 818.951 413.788 818.615 413.76 818.354C413.741 818.083 413.732 817.757 413.732 817.374C413.732 815.545 414.031 814.196 414.628 813.328C415.076 812.665 415.664 812.245 416.392 812.068L417.372 811.83C418.016 811.671 418.389 811.415 418.492 811.06ZM415.608 819.446C415.925 819.782 416.35 819.95 416.882 819.95C417.414 819.95 417.839 819.782 418.156 819.446C418.473 819.101 418.632 818.643 418.632 818.074C418.632 817.449 418.459 816.977 418.114 816.66C417.778 816.343 417.367 816.184 416.882 816.184C416.397 816.184 415.981 816.343 415.636 816.66C415.3 816.977 415.132 817.449 415.132 818.074C415.132 818.643 415.291 819.101 415.608 819.446ZM421.464 821V815.106H422.836V819.74H424.796V815.106H426.168V819.74H428.128V815.106H429.5V819.74H430.48V822.68H429.22V821H421.464ZM435.588 819.012L436.736 819.656C436.475 820.123 436.143 820.482 435.742 820.734C435.285 821.033 434.706 821.182 434.006 821.182C433.185 821.182 432.522 820.93 432.018 820.426C431.439 819.847 431.15 819.096 431.15 818.172C431.15 817.201 431.463 816.394 432.088 815.75C432.62 815.218 433.278 814.952 434.062 814.952C434.827 814.952 435.457 815.209 435.952 815.722C436.503 816.291 436.778 817.122 436.778 818.214V818.382H432.55C432.587 818.877 432.755 819.273 433.054 819.572C433.306 819.824 433.656 819.95 434.104 819.95C434.468 819.95 434.781 819.852 435.042 819.656C435.257 819.488 435.439 819.273 435.588 819.012ZM432.648 817.262H435.378C435.322 816.935 435.182 816.669 434.958 816.464C434.715 816.24 434.407 816.128 434.034 816.128C433.642 816.128 433.32 816.254 433.068 816.506C432.863 816.693 432.723 816.945 432.648 817.262ZM438.212 821V815.106H439.584V817.29H442.02V815.106H443.392V821H442.02V818.55H439.584V821H438.212ZM445.13 815.106H446.502V818.452L450.534 814.574V821H449.162V817.57L445.13 821.448V815.106ZM452.266 815.106H453.638V818.452L457.67 814.574V821H456.298V817.57L452.266 821.448V815.106ZM452.714 812.558L453.834 812.236C454.012 812.843 454.394 813.146 454.982 813.146C455.561 813.146 455.944 812.843 456.13 812.236L457.25 812.558C457.101 813.09 456.798 813.501 456.34 813.79C455.892 814.07 455.44 814.21 454.982 814.21C454.525 814.21 454.068 814.07 453.61 813.79C453.162 813.501 452.864 813.09 452.714 812.558Z" fill="black"/>
<rect x="681.5" y="880.5" width="140" height="47" rx="7.5" stroke="#5201A3"/>
<path d="M725.036 900.166V901.846C724.271 901.155 723.426 900.81 722.502 900.81C721.494 900.81 720.673 901.146 720.038 901.818C719.413 902.481 719.1 903.33 719.1 904.366C719.1 905.365 719.422 906.2 720.066 906.872C720.71 907.535 721.527 907.866 722.516 907.866C723.44 907.866 724.28 907.507 725.036 906.788V908.482C724.252 908.949 723.398 909.182 722.474 909.182C721.177 909.182 720.075 908.753 719.17 907.894C718.171 906.961 717.672 905.785 717.672 904.366C717.672 902.873 718.171 901.655 719.17 900.712C720.029 899.9 721.153 899.494 722.544 899.494C723.505 899.494 724.336 899.718 725.036 900.166ZM727.138 903.834C727.744 903.246 728.496 902.952 729.392 902.952C730.288 902.952 731.034 903.246 731.632 903.834C732.238 904.413 732.542 905.155 732.542 906.06C732.542 906.956 732.238 907.703 731.632 908.3C731.034 908.888 730.288 909.182 729.392 909.182C728.496 909.182 727.744 908.888 727.138 908.3C726.54 907.703 726.242 906.956 726.242 906.06C726.242 905.155 726.54 904.413 727.138 903.834ZM728.118 907.446C728.435 907.782 728.86 907.95 729.392 907.95C729.924 907.95 730.348 907.782 730.666 907.446C730.983 907.101 731.142 906.643 731.142 906.074C731.142 905.449 730.969 904.977 730.624 904.66C730.288 904.343 729.877 904.184 729.392 904.184C728.906 904.184 728.491 904.343 728.146 904.66C727.81 904.977 727.642 905.449 727.642 906.074C727.642 906.643 727.8 907.101 728.118 907.446ZM734.561 903.834C735.168 903.246 735.919 902.952 736.815 902.952C737.711 902.952 738.458 903.246 739.055 903.834C739.662 904.413 739.965 905.155 739.965 906.06C739.965 906.956 739.662 907.703 739.055 908.3C738.458 908.888 737.711 909.182 736.815 909.182C735.919 909.182 735.168 908.888 734.561 908.3C733.964 907.703 733.665 906.956 733.665 906.06C733.665 905.155 733.964 904.413 734.561 903.834ZM735.541 907.446C735.859 907.782 736.283 907.95 736.815 907.95C737.347 907.95 737.772 907.782 738.089 907.446C738.407 907.101 738.565 906.643 738.565 906.074C738.565 905.449 738.393 904.977 738.047 904.66C737.711 904.343 737.301 904.184 736.815 904.184C736.33 904.184 735.915 904.343 735.569 904.66C735.233 904.977 735.065 905.449 735.065 906.074C735.065 906.643 735.224 907.101 735.541 907.446ZM745.849 899.06H747.249C747.147 899.545 746.932 899.965 746.605 900.32C746.279 900.675 745.877 900.917 745.401 901.048L744.477 901.3C744.235 901.365 744.048 901.421 743.917 901.468C743.787 901.515 743.623 901.603 743.427 901.734C743.241 901.855 743.082 902.005 742.951 902.182C742.643 902.593 742.48 903.125 742.461 903.778H742.475C742.886 903.227 743.553 902.952 744.477 902.952C745.308 902.952 745.994 903.232 746.535 903.792C747.105 904.38 747.389 905.127 747.389 906.032C747.389 906.947 747.086 907.703 746.479 908.3C745.882 908.888 745.135 909.182 744.239 909.182C743.343 909.182 742.625 908.921 742.083 908.398C741.785 908.118 741.556 907.773 741.397 907.362C741.239 906.951 741.145 906.615 741.117 906.354C741.099 906.083 741.089 905.757 741.089 905.374C741.089 903.545 741.388 902.196 741.985 901.328C742.433 900.665 743.021 900.245 743.749 900.068L744.729 899.83C745.373 899.671 745.747 899.415 745.849 899.06ZM742.965 907.446C743.283 907.782 743.707 907.95 744.239 907.95C744.771 907.95 745.196 907.782 745.513 907.446C745.831 907.101 745.989 906.643 745.989 906.074C745.989 905.449 745.817 904.977 745.471 904.66C745.135 904.343 744.725 904.184 744.239 904.184C743.754 904.184 743.339 904.343 742.993 904.66C742.657 904.977 742.489 905.449 742.489 906.074C742.489 906.643 742.648 907.101 742.965 907.446ZM748.821 909V903.106H750.193V907.74H752.153V903.106H753.525V907.74H755.485V903.106H756.857V907.74H757.837V910.68H756.577V909H748.821ZM762.945 907.012L764.093 907.656C763.832 908.123 763.501 908.482 763.099 908.734C762.642 909.033 762.063 909.182 761.363 909.182C760.542 909.182 759.879 908.93 759.375 908.426C758.797 907.847 758.507 907.096 758.507 906.172C758.507 905.201 758.82 904.394 759.445 903.75C759.977 903.218 760.635 902.952 761.419 902.952C762.185 902.952 762.815 903.209 763.309 903.722C763.86 904.291 764.135 905.122 764.135 906.214V906.382H759.907C759.945 906.877 760.113 907.273 760.411 907.572C760.663 907.824 761.013 907.95 761.461 907.95C761.825 907.95 762.138 907.852 762.399 907.656C762.614 907.488 762.796 907.273 762.945 907.012ZM760.005 905.262H762.735C762.679 904.935 762.539 904.669 762.315 904.464C762.073 904.24 761.765 904.128 761.391 904.128C760.999 904.128 760.677 904.254 760.425 904.506C760.22 904.693 760.08 904.945 760.005 905.262ZM765.569 909V903.106H766.941V905.29H769.377V903.106H770.749V909H769.377V906.55H766.941V909H765.569ZM772.487 903.106H773.859V906.452L777.891 902.574V909H776.519V905.57L772.487 909.448V903.106ZM783.754 907.012L784.902 907.656C784.641 908.123 784.309 908.482 783.908 908.734C783.451 909.033 782.872 909.182 782.172 909.182C781.351 909.182 780.688 908.93 780.184 908.426C779.605 907.847 779.316 907.096 779.316 906.172C779.316 905.201 779.629 904.394 780.254 903.75C780.786 903.218 781.444 902.952 782.228 902.952C782.993 902.952 783.623 903.209 784.118 903.722C784.669 904.291 784.944 905.122 784.944 906.214V906.382H780.716C780.753 906.877 780.921 907.273 781.22 907.572C781.472 907.824 781.822 907.95 782.27 907.95C782.634 907.95 782.947 907.852 783.208 907.656C783.423 907.488 783.605 907.273 783.754 907.012ZM780.814 905.262H783.544C783.488 904.935 783.348 904.669 783.124 904.464C782.881 904.24 782.573 904.128 782.2 904.128C781.808 904.128 781.486 904.254 781.234 904.506C781.029 904.693 780.889 904.945 780.814 905.262Z" fill="black"/>
<rect x="311.5" y="264.5" width="156" height="47" rx="7.5" stroke="#015CA3"/>
<path d="M349.548 283.662V287.386L353.16 283.662H355.036L350.822 287.89L355.064 293H353.16L349.828 288.856L349.548 289.136V293H348.12V283.662H349.548ZM359.809 287.792V287.106H361.181V293H359.809V292.384C359.352 292.916 358.764 293.182 358.045 293.182C357.177 293.182 356.482 292.874 355.959 292.258C355.446 291.642 355.189 290.905 355.189 290.046C355.189 289.113 355.464 288.366 356.015 287.806C356.575 287.237 357.256 286.952 358.059 286.952C358.796 286.952 359.38 287.232 359.809 287.792ZM358.227 288.184C357.742 288.184 357.345 288.366 357.037 288.73C356.738 289.094 356.589 289.542 356.589 290.074C356.589 290.597 356.738 291.04 357.037 291.404C357.345 291.768 357.742 291.95 358.227 291.95C358.694 291.95 359.086 291.787 359.403 291.46C359.73 291.133 359.893 290.676 359.893 290.088C359.893 289.481 359.73 289.015 359.403 288.688C359.086 288.352 358.694 288.184 358.227 288.184ZM364.293 292.314V296.206H362.921V287.106H364.293V287.75C364.741 287.218 365.324 286.952 366.043 286.952C366.845 286.952 367.522 287.237 368.073 287.806C368.633 288.366 368.913 289.103 368.913 290.018C368.913 290.961 368.623 291.726 368.045 292.314C367.466 292.893 366.803 293.182 366.057 293.182C365.357 293.182 364.769 292.893 364.293 292.314ZM365.875 288.184C365.408 288.184 365.011 288.352 364.685 288.688C364.367 289.015 364.209 289.481 364.209 290.088C364.209 290.676 364.367 291.133 364.685 291.46C365.011 291.787 365.408 291.95 365.875 291.95C366.36 291.95 366.752 291.768 367.051 291.404C367.359 291.04 367.513 290.597 367.513 290.074C367.513 289.542 367.359 289.094 367.051 288.73C366.752 288.366 366.36 288.184 365.875 288.184ZM374.405 288.366H372.683V293H371.311V288.366H369.589V287.106H374.405V288.366ZM375.827 287.834C376.434 287.246 377.185 286.952 378.081 286.952C378.977 286.952 379.724 287.246 380.321 287.834C380.928 288.413 381.231 289.155 381.231 290.06C381.231 290.956 380.928 291.703 380.321 292.3C379.724 292.888 378.977 293.182 378.081 293.182C377.185 293.182 376.434 292.888 375.827 292.3C375.23 291.703 374.931 290.956 374.931 290.06C374.931 289.155 375.23 288.413 375.827 287.834ZM376.807 291.446C377.124 291.782 377.549 291.95 378.081 291.95C378.613 291.95 379.038 291.782 379.355 291.446C379.672 291.101 379.831 290.643 379.831 290.074C379.831 289.449 379.658 288.977 379.313 288.66C378.977 288.343 378.566 288.184 378.081 288.184C377.596 288.184 377.18 288.343 376.835 288.66C376.499 288.977 376.331 289.449 376.331 290.074C376.331 290.643 376.49 291.101 376.807 291.446ZM385.855 293V290.718C385.435 290.802 385.034 290.844 384.651 290.844C383.979 290.844 383.461 290.699 383.097 290.41C382.714 290.102 382.523 289.631 382.523 288.996V287.106H383.895V288.716C383.895 289.117 384.012 289.388 384.245 289.528C384.404 289.621 384.632 289.668 384.931 289.668C385.267 289.668 385.575 289.617 385.855 289.514V287.106H387.227V293H385.855ZM388.966 287.106H390.338V289.206L392.298 287.106H394.118L391.542 289.682L394.258 293H392.522L390.562 290.578L390.338 290.802V293H388.966V287.106ZM399.471 287.792V287.106H400.843V293H399.471V292.384C399.014 292.916 398.426 293.182 397.707 293.182C396.839 293.182 396.144 292.874 395.621 292.258C395.108 291.642 394.851 290.905 394.851 290.046C394.851 289.113 395.126 288.366 395.677 287.806C396.237 287.237 396.918 286.952 397.721 286.952C398.458 286.952 399.042 287.232 399.471 287.792ZM397.889 288.184C397.404 288.184 397.007 288.366 396.699 288.73C396.4 289.094 396.251 289.542 396.251 290.074C396.251 290.597 396.4 291.04 396.699 291.404C397.007 291.768 397.404 291.95 397.889 291.95C398.356 291.95 398.748 291.787 399.065 291.46C399.392 291.133 399.555 290.676 399.555 290.088C399.555 289.481 399.392 289.015 399.065 288.688C398.748 288.352 398.356 288.184 397.889 288.184ZM409.042 293V290.718C408.622 290.802 408.221 290.844 407.838 290.844C407.166 290.844 406.648 290.699 406.284 290.41C405.902 290.102 405.71 289.631 405.71 288.996V287.106H407.082V288.716C407.082 289.117 407.199 289.388 407.432 289.528C407.591 289.621 407.82 289.668 408.118 289.668C408.454 289.668 408.762 289.617 409.042 289.514V287.106H410.414V293H409.042ZM416.465 287.792V287.106H417.837V293H416.465V292.384C416.008 292.916 415.42 293.182 414.701 293.182C413.833 293.182 413.138 292.874 412.615 292.258C412.102 291.642 411.845 290.905 411.845 290.046C411.845 289.113 412.12 288.366 412.671 287.806C413.231 287.237 413.912 286.952 414.715 286.952C415.452 286.952 416.036 287.232 416.465 287.792ZM414.883 288.184C414.398 288.184 414.001 288.366 413.693 288.73C413.394 289.094 413.245 289.542 413.245 290.074C413.245 290.597 413.394 291.04 413.693 291.404C414.001 291.768 414.398 291.95 414.883 291.95C415.35 291.95 415.742 291.787 416.059 291.46C416.386 291.133 416.549 290.676 416.549 290.088C416.549 289.481 416.386 289.015 416.059 288.688C415.742 288.352 415.35 288.184 414.883 288.184ZM423.637 288.366H421.915V293H420.543V288.366H418.821V287.106H423.637V288.366ZM428.784 287.792V287.106H430.156V293H428.784V292.384C428.326 292.916 427.738 293.182 427.02 293.182C426.152 293.182 425.456 292.874 424.934 292.258C424.42 291.642 424.164 290.905 424.164 290.046C424.164 289.113 424.439 288.366 424.99 287.806C425.55 287.237 426.231 286.952 427.034 286.952C427.771 286.952 428.354 287.232 428.784 287.792ZM427.202 288.184C426.716 288.184 426.32 288.366 426.012 288.73C425.713 289.094 425.564 289.542 425.564 290.074C425.564 290.597 425.713 291.04 426.012 291.404C426.32 291.768 426.716 291.95 427.202 291.95C427.668 291.95 428.06 291.787 428.378 291.46C428.704 291.133 428.868 290.676 428.868 290.088C428.868 289.481 428.704 289.015 428.378 288.688C428.06 288.352 427.668 288.184 427.202 288.184Z" fill="black"/>
<rect x="681.5" y="528.5" width="207" height="47" rx="7.5" stroke="#5201A3"/>
<path d="M719.548 547.662V551.386L723.16 547.662H725.036L720.822 551.89L725.064 557H723.16L719.828 552.856L719.548 553.136V557H718.12V547.662H719.548ZM729.809 551.792V551.106H731.181V557H729.809V556.384C729.352 556.916 728.764 557.182 728.045 557.182C727.177 557.182 726.482 556.874 725.959 556.258C725.446 555.642 725.189 554.905 725.189 554.046C725.189 553.113 725.464 552.366 726.015 551.806C726.575 551.237 727.256 550.952 728.059 550.952C728.796 550.952 729.38 551.232 729.809 551.792ZM728.227 552.184C727.742 552.184 727.345 552.366 727.037 552.73C726.738 553.094 726.589 553.542 726.589 554.074C726.589 554.597 726.738 555.04 727.037 555.404C727.345 555.768 727.742 555.95 728.227 555.95C728.694 555.95 729.086 555.787 729.403 555.46C729.73 555.133 729.893 554.676 729.893 554.088C729.893 553.481 729.73 553.015 729.403 552.688C729.086 552.352 728.694 552.184 728.227 552.184ZM734.293 556.314V560.206H732.921V551.106H734.293V551.75C734.741 551.218 735.324 550.952 736.043 550.952C736.845 550.952 737.522 551.237 738.073 551.806C738.633 552.366 738.913 553.103 738.913 554.018C738.913 554.961 738.623 555.726 738.045 556.314C737.466 556.893 736.803 557.182 736.057 557.182C735.357 557.182 734.769 556.893 734.293 556.314ZM735.875 552.184C735.408 552.184 735.011 552.352 734.685 552.688C734.367 553.015 734.209 553.481 734.209 554.088C734.209 554.676 734.367 555.133 734.685 555.46C735.011 555.787 735.408 555.95 735.875 555.95C736.36 555.95 736.752 555.768 737.051 555.404C737.359 555.04 737.513 554.597 737.513 554.074C737.513 553.542 737.359 553.094 737.051 552.73C736.752 552.366 736.36 552.184 735.875 552.184ZM744.405 552.366H742.683V557H741.311V552.366H739.589V551.106H744.405V552.366ZM745.827 551.834C746.434 551.246 747.185 550.952 748.081 550.952C748.977 550.952 749.724 551.246 750.321 551.834C750.928 552.413 751.231 553.155 751.231 554.06C751.231 554.956 750.928 555.703 750.321 556.3C749.724 556.888 748.977 557.182 748.081 557.182C747.185 557.182 746.434 556.888 745.827 556.3C745.23 555.703 744.931 554.956 744.931 554.06C744.931 553.155 745.23 552.413 745.827 551.834ZM746.807 555.446C747.124 555.782 747.549 555.95 748.081 555.95C748.613 555.95 749.038 555.782 749.355 555.446C749.672 555.101 749.831 554.643 749.831 554.074C749.831 553.449 749.658 552.977 749.313 552.66C748.977 552.343 748.566 552.184 748.081 552.184C747.596 552.184 747.18 552.343 746.835 552.66C746.499 552.977 746.331 553.449 746.331 554.074C746.331 554.643 746.49 555.101 746.807 555.446ZM755.855 557V554.718C755.435 554.802 755.034 554.844 754.651 554.844C753.979 554.844 753.461 554.699 753.097 554.41C752.714 554.102 752.523 553.631 752.523 552.996V551.106H753.895V552.716C753.895 553.117 754.012 553.388 754.245 553.528C754.404 553.621 754.632 553.668 754.931 553.668C755.267 553.668 755.575 553.617 755.855 553.514V551.106H757.227V557H755.855ZM758.966 551.106H760.338V553.206L762.298 551.106H764.118L761.542 553.682L764.258 557H762.522L760.562 554.578L760.338 554.802V557H758.966V551.106ZM769.471 551.792V551.106H770.843V557H769.471V556.384C769.014 556.916 768.426 557.182 767.707 557.182C766.839 557.182 766.144 556.874 765.621 556.258C765.108 555.642 764.851 554.905 764.851 554.046C764.851 553.113 765.126 552.366 765.677 551.806C766.237 551.237 766.918 550.952 767.721 550.952C768.458 550.952 769.042 551.232 769.471 551.792ZM767.889 552.184C767.404 552.184 767.007 552.366 766.699 552.73C766.4 553.094 766.251 553.542 766.251 554.074C766.251 554.597 766.4 555.04 766.699 555.404C767.007 555.768 767.404 555.95 767.889 555.95C768.356 555.95 768.748 555.787 769.065 555.46C769.392 555.133 769.555 554.676 769.555 554.088C769.555 553.481 769.392 553.015 769.065 552.688C768.748 552.352 768.356 552.184 767.889 552.184ZM775.85 551.106H780.974V557H779.602V552.366H777.222V557H775.85V551.106ZM783.302 551.834C783.908 551.246 784.66 550.952 785.556 550.952C786.452 550.952 787.198 551.246 787.796 551.834C788.402 552.413 788.706 553.155 788.706 554.06C788.706 554.956 788.402 555.703 787.796 556.3C787.198 556.888 786.452 557.182 785.556 557.182C784.66 557.182 783.908 556.888 783.302 556.3C782.704 555.703 782.406 554.956 782.406 554.06C782.406 553.155 782.704 552.413 783.302 551.834ZM784.282 555.446C784.599 555.782 785.024 555.95 785.556 555.95C786.088 555.95 786.512 555.782 786.83 555.446C787.147 555.101 787.306 554.643 787.306 554.074C787.306 553.449 787.133 552.977 786.788 552.66C786.452 552.343 786.041 552.184 785.556 552.184C785.07 552.184 784.655 552.343 784.31 552.66C783.974 552.977 783.806 553.449 783.806 554.074C783.806 554.643 783.964 555.101 784.282 555.446ZM794.982 551.106V557H793.61V552.366H791.874V554.704C791.874 555.432 791.687 555.997 791.314 556.398C790.838 556.93 790.194 557.131 789.382 557V555.74C789.783 555.833 790.105 555.745 790.348 555.474C790.488 555.306 790.558 555.049 790.558 554.704V551.106H794.982ZM796.714 557V551.106H798.086V553.192H798.87C799.122 553.192 799.327 553.201 799.486 553.22C799.644 553.229 799.836 553.281 800.06 553.374C800.284 553.467 800.48 553.607 800.648 553.794C800.956 554.139 801.11 554.569 801.11 555.082C801.11 555.67 800.932 556.141 800.578 556.496C800.419 556.655 800.228 556.776 800.004 556.86C799.789 556.935 799.607 556.977 799.458 556.986C799.318 556.995 799.117 557 798.856 557H796.714ZM798.086 555.824H798.716C799.052 555.824 799.29 555.782 799.43 555.698C799.635 555.549 799.738 555.348 799.738 555.096C799.738 554.835 799.64 554.639 799.444 554.508C799.294 554.415 799.056 554.368 798.73 554.368H798.086V555.824ZM802.967 552.632L802.085 551.862C802.309 551.591 802.607 551.372 802.981 551.204C803.373 551.036 803.835 550.952 804.367 550.952C804.983 550.952 805.482 551.087 805.865 551.358C806.275 551.657 806.481 552.058 806.481 552.562C806.481 552.889 806.397 553.159 806.229 553.374C806.089 553.561 805.902 553.701 805.669 553.794C806.023 553.869 806.308 554.013 806.523 554.228C806.775 554.48 806.901 554.807 806.901 555.208C806.901 555.74 806.733 556.174 806.397 556.51C805.949 556.958 805.258 557.182 804.325 557.182C803.699 557.182 803.186 557.065 802.785 556.832C802.365 556.589 802.057 556.239 801.861 555.782L802.953 555.222C803.083 555.502 803.256 555.707 803.471 555.838C803.704 555.987 803.998 556.062 804.353 556.062C804.782 556.062 805.095 555.964 805.291 555.768C805.431 555.609 805.501 555.437 805.501 555.25C805.501 555.054 805.44 554.895 805.319 554.774C805.16 554.606 804.833 554.522 804.339 554.522H803.723V553.402H804.241C804.539 553.402 804.763 553.351 804.913 553.248C805.081 553.117 805.165 552.945 805.165 552.73C805.165 552.506 805.081 552.338 804.913 552.226C804.773 552.123 804.553 552.072 804.255 552.072C803.975 552.072 803.718 552.128 803.485 552.24C803.289 552.333 803.116 552.464 802.967 552.632ZM808.923 551.834C809.529 551.246 810.281 550.952 811.177 550.952C812.073 550.952 812.819 551.246 813.417 551.834C814.023 552.413 814.327 553.155 814.327 554.06C814.327 554.956 814.023 555.703 813.417 556.3C812.819 556.888 812.073 557.182 811.177 557.182C810.281 557.182 809.529 556.888 808.923 556.3C808.325 555.703 808.027 554.956 808.027 554.06C808.027 553.155 808.325 552.413 808.923 551.834ZM809.903 555.446C810.22 555.782 810.645 555.95 811.177 555.95C811.709 555.95 812.133 555.782 812.451 555.446C812.768 555.101 812.927 554.643 812.927 554.074C812.927 553.449 812.754 552.977 812.409 552.66C812.073 552.343 811.662 552.184 811.177 552.184C810.691 552.184 810.276 552.343 809.931 552.66C809.595 552.977 809.427 553.449 809.427 554.074C809.427 554.643 809.585 555.101 809.903 555.446ZM815.759 551.106H818.069C818.657 551.106 819.105 551.223 819.413 551.456C819.777 551.745 819.959 552.123 819.959 552.59C819.959 553.122 819.725 553.505 819.259 553.738C819.557 553.794 819.823 553.925 820.057 554.13C820.365 554.41 820.519 554.788 820.519 555.264C820.519 555.833 820.304 556.281 819.875 556.608C819.52 556.869 819.067 557 818.517 557H815.759V551.106ZM817.131 553.402H817.831C818.073 553.402 818.255 553.36 818.377 553.276C818.554 553.164 818.643 553.005 818.643 552.8C818.643 552.604 818.563 552.45 818.405 552.338C818.293 552.263 818.092 552.226 817.803 552.226H817.131V553.402ZM817.131 555.88H818.153C818.461 555.88 818.699 555.824 818.867 555.712C819.053 555.591 819.147 555.418 819.147 555.194C819.147 554.951 819.058 554.779 818.881 554.676C818.722 554.573 818.493 554.522 818.195 554.522H817.131V555.88ZM826.264 551.792V551.106H827.636V557H826.264V556.384C825.807 556.916 825.219 557.182 824.5 557.182C823.632 557.182 822.937 556.874 822.414 556.258C821.901 555.642 821.644 554.905 821.644 554.046C821.644 553.113 821.919 552.366 822.47 551.806C823.03 551.237 823.711 550.952 824.514 550.952C825.251 550.952 825.835 551.232 826.264 551.792ZM824.682 552.184C824.197 552.184 823.8 552.366 823.492 552.73C823.193 553.094 823.044 553.542 823.044 554.074C823.044 554.597 823.193 555.04 823.492 555.404C823.8 555.768 824.197 555.95 824.682 555.95C825.149 555.95 825.541 555.787 825.858 555.46C826.185 555.133 826.348 554.676 826.348 554.088C826.348 553.481 826.185 553.015 825.858 552.688C825.541 552.352 825.149 552.184 824.682 552.184ZM833.436 552.366H831.714V557H830.342V552.366H828.62V551.106H833.436V552.366ZM838.4 555.012L839.548 555.656C839.287 556.123 838.956 556.482 838.554 556.734C838.097 557.033 837.518 557.182 836.818 557.182C835.997 557.182 835.334 556.93 834.83 556.426C834.252 555.847 833.962 555.096 833.962 554.172C833.962 553.201 834.275 552.394 834.9 551.75C835.432 551.218 836.09 550.952 836.874 550.952C837.64 550.952 838.27 551.209 838.764 551.722C839.315 552.291 839.59 553.122 839.59 554.214V554.382H835.362C835.4 554.877 835.568 555.273 835.866 555.572C836.118 555.824 836.468 555.95 836.916 555.95C837.28 555.95 837.593 555.852 837.854 555.656C838.069 555.488 838.251 555.273 838.4 555.012ZM835.46 553.262H838.19C838.134 552.935 837.994 552.669 837.77 552.464C837.528 552.24 837.22 552.128 836.846 552.128C836.454 552.128 836.132 552.254 835.88 552.506C835.675 552.693 835.535 552.945 835.46 553.262ZM845.868 551.106V557H844.496V552.366H842.76V554.704C842.76 555.432 842.574 555.997 842.2 556.398C841.724 556.93 841.08 557.131 840.268 557V555.74C840.67 555.833 840.992 555.745 841.234 555.474C841.374 555.306 841.444 555.049 841.444 554.704V551.106H845.868ZM846.844 557L848.692 554.662C848.328 554.606 848.016 554.457 847.754 554.214C847.428 553.897 847.264 553.491 847.264 552.996C847.264 552.436 847.446 551.983 847.81 551.638C848.184 551.283 848.753 551.106 849.518 551.106H851.716V557H850.344V554.83H850.064L848.454 557H846.844ZM850.344 553.71V552.282H849.546C849.22 552.282 848.982 552.324 848.832 552.408C848.608 552.548 848.496 552.744 848.496 552.996C848.496 553.248 848.59 553.439 848.776 553.57C848.916 553.663 849.168 553.71 849.532 553.71H850.344Z" fill="black"/>
<rect x="311.5" y="616.5" width="199" height="47" rx="7.5" stroke="#015CA3"/>
<path d="M352.068 645V643.684H351.816C350.435 643.684 349.399 643.348 348.708 642.676C348.017 641.995 347.672 641.117 347.672 640.044C347.672 638.971 348.017 638.098 348.708 637.426C349.399 636.745 350.435 636.404 351.816 636.404H352.068V635.284H353.496V636.404H353.748C355.129 636.404 356.165 636.745 356.856 637.426C357.547 638.098 357.892 638.971 357.892 640.044C357.892 641.117 357.547 641.995 356.856 642.676C356.165 643.348 355.129 643.684 353.748 643.684H353.496V645H352.068ZM352.068 642.368V637.72H351.788C350.892 637.72 350.22 637.935 349.772 638.364C349.324 638.784 349.1 639.344 349.1 640.044C349.1 640.744 349.324 641.309 349.772 641.738C350.22 642.158 350.892 642.368 351.788 642.368H352.068ZM353.496 637.72V642.368H353.776C354.672 642.368 355.344 642.158 355.792 641.738C356.24 641.309 356.464 640.744 356.464 640.044C356.464 639.344 356.24 638.784 355.792 638.364C355.344 637.935 354.672 637.72 353.776 637.72H353.496ZM360.022 639.834C360.629 639.246 361.38 638.952 362.276 638.952C363.172 638.952 363.919 639.246 364.516 639.834C365.123 640.413 365.426 641.155 365.426 642.06C365.426 642.956 365.123 643.703 364.516 644.3C363.919 644.888 363.172 645.182 362.276 645.182C361.38 645.182 360.629 644.888 360.022 644.3C359.425 643.703 359.126 642.956 359.126 642.06C359.126 641.155 359.425 640.413 360.022 639.834ZM361.002 643.446C361.32 643.782 361.744 643.95 362.276 643.95C362.808 643.95 363.233 643.782 363.55 643.446C363.868 643.101 364.026 642.643 364.026 642.074C364.026 641.449 363.854 640.977 363.508 640.66C363.172 640.343 362.762 640.184 362.276 640.184C361.791 640.184 361.376 640.343 361.03 640.66C360.694 640.977 360.526 641.449 360.526 642.074C360.526 642.643 360.685 643.101 361.002 643.446ZM368.23 644.314V648.206H366.858V639.106H368.23V639.75C368.678 639.218 369.262 638.952 369.98 638.952C370.783 638.952 371.46 639.237 372.01 639.806C372.57 640.366 372.85 641.103 372.85 642.018C372.85 642.961 372.561 643.726 371.982 644.314C371.404 644.893 370.741 645.182 369.994 645.182C369.294 645.182 368.706 644.893 368.23 644.314ZM369.812 640.184C369.346 640.184 368.949 640.352 368.622 640.688C368.305 641.015 368.146 641.481 368.146 642.088C368.146 642.676 368.305 643.133 368.622 643.46C368.949 643.787 369.346 643.95 369.812 643.95C370.298 643.95 370.69 643.768 370.988 643.404C371.296 643.04 371.45 642.597 371.45 642.074C371.45 641.542 371.296 641.094 370.988 640.73C370.69 640.366 370.298 640.184 369.812 640.184ZM373.61 645L375.038 638.574L377.474 643.068L379.91 638.574L381.338 645H379.938L379.35 642.046L377.474 645.448L375.598 642.046L375.01 645H373.61ZM386.715 639.792V639.106H388.087V645H386.715V644.384C386.258 644.916 385.67 645.182 384.951 645.182C384.083 645.182 383.388 644.874 382.865 644.258C382.352 643.642 382.095 642.905 382.095 642.046C382.095 641.113 382.37 640.366 382.921 639.806C383.481 639.237 384.162 638.952 384.965 638.952C385.702 638.952 386.286 639.232 386.715 639.792ZM385.133 640.184C384.648 640.184 384.251 640.366 383.943 640.73C383.644 641.094 383.495 641.542 383.495 642.074C383.495 642.597 383.644 643.04 383.943 643.404C384.251 643.768 384.648 643.95 385.133 643.95C385.6 643.95 385.992 643.787 386.309 643.46C386.636 643.133 386.799 642.676 386.799 642.088C386.799 641.481 386.636 641.015 386.309 640.688C385.992 640.352 385.6 640.184 385.133 640.184ZM397.659 639.372V640.912C397.164 640.427 396.609 640.184 395.993 640.184C395.47 640.184 395.036 640.357 394.691 640.702C394.355 641.038 394.187 641.491 394.187 642.06C394.187 642.648 394.364 643.119 394.719 643.474C395.055 643.791 395.47 643.95 395.965 643.95C396.646 643.95 397.211 643.698 397.659 643.194V644.72C397.164 645.028 396.567 645.182 395.867 645.182C394.924 645.182 394.177 644.893 393.627 644.314C393.067 643.735 392.787 642.998 392.787 642.102C392.787 641.178 393.085 640.417 393.683 639.82C394.261 639.241 395.05 638.952 396.049 638.952C396.618 638.952 397.155 639.092 397.659 639.372ZM399.561 639.834C400.168 639.246 400.919 638.952 401.815 638.952C402.711 638.952 403.458 639.246 404.055 639.834C404.662 640.413 404.965 641.155 404.965 642.06C404.965 642.956 404.662 643.703 404.055 644.3C403.458 644.888 402.711 645.182 401.815 645.182C400.919 645.182 400.168 644.888 399.561 644.3C398.964 643.703 398.665 642.956 398.665 642.06C398.665 641.155 398.964 640.413 399.561 639.834ZM400.541 643.446C400.859 643.782 401.283 643.95 401.815 643.95C402.347 643.95 402.772 643.782 403.089 643.446C403.407 643.101 403.565 642.643 403.565 642.074C403.565 641.449 403.393 640.977 403.047 640.66C402.711 640.343 402.301 640.184 401.815 640.184C401.33 640.184 400.915 640.343 400.569 640.66C400.233 640.977 400.065 641.449 400.065 642.074C400.065 642.643 400.224 643.101 400.541 643.446ZM406.895 640.632L406.013 639.862C406.237 639.591 406.535 639.372 406.909 639.204C407.301 639.036 407.763 638.952 408.295 638.952C408.911 638.952 409.41 639.087 409.793 639.358C410.203 639.657 410.409 640.058 410.409 640.562C410.409 640.889 410.325 641.159 410.157 641.374C410.017 641.561 409.83 641.701 409.597 641.794C409.951 641.869 410.236 642.013 410.451 642.228C410.703 642.48 410.829 642.807 410.829 643.208C410.829 643.74 410.661 644.174 410.325 644.51C409.877 644.958 409.186 645.182 408.253 645.182C407.627 645.182 407.114 645.065 406.713 644.832C406.293 644.589 405.985 644.239 405.789 643.782L406.881 643.222C407.011 643.502 407.184 643.707 407.399 643.838C407.632 643.987 407.926 644.062 408.281 644.062C408.71 644.062 409.023 643.964 409.219 643.768C409.359 643.609 409.429 643.437 409.429 643.25C409.429 643.054 409.368 642.895 409.247 642.774C409.088 642.606 408.761 642.522 408.267 642.522H407.651V641.402H408.169C408.467 641.402 408.691 641.351 408.841 641.248C409.009 641.117 409.093 640.945 409.093 640.73C409.093 640.506 409.009 640.338 408.841 640.226C408.701 640.123 408.481 640.072 408.183 640.072C407.903 640.072 407.646 640.128 407.413 640.24C407.217 640.333 407.044 640.464 406.895 640.632ZM412.767 639.106H417.191V643.74H418.087V646.68H416.827V645H412.711V646.68H411.451V643.74C411.927 643.712 412.286 643.455 412.529 642.97C412.687 642.625 412.767 642.107 412.767 641.416V639.106ZM415.819 643.74V640.366H414.083V641.934C414.083 642.783 413.854 643.385 413.397 643.74H415.819ZM423.383 639.792V639.106H424.755V645H423.383V644.384C422.926 644.916 422.338 645.182 421.619 645.182C420.751 645.182 420.056 644.874 419.533 644.258C419.02 643.642 418.763 642.905 418.763 642.046C418.763 641.113 419.038 640.366 419.589 639.806C420.149 639.237 420.83 638.952 421.633 638.952C422.37 638.952 422.954 639.232 423.383 639.792ZM421.801 640.184C421.316 640.184 420.919 640.366 420.611 640.73C420.312 641.094 420.163 641.542 420.163 642.074C420.163 642.597 420.312 643.04 420.611 643.404C420.919 643.768 421.316 643.95 421.801 643.95C422.268 643.95 422.66 643.787 422.977 643.46C423.304 643.133 423.467 642.676 423.467 642.088C423.467 641.481 423.304 641.015 422.977 640.688C422.66 640.352 422.268 640.184 421.801 640.184ZM426.495 645V639.106H427.867V641.29H430.303V639.106H431.675V645H430.303V642.55H427.867V645H426.495ZM433.413 639.106H434.785V642.452L438.817 638.574V645H437.445V641.57L433.413 645.448V639.106ZM439.794 645L441.642 642.662C441.278 642.606 440.965 642.457 440.704 642.214C440.377 641.897 440.214 641.491 440.214 640.996C440.214 640.436 440.396 639.983 440.76 639.638C441.133 639.283 441.702 639.106 442.468 639.106H444.666V645H443.294V642.83H443.014L441.404 645H439.794ZM443.294 641.71V640.282H442.496C442.169 640.282 441.931 640.324 441.782 640.408C441.558 640.548 441.446 640.744 441.446 640.996C441.446 641.248 441.539 641.439 441.726 641.57C441.866 641.663 442.118 641.71 442.482 641.71H443.294ZM452.861 645V642.718C452.441 642.802 452.039 642.844 451.657 642.844C450.985 642.844 450.467 642.699 450.103 642.41C449.72 642.102 449.529 641.631 449.529 640.996V639.106H450.901V640.716C450.901 641.117 451.017 641.388 451.251 641.528C451.409 641.621 451.638 641.668 451.937 641.668C452.273 641.668 452.581 641.617 452.861 641.514V639.106H454.233V645H452.861ZM460.284 639.792V639.106H461.656V645H460.284V644.384C459.826 644.916 459.238 645.182 458.52 645.182C457.652 645.182 456.956 644.874 456.434 644.258C455.92 643.642 455.664 642.905 455.664 642.046C455.664 641.113 455.939 640.366 456.49 639.806C457.05 639.237 457.731 638.952 458.534 638.952C459.271 638.952 459.854 639.232 460.284 639.792ZM458.702 640.184C458.216 640.184 457.82 640.366 457.512 640.73C457.213 641.094 457.064 641.542 457.064 642.074C457.064 642.597 457.213 643.04 457.512 643.404C457.82 643.768 458.216 643.95 458.702 643.95C459.168 643.95 459.56 643.787 459.878 643.46C460.204 643.133 460.368 642.676 460.368 642.088C460.368 641.481 460.204 641.015 459.878 640.688C459.56 640.352 459.168 640.184 458.702 640.184ZM467.455 640.366H465.733V645H464.361V640.366H462.639V639.106H467.455V640.366ZM472.602 639.792V639.106H473.974V645H472.602V644.384C472.145 644.916 471.557 645.182 470.838 645.182C469.97 645.182 469.275 644.874 468.752 644.258C468.239 643.642 467.982 642.905 467.982 642.046C467.982 641.113 468.257 640.366 468.808 639.806C469.368 639.237 470.049 638.952 470.852 638.952C471.589 638.952 472.173 639.232 472.602 639.792ZM471.02 640.184C470.535 640.184 470.138 640.366 469.83 640.73C469.531 641.094 469.382 641.542 469.382 642.074C469.382 642.597 469.531 643.04 469.83 643.404C470.138 643.768 470.535 643.95 471.02 643.95C471.487 643.95 471.879 643.787 472.196 643.46C472.523 643.133 472.686 642.676 472.686 642.088C472.686 641.481 472.523 641.015 472.196 640.688C471.879 640.352 471.487 640.184 471.02 640.184Z" fill="black"/>
<path d="M1 199.1C0.447715 199.1 -1.23907e-07 199.548 0 200.1C1.23907e-07 200.652 0.447715 201.1 1 201.1L1 199.1ZM39.7071 200.807C40.0976 200.417 40.0976 199.784 39.7071 199.393L33.3431 193.029C32.9526 192.639 32.3194 192.639 31.9289 193.029C31.5384 193.42 31.5384 194.053 31.9289 194.443L37.5858 200.1L31.9289 205.757C31.5384 206.147 31.5384 206.781 31.9289 207.171C32.3194 207.562 32.9526 207.562 33.3431 207.171L39.7071 200.807ZM1 201.1L39 201.1L39 199.1L1 199.1L1 201.1Z" fill="#A6AEBF"/>
<path d="M1 375.35C0.447715 375.35 -1.23907e-07 375.798 0 376.35C1.23907e-07 376.902 0.447715 377.35 1 377.35L1 375.35ZM39.7071 377.057C40.0976 376.667 40.0976 376.034 39.7071 375.643L33.3431 369.279C32.9526 368.889 32.3194 368.889 31.9289 369.279C31.5384 369.67 31.5384 370.303 31.9289 370.693L37.5858 376.35L31.9289 382.007C31.5384 382.397 31.5384 383.031 31.9289 383.421C32.3194 383.812 32.9526 383.812 33.3431 383.421L39.7071 377.057ZM1 377.35L39 377.35L39 375.35L1 375.35L1 377.35Z" fill="#A6AEBF"/>
<path d="M1 110.975C0.447715 110.975 -1.23907e-07 111.423 0 111.975C1.23907e-07 112.527 0.447715 112.975 1 112.975L1 110.975ZM39.7071 112.682C40.0976 112.292 40.0976 111.659 39.7071 111.268L33.3431 104.904C32.9526 104.514 32.3194 104.514 31.9289 104.904C31.5384 105.295 31.5384 105.928 31.9289 106.318L37.5858 111.975L31.9289 117.632C31.5384 118.022 31.5384 118.656 31.9289 119.046C32.3194 119.437 32.9526 119.437 33.3431 119.046L39.7071 112.682ZM1 112.975L39 112.975L39 110.975L1 110.975L1 112.975Z" fill="#A6AEBF"/>
<path d="M39 25L40 25L40 23L39 23L39 25ZM39.7071 728.707C40.0977 728.317 40.0977 727.683 39.7071 727.293L33.3432 720.929C32.9527 720.538 32.3195 720.538 31.929 720.929C31.5384 721.319 31.5384 721.953 31.929 722.343L37.5858 728L31.929 733.657C31.5384 734.047 31.5384 734.681 31.929 735.071C32.3195 735.462 32.9527 735.462 33.3432 735.071L39.7071 728.707ZM2 720L1.99997 32L-3.04231e-05 32L-3.49691e-07 720L2 720ZM8.99997 25L39 25L39 23L8.99997 23L8.99997 25ZM39 727L9 727L9 729L39 729L39 727ZM1.99997 32C1.99997 28.134 5.13398 25 8.99997 25L8.99997 23C4.02941 23 -3.06404e-05 27.0294 -3.04231e-05 32L1.99997 32ZM-3.49691e-07 720C-1.32421e-07 724.971 4.02944 729 9 729L9 727C5.13401 727 2 723.866 2 720L-3.49691e-07 720Z" fill="#A6AEBF"/>
<rect x="311.5" y="968.5" width="239" height="47" rx="7.5" stroke="#015CA3"/>
<path d="M352.068 997V995.684H351.816C350.435 995.684 349.399 995.348 348.708 994.676C348.017 993.995 347.672 993.117 347.672 992.044C347.672 990.971 348.017 990.098 348.708 989.426C349.399 988.745 350.435 988.404 351.816 988.404H352.068V987.284H353.496V988.404H353.748C355.129 988.404 356.165 988.745 356.856 989.426C357.547 990.098 357.892 990.971 357.892 992.044C357.892 993.117 357.547 993.995 356.856 994.676C356.165 995.348 355.129 995.684 353.748 995.684H353.496V997H352.068ZM352.068 994.368V989.72H351.788C350.892 989.72 350.22 989.935 349.772 990.364C349.324 990.784 349.1 991.344 349.1 992.044C349.1 992.744 349.324 993.309 349.772 993.738C350.22 994.158 350.892 994.368 351.788 994.368H352.068ZM353.496 989.72V994.368H353.776C354.672 994.368 355.344 994.158 355.792 993.738C356.24 993.309 356.464 992.744 356.464 992.044C356.464 991.344 356.24 990.784 355.792 990.364C355.344 989.935 354.672 989.72 353.776 989.72H353.496ZM360.022 991.834C360.629 991.246 361.38 990.952 362.276 990.952C363.172 990.952 363.919 991.246 364.516 991.834C365.123 992.413 365.426 993.155 365.426 994.06C365.426 994.956 365.123 995.703 364.516 996.3C363.919 996.888 363.172 997.182 362.276 997.182C361.38 997.182 360.629 996.888 360.022 996.3C359.425 995.703 359.126 994.956 359.126 994.06C359.126 993.155 359.425 992.413 360.022 991.834ZM361.002 995.446C361.32 995.782 361.744 995.95 362.276 995.95C362.808 995.95 363.233 995.782 363.55 995.446C363.868 995.101 364.026 994.643 364.026 994.074C364.026 993.449 363.854 992.977 363.508 992.66C363.172 992.343 362.762 992.184 362.276 992.184C361.791 992.184 361.376 992.343 361.03 992.66C360.694 992.977 360.526 993.449 360.526 994.074C360.526 994.643 360.685 995.101 361.002 995.446ZM368.23 996.314V1000.21H366.858V991.106H368.23V991.75C368.678 991.218 369.262 990.952 369.98 990.952C370.783 990.952 371.46 991.237 372.01 991.806C372.57 992.366 372.85 993.103 372.85 994.018C372.85 994.961 372.561 995.726 371.982 996.314C371.404 996.893 370.741 997.182 369.994 997.182C369.294 997.182 368.706 996.893 368.23 996.314ZM369.812 992.184C369.346 992.184 368.949 992.352 368.622 992.688C368.305 993.015 368.146 993.481 368.146 994.088C368.146 994.676 368.305 995.133 368.622 995.46C368.949 995.787 369.346 995.95 369.812 995.95C370.298 995.95 370.69 995.768 370.988 995.404C371.296 995.04 371.45 994.597 371.45 994.074C371.45 993.542 371.296 993.094 370.988 992.73C370.69 992.366 370.298 992.184 369.812 992.184ZM373.61 997L375.038 990.574L377.474 995.068L379.91 990.574L381.338 997H379.938L379.35 994.046L377.474 997.448L375.598 994.046L375.01 997H373.61ZM386.715 991.792V991.106H388.087V997H386.715V996.384C386.258 996.916 385.67 997.182 384.951 997.182C384.083 997.182 383.388 996.874 382.865 996.258C382.352 995.642 382.095 994.905 382.095 994.046C382.095 993.113 382.37 992.366 382.921 991.806C383.481 991.237 384.162 990.952 384.965 990.952C385.702 990.952 386.286 991.232 386.715 991.792ZM385.133 992.184C384.648 992.184 384.251 992.366 383.943 992.73C383.644 993.094 383.495 993.542 383.495 994.074C383.495 994.597 383.644 995.04 383.943 995.404C384.251 995.768 384.648 995.95 385.133 995.95C385.6 995.95 385.992 995.787 386.309 995.46C386.636 995.133 386.799 994.676 386.799 994.088C386.799 993.481 386.636 993.015 386.309 992.688C385.992 992.352 385.6 992.184 385.133 992.184ZM393.683 991.834C394.289 991.246 395.041 990.952 395.937 990.952C396.833 990.952 397.579 991.246 398.177 991.834C398.783 992.413 399.087 993.155 399.087 994.06C399.087 994.956 398.783 995.703 398.177 996.3C397.579 996.888 396.833 997.182 395.937 997.182C395.041 997.182 394.289 996.888 393.683 996.3C393.085 995.703 392.787 994.956 392.787 994.06C392.787 993.155 393.085 992.413 393.683 991.834ZM394.663 995.446C394.98 995.782 395.405 995.95 395.937 995.95C396.469 995.95 396.893 995.782 397.211 995.446C397.528 995.101 397.687 994.643 397.687 994.074C397.687 993.449 397.514 992.977 397.169 992.66C396.833 992.343 396.422 992.184 395.937 992.184C395.451 992.184 395.036 992.343 394.691 992.66C394.355 992.977 394.187 993.449 394.187 994.074C394.187 994.643 394.345 995.101 394.663 995.446ZM404.578 992.366H402.856V997H401.484V992.366H399.762V991.106H404.578V992.366ZM405.563 991.106H410.687V997H409.315V992.366H406.935V997H405.563V991.106ZM413.799 996.314V1000.21H412.427V991.106H413.799V991.75C414.247 991.218 414.83 990.952 415.549 990.952C416.351 990.952 417.028 991.237 417.579 991.806C418.139 992.366 418.419 993.103 418.419 994.018C418.419 994.961 418.129 995.726 417.551 996.314C416.972 996.893 416.309 997.182 415.563 997.182C414.863 997.182 414.275 996.893 413.799 996.314ZM415.381 992.184C414.914 992.184 414.517 992.352 414.191 992.688C413.873 993.015 413.715 993.481 413.715 994.088C413.715 994.676 413.873 995.133 414.191 995.46C414.517 995.787 414.914 995.95 415.381 995.95C415.866 995.95 416.258 995.768 416.557 995.404C416.865 995.04 417.019 994.597 417.019 994.074C417.019 993.542 416.865 993.094 416.557 992.73C416.258 992.366 415.866 992.184 415.381 992.184ZM424.162 991.792V991.106H425.534V997H424.162V996.384C423.705 996.916 423.117 997.182 422.398 997.182C421.53 997.182 420.835 996.874 420.312 996.258C419.799 995.642 419.542 994.905 419.542 994.046C419.542 993.113 419.818 992.366 420.368 991.806C420.928 991.237 421.61 990.952 422.412 990.952C423.15 990.952 423.733 991.232 424.162 991.792ZM422.58 992.184C422.095 992.184 421.698 992.366 421.39 992.73C421.092 993.094 420.942 993.542 420.942 994.074C420.942 994.597 421.092 995.04 421.39 995.404C421.698 995.768 422.095 995.95 422.58 995.95C423.047 995.95 423.439 995.787 423.756 995.46C424.083 995.133 424.246 994.676 424.246 994.088C424.246 993.481 424.083 993.015 423.756 992.688C423.439 992.352 423.047 992.184 422.58 992.184ZM427.274 991.106H429.584C430.172 991.106 430.62 991.223 430.928 991.456C431.292 991.745 431.474 992.123 431.474 992.59C431.474 993.122 431.241 993.505 430.774 993.738C431.073 993.794 431.339 993.925 431.572 994.13C431.88 994.41 432.034 994.788 432.034 995.264C432.034 995.833 431.82 996.281 431.39 996.608C431.036 996.869 430.583 997 430.032 997H427.274V991.106ZM428.646 993.402H429.346C429.589 993.402 429.771 993.36 429.892 993.276C430.07 993.164 430.158 993.005 430.158 992.8C430.158 992.604 430.079 992.45 429.92 992.338C429.808 992.263 429.608 992.226 429.318 992.226H428.646V993.402ZM428.646 995.88H429.668C429.976 995.88 430.214 995.824 430.382 995.712C430.569 995.591 430.662 995.418 430.662 995.194C430.662 994.951 430.574 994.779 430.396 994.676C430.238 994.573 430.009 994.522 429.71 994.522H428.646V995.88ZM433.468 991.106H434.84V993.206L436.8 991.106H438.62L436.044 993.682L438.76 997H437.024L435.064 994.578L434.84 994.802V997H433.468V991.106ZM439.661 991.106H441.033V994.452L445.065 990.574V997H443.693V993.57L439.661 997.448V991.106ZM454.629 991.372V992.912C454.135 992.427 453.579 992.184 452.963 992.184C452.441 992.184 452.007 992.357 451.661 992.702C451.325 993.038 451.157 993.491 451.157 994.06C451.157 994.648 451.335 995.119 451.689 995.474C452.025 995.791 452.441 995.95 452.935 995.95C453.617 995.95 454.181 995.698 454.629 995.194V996.72C454.135 997.028 453.537 997.182 452.837 997.182C451.895 997.182 451.148 996.893 450.597 996.314C450.037 995.735 449.757 994.998 449.757 994.102C449.757 993.178 450.056 992.417 450.653 991.82C451.232 991.241 452.021 990.952 453.019 990.952C453.589 990.952 454.125 991.092 454.629 991.372ZM456.532 991.834C457.139 991.246 457.89 990.952 458.786 990.952C459.682 990.952 460.429 991.246 461.026 991.834C461.633 992.413 461.936 993.155 461.936 994.06C461.936 994.956 461.633 995.703 461.026 996.3C460.429 996.888 459.682 997.182 458.786 997.182C457.89 997.182 457.139 996.888 456.532 996.3C455.935 995.703 455.636 994.956 455.636 994.06C455.636 993.155 455.935 992.413 456.532 991.834ZM457.512 995.446C457.83 995.782 458.254 995.95 458.786 995.95C459.318 995.95 459.743 995.782 460.06 995.446C460.378 995.101 460.536 994.643 460.536 994.074C460.536 993.449 460.364 992.977 460.018 992.66C459.682 992.343 459.272 992.184 458.786 992.184C458.301 992.184 457.886 992.343 457.54 992.66C457.204 992.977 457.036 993.449 457.036 994.074C457.036 994.643 457.195 995.101 457.512 995.446ZM463.956 991.834C464.563 991.246 465.314 990.952 466.21 990.952C467.106 990.952 467.853 991.246 468.45 991.834C469.057 992.413 469.36 993.155 469.36 994.06C469.36 994.956 469.057 995.703 468.45 996.3C467.853 996.888 467.106 997.182 466.21 997.182C465.314 997.182 464.563 996.888 463.956 996.3C463.359 995.703 463.06 994.956 463.06 994.06C463.06 993.155 463.359 992.413 463.956 991.834ZM464.936 995.446C465.253 995.782 465.678 995.95 466.21 995.95C466.742 995.95 467.167 995.782 467.484 995.446C467.801 995.101 467.96 994.643 467.96 994.074C467.96 993.449 467.787 992.977 467.442 992.66C467.106 992.343 466.695 992.184 466.21 992.184C465.725 992.184 465.309 992.343 464.964 992.66C464.628 992.977 464.46 993.449 464.46 994.074C464.46 994.643 464.619 995.101 464.936 995.446ZM475.244 987.06H476.644C476.541 987.545 476.326 987.965 476 988.32C475.673 988.675 475.272 988.917 474.796 989.048L473.872 989.3C473.629 989.365 473.442 989.421 473.312 989.468C473.181 989.515 473.018 989.603 472.822 989.734C472.635 989.855 472.476 990.005 472.346 990.182C472.038 990.593 471.874 991.125 471.856 991.778H471.87C472.28 991.227 472.948 990.952 473.872 990.952C474.702 990.952 475.388 991.232 475.93 991.792C476.499 992.38 476.784 993.127 476.784 994.032C476.784 994.947 476.48 995.703 475.874 996.3C475.276 996.888 474.53 997.182 473.634 997.182C472.738 997.182 472.019 996.921 471.478 996.398C471.179 996.118 470.95 995.773 470.792 995.362C470.633 994.951 470.54 994.615 470.512 994.354C470.493 994.083 470.484 993.757 470.484 993.374C470.484 991.545 470.782 990.196 471.38 989.328C471.828 988.665 472.416 988.245 473.144 988.068L474.124 987.83C474.768 987.671 475.141 987.415 475.244 987.06ZM472.36 995.446C472.677 995.782 473.102 995.95 473.634 995.95C474.166 995.95 474.59 995.782 474.908 995.446C475.225 995.101 475.384 994.643 475.384 994.074C475.384 993.449 475.211 992.977 474.866 992.66C474.53 992.343 474.119 992.184 473.634 992.184C473.148 992.184 472.733 992.343 472.388 992.66C472.052 992.977 471.884 993.449 471.884 994.074C471.884 994.643 472.042 995.101 472.36 995.446ZM478.216 997V991.106H479.588V995.74H481.548V991.106H482.92V995.74H484.88V991.106H486.252V995.74H487.232V998.68H485.972V997H478.216ZM492.34 995.012L493.488 995.656C493.226 996.123 492.895 996.482 492.494 996.734C492.036 997.033 491.458 997.182 490.758 997.182C489.936 997.182 489.274 996.93 488.77 996.426C488.191 995.847 487.902 995.096 487.902 994.172C487.902 993.201 488.214 992.394 488.84 991.75C489.372 991.218 490.03 990.952 490.814 990.952C491.579 990.952 492.209 991.209 492.704 991.722C493.254 992.291 493.53 993.122 493.53 994.214V994.382H489.302C489.339 994.877 489.507 995.273 489.806 995.572C490.058 995.824 490.408 995.95 490.856 995.95C491.22 995.95 491.532 995.852 491.794 995.656C492.008 995.488 492.19 995.273 492.34 995.012ZM489.4 993.262H492.13C492.074 992.935 491.934 992.669 491.71 992.464C491.467 992.24 491.159 992.128 490.786 992.128C490.394 992.128 490.072 992.254 489.82 992.506C489.614 992.693 489.474 992.945 489.4 993.262ZM494.964 997V991.106H496.336V993.29H498.772V991.106H500.144V997H498.772V994.55H496.336V997H494.964ZM501.882 991.106H503.254V994.452L507.286 990.574V997H505.914V993.57L501.882 997.448V991.106ZM508.262 997L510.11 994.662C509.746 994.606 509.434 994.457 509.172 994.214C508.846 993.897 508.682 993.491 508.682 992.996C508.682 992.436 508.864 991.983 509.228 991.638C509.602 991.283 510.171 991.106 510.936 991.106H513.134V997H511.762V994.83H511.482L509.872 997H508.262ZM511.762 993.71V992.282H510.964C510.638 992.282 510.4 992.324 510.25 992.408C510.026 992.548 509.914 992.744 509.914 992.996C509.914 993.248 510.008 993.439 510.194 993.57C510.334 993.663 510.586 993.71 510.95 993.71H511.762Z" fill="black"/>
<path d="M78 463L77 463L77 465L78 465L78 463ZM310.707 464.707C311.098 464.317 311.098 463.683 310.707 463.293L304.343 456.929C303.953 456.538 303.319 456.538 302.929 456.929C302.538 457.319 302.538 457.953 302.929 458.343L308.586 464L302.929 469.657C302.538 470.047 302.538 470.681 302.929 471.071C303.319 471.462 303.953 471.462 304.343 471.071L310.707 464.707ZM78 465L310 465L310 463L78 463L78 465Z" fill="#A6AEBF"/>
<path d="M79 401L79 400L77 400L77 401L79 401ZM310.707 640.707C311.098 640.317 311.098 639.683 310.707 639.293L304.343 632.929C303.953 632.538 303.319 632.538 302.929 632.929C302.538 633.319 302.538 633.953 302.929 634.343L308.586 640L302.929 645.657C302.538 646.047 302.538 646.681 302.929 647.071C303.319 647.462 303.953 647.462 304.343 647.071L310.707 640.707ZM79 632L79 401L77 401L77 632L79 632ZM310 639L86 639L86 641L310 641L310 639ZM77 632C77 636.971 81.0294 641 86 641L86 639C82.134 639 79 635.866 79 632L77 632Z" fill="#A6AEBF"/>
<path d="M78 815L77 815L77 817L78 817L78 815ZM310.707 816.707C311.098 816.317 311.098 815.683 310.707 815.293L304.343 808.929C303.953 808.538 303.319 808.538 302.929 808.929C302.538 809.319 302.538 809.953 302.929 810.343L308.586 816L302.929 821.657C302.538 822.047 302.538 822.681 302.929 823.071C303.319 823.462 303.953 823.462 304.343 823.071L310.707 816.707ZM78 817L310 817L310 815L78 815L78 817Z" fill="#A6AEBF"/>
<path d="M79 753L79 752L77 752L77 753L79 753ZM310.707 992.707C311.098 992.317 311.098 991.683 310.707 991.293L304.343 984.929C303.953 984.538 303.319 984.538 302.929 984.929C302.538 985.319 302.538 985.953 302.929 986.343L308.586 992L302.929 997.657C302.538 998.047 302.538 998.681 302.929 999.071C303.319 999.462 303.953 999.462 304.343 999.071L310.707 992.707ZM79 984L79 753L77 753L77 984L79 984ZM310 991L86 991L86 993L310 993L310 991ZM77 984C77 988.971 81.0294 993 86 993L86 991C82.134 991 79 987.866 79 984L77 984Z" fill="#A6AEBF"/>
<path d="M79 225L79 224L77 224L77 225L79 225ZM310.707 288.707C311.098 288.317 311.098 287.683 310.707 287.293L304.343 280.929C303.953 280.538 303.319 280.538 302.929 280.929C302.538 281.319 302.538 281.953 302.929 282.343L308.586 288L302.929 293.657C302.538 294.047 302.538 294.681 302.929 295.071C303.319 295.462 303.953 295.462 304.343 295.071L310.707 288.707ZM79 280L79 225L77 225L77 280L79 280ZM310 287L86 287L86 289L310 289L310 287ZM77 280C77 284.971 81.0294 289 86 289L86 287C82.134 287 79 283.866 79 280L77 280Z" fill="#A6AEBF"/>
<path d="M351 489L351 488L349 488L349 489L351 489ZM680.707 552.707C681.098 552.317 681.098 551.683 680.707 551.293L674.343 544.929C673.953 544.538 673.319 544.538 672.929 544.929C672.538 545.319 672.538 545.953 672.929 546.343L678.586 552L672.929 557.657C672.538 558.047 672.538 558.681 672.929 559.071C673.319 559.462 673.953 559.462 674.343 559.071L680.707 552.707ZM351 544L351 489L349 489L349 544L351 544ZM680 551L358 551L358 553L680 553L680 551ZM349 544C349 548.971 353.029 553 358 553L358 551C354.134 551 351 547.866 351 544L349 544Z" fill="#A6AEBF"/>
<path d="M351 841L351 840L349 840L349 841L351 841ZM680.707 904.707C681.098 904.317 681.098 903.683 680.707 903.293L674.343 896.929C673.953 896.538 673.319 896.538 672.929 896.929C672.538 897.319 672.538 897.953 672.929 898.343L678.586 904L672.929 909.657C672.538 910.047 672.538 910.681 672.929 911.071C673.319 911.462 673.953 911.462 674.343 911.071L680.707 904.707ZM351 896L351 841L349 841L349 896L351 896ZM680 903L358 903L358 905L680 905L680 903ZM349 896C349 900.971 353.029 905 358 905L358 903C354.134 903 351 899.866 351 896L349 896Z" fill="#A6AEBF"/>
</svg>
