<svg width="275" height="136" viewBox="0 0 275 136" fill="none" xmlns="http://www.w3.org/2000/svg">
<rect x="40" width="182" height="48" rx="8" fill="#D2DDF8"/>
<path d="M77.12 19.662H78.534C79.1687 19.662 79.682 19.7133 80.074 19.816C80.466 19.9187 80.8113 20.11 81.11 20.39C81.6047 20.8567 81.852 21.4727 81.852 22.238C81.852 22.6767 81.7587 23.0453 81.572 23.344C81.404 23.6333 81.1707 23.848 80.872 23.988C81.3573 24.1093 81.7587 24.3333 82.076 24.66C82.4867 25.0893 82.692 25.6727 82.692 26.41C82.692 27.0913 82.4867 27.6513 82.076 28.09C81.4973 28.6967 80.6247 29 79.458 29H77.12V19.662ZM78.548 21.006V23.68H78.982C79.5047 23.68 79.892 23.5587 80.144 23.316C80.3867 23.0827 80.508 22.728 80.508 22.252C80.508 21.8693 80.396 21.5707 80.172 21.356C79.9293 21.1227 79.5513 21.006 79.038 21.006H78.548ZM78.548 24.856V27.656H79.416C80.06 27.656 80.5313 27.5347 80.83 27.292C81.138 27.0493 81.292 26.704 81.292 26.256C81.292 25.8547 81.166 25.528 80.914 25.276C80.6247 24.996 80.1347 24.856 79.444 24.856H78.548ZM83.4531 29L86.0571 25.808L83.9571 23.106H85.5811L86.8831 24.828L88.1991 23.106H89.8791L87.7091 25.808L90.2291 29H88.5771L86.8831 26.802L85.1331 29H83.4531ZM91.7705 23.834C92.3771 23.246 93.1285 22.952 94.0245 22.952C94.9205 22.952 95.6671 23.246 96.2645 23.834C96.8711 24.4127 97.1745 25.1547 97.1745 26.06C97.1745 26.956 96.8711 27.7027 96.2645 28.3C95.6671 28.888 94.9205 29.182 94.0245 29.182C93.1285 29.182 92.3771 28.888 91.7705 28.3C91.1731 27.7027 90.8745 26.956 90.8745 26.06C90.8745 25.1547 91.1731 24.4127 91.7705 23.834ZM92.7505 27.446C93.0678 27.782 93.4925 27.95 94.0245 27.95C94.5565 27.95 94.9811 27.782 95.2985 27.446C95.6158 27.1007 95.7745 26.6433 95.7745 26.074C95.7745 25.4487 95.6018 24.9773 95.2565 24.66C94.9205 24.3427 94.5098 24.184 94.0245 24.184C93.5391 24.184 93.1238 24.3427 92.7785 24.66C92.4425 24.9773 92.2745 25.4487 92.2745 26.074C92.2745 26.6433 92.4331 27.1007 92.7505 27.446ZM99.1103 23.106H103.534V27.74H104.43V30.68H103.17V29H99.0543V30.68H97.7943V27.74C98.2703 27.712 98.6296 27.4553 98.8723 26.97C99.0309 26.6247 99.1103 26.1067 99.1103 25.416V23.106ZM102.162 27.74V24.366H100.426V25.934C100.426 26.7833 100.198 27.3853 99.7403 27.74H102.162ZM104.547 31.478L111.911 18.29L113.031 18.794L105.667 31.982L104.547 31.478ZM116.357 28.314V32.206H114.985V23.106H116.357V23.75C116.805 23.218 117.389 22.952 118.107 22.952C118.91 22.952 119.587 23.2367 120.137 23.806C120.697 24.366 120.977 25.1033 120.977 26.018C120.977 26.9607 120.688 27.726 120.109 28.314C119.531 28.8927 118.868 29.182 118.121 29.182C117.421 29.182 116.833 28.8927 116.357 28.314ZM117.939 24.184C117.473 24.184 117.076 24.352 116.749 24.688C116.432 25.0147 116.273 25.4813 116.273 26.088C116.273 26.676 116.432 27.1333 116.749 27.46C117.076 27.7867 117.473 27.95 117.939 27.95C118.425 27.95 118.817 27.768 119.115 27.404C119.423 27.04 119.577 26.5967 119.577 26.074C119.577 25.542 119.423 25.094 119.115 24.73C118.817 24.366 118.425 24.184 117.939 24.184ZM126.539 27.012L127.687 27.656C127.426 28.1227 127.094 28.482 126.693 28.734C126.236 29.0327 125.657 29.182 124.957 29.182C124.136 29.182 123.473 28.93 122.969 28.426C122.39 27.8473 122.101 27.096 122.101 26.172C122.101 25.2013 122.414 24.394 123.039 23.75C123.571 23.218 124.229 22.952 125.013 22.952C125.778 22.952 126.408 23.2087 126.903 23.722C127.454 24.2913 127.729 25.122 127.729 26.214V26.382H123.501C123.538 26.8767 123.706 27.2733 124.005 27.572C124.257 27.824 124.607 27.95 125.055 27.95C125.419 27.95 125.732 27.852 125.993 27.656C126.208 27.488 126.39 27.2733 126.539 27.012ZM123.599 25.262H126.329C126.273 24.9353 126.133 24.6693 125.909 24.464C125.666 24.24 125.358 24.128 124.985 24.128C124.593 24.128 124.271 24.254 124.019 24.506C123.814 24.6927 123.674 24.9447 123.599 25.262ZM129.163 29V23.106H132.775V24.366H130.535V29H129.163ZM133.757 23.106H135.129V26.452L139.161 22.574V29H137.789V25.57L133.757 29.448V23.106ZM145.457 23.372V24.912C144.963 24.4267 144.407 24.184 143.791 24.184C143.269 24.184 142.835 24.3567 142.489 24.702C142.153 25.038 141.985 25.4907 141.985 26.06C141.985 26.648 142.163 27.1193 142.517 27.474C142.853 27.7913 143.269 27.95 143.763 27.95C144.445 27.95 145.009 27.698 145.457 27.194V28.72C144.963 29.028 144.365 29.182 143.665 29.182C142.723 29.182 141.976 28.8927 141.425 28.314C140.865 27.7353 140.585 26.998 140.585 26.102C140.585 25.178 140.884 24.4173 141.481 23.82C142.06 23.2413 142.849 22.952 143.847 22.952C144.417 22.952 144.953 23.092 145.457 23.372ZM150.969 24.366H149.247V29H147.875V24.366H146.153V23.106H150.969V24.366ZM153.326 28.314V32.206H151.954V23.106H153.326V23.75C153.774 23.218 154.357 22.952 155.076 22.952C155.879 22.952 156.555 23.2367 157.106 23.806C157.666 24.366 157.946 25.1033 157.946 26.018C157.946 26.9607 157.657 27.726 157.078 28.314C156.499 28.8927 155.837 29.182 155.09 29.182C154.39 29.182 153.802 28.8927 153.326 28.314ZM154.908 24.184C154.441 24.184 154.045 24.352 153.718 24.688C153.401 25.0147 153.242 25.4813 153.242 26.088C153.242 26.676 153.401 27.1333 153.718 27.46C154.045 27.7867 154.441 27.95 154.908 27.95C155.393 27.95 155.785 27.768 156.084 27.404C156.392 27.04 156.546 26.5967 156.546 26.074C156.546 25.542 156.392 25.094 156.084 24.73C155.785 24.366 155.393 24.184 154.908 24.184ZM163.69 23.792V23.106H165.062V29H163.69V28.384C163.232 28.916 162.644 29.182 161.926 29.182C161.058 29.182 160.362 28.874 159.84 28.258C159.326 27.642 159.07 26.9047 159.07 26.046C159.07 25.1127 159.345 24.366 159.896 23.806C160.456 23.2367 161.137 22.952 161.94 22.952C162.677 22.952 163.26 23.232 163.69 23.792ZM162.108 24.184C161.622 24.184 161.226 24.366 160.918 24.73C160.619 25.094 160.47 25.542 160.47 26.074C160.47 26.5967 160.619 27.04 160.918 27.404C161.226 27.768 161.622 27.95 162.108 27.95C162.574 27.95 162.966 27.7867 163.284 27.46C163.61 27.1333 163.774 26.676 163.774 26.088C163.774 25.4813 163.61 25.0147 163.284 24.688C162.966 24.352 162.574 24.184 162.108 24.184ZM166.802 29V23.106H168.174V27.74H170.498V23.106H171.87V27.74H172.85V30.68H171.59V29H166.802ZM173.829 23.106H175.201V26.452L179.233 22.574V29H177.861V25.57L173.829 29.448V23.106ZM180.21 29L182.058 26.662C181.694 26.606 181.381 26.4567 181.12 26.214C180.793 25.8967 180.63 25.4907 180.63 24.996C180.63 24.436 180.812 23.9833 181.176 23.638C181.549 23.2833 182.118 23.106 182.884 23.106H185.082V29H183.71V26.83H183.43L181.82 29H180.21ZM183.71 25.71V24.282H182.912C182.585 24.282 182.347 24.324 182.198 24.408C181.974 24.548 181.862 24.744 181.862 24.996C181.862 25.248 181.955 25.4393 182.142 25.57C182.282 25.6633 182.534 25.71 182.898 25.71H183.71Z" fill="black"/>
<rect x="40.5" y="88.5" width="234" height="47" rx="7.5" stroke="#6A8EE8"/>
<path d="M81.068 117V115.684H80.816C79.4347 115.684 78.3987 115.348 77.708 114.676C77.0173 113.995 76.672 113.117 76.672 112.044C76.672 110.971 77.0173 110.098 77.708 109.426C78.3987 108.745 79.4347 108.404 80.816 108.404H81.068V107.284H82.496V108.404H82.748C84.1293 108.404 85.1653 108.745 85.856 109.426C86.5467 110.098 86.892 110.971 86.892 112.044C86.892 113.117 86.5467 113.995 85.856 114.676C85.1653 115.348 84.1293 115.684 82.748 115.684H82.496V117H81.068ZM81.068 114.368V109.72H80.788C79.892 109.72 79.22 109.935 78.772 110.364C78.324 110.784 78.1 111.344 78.1 112.044C78.1 112.744 78.324 113.309 78.772 113.738C79.22 114.158 79.892 114.368 80.788 114.368H81.068ZM82.496 109.72V114.368H82.776C83.672 114.368 84.344 114.158 84.792 113.738C85.24 113.309 85.464 112.744 85.464 112.044C85.464 111.344 85.24 110.784 84.792 110.364C84.344 109.935 83.672 109.72 82.776 109.72H82.496ZM89.0224 111.834C89.6291 111.246 90.3804 110.952 91.2764 110.952C92.1724 110.952 92.9191 111.246 93.5164 111.834C94.1231 112.413 94.4264 113.155 94.4264 114.06C94.4264 114.956 94.1231 115.703 93.5164 116.3C92.9191 116.888 92.1724 117.182 91.2764 117.182C90.3804 117.182 89.6291 116.888 89.0224 116.3C88.4251 115.703 88.1264 114.956 88.1264 114.06C88.1264 113.155 88.4251 112.413 89.0224 111.834ZM90.0024 115.446C90.3197 115.782 90.7444 115.95 91.2764 115.95C91.8084 115.95 92.2331 115.782 92.5504 115.446C92.8677 115.101 93.0264 114.643 93.0264 114.074C93.0264 113.449 92.8537 112.977 92.5084 112.66C92.1724 112.343 91.7617 112.184 91.2764 112.184C90.7911 112.184 90.3757 112.343 90.0304 112.66C89.6944 112.977 89.5264 113.449 89.5264 114.074C89.5264 114.643 89.6851 115.101 90.0024 115.446ZM97.2302 116.314V120.206H95.8582V111.106H97.2302V111.75C97.6782 111.218 98.2616 110.952 98.9802 110.952C99.7829 110.952 100.46 111.237 101.01 111.806C101.57 112.366 101.85 113.103 101.85 114.018C101.85 114.961 101.561 115.726 100.982 116.314C100.404 116.893 99.7409 117.182 98.9942 117.182C98.2942 117.182 97.7062 116.893 97.2302 116.314ZM98.8122 112.184C98.3456 112.184 97.9489 112.352 97.6222 112.688C97.3049 113.015 97.1462 113.481 97.1462 114.088C97.1462 114.676 97.3049 115.133 97.6222 115.46C97.9489 115.787 98.3456 115.95 98.8122 115.95C99.2976 115.95 99.6896 115.768 99.9882 115.404C100.296 115.04 100.45 114.597 100.45 114.074C100.45 113.542 100.296 113.094 99.9882 112.73C99.6896 112.366 99.2976 112.184 98.8122 112.184ZM102.61 117L104.038 110.574L106.474 115.068L108.91 110.574L110.338 117H108.938L108.35 114.046L106.474 117.448L104.598 114.046L104.01 117H102.61ZM115.715 111.792V111.106H117.087V117H115.715V116.384C115.258 116.916 114.67 117.182 113.951 117.182C113.083 117.182 112.388 116.874 111.865 116.258C111.352 115.642 111.095 114.905 111.095 114.046C111.095 113.113 111.37 112.366 111.921 111.806C112.481 111.237 113.162 110.952 113.965 110.952C114.702 110.952 115.286 111.232 115.715 111.792ZM114.133 112.184C113.648 112.184 113.251 112.366 112.943 112.73C112.644 113.094 112.495 113.542 112.495 114.074C112.495 114.597 112.644 115.04 112.943 115.404C113.251 115.768 113.648 115.95 114.133 115.95C114.6 115.95 114.992 115.787 115.309 115.46C115.636 115.133 115.799 114.676 115.799 114.088C115.799 113.481 115.636 113.015 115.309 112.688C114.992 112.352 114.6 112.184 114.133 112.184ZM122.095 111.106H124.405C124.993 111.106 125.441 111.223 125.749 111.456C126.113 111.745 126.295 112.123 126.295 112.59C126.295 113.122 126.061 113.505 125.595 113.738C125.893 113.794 126.159 113.925 126.393 114.13C126.701 114.41 126.855 114.788 126.855 115.264C126.855 115.833 126.64 116.281 126.211 116.608C125.856 116.869 125.403 117 124.853 117H122.095V111.106ZM123.467 113.402H124.167C124.409 113.402 124.591 113.36 124.713 113.276C124.89 113.164 124.979 113.005 124.979 112.8C124.979 112.604 124.899 112.45 124.741 112.338C124.629 112.263 124.428 112.226 124.139 112.226H123.467V113.402ZM123.467 115.88H124.489C124.797 115.88 125.035 115.824 125.203 115.712C125.389 115.591 125.483 115.418 125.483 115.194C125.483 114.951 125.394 114.779 125.217 114.676C125.058 114.573 124.829 114.522 124.531 114.522H123.467V115.88ZM127.354 117L129.958 113.808L127.858 111.106H129.482L130.784 112.828L132.1 111.106H133.78L131.61 113.808L134.13 117H132.478L130.784 114.802L129.034 117H127.354ZM135.671 111.834C136.278 111.246 137.029 110.952 137.925 110.952C138.821 110.952 139.568 111.246 140.165 111.834C140.772 112.413 141.075 113.155 141.075 114.06C141.075 114.956 140.772 115.703 140.165 116.3C139.568 116.888 138.821 117.182 137.925 117.182C137.029 117.182 136.278 116.888 135.671 116.3C135.074 115.703 134.775 114.956 134.775 114.06C134.775 113.155 135.074 112.413 135.671 111.834ZM136.651 115.446C136.968 115.782 137.393 115.95 137.925 115.95C138.457 115.95 138.882 115.782 139.199 115.446C139.516 115.101 139.675 114.643 139.675 114.074C139.675 113.449 139.502 112.977 139.157 112.66C138.821 112.343 138.41 112.184 137.925 112.184C137.44 112.184 137.024 112.343 136.679 112.66C136.343 112.977 136.175 113.449 136.175 114.074C136.175 114.643 136.334 115.101 136.651 115.446ZM143.011 111.106H147.435V115.74H148.331V118.68H147.071V117H142.955V118.68H141.695V115.74C142.171 115.712 142.53 115.455 142.773 114.97C142.931 114.625 143.011 114.107 143.011 113.416V111.106ZM146.063 115.74V112.366H144.327V113.934C144.327 114.783 144.098 115.385 143.641 115.74H146.063ZM153.627 111.792V111.106H154.999V117H153.627V116.384C153.17 116.916 152.582 117.182 151.863 117.182C150.995 117.182 150.3 116.874 149.777 116.258C149.264 115.642 149.007 114.905 149.007 114.046C149.007 113.113 149.283 112.366 149.833 111.806C150.393 111.237 151.075 110.952 151.877 110.952C152.615 110.952 153.198 111.232 153.627 111.792ZM152.045 112.184C151.56 112.184 151.163 112.366 150.855 112.73C150.557 113.094 150.407 113.542 150.407 114.074C150.407 114.597 150.557 115.04 150.855 115.404C151.163 115.768 151.56 115.95 152.045 115.95C152.512 115.95 152.904 115.787 153.221 115.46C153.548 115.133 153.711 114.676 153.711 114.088C153.711 113.481 153.548 113.015 153.221 112.688C152.904 112.352 152.512 112.184 152.045 112.184ZM155.871 119.478L163.235 106.29L164.355 106.794L156.991 119.982L155.871 119.478ZM167.681 116.314V120.206H166.309V111.106H167.681V111.75C168.129 111.218 168.713 110.952 169.431 110.952C170.234 110.952 170.911 111.237 171.461 111.806C172.021 112.366 172.301 113.103 172.301 114.018C172.301 114.961 172.012 115.726 171.433 116.314C170.855 116.893 170.192 117.182 169.445 117.182C168.745 117.182 168.157 116.893 167.681 116.314ZM169.263 112.184C168.797 112.184 168.4 112.352 168.073 112.688C167.756 113.015 167.597 113.481 167.597 114.088C167.597 114.676 167.756 115.133 168.073 115.46C168.4 115.787 168.797 115.95 169.263 115.95C169.749 115.95 170.141 115.768 170.439 115.404C170.747 115.04 170.901 114.597 170.901 114.074C170.901 113.542 170.747 113.094 170.439 112.73C170.141 112.366 169.749 112.184 169.263 112.184ZM177.863 115.012L179.011 115.656C178.75 116.123 178.419 116.482 178.017 116.734C177.56 117.033 176.981 117.182 176.281 117.182C175.46 117.182 174.797 116.93 174.293 116.426C173.715 115.847 173.425 115.096 173.425 114.172C173.425 113.201 173.738 112.394 174.363 111.75C174.895 111.218 175.553 110.952 176.337 110.952C177.103 110.952 177.733 111.209 178.227 111.722C178.778 112.291 179.053 113.122 179.053 114.214V114.382H174.825C174.863 114.877 175.031 115.273 175.329 115.572C175.581 115.824 175.931 115.95 176.379 115.95C176.743 115.95 177.056 115.852 177.317 115.656C177.532 115.488 177.714 115.273 177.863 115.012ZM174.923 113.262H177.653C177.597 112.935 177.457 112.669 177.233 112.464C176.991 112.24 176.683 112.128 176.309 112.128C175.917 112.128 175.595 112.254 175.343 112.506C175.138 112.693 174.998 112.945 174.923 113.262ZM180.487 117V111.106H184.099V112.366H181.859V117H180.487ZM185.081 111.106H186.453V114.452L190.485 110.574V117H189.113V113.57L185.081 117.448V111.106ZM196.782 111.372V112.912C196.287 112.427 195.732 112.184 195.116 112.184C194.593 112.184 194.159 112.357 193.814 112.702C193.478 113.038 193.31 113.491 193.31 114.06C193.31 114.648 193.487 115.119 193.842 115.474C194.178 115.791 194.593 115.95 195.088 115.95C195.769 115.95 196.334 115.698 196.782 115.194V116.72C196.287 117.028 195.69 117.182 194.99 117.182C194.047 117.182 193.3 116.893 192.75 116.314C192.19 115.735 191.91 114.998 191.91 114.102C191.91 113.178 192.208 112.417 192.806 111.82C193.384 111.241 194.173 110.952 195.172 110.952C195.741 110.952 196.278 111.092 196.782 111.372ZM202.293 112.366H200.571V117H199.199V112.366H197.477V111.106H202.293V112.366ZM204.65 116.314V120.206H203.278V111.106H204.65V111.75C205.098 111.218 205.681 110.952 206.4 110.952C207.203 110.952 207.879 111.237 208.43 111.806C208.99 112.366 209.27 113.103 209.27 114.018C209.27 114.961 208.981 115.726 208.402 116.314C207.823 116.893 207.161 117.182 206.414 117.182C205.714 117.182 205.126 116.893 204.65 116.314ZM206.232 112.184C205.765 112.184 205.369 112.352 205.042 112.688C204.725 113.015 204.566 113.481 204.566 114.088C204.566 114.676 204.725 115.133 205.042 115.46C205.369 115.787 205.765 115.95 206.232 115.95C206.717 115.95 207.109 115.768 207.408 115.404C207.716 115.04 207.87 114.597 207.87 114.074C207.87 113.542 207.716 113.094 207.408 112.73C207.109 112.366 206.717 112.184 206.232 112.184ZM215.014 111.792V111.106H216.386V117H215.014V116.384C214.557 116.916 213.969 117.182 213.25 117.182C212.382 117.182 211.687 116.874 211.164 116.258C210.651 115.642 210.394 114.905 210.394 114.046C210.394 113.113 210.669 112.366 211.22 111.806C211.78 111.237 212.461 110.952 213.264 110.952C214.001 110.952 214.585 111.232 215.014 111.792ZM213.432 112.184C212.947 112.184 212.55 112.366 212.242 112.73C211.943 113.094 211.794 113.542 211.794 114.074C211.794 114.597 211.943 115.04 212.242 115.404C212.55 115.768 212.947 115.95 213.432 115.95C213.899 115.95 214.291 115.787 214.608 115.46C214.935 115.133 215.098 114.676 215.098 114.088C215.098 113.481 214.935 113.015 214.608 112.688C214.291 112.352 213.899 112.184 213.432 112.184ZM218.126 117V111.106H219.498V115.74H221.822V111.106H223.194V115.74H224.174V118.68H222.914V117H218.126ZM225.153 111.106H226.525V114.452L230.557 110.574V117H229.185V113.57L225.153 117.448V111.106ZM232.29 111.106H233.662V114.452L237.694 110.574V117H236.322V113.57L232.29 117.448V111.106Z" fill="black"/>
<path d="M39 25L40 25L40 23L39 23L39 25ZM39.7071 112.707C40.0976 112.317 40.0976 111.683 39.7071 111.293L33.3432 104.929C32.9526 104.538 32.3195 104.538 31.9289 104.929C31.5384 105.319 31.5384 105.953 31.9289 106.343L37.5858 112L31.9289 117.657C31.5384 118.047 31.5384 118.681 31.9289 119.071C32.3195 119.462 32.9526 119.462 33.3432 119.071L39.7071 112.707ZM2 104L2 32L-3.49691e-06 32L-3.49691e-07 104L2 104ZM9 25L39 25L39 23L9 23L9 25ZM39 111L9 111L9 113L39 113L39 111ZM2 32C2 28.134 5.134 25 9 25L9 23C4.02943 23 -3.71418e-06 27.0294 -3.49691e-06 32L2 32ZM-3.49691e-07 104C-1.32421e-07 108.971 4.02944 113 9 113L9 111C5.13401 111 2 107.866 2 104L-3.49691e-07 104Z" fill="#A6AEBF"/>
</svg>
