<svg width="578" height="400" viewBox="0 0 578 400" fill="none" xmlns="http://www.w3.org/2000/svg">
<rect x="40" width="125" height="48" rx="8" fill="#D2DDF8"/>
<path d="M77.12 19.662H83.98V29H82.552V21.006H78.548V29H77.12V19.662ZM87.3455 28.314V32.206H85.9735V23.106H87.3455V23.75C87.7935 23.218 88.3768 22.952 89.0955 22.952C89.8981 22.952 90.5748 23.2367 91.1255 23.806C91.6855 24.366 91.9655 25.1033 91.9655 26.018C91.9655 26.9607 91.6761 27.726 91.0975 28.314C90.5188 28.8927 89.8561 29.182 89.1095 29.182C88.4095 29.182 87.8215 28.8927 87.3455 28.314ZM88.9275 24.184C88.4608 24.184 88.0641 24.352 87.7375 24.688C87.4201 25.0147 87.2615 25.4813 87.2615 26.088C87.2615 26.676 87.4201 27.1333 87.7375 27.46C88.0641 27.7867 88.4608 27.95 88.9275 27.95C89.4128 27.95 89.8048 27.768 90.1035 27.404C90.4115 27.04 90.5655 26.5967 90.5655 26.074C90.5655 25.542 90.4115 25.094 90.1035 24.73C89.8048 24.366 89.4128 24.184 88.9275 24.184ZM93.9853 23.834C94.592 23.246 95.3433 22.952 96.2393 22.952C97.1353 22.952 97.882 23.246 98.4793 23.834C99.086 24.4127 99.3893 25.1547 99.3893 26.06C99.3893 26.956 99.086 27.7027 98.4793 28.3C97.882 28.888 97.1353 29.182 96.2393 29.182C95.3433 29.182 94.592 28.888 93.9853 28.3C93.388 27.7027 93.0893 26.956 93.0893 26.06C93.0893 25.1547 93.388 24.4127 93.9853 23.834ZM94.9653 27.446C95.2826 27.782 95.7073 27.95 96.2393 27.95C96.7713 27.95 97.196 27.782 97.5133 27.446C97.8306 27.1007 97.9893 26.6433 97.9893 26.074C97.9893 25.4487 97.8166 24.9773 97.4713 24.66C97.1353 24.3427 96.7246 24.184 96.2393 24.184C95.754 24.184 95.3386 24.3427 94.9933 24.66C94.6573 24.9773 94.4893 25.4487 94.4893 26.074C94.4893 26.6433 94.648 27.1007 94.9653 27.446ZM103.957 32.206V29.098C102.949 29.1073 102.142 28.8507 101.535 28.328C100.872 27.768 100.541 27.0073 100.541 26.046C100.541 25.094 100.868 24.338 101.521 23.778C102.118 23.2647 102.93 23.008 103.957 23.008V19.662H105.329V23.008C106.356 23.008 107.168 23.2647 107.765 23.778C108.418 24.338 108.745 25.094 108.745 26.046C108.745 27.0073 108.414 27.768 107.751 28.328C107.144 28.8507 106.337 29.1073 105.329 29.098V32.206H103.957ZM103.957 27.866V24.24C103.416 24.24 102.986 24.3427 102.669 24.548C102.184 24.8373 101.941 25.3367 101.941 26.046C101.941 26.7087 102.17 27.1987 102.627 27.516C102.982 27.768 103.425 27.8847 103.957 27.866ZM105.329 24.24V27.866C105.861 27.8847 106.304 27.768 106.659 27.516C107.116 27.1987 107.345 26.7087 107.345 26.046C107.345 25.3367 107.102 24.8373 106.617 24.548C106.3 24.3427 105.87 24.24 105.329 24.24ZM110.2 23.106H111.572V26.452L115.604 22.574V29H114.232V25.57L110.2 29.448V23.106ZM122.181 23.106V29H120.809V24.366H119.073V26.704C119.073 27.432 118.886 27.9967 118.513 28.398C118.037 28.93 117.393 29.1307 116.581 29V27.74C116.982 27.8333 117.304 27.7447 117.547 27.474C117.687 27.306 117.757 27.0493 117.757 26.704V23.106H122.181ZM123.913 29V23.106H125.285V25.192H126.069C126.321 25.192 126.526 25.2013 126.685 25.22C126.844 25.2293 127.035 25.2807 127.259 25.374C127.483 25.4673 127.679 25.6073 127.847 25.794C128.155 26.1393 128.309 26.5687 128.309 27.082C128.309 27.67 128.132 28.1413 127.777 28.496C127.618 28.6547 127.427 28.776 127.203 28.86C126.988 28.9347 126.806 28.9767 126.657 28.986C126.517 28.9953 126.316 29 126.055 29H123.913ZM125.285 27.824H125.915C126.251 27.824 126.489 27.782 126.629 27.698C126.834 27.5487 126.937 27.348 126.937 27.096C126.937 26.8347 126.839 26.6387 126.643 26.508C126.494 26.4147 126.256 26.368 125.929 26.368H125.285V27.824Z" fill="black"/>
<rect x="40.5" y="88.5" width="178" height="47" rx="7.5" stroke="#6A8EE8"/>
<path d="M77.12 107.662H83.98V117H82.552V109.006H78.548V117H77.12V107.662ZM90.2855 111.792V111.106H91.6575V117H90.2855V116.384C89.8281 116.916 89.2401 117.182 88.5215 117.182C87.6535 117.182 86.9581 116.874 86.4355 116.258C85.9221 115.642 85.6655 114.905 85.6655 114.046C85.6655 113.113 85.9408 112.366 86.4915 111.806C87.0515 111.237 87.7328 110.952 88.5355 110.952C89.2728 110.952 89.8561 111.232 90.2855 111.792ZM88.7035 112.184C88.2181 112.184 87.8215 112.366 87.5135 112.73C87.2148 113.094 87.0655 113.542 87.0655 114.074C87.0655 114.597 87.2148 115.04 87.5135 115.404C87.8215 115.768 88.2181 115.95 88.7035 115.95C89.1701 115.95 89.5621 115.787 89.8795 115.46C90.2061 115.133 90.3695 114.676 90.3695 114.088C90.3695 113.481 90.2061 113.015 89.8795 112.688C89.5621 112.352 89.1701 112.184 88.7035 112.184ZM93.3973 117V111.106H94.7693V113.29H97.2053V111.106H98.5773V117H97.2053V114.55H94.7693V117H93.3973ZM104.445 115.012L105.593 115.656C105.332 116.123 105.001 116.482 104.599 116.734C104.142 117.033 103.563 117.182 102.863 117.182C102.042 117.182 101.379 116.93 100.875 116.426C100.297 115.847 100.007 115.096 100.007 114.172C100.007 113.201 100.32 112.394 100.945 111.75C101.477 111.218 102.135 110.952 102.919 110.952C103.685 110.952 104.315 111.209 104.809 111.722C105.36 112.291 105.635 113.122 105.635 114.214V114.382H101.407C101.445 114.877 101.613 115.273 101.911 115.572C102.163 115.824 102.513 115.95 102.961 115.95C103.325 115.95 103.638 115.852 103.899 115.656C104.114 115.488 104.296 115.273 104.445 115.012ZM101.505 113.262H104.235C104.179 112.935 104.039 112.669 103.815 112.464C103.573 112.24 103.265 112.128 102.891 112.128C102.499 112.128 102.177 112.254 101.925 112.506C101.72 112.693 101.58 112.945 101.505 113.262ZM111.913 111.106V117H110.541V112.366H108.805V114.704C108.805 115.432 108.619 115.997 108.245 116.398C107.769 116.93 107.125 117.131 106.313 117V115.74C106.715 115.833 107.037 115.745 107.279 115.474C107.419 115.306 107.489 115.049 107.489 114.704V111.106H111.913ZM113.645 117V111.106H115.017V113.192H115.801C116.053 113.192 116.259 113.201 116.417 113.22C116.576 113.229 116.767 113.281 116.991 113.374C117.215 113.467 117.411 113.607 117.579 113.794C117.887 114.139 118.041 114.569 118.041 115.082C118.041 115.67 117.864 116.141 117.509 116.496C117.351 116.655 117.159 116.776 116.935 116.86C116.721 116.935 116.539 116.977 116.389 116.986C116.249 116.995 116.049 117 115.787 117H113.645ZM115.017 115.824H115.647C115.983 115.824 116.221 115.782 116.361 115.698C116.567 115.549 116.669 115.348 116.669 115.096C116.669 114.835 116.571 114.639 116.375 114.508C116.226 114.415 115.988 114.368 115.661 114.368H115.017V115.824ZM122.518 117V111.106H123.89V113.29H126.326V111.106H127.698V117H126.326V114.55H123.89V117H122.518ZM133.748 111.792V111.106H135.12V117H133.748V116.384C133.291 116.916 132.703 117.182 131.984 117.182C131.116 117.182 130.421 116.874 129.898 116.258C129.385 115.642 129.128 114.905 129.128 114.046C129.128 113.113 129.404 112.366 129.954 111.806C130.514 111.237 131.196 110.952 131.998 110.952C132.736 110.952 133.319 111.232 133.748 111.792ZM132.166 112.184C131.681 112.184 131.284 112.366 130.976 112.73C130.678 113.094 130.528 113.542 130.528 114.074C130.528 114.597 130.678 115.04 130.976 115.404C131.284 115.768 131.681 115.95 132.166 115.95C132.633 115.95 133.025 115.787 133.342 115.46C133.669 115.133 133.832 114.676 133.832 114.088C133.832 113.481 133.669 113.015 133.342 112.688C133.025 112.352 132.633 112.184 132.166 112.184ZM136.86 111.106H139.17C139.758 111.106 140.206 111.223 140.514 111.456C140.878 111.745 141.06 112.123 141.06 112.59C141.06 113.122 140.827 113.505 140.36 113.738C140.659 113.794 140.925 113.925 141.158 114.13C141.466 114.41 141.62 114.788 141.62 115.264C141.62 115.833 141.406 116.281 140.976 116.608C140.622 116.869 140.169 117 139.618 117H136.86V111.106ZM138.232 113.402H138.932C139.175 113.402 139.357 113.36 139.478 113.276C139.656 113.164 139.744 113.005 139.744 112.8C139.744 112.604 139.665 112.45 139.506 112.338C139.394 112.263 139.194 112.226 138.904 112.226H138.232V113.402ZM138.232 115.88H139.254C139.562 115.88 139.8 115.824 139.968 115.712C140.155 115.591 140.248 115.418 140.248 115.194C140.248 114.951 140.16 114.779 139.982 114.676C139.824 114.573 139.595 114.522 139.296 114.522H138.232V115.88ZM143.054 111.106H144.426V114.452L148.458 110.574V117H147.086V113.57L143.054 117.448V111.106ZM150.19 117V111.106H153.802V112.366H151.562V117H150.19ZM158.959 111.792V111.106H160.331V117H158.959V116.384C158.502 116.916 157.914 117.182 157.195 117.182C156.327 117.182 155.632 116.874 155.109 116.258C154.596 115.642 154.339 114.905 154.339 114.046C154.339 113.113 154.615 112.366 155.165 111.806C155.725 111.237 156.407 110.952 157.209 110.952C157.947 110.952 158.53 111.232 158.959 111.792ZM157.377 112.184C156.892 112.184 156.495 112.366 156.187 112.73C155.889 113.094 155.739 113.542 155.739 114.074C155.739 114.597 155.889 115.04 156.187 115.404C156.495 115.768 156.892 115.95 157.377 115.95C157.844 115.95 158.236 115.787 158.553 115.46C158.88 115.133 159.043 114.676 159.043 114.088C159.043 113.481 158.88 113.015 158.553 112.688C158.236 112.352 157.844 112.184 157.377 112.184ZM162.071 117V111.106H163.443V115.74H165.767V111.106H167.139V115.74H168.119V118.68H166.859V117H162.071ZM169.098 111.106H170.47V114.452L174.502 110.574V117H173.13V113.57L169.098 117.448V111.106ZM176.235 111.106H177.607V114.452L181.639 110.574V117H180.267V113.57L176.235 117.448V111.106Z" fill="black"/>
<rect x="40.5" y="176.5" width="180" height="47" rx="7.5" stroke="#6A8EE8"/>
<path d="M78.548 195.662V199.386L82.16 195.662H84.036L79.822 199.89L84.064 205H82.16L78.828 200.856L78.548 201.136V205H77.12V195.662H78.548ZM88.8089 199.792V199.106H90.1809V205H88.8089V204.384C88.3516 204.916 87.7636 205.182 87.0449 205.182C86.1769 205.182 85.4816 204.874 84.9589 204.258C84.4456 203.642 84.1889 202.905 84.1889 202.046C84.1889 201.113 84.4642 200.366 85.0149 199.806C85.5749 199.237 86.2562 198.952 87.0589 198.952C87.7962 198.952 88.3796 199.232 88.8089 199.792ZM87.2269 200.184C86.7416 200.184 86.3449 200.366 86.0369 200.73C85.7382 201.094 85.5889 201.542 85.5889 202.074C85.5889 202.597 85.7382 203.04 86.0369 203.404C86.3449 203.768 86.7416 203.95 87.2269 203.95C87.6936 203.95 88.0856 203.787 88.4029 203.46C88.7296 203.133 88.8929 202.676 88.8929 202.088C88.8929 201.481 88.7296 201.015 88.4029 200.688C88.0856 200.352 87.6936 200.184 87.2269 200.184ZM93.2927 204.314V208.206H91.9207V199.106H93.2927V199.75C93.7407 199.218 94.3241 198.952 95.0427 198.952C95.8454 198.952 96.5221 199.237 97.0727 199.806C97.6327 200.366 97.9127 201.103 97.9127 202.018C97.9127 202.961 97.6234 203.726 97.0447 204.314C96.4661 204.893 95.8034 205.182 95.0567 205.182C94.3567 205.182 93.7687 204.893 93.2927 204.314ZM94.8747 200.184C94.4081 200.184 94.0114 200.352 93.6847 200.688C93.3674 201.015 93.2087 201.481 93.2087 202.088C93.2087 202.676 93.3674 203.133 93.6847 203.46C94.0114 203.787 94.4081 203.95 94.8747 203.95C95.3601 203.95 95.7521 203.768 96.0507 203.404C96.3587 203.04 96.5127 202.597 96.5127 202.074C96.5127 201.542 96.3587 201.094 96.0507 200.73C95.7521 200.366 95.3601 200.184 94.8747 200.184ZM103.405 200.366H101.683V205H100.311V200.366H98.5886V199.106H103.405V200.366ZM104.827 199.834C105.434 199.246 106.185 198.952 107.081 198.952C107.977 198.952 108.724 199.246 109.321 199.834C109.928 200.413 110.231 201.155 110.231 202.06C110.231 202.956 109.928 203.703 109.321 204.3C108.724 204.888 107.977 205.182 107.081 205.182C106.185 205.182 105.434 204.888 104.827 204.3C104.23 203.703 103.931 202.956 103.931 202.06C103.931 201.155 104.23 200.413 104.827 199.834ZM105.807 203.446C106.124 203.782 106.549 203.95 107.081 203.95C107.613 203.95 108.038 203.782 108.355 203.446C108.672 203.101 108.831 202.643 108.831 202.074C108.831 201.449 108.658 200.977 108.313 200.66C107.977 200.343 107.566 200.184 107.081 200.184C106.596 200.184 106.18 200.343 105.835 200.66C105.499 200.977 105.331 201.449 105.331 202.074C105.331 202.643 105.49 203.101 105.807 203.446ZM114.855 205V202.718C114.435 202.802 114.034 202.844 113.651 202.844C112.979 202.844 112.461 202.699 112.097 202.41C111.714 202.102 111.523 201.631 111.523 200.996V199.106H112.895V200.716C112.895 201.117 113.012 201.388 113.245 201.528C113.404 201.621 113.632 201.668 113.931 201.668C114.267 201.668 114.575 201.617 114.855 201.514V199.106H116.227V205H114.855ZM117.966 199.106H119.338V201.206L121.298 199.106H123.118L120.542 201.682L123.258 205H121.522L119.562 202.578L119.338 202.802V205H117.966V199.106ZM128.471 199.792V199.106H129.843V205H128.471V204.384C128.014 204.916 127.426 205.182 126.707 205.182C125.839 205.182 125.144 204.874 124.621 204.258C124.108 203.642 123.851 202.905 123.851 202.046C123.851 201.113 124.126 200.366 124.677 199.806C125.237 199.237 125.918 198.952 126.721 198.952C127.458 198.952 128.042 199.232 128.471 199.792ZM126.889 200.184C126.404 200.184 126.007 200.366 125.699 200.73C125.4 201.094 125.251 201.542 125.251 202.074C125.251 202.597 125.4 203.04 125.699 203.404C126.007 203.768 126.404 203.95 126.889 203.95C127.356 203.95 127.748 203.787 128.065 203.46C128.392 203.133 128.555 202.676 128.555 202.088C128.555 201.481 128.392 201.015 128.065 200.688C127.748 200.352 127.356 200.184 126.889 200.184ZM134.85 199.106H139.974V205H138.602V200.366H136.222V205H134.85V199.106ZM143.086 204.314V208.206H141.714V199.106H143.086V199.75C143.534 199.218 144.117 198.952 144.836 198.952C145.638 198.952 146.315 199.237 146.866 199.806C147.426 200.366 147.706 201.103 147.706 202.018C147.706 202.961 147.416 203.726 146.838 204.314C146.259 204.893 145.596 205.182 144.85 205.182C144.15 205.182 143.562 204.893 143.086 204.314ZM144.668 200.184C144.201 200.184 143.804 200.352 143.478 200.688C143.16 201.015 143.002 201.481 143.002 202.088C143.002 202.676 143.16 203.133 143.478 203.46C143.804 203.787 144.201 203.95 144.668 203.95C145.153 203.95 145.545 203.768 145.844 203.404C146.152 203.04 146.306 202.597 146.306 202.074C146.306 201.542 146.152 201.094 145.844 200.73C145.545 200.366 145.153 200.184 144.668 200.184ZM149.726 199.834C150.332 199.246 151.084 198.952 151.98 198.952C152.876 198.952 153.622 199.246 154.22 199.834C154.826 200.413 155.13 201.155 155.13 202.06C155.13 202.956 154.826 203.703 154.22 204.3C153.622 204.888 152.876 205.182 151.98 205.182C151.084 205.182 150.332 204.888 149.726 204.3C149.128 203.703 148.83 202.956 148.83 202.06C148.83 201.155 149.128 200.413 149.726 199.834ZM150.706 203.446C151.023 203.782 151.448 203.95 151.98 203.95C152.512 203.95 152.936 203.782 153.254 203.446C153.571 203.101 153.73 202.643 153.73 202.074C153.73 201.449 153.557 200.977 153.212 200.66C152.876 200.343 152.465 200.184 151.98 200.184C151.494 200.184 151.079 200.343 150.734 200.66C150.398 200.977 150.23 201.449 150.23 202.074C150.23 202.643 150.388 203.101 150.706 203.446ZM159.697 208.206V205.098C158.689 205.107 157.882 204.851 157.275 204.328C156.613 203.768 156.281 203.007 156.281 202.046C156.281 201.094 156.608 200.338 157.261 199.778C157.859 199.265 158.671 199.008 159.697 199.008V195.662H161.069V199.008C162.096 199.008 162.908 199.265 163.505 199.778C164.159 200.338 164.485 201.094 164.485 202.046C164.485 203.007 164.154 203.768 163.491 204.328C162.885 204.851 162.077 205.107 161.069 205.098V208.206H159.697ZM159.697 203.866V200.24C159.156 200.24 158.727 200.343 158.409 200.548C157.924 200.837 157.681 201.337 157.681 202.046C157.681 202.709 157.91 203.199 158.367 203.516C158.722 203.768 159.165 203.885 159.697 203.866ZM161.069 200.24V203.866C161.601 203.885 162.045 203.768 162.399 203.516C162.857 203.199 163.085 202.709 163.085 202.046C163.085 201.337 162.843 200.837 162.357 200.548C162.04 200.343 161.611 200.24 161.069 200.24ZM165.94 199.106H167.312V202.452L171.344 198.574V205H169.972V201.57L165.94 205.448V199.106ZM177.921 199.106V205H176.549V200.366H174.813V202.704C174.813 203.432 174.626 203.997 174.253 204.398C173.777 204.93 173.133 205.131 172.321 205V203.74C172.722 203.833 173.044 203.745 173.287 203.474C173.427 203.306 173.497 203.049 173.497 202.704V199.106H177.921ZM178.897 205L180.745 202.662C180.381 202.606 180.068 202.457 179.807 202.214C179.48 201.897 179.317 201.491 179.317 200.996C179.317 200.436 179.499 199.983 179.863 199.638C180.236 199.283 180.806 199.106 181.571 199.106H183.769V205H182.397V202.83H182.117L180.507 205H178.897ZM182.397 201.71V200.282H181.599C181.272 200.282 181.034 200.324 180.885 200.408C180.661 200.548 180.549 200.744 180.549 200.996C180.549 201.248 180.642 201.439 180.829 201.57C180.969 201.663 181.221 201.71 181.585 201.71H182.397Z" fill="black"/>
<path d="M1 111L-8.74228e-08 111L8.74228e-08 113L1 113L1 111ZM39.7071 112.707C40.0976 112.317 40.0976 111.683 39.7071 111.293L33.3431 104.929C32.9526 104.538 32.3195 104.538 31.9289 104.929C31.5384 105.319 31.5384 105.953 31.9289 106.343L37.5858 112L31.9289 117.657C31.5384 118.047 31.5384 118.681 31.9289 119.071C32.3195 119.462 32.9526 119.462 33.3431 119.071L39.7071 112.707ZM1 113L39 113L39 111L1 111L1 113Z" fill="#A6AEBF"/>
<path d="M39 25L40 25L40 23L39 23L39 25ZM39.7071 200.707C40.0976 200.317 40.0976 199.683 39.7071 199.293L33.3431 192.929C32.9526 192.538 32.3194 192.538 31.9289 192.929C31.5384 193.319 31.5384 193.953 31.9289 194.343L37.5858 200L31.9289 205.657C31.5384 206.047 31.5384 206.681 31.9289 207.071C32.3194 207.462 32.9526 207.462 33.3431 207.071L39.7071 200.707ZM2 192L1.99999 32L-7.34351e-06 32L-3.49691e-07 192L2 192ZM8.99999 25L39 25L39 23L8.99999 23L8.99999 25ZM39 199L9 199L9 201L39 201L39 199ZM1.99999 32C1.99999 28.134 5.134 25 8.99999 25L8.99999 23C4.02943 23 -7.56078e-06 27.0294 -7.34351e-06 32L1.99999 32ZM-3.49691e-07 192C-1.32421e-07 196.971 4.02943 201 9 201L9 199C5.134 199 2 195.866 2 192L-3.49691e-07 192Z" fill="#A6AEBF"/>
<path d="M78 287L77 287L77 289L78 289L78 287ZM310.707 288.707C311.098 288.317 311.098 287.683 310.707 287.293L304.343 280.929C303.953 280.538 303.319 280.538 302.929 280.929C302.538 281.319 302.538 281.953 302.929 282.343L308.586 288L302.929 293.657C302.538 294.047 302.538 294.681 302.929 295.071C303.319 295.462 303.953 295.462 304.343 295.071L310.707 288.707ZM78 289L310 289L310 287L78 287L78 289Z" fill="#A6AEBF"/>
<path d="M79 224L79 223L77 223L77 224L79 224ZM310.707 376.707C311.098 376.317 311.098 375.683 310.707 375.293L304.343 368.929C303.953 368.538 303.319 368.538 302.929 368.929C302.538 369.319 302.538 369.953 302.929 370.343L308.586 376L302.929 381.657C302.538 382.047 302.538 382.681 302.929 383.071C303.319 383.462 303.953 383.462 304.343 383.071L310.707 376.707ZM79 368L79 224L77 224L77 368L79 368ZM310 375L86 375L86 377L310 377L310 375ZM77 368C77 372.971 81.0294 377 86 377L86 375C82.134 375 79 371.866 79 368L77 368Z" fill="#A6AEBF"/>
<rect x="311.5" y="264.5" width="266" height="47" rx="7.5" stroke="#015CA3"/>
<path d="M352.068 293V291.684H351.816C350.435 291.684 349.399 291.348 348.708 290.676C348.017 289.995 347.672 289.117 347.672 288.044C347.672 286.971 348.017 286.098 348.708 285.426C349.399 284.745 350.435 284.404 351.816 284.404H352.068V283.284H353.496V284.404H353.748C355.129 284.404 356.165 284.745 356.856 285.426C357.547 286.098 357.892 286.971 357.892 288.044C357.892 289.117 357.547 289.995 356.856 290.676C356.165 291.348 355.129 291.684 353.748 291.684H353.496V293H352.068ZM352.068 290.368V285.72H351.788C350.892 285.72 350.22 285.935 349.772 286.364C349.324 286.784 349.1 287.344 349.1 288.044C349.1 288.744 349.324 289.309 349.772 289.738C350.22 290.158 350.892 290.368 351.788 290.368H352.068ZM353.496 285.72V290.368H353.776C354.672 290.368 355.344 290.158 355.792 289.738C356.24 289.309 356.464 288.744 356.464 288.044C356.464 287.344 356.24 286.784 355.792 286.364C355.344 285.935 354.672 285.72 353.776 285.72H353.496ZM360.022 287.834C360.629 287.246 361.38 286.952 362.276 286.952C363.172 286.952 363.919 287.246 364.516 287.834C365.123 288.413 365.426 289.155 365.426 290.06C365.426 290.956 365.123 291.703 364.516 292.3C363.919 292.888 363.172 293.182 362.276 293.182C361.38 293.182 360.629 292.888 360.022 292.3C359.425 291.703 359.126 290.956 359.126 290.06C359.126 289.155 359.425 288.413 360.022 287.834ZM361.002 291.446C361.32 291.782 361.744 291.95 362.276 291.95C362.808 291.95 363.233 291.782 363.55 291.446C363.868 291.101 364.026 290.643 364.026 290.074C364.026 289.449 363.854 288.977 363.508 288.66C363.172 288.343 362.762 288.184 362.276 288.184C361.791 288.184 361.376 288.343 361.03 288.66C360.694 288.977 360.526 289.449 360.526 290.074C360.526 290.643 360.685 291.101 361.002 291.446ZM368.23 292.314V296.206H366.858V287.106H368.23V287.75C368.678 287.218 369.262 286.952 369.98 286.952C370.783 286.952 371.46 287.237 372.01 287.806C372.57 288.366 372.85 289.103 372.85 290.018C372.85 290.961 372.561 291.726 371.982 292.314C371.404 292.893 370.741 293.182 369.994 293.182C369.294 293.182 368.706 292.893 368.23 292.314ZM369.812 288.184C369.346 288.184 368.949 288.352 368.622 288.688C368.305 289.015 368.146 289.481 368.146 290.088C368.146 290.676 368.305 291.133 368.622 291.46C368.949 291.787 369.346 291.95 369.812 291.95C370.298 291.95 370.69 291.768 370.988 291.404C371.296 291.04 371.45 290.597 371.45 290.074C371.45 289.542 371.296 289.094 370.988 288.73C370.69 288.366 370.298 288.184 369.812 288.184ZM373.61 293L375.038 286.574L377.474 291.068L379.91 286.574L381.338 293H379.938L379.35 290.046L377.474 293.448L375.598 290.046L375.01 293H373.61ZM386.715 287.792V287.106H388.087V293H386.715V292.384C386.258 292.916 385.67 293.182 384.951 293.182C384.083 293.182 383.388 292.874 382.865 292.258C382.352 291.642 382.095 290.905 382.095 290.046C382.095 289.113 382.37 288.366 382.921 287.806C383.481 287.237 384.162 286.952 384.965 286.952C385.702 286.952 386.286 287.232 386.715 287.792ZM385.133 288.184C384.648 288.184 384.251 288.366 383.943 288.73C383.644 289.094 383.495 289.542 383.495 290.074C383.495 290.597 383.644 291.04 383.943 291.404C384.251 291.768 384.648 291.95 385.133 291.95C385.6 291.95 385.992 291.787 386.309 291.46C386.636 291.133 386.799 290.676 386.799 290.088C386.799 289.481 386.636 289.015 386.309 288.688C385.992 288.352 385.6 288.184 385.133 288.184ZM394.467 292.314V296.206H393.095V287.106H394.467V287.75C394.915 287.218 395.498 286.952 396.217 286.952C397.019 286.952 397.696 287.237 398.247 287.806C398.807 288.366 399.087 289.103 399.087 290.018C399.087 290.961 398.797 291.726 398.219 292.314C397.64 292.893 396.977 293.182 396.231 293.182C395.531 293.182 394.943 292.893 394.467 292.314ZM396.049 288.184C395.582 288.184 395.185 288.352 394.859 288.688C394.541 289.015 394.383 289.481 394.383 290.088C394.383 290.676 394.541 291.133 394.859 291.46C395.185 291.787 395.582 291.95 396.049 291.95C396.534 291.95 396.926 291.768 397.225 291.404C397.533 291.04 397.687 290.597 397.687 290.074C397.687 289.542 397.533 289.094 397.225 288.73C396.926 288.366 396.534 288.184 396.049 288.184ZM404.648 291.012L405.796 291.656C405.535 292.123 405.204 292.482 404.802 292.734C404.345 293.033 403.766 293.182 403.066 293.182C402.245 293.182 401.582 292.93 401.078 292.426C400.5 291.847 400.21 291.096 400.21 290.172C400.21 289.201 400.523 288.394 401.148 287.75C401.68 287.218 402.338 286.952 403.122 286.952C403.888 286.952 404.518 287.209 405.012 287.722C405.563 288.291 405.838 289.122 405.838 290.214V290.382H401.61C401.648 290.877 401.816 291.273 402.114 291.572C402.366 291.824 402.716 291.95 403.164 291.95C403.528 291.95 403.841 291.852 404.102 291.656C404.317 291.488 404.499 291.273 404.648 291.012ZM401.708 289.262H404.438C404.382 288.935 404.242 288.669 404.018 288.464C403.776 288.24 403.468 288.128 403.094 288.128C402.702 288.128 402.38 288.254 402.128 288.506C401.923 288.693 401.783 288.945 401.708 289.262ZM407.776 287.106H412.2V291.74H413.096V294.68H411.836V293H407.72V294.68H406.46V291.74C406.936 291.712 407.296 291.455 407.538 290.97C407.697 290.625 407.776 290.107 407.776 289.416V287.106ZM410.828 291.74V288.366H409.092V289.934C409.092 290.783 408.864 291.385 408.406 291.74H410.828ZM418.393 287.792V287.106H419.765V293H418.393V292.384C417.936 292.916 417.348 293.182 416.629 293.182C415.761 293.182 415.066 292.874 414.543 292.258C414.03 291.642 413.773 290.905 413.773 290.046C413.773 289.113 414.048 288.366 414.599 287.806C415.159 287.237 415.84 286.952 416.643 286.952C417.38 286.952 417.964 287.232 418.393 287.792ZM416.811 288.184C416.326 288.184 415.929 288.366 415.621 288.73C415.322 289.094 415.173 289.542 415.173 290.074C415.173 290.597 415.322 291.04 415.621 291.404C415.929 291.768 416.326 291.95 416.811 291.95C417.278 291.95 417.67 291.787 417.987 291.46C418.314 291.133 418.477 290.676 418.477 290.088C418.477 289.481 418.314 289.015 417.987 288.688C417.67 288.352 417.278 288.184 416.811 288.184ZM421.505 287.106H422.877V289.206L424.837 287.106H426.657L424.081 289.682L426.797 293H425.061L423.101 290.578L422.877 290.802V293H421.505V287.106ZM431.895 288.366H430.173V293H428.801V288.366H427.079V287.106H431.895V288.366ZM432.88 287.106H434.252V290.452L438.284 286.574V293H436.912V289.57L432.88 293.448V287.106ZM441.388 292.314V296.206H440.016V287.106H441.388V287.75C441.836 287.218 442.42 286.952 443.138 286.952C443.941 286.952 444.618 287.237 445.168 287.806C445.728 288.366 446.008 289.103 446.008 290.018C446.008 290.961 445.719 291.726 445.14 292.314C444.562 292.893 443.899 293.182 443.152 293.182C442.452 293.182 441.864 292.893 441.388 292.314ZM442.97 288.184C442.504 288.184 442.107 288.352 441.78 288.688C441.463 289.015 441.304 289.481 441.304 290.088C441.304 290.676 441.463 291.133 441.78 291.46C442.107 291.787 442.504 291.95 442.97 291.95C443.456 291.95 443.848 291.768 444.146 291.404C444.454 291.04 444.608 290.597 444.608 290.074C444.608 289.542 444.454 289.094 444.146 288.73C443.848 288.366 443.456 288.184 442.97 288.184ZM448.028 287.834C448.635 287.246 449.386 286.952 450.282 286.952C451.178 286.952 451.925 287.246 452.522 287.834C453.129 288.413 453.432 289.155 453.432 290.06C453.432 290.956 453.129 291.703 452.522 292.3C451.925 292.888 451.178 293.182 450.282 293.182C449.386 293.182 448.635 292.888 448.028 292.3C447.431 291.703 447.132 290.956 447.132 290.06C447.132 289.155 447.431 288.413 448.028 287.834ZM449.008 291.446C449.326 291.782 449.75 291.95 450.282 291.95C450.814 291.95 451.239 291.782 451.556 291.446C451.874 291.101 452.032 290.643 452.032 290.074C452.032 289.449 451.86 288.977 451.514 288.66C451.178 288.343 450.768 288.184 450.282 288.184C449.797 288.184 449.382 288.343 449.036 288.66C448.7 288.977 448.532 289.449 448.532 290.074C448.532 290.643 448.691 291.101 449.008 291.446ZM454.864 287.106H457.174C457.762 287.106 458.21 287.223 458.518 287.456C458.882 287.745 459.064 288.123 459.064 288.59C459.064 289.122 458.831 289.505 458.364 289.738C458.663 289.794 458.929 289.925 459.162 290.13C459.47 290.41 459.624 290.788 459.624 291.264C459.624 291.833 459.409 292.281 458.98 292.608C458.625 292.869 458.173 293 457.622 293H454.864V287.106ZM456.236 289.402H456.936C457.179 289.402 457.361 289.36 457.482 289.276C457.659 289.164 457.748 289.005 457.748 288.8C457.748 288.604 457.669 288.45 457.51 288.338C457.398 288.263 457.197 288.226 456.908 288.226H456.236V289.402ZM456.236 291.88H457.258C457.566 291.88 457.804 291.824 457.972 291.712C458.159 291.591 458.252 291.418 458.252 291.194C458.252 290.951 458.163 290.779 457.986 290.676C457.827 290.573 457.599 290.522 457.3 290.522H456.236V291.88ZM465.369 287.792V287.106H466.741V293H465.369V292.384C464.912 292.916 464.324 293.182 463.605 293.182C462.737 293.182 462.042 292.874 461.519 292.258C461.006 291.642 460.749 290.905 460.749 290.046C460.749 289.113 461.025 288.366 461.575 287.806C462.135 287.237 462.817 286.952 463.619 286.952C464.357 286.952 464.94 287.232 465.369 287.792ZM463.787 288.184C463.302 288.184 462.905 288.366 462.597 288.73C462.299 289.094 462.149 289.542 462.149 290.074C462.149 290.597 462.299 291.04 462.597 291.404C462.905 291.768 463.302 291.95 463.787 291.95C464.254 291.95 464.646 291.787 464.963 291.46C465.29 291.133 465.453 290.676 465.453 290.088C465.453 289.481 465.29 289.015 464.963 288.688C464.646 288.352 464.254 288.184 463.787 288.184ZM468.481 293V287.106H469.853V289.29H472.289V287.106H473.661V293H472.289V290.55H469.853V293H468.481ZM475.399 287.106H476.771V290.452L480.803 286.574V293H479.431V289.57L475.399 293.448V287.106ZM481.78 293L483.628 290.662C483.264 290.606 482.951 290.457 482.69 290.214C482.363 289.897 482.2 289.491 482.2 288.996C482.2 288.436 482.382 287.983 482.746 287.638C483.119 287.283 483.689 287.106 484.454 287.106H486.652V293H485.28V290.83H485L483.39 293H481.78ZM485.28 289.71V288.282H484.482C484.155 288.282 483.917 288.324 483.768 288.408C483.544 288.548 483.432 288.744 483.432 288.996C483.432 289.248 483.525 289.439 483.712 289.57C483.852 289.663 484.104 289.71 484.468 289.71H485.28ZM491.655 287.106H496.779V293H495.407V288.366H493.027V293H491.655V287.106ZM499.89 292.314V296.206H498.518V287.106H499.89V287.75C500.338 287.218 500.922 286.952 501.64 286.952C502.443 286.952 503.12 287.237 503.67 287.806C504.23 288.366 504.51 289.103 504.51 290.018C504.51 290.961 504.221 291.726 503.642 292.314C503.064 292.893 502.401 293.182 501.654 293.182C500.954 293.182 500.366 292.893 499.89 292.314ZM501.472 288.184C501.006 288.184 500.609 288.352 500.282 288.688C499.965 289.015 499.806 289.481 499.806 290.088C499.806 290.676 499.965 291.133 500.282 291.46C500.609 291.787 501.006 291.95 501.472 291.95C501.958 291.95 502.35 291.768 502.648 291.404C502.956 291.04 503.11 290.597 503.11 290.074C503.11 289.542 502.956 289.094 502.648 288.73C502.35 288.366 501.958 288.184 501.472 288.184ZM506.53 287.834C507.137 287.246 507.888 286.952 508.784 286.952C509.68 286.952 510.427 287.246 511.024 287.834C511.631 288.413 511.934 289.155 511.934 290.06C511.934 290.956 511.631 291.703 511.024 292.3C510.427 292.888 509.68 293.182 508.784 293.182C507.888 293.182 507.137 292.888 506.53 292.3C505.933 291.703 505.634 290.956 505.634 290.06C505.634 289.155 505.933 288.413 506.53 287.834ZM507.51 291.446C507.828 291.782 508.252 291.95 508.784 291.95C509.316 291.95 509.741 291.782 510.058 291.446C510.376 291.101 510.534 290.643 510.534 290.074C510.534 289.449 510.362 288.977 510.016 288.66C509.68 288.343 509.27 288.184 508.784 288.184C508.299 288.184 507.884 288.343 507.538 288.66C507.202 288.977 507.034 289.449 507.034 290.074C507.034 290.643 507.193 291.101 507.51 291.446ZM516.502 296.206V293.098C515.494 293.107 514.687 292.851 514.08 292.328C513.417 291.768 513.086 291.007 513.086 290.046C513.086 289.094 513.413 288.338 514.066 287.778C514.663 287.265 515.475 287.008 516.502 287.008V283.662H517.874V287.008C518.901 287.008 519.713 287.265 520.31 287.778C520.963 288.338 521.29 289.094 521.29 290.046C521.29 291.007 520.959 291.768 520.296 292.328C519.689 292.851 518.882 293.107 517.874 293.098V296.206H516.502ZM516.502 291.866V288.24C515.961 288.24 515.531 288.343 515.214 288.548C514.729 288.837 514.486 289.337 514.486 290.046C514.486 290.709 514.715 291.199 515.172 291.516C515.527 291.768 515.97 291.885 516.502 291.866ZM517.874 288.24V291.866C518.406 291.885 518.849 291.768 519.204 291.516C519.661 291.199 519.89 290.709 519.89 290.046C519.89 289.337 519.647 288.837 519.162 288.548C518.845 288.343 518.415 288.24 517.874 288.24ZM522.745 287.106H524.117V290.452L528.149 286.574V293H526.777V289.57L522.745 293.448V287.106ZM534.726 287.106V293H533.354V288.366H531.618V290.704C531.618 291.432 531.431 291.997 531.058 292.398C530.582 292.93 529.938 293.131 529.126 293V291.74C529.527 291.833 529.849 291.745 530.092 291.474C530.232 291.306 530.302 291.049 530.302 290.704V287.106H534.726ZM535.702 293L537.55 290.662C537.186 290.606 536.873 290.457 536.612 290.214C536.285 289.897 536.122 289.491 536.122 288.996C536.122 288.436 536.304 287.983 536.668 287.638C537.041 287.283 537.611 287.106 538.376 287.106H540.574V293H539.202V290.83H538.922L537.312 293H535.702ZM539.202 289.71V288.282H538.404C538.077 288.282 537.839 288.324 537.69 288.408C537.466 288.548 537.354 288.744 537.354 288.996C537.354 289.248 537.447 289.439 537.634 289.57C537.774 289.663 538.026 289.71 538.39 289.71H539.202Z" fill="black"/>
<rect x="311.5" y="352.5" width="108" height="47" rx="7.5" stroke="#015CA3"/>
<path d="M348.12 371.662H349.534C350.169 371.662 350.682 371.713 351.074 371.816C351.466 371.919 351.811 372.11 352.11 372.39C352.605 372.857 352.852 373.473 352.852 374.238C352.852 374.677 352.759 375.045 352.572 375.344C352.404 375.633 352.171 375.848 351.872 375.988C352.357 376.109 352.759 376.333 353.076 376.66C353.487 377.089 353.692 377.673 353.692 378.41C353.692 379.091 353.487 379.651 353.076 380.09C352.497 380.697 351.625 381 350.458 381H348.12V371.662ZM349.548 373.006V375.68H349.982C350.505 375.68 350.892 375.559 351.144 375.316C351.387 375.083 351.508 374.728 351.508 374.252C351.508 373.869 351.396 373.571 351.172 373.356C350.929 373.123 350.551 373.006 350.038 373.006H349.548ZM349.548 376.856V379.656H350.416C351.06 379.656 351.531 379.535 351.83 379.292C352.138 379.049 352.292 378.704 352.292 378.256C352.292 377.855 352.166 377.528 351.914 377.276C351.625 376.996 351.135 376.856 350.444 376.856H349.548ZM355.237 381V375.106H356.609V377.192H357.393C357.645 377.192 357.85 377.201 358.009 377.22C358.168 377.229 358.359 377.281 358.583 377.374C358.807 377.467 359.003 377.607 359.171 377.794C359.479 378.139 359.633 378.569 359.633 379.082C359.633 379.67 359.456 380.141 359.101 380.496C358.942 380.655 358.751 380.776 358.527 380.86C358.312 380.935 358.13 380.977 357.981 380.986C357.841 380.995 357.64 381 357.379 381H355.237ZM356.609 379.824H357.239C357.575 379.824 357.813 379.782 357.953 379.698C358.158 379.549 358.261 379.348 358.261 379.096C358.261 378.835 358.163 378.639 357.967 378.508C357.818 378.415 357.58 378.368 357.253 378.368H356.609V379.824ZM360.249 381V375.106H361.621V381H360.249ZM362.574 381L365.178 377.808L363.078 375.106H364.702L366.004 376.828L367.32 375.106H369L366.83 377.808L369.35 381H367.698L366.004 378.802L364.254 381H362.574ZM370.892 375.834C371.498 375.246 372.25 374.952 373.146 374.952C374.042 374.952 374.788 375.246 375.386 375.834C375.992 376.413 376.296 377.155 376.296 378.06C376.296 378.956 375.992 379.703 375.386 380.3C374.788 380.888 374.042 381.182 373.146 381.182C372.25 381.182 371.498 380.888 370.892 380.3C370.294 379.703 369.996 378.956 369.996 378.06C369.996 377.155 370.294 376.413 370.892 375.834ZM371.872 379.446C372.189 379.782 372.614 379.95 373.146 379.95C373.678 379.95 374.102 379.782 374.42 379.446C374.737 379.101 374.896 378.643 374.896 378.074C374.896 377.449 374.723 376.977 374.378 376.66C374.042 376.343 373.631 376.184 373.146 376.184C372.66 376.184 372.245 376.343 371.9 376.66C371.564 376.977 371.396 377.449 371.396 378.074C371.396 378.643 371.554 379.101 371.872 379.446ZM378.231 375.106H382.655V379.74H383.551V382.68H382.291V381H378.175V382.68H376.915V379.74C377.391 379.712 377.751 379.455 377.993 378.97C378.152 378.625 378.231 378.107 378.231 377.416V375.106ZM381.283 379.74V376.366H379.547V377.934C379.547 378.783 379.319 379.385 378.861 379.74H381.283Z" fill="black"/>
</svg>
