<svg width="307" height="312" viewBox="0 0 307 312" fill="none" xmlns="http://www.w3.org/2000/svg">
<rect x="40" width="125" height="48" rx="8" fill="#D2DDF8"/>
<path d="M77.12 19.662H83.98V29H82.552V21.006H78.548V29H77.12V19.662ZM87.3455 28.314V32.206H85.9735V23.106H87.3455V23.75C87.7935 23.218 88.3768 22.952 89.0955 22.952C89.8981 22.952 90.5748 23.2367 91.1255 23.806C91.6855 24.366 91.9655 25.1033 91.9655 26.018C91.9655 26.9607 91.6761 27.726 91.0975 28.314C90.5188 28.8927 89.8561 29.182 89.1095 29.182C88.4095 29.182 87.8215 28.8927 87.3455 28.314ZM88.9275 24.184C88.4608 24.184 88.0641 24.352 87.7375 24.688C87.4201 25.0147 87.2615 25.4813 87.2615 26.088C87.2615 26.676 87.4201 27.1333 87.7375 27.46C88.0641 27.7867 88.4608 27.95 88.9275 27.95C89.4128 27.95 89.8048 27.768 90.1035 27.404C90.4115 27.04 90.5655 26.5967 90.5655 26.074C90.5655 25.542 90.4115 25.094 90.1035 24.73C89.8048 24.366 89.4128 24.184 88.9275 24.184ZM93.9853 23.834C94.592 23.246 95.3433 22.952 96.2393 22.952C97.1353 22.952 97.882 23.246 98.4793 23.834C99.086 24.4127 99.3893 25.1547 99.3893 26.06C99.3893 26.956 99.086 27.7027 98.4793 28.3C97.882 28.888 97.1353 29.182 96.2393 29.182C95.3433 29.182 94.592 28.888 93.9853 28.3C93.388 27.7027 93.0893 26.956 93.0893 26.06C93.0893 25.1547 93.388 24.4127 93.9853 23.834ZM94.9653 27.446C95.2826 27.782 95.7073 27.95 96.2393 27.95C96.7713 27.95 97.196 27.782 97.5133 27.446C97.8306 27.1007 97.9893 26.6433 97.9893 26.074C97.9893 25.4487 97.8166 24.9773 97.4713 24.66C97.1353 24.3427 96.7246 24.184 96.2393 24.184C95.754 24.184 95.3386 24.3427 94.9933 24.66C94.6573 24.9773 94.4893 25.4487 94.4893 26.074C94.4893 26.6433 94.648 27.1007 94.9653 27.446ZM103.957 32.206V29.098C102.949 29.1073 102.142 28.8507 101.535 28.328C100.872 27.768 100.541 27.0073 100.541 26.046C100.541 25.094 100.868 24.338 101.521 23.778C102.118 23.2647 102.93 23.008 103.957 23.008V19.662H105.329V23.008C106.356 23.008 107.168 23.2647 107.765 23.778C108.418 24.338 108.745 25.094 108.745 26.046C108.745 27.0073 108.414 27.768 107.751 28.328C107.144 28.8507 106.337 29.1073 105.329 29.098V32.206H103.957ZM103.957 27.866V24.24C103.416 24.24 102.986 24.3427 102.669 24.548C102.184 24.8373 101.941 25.3367 101.941 26.046C101.941 26.7087 102.17 27.1987 102.627 27.516C102.982 27.768 103.425 27.8847 103.957 27.866ZM105.329 24.24V27.866C105.861 27.8847 106.304 27.768 106.659 27.516C107.116 27.1987 107.345 26.7087 107.345 26.046C107.345 25.3367 107.102 24.8373 106.617 24.548C106.3 24.3427 105.87 24.24 105.329 24.24ZM110.2 23.106H111.572V26.452L115.604 22.574V29H114.232V25.57L110.2 29.448V23.106ZM122.181 23.106V29H120.809V24.366H119.073V26.704C119.073 27.432 118.886 27.9967 118.513 28.398C118.037 28.93 117.393 29.1307 116.581 29V27.74C116.982 27.8333 117.304 27.7447 117.547 27.474C117.687 27.306 117.757 27.0493 117.757 26.704V23.106H122.181ZM123.913 29V23.106H125.285V25.192H126.069C126.321 25.192 126.526 25.2013 126.685 25.22C126.844 25.2293 127.035 25.2807 127.259 25.374C127.483 25.4673 127.679 25.6073 127.847 25.794C128.155 26.1393 128.309 26.5687 128.309 27.082C128.309 27.67 128.132 28.1413 127.777 28.496C127.618 28.6547 127.427 28.776 127.203 28.86C126.988 28.9347 126.806 28.9767 126.657 28.986C126.517 28.9953 126.316 29 126.055 29H123.913ZM125.285 27.824H125.915C126.251 27.824 126.489 27.782 126.629 27.698C126.834 27.5487 126.937 27.348 126.937 27.096C126.937 26.8347 126.839 26.6387 126.643 26.508C126.494 26.4147 126.256 26.368 125.929 26.368H125.285V27.824Z" fill="black"/>
<rect x="40.5" y="88.5" width="178" height="47" rx="7.5" stroke="#6A8EE8"/>
<path d="M77.12 107.662H83.98V117H82.552V109.006H78.548V117H77.12V107.662ZM90.2855 111.792V111.106H91.6575V117H90.2855V116.384C89.8281 116.916 89.2401 117.182 88.5215 117.182C87.6535 117.182 86.9581 116.874 86.4355 116.258C85.9221 115.642 85.6655 114.905 85.6655 114.046C85.6655 113.113 85.9408 112.366 86.4915 111.806C87.0515 111.237 87.7328 110.952 88.5355 110.952C89.2728 110.952 89.8561 111.232 90.2855 111.792ZM88.7035 112.184C88.2181 112.184 87.8215 112.366 87.5135 112.73C87.2148 113.094 87.0655 113.542 87.0655 114.074C87.0655 114.597 87.2148 115.04 87.5135 115.404C87.8215 115.768 88.2181 115.95 88.7035 115.95C89.1701 115.95 89.5621 115.787 89.8795 115.46C90.2061 115.133 90.3695 114.676 90.3695 114.088C90.3695 113.481 90.2061 113.015 89.8795 112.688C89.5621 112.352 89.1701 112.184 88.7035 112.184ZM93.3973 117V111.106H94.7693V113.29H97.2053V111.106H98.5773V117H97.2053V114.55H94.7693V117H93.3973ZM104.445 115.012L105.593 115.656C105.332 116.123 105.001 116.482 104.599 116.734C104.142 117.033 103.563 117.182 102.863 117.182C102.042 117.182 101.379 116.93 100.875 116.426C100.297 115.847 100.007 115.096 100.007 114.172C100.007 113.201 100.32 112.394 100.945 111.75C101.477 111.218 102.135 110.952 102.919 110.952C103.685 110.952 104.315 111.209 104.809 111.722C105.36 112.291 105.635 113.122 105.635 114.214V114.382H101.407C101.445 114.877 101.613 115.273 101.911 115.572C102.163 115.824 102.513 115.95 102.961 115.95C103.325 115.95 103.638 115.852 103.899 115.656C104.114 115.488 104.296 115.273 104.445 115.012ZM101.505 113.262H104.235C104.179 112.935 104.039 112.669 103.815 112.464C103.573 112.24 103.265 112.128 102.891 112.128C102.499 112.128 102.177 112.254 101.925 112.506C101.72 112.693 101.58 112.945 101.505 113.262ZM111.913 111.106V117H110.541V112.366H108.805V114.704C108.805 115.432 108.619 115.997 108.245 116.398C107.769 116.93 107.125 117.131 106.313 117V115.74C106.715 115.833 107.037 115.745 107.279 115.474C107.419 115.306 107.489 115.049 107.489 114.704V111.106H111.913ZM113.645 117V111.106H115.017V113.192H115.801C116.053 113.192 116.259 113.201 116.417 113.22C116.576 113.229 116.767 113.281 116.991 113.374C117.215 113.467 117.411 113.607 117.579 113.794C117.887 114.139 118.041 114.569 118.041 115.082C118.041 115.67 117.864 116.141 117.509 116.496C117.351 116.655 117.159 116.776 116.935 116.86C116.721 116.935 116.539 116.977 116.389 116.986C116.249 116.995 116.049 117 115.787 117H113.645ZM115.017 115.824H115.647C115.983 115.824 116.221 115.782 116.361 115.698C116.567 115.549 116.669 115.348 116.669 115.096C116.669 114.835 116.571 114.639 116.375 114.508C116.226 114.415 115.988 114.368 115.661 114.368H115.017V115.824ZM122.518 117V111.106H123.89V113.29H126.326V111.106H127.698V117H126.326V114.55H123.89V117H122.518ZM133.748 111.792V111.106H135.12V117H133.748V116.384C133.291 116.916 132.703 117.182 131.984 117.182C131.116 117.182 130.421 116.874 129.898 116.258C129.385 115.642 129.128 114.905 129.128 114.046C129.128 113.113 129.404 112.366 129.954 111.806C130.514 111.237 131.196 110.952 131.998 110.952C132.736 110.952 133.319 111.232 133.748 111.792ZM132.166 112.184C131.681 112.184 131.284 112.366 130.976 112.73C130.678 113.094 130.528 113.542 130.528 114.074C130.528 114.597 130.678 115.04 130.976 115.404C131.284 115.768 131.681 115.95 132.166 115.95C132.633 115.95 133.025 115.787 133.342 115.46C133.669 115.133 133.832 114.676 133.832 114.088C133.832 113.481 133.669 113.015 133.342 112.688C133.025 112.352 132.633 112.184 132.166 112.184ZM136.86 111.106H139.17C139.758 111.106 140.206 111.223 140.514 111.456C140.878 111.745 141.06 112.123 141.06 112.59C141.06 113.122 140.827 113.505 140.36 113.738C140.659 113.794 140.925 113.925 141.158 114.13C141.466 114.41 141.62 114.788 141.62 115.264C141.62 115.833 141.406 116.281 140.976 116.608C140.622 116.869 140.169 117 139.618 117H136.86V111.106ZM138.232 113.402H138.932C139.175 113.402 139.357 113.36 139.478 113.276C139.656 113.164 139.744 113.005 139.744 112.8C139.744 112.604 139.665 112.45 139.506 112.338C139.394 112.263 139.194 112.226 138.904 112.226H138.232V113.402ZM138.232 115.88H139.254C139.562 115.88 139.8 115.824 139.968 115.712C140.155 115.591 140.248 115.418 140.248 115.194C140.248 114.951 140.16 114.779 139.982 114.676C139.824 114.573 139.595 114.522 139.296 114.522H138.232V115.88ZM143.054 111.106H144.426V114.452L148.458 110.574V117H147.086V113.57L143.054 117.448V111.106ZM150.19 117V111.106H153.802V112.366H151.562V117H150.19ZM158.959 111.792V111.106H160.331V117H158.959V116.384C158.502 116.916 157.914 117.182 157.195 117.182C156.327 117.182 155.632 116.874 155.109 116.258C154.596 115.642 154.339 114.905 154.339 114.046C154.339 113.113 154.615 112.366 155.165 111.806C155.725 111.237 156.407 110.952 157.209 110.952C157.947 110.952 158.53 111.232 158.959 111.792ZM157.377 112.184C156.892 112.184 156.495 112.366 156.187 112.73C155.889 113.094 155.739 113.542 155.739 114.074C155.739 114.597 155.889 115.04 156.187 115.404C156.495 115.768 156.892 115.95 157.377 115.95C157.844 115.95 158.236 115.787 158.553 115.46C158.88 115.133 159.043 114.676 159.043 114.088C159.043 113.481 158.88 113.015 158.553 112.688C158.236 112.352 157.844 112.184 157.377 112.184ZM162.071 117V111.106H163.443V115.74H165.767V111.106H167.139V115.74H168.119V118.68H166.859V117H162.071ZM169.098 111.106H170.47V114.452L174.502 110.574V117H173.13V113.57L169.098 117.448V111.106ZM176.235 111.106H177.607V114.452L181.639 110.574V117H180.267V113.57L176.235 117.448V111.106Z" fill="black"/>
<rect x="40.5" y="176.5" width="180" height="47" rx="7.5" stroke="#6A8EE8"/>
<path d="M78.548 195.662V199.386L82.16 195.662H84.036L79.822 199.89L84.064 205H82.16L78.828 200.856L78.548 201.136V205H77.12V195.662H78.548ZM88.8089 199.792V199.106H90.1809V205H88.8089V204.384C88.3516 204.916 87.7636 205.182 87.0449 205.182C86.1769 205.182 85.4816 204.874 84.9589 204.258C84.4456 203.642 84.1889 202.905 84.1889 202.046C84.1889 201.113 84.4642 200.366 85.0149 199.806C85.5749 199.237 86.2562 198.952 87.0589 198.952C87.7962 198.952 88.3796 199.232 88.8089 199.792ZM87.2269 200.184C86.7416 200.184 86.3449 200.366 86.0369 200.73C85.7382 201.094 85.5889 201.542 85.5889 202.074C85.5889 202.597 85.7382 203.04 86.0369 203.404C86.3449 203.768 86.7416 203.95 87.2269 203.95C87.6936 203.95 88.0856 203.787 88.4029 203.46C88.7296 203.133 88.8929 202.676 88.8929 202.088C88.8929 201.481 88.7296 201.015 88.4029 200.688C88.0856 200.352 87.6936 200.184 87.2269 200.184ZM93.2927 204.314V208.206H91.9207V199.106H93.2927V199.75C93.7407 199.218 94.3241 198.952 95.0427 198.952C95.8454 198.952 96.5221 199.237 97.0727 199.806C97.6327 200.366 97.9127 201.103 97.9127 202.018C97.9127 202.961 97.6234 203.726 97.0447 204.314C96.4661 204.893 95.8034 205.182 95.0567 205.182C94.3567 205.182 93.7687 204.893 93.2927 204.314ZM94.8747 200.184C94.4081 200.184 94.0114 200.352 93.6847 200.688C93.3674 201.015 93.2087 201.481 93.2087 202.088C93.2087 202.676 93.3674 203.133 93.6847 203.46C94.0114 203.787 94.4081 203.95 94.8747 203.95C95.3601 203.95 95.7521 203.768 96.0507 203.404C96.3587 203.04 96.5127 202.597 96.5127 202.074C96.5127 201.542 96.3587 201.094 96.0507 200.73C95.7521 200.366 95.3601 200.184 94.8747 200.184ZM103.405 200.366H101.683V205H100.311V200.366H98.5886V199.106H103.405V200.366ZM104.827 199.834C105.434 199.246 106.185 198.952 107.081 198.952C107.977 198.952 108.724 199.246 109.321 199.834C109.928 200.413 110.231 201.155 110.231 202.06C110.231 202.956 109.928 203.703 109.321 204.3C108.724 204.888 107.977 205.182 107.081 205.182C106.185 205.182 105.434 204.888 104.827 204.3C104.23 203.703 103.931 202.956 103.931 202.06C103.931 201.155 104.23 200.413 104.827 199.834ZM105.807 203.446C106.124 203.782 106.549 203.95 107.081 203.95C107.613 203.95 108.038 203.782 108.355 203.446C108.672 203.101 108.831 202.643 108.831 202.074C108.831 201.449 108.658 200.977 108.313 200.66C107.977 200.343 107.566 200.184 107.081 200.184C106.596 200.184 106.18 200.343 105.835 200.66C105.499 200.977 105.331 201.449 105.331 202.074C105.331 202.643 105.49 203.101 105.807 203.446ZM114.855 205V202.718C114.435 202.802 114.034 202.844 113.651 202.844C112.979 202.844 112.461 202.699 112.097 202.41C111.714 202.102 111.523 201.631 111.523 200.996V199.106H112.895V200.716C112.895 201.117 113.012 201.388 113.245 201.528C113.404 201.621 113.632 201.668 113.931 201.668C114.267 201.668 114.575 201.617 114.855 201.514V199.106H116.227V205H114.855ZM117.966 199.106H119.338V201.206L121.298 199.106H123.118L120.542 201.682L123.258 205H121.522L119.562 202.578L119.338 202.802V205H117.966V199.106ZM128.471 199.792V199.106H129.843V205H128.471V204.384C128.014 204.916 127.426 205.182 126.707 205.182C125.839 205.182 125.144 204.874 124.621 204.258C124.108 203.642 123.851 202.905 123.851 202.046C123.851 201.113 124.126 200.366 124.677 199.806C125.237 199.237 125.918 198.952 126.721 198.952C127.458 198.952 128.042 199.232 128.471 199.792ZM126.889 200.184C126.404 200.184 126.007 200.366 125.699 200.73C125.4 201.094 125.251 201.542 125.251 202.074C125.251 202.597 125.4 203.04 125.699 203.404C126.007 203.768 126.404 203.95 126.889 203.95C127.356 203.95 127.748 203.787 128.065 203.46C128.392 203.133 128.555 202.676 128.555 202.088C128.555 201.481 128.392 201.015 128.065 200.688C127.748 200.352 127.356 200.184 126.889 200.184ZM134.85 199.106H139.974V205H138.602V200.366H136.222V205H134.85V199.106ZM143.086 204.314V208.206H141.714V199.106H143.086V199.75C143.534 199.218 144.117 198.952 144.836 198.952C145.638 198.952 146.315 199.237 146.866 199.806C147.426 200.366 147.706 201.103 147.706 202.018C147.706 202.961 147.416 203.726 146.838 204.314C146.259 204.893 145.596 205.182 144.85 205.182C144.15 205.182 143.562 204.893 143.086 204.314ZM144.668 200.184C144.201 200.184 143.804 200.352 143.478 200.688C143.16 201.015 143.002 201.481 143.002 202.088C143.002 202.676 143.16 203.133 143.478 203.46C143.804 203.787 144.201 203.95 144.668 203.95C145.153 203.95 145.545 203.768 145.844 203.404C146.152 203.04 146.306 202.597 146.306 202.074C146.306 201.542 146.152 201.094 145.844 200.73C145.545 200.366 145.153 200.184 144.668 200.184ZM149.726 199.834C150.332 199.246 151.084 198.952 151.98 198.952C152.876 198.952 153.622 199.246 154.22 199.834C154.826 200.413 155.13 201.155 155.13 202.06C155.13 202.956 154.826 203.703 154.22 204.3C153.622 204.888 152.876 205.182 151.98 205.182C151.084 205.182 150.332 204.888 149.726 204.3C149.128 203.703 148.83 202.956 148.83 202.06C148.83 201.155 149.128 200.413 149.726 199.834ZM150.706 203.446C151.023 203.782 151.448 203.95 151.98 203.95C152.512 203.95 152.936 203.782 153.254 203.446C153.571 203.101 153.73 202.643 153.73 202.074C153.73 201.449 153.557 200.977 153.212 200.66C152.876 200.343 152.465 200.184 151.98 200.184C151.494 200.184 151.079 200.343 150.734 200.66C150.398 200.977 150.23 201.449 150.23 202.074C150.23 202.643 150.388 203.101 150.706 203.446ZM159.697 208.206V205.098C158.689 205.107 157.882 204.851 157.275 204.328C156.613 203.768 156.281 203.007 156.281 202.046C156.281 201.094 156.608 200.338 157.261 199.778C157.859 199.265 158.671 199.008 159.697 199.008V195.662H161.069V199.008C162.096 199.008 162.908 199.265 163.505 199.778C164.159 200.338 164.485 201.094 164.485 202.046C164.485 203.007 164.154 203.768 163.491 204.328C162.885 204.851 162.077 205.107 161.069 205.098V208.206H159.697ZM159.697 203.866V200.24C159.156 200.24 158.727 200.343 158.409 200.548C157.924 200.837 157.681 201.337 157.681 202.046C157.681 202.709 157.91 203.199 158.367 203.516C158.722 203.768 159.165 203.885 159.697 203.866ZM161.069 200.24V203.866C161.601 203.885 162.045 203.768 162.399 203.516C162.857 203.199 163.085 202.709 163.085 202.046C163.085 201.337 162.843 200.837 162.357 200.548C162.04 200.343 161.611 200.24 161.069 200.24ZM165.94 199.106H167.312V202.452L171.344 198.574V205H169.972V201.57L165.94 205.448V199.106ZM177.921 199.106V205H176.549V200.366H174.813V202.704C174.813 203.432 174.626 203.997 174.253 204.398C173.777 204.93 173.133 205.131 172.321 205V203.74C172.722 203.833 173.044 203.745 173.287 203.474C173.427 203.306 173.497 203.049 173.497 202.704V199.106H177.921ZM178.897 205L180.745 202.662C180.381 202.606 180.068 202.457 179.807 202.214C179.48 201.897 179.317 201.491 179.317 200.996C179.317 200.436 179.499 199.983 179.863 199.638C180.236 199.283 180.806 199.106 181.571 199.106H183.769V205H182.397V202.83H182.117L180.507 205H178.897ZM182.397 201.71V200.282H181.599C181.272 200.282 181.034 200.324 180.885 200.408C180.661 200.548 180.549 200.744 180.549 200.996C180.549 201.248 180.642 201.439 180.829 201.57C180.969 201.663 181.221 201.71 181.585 201.71H182.397Z" fill="black"/>
<path d="M1 111L-8.74228e-08 111L8.74228e-08 113L1 113L1 111ZM39.7071 112.707C40.0976 112.317 40.0976 111.683 39.7071 111.293L33.3431 104.929C32.9526 104.538 32.3195 104.538 31.9289 104.929C31.5384 105.319 31.5384 105.953 31.9289 106.343L37.5858 112L31.9289 117.657C31.5384 118.047 31.5384 118.681 31.9289 119.071C32.3195 119.462 32.9526 119.462 33.3431 119.071L39.7071 112.707ZM1 113L39 113L39 111L1 111L1 113Z" fill="#A6AEBF"/>
<path d="M1 199L-8.74228e-08 199L8.74228e-08 201L1 201L1 199ZM39.7071 200.707C40.0976 200.317 40.0976 199.683 39.7071 199.293L33.3431 192.929C32.9526 192.538 32.3195 192.538 31.9289 192.929C31.5384 193.319 31.5384 193.953 31.9289 194.343L37.5858 200L31.9289 205.657C31.5384 206.047 31.5384 206.681 31.9289 207.071C32.3195 207.462 32.9526 207.462 33.3431 207.071L39.7071 200.707ZM1 201L39 201L39 199L1 199L1 201Z" fill="#A6AEBF"/>
<path d="M39 25L40 25L40 23L39 23L39 25ZM39.7071 288.707C40.0976 288.317 40.0976 287.683 39.7071 287.293L33.3432 280.929C32.9526 280.538 32.3195 280.538 31.9289 280.929C31.5384 281.319 31.5384 281.953 31.9289 282.343L37.5858 288L31.9289 293.657C31.5384 294.047 31.5384 294.681 31.9289 295.071C32.3195 295.462 32.9526 295.462 33.3432 295.071L39.7071 288.707ZM2 280L1.99999 32L-1.11901e-05 32L-3.49691e-07 280L2 280ZM8.99999 25L39 25L39 23L8.99999 23L8.99999 25ZM39 287L9 287L9 289L39 289L39 287ZM1.99999 32C1.99999 28.134 5.134 25 8.99999 25L8.99999 23C4.02942 23 -1.14074e-05 27.0294 -1.11901e-05 32L1.99999 32ZM-3.49691e-07 280C-1.32421e-07 284.971 4.02944 289 9 289L9 287C5.13401 287 2 283.866 2 280L-3.49691e-07 280Z" fill="#A6AEBF"/>
<rect x="40.5" y="264.5" width="266" height="47" rx="7.5" stroke="#6A8EE8"/>
<path d="M81.068 293V291.684H80.816C79.4347 291.684 78.3987 291.348 77.708 290.676C77.0173 289.995 76.672 289.117 76.672 288.044C76.672 286.971 77.0173 286.098 77.708 285.426C78.3987 284.745 79.4347 284.404 80.816 284.404H81.068V283.284H82.496V284.404H82.748C84.1293 284.404 85.1653 284.745 85.856 285.426C86.5467 286.098 86.892 286.971 86.892 288.044C86.892 289.117 86.5467 289.995 85.856 290.676C85.1653 291.348 84.1293 291.684 82.748 291.684H82.496V293H81.068ZM81.068 290.368V285.72H80.788C79.892 285.72 79.22 285.935 78.772 286.364C78.324 286.784 78.1 287.344 78.1 288.044C78.1 288.744 78.324 289.309 78.772 289.738C79.22 290.158 79.892 290.368 80.788 290.368H81.068ZM82.496 285.72V290.368H82.776C83.672 290.368 84.344 290.158 84.792 289.738C85.24 289.309 85.464 288.744 85.464 288.044C85.464 287.344 85.24 286.784 84.792 286.364C84.344 285.935 83.672 285.72 82.776 285.72H82.496ZM89.0224 287.834C89.6291 287.246 90.3804 286.952 91.2764 286.952C92.1724 286.952 92.9191 287.246 93.5164 287.834C94.1231 288.413 94.4264 289.155 94.4264 290.06C94.4264 290.956 94.1231 291.703 93.5164 292.3C92.9191 292.888 92.1724 293.182 91.2764 293.182C90.3804 293.182 89.6291 292.888 89.0224 292.3C88.4251 291.703 88.1264 290.956 88.1264 290.06C88.1264 289.155 88.4251 288.413 89.0224 287.834ZM90.0024 291.446C90.3197 291.782 90.7444 291.95 91.2764 291.95C91.8084 291.95 92.2331 291.782 92.5504 291.446C92.8677 291.101 93.0264 290.643 93.0264 290.074C93.0264 289.449 92.8537 288.977 92.5084 288.66C92.1724 288.343 91.7617 288.184 91.2764 288.184C90.7911 288.184 90.3757 288.343 90.0304 288.66C89.6944 288.977 89.5264 289.449 89.5264 290.074C89.5264 290.643 89.6851 291.101 90.0024 291.446ZM97.2302 292.314V296.206H95.8582V287.106H97.2302V287.75C97.6782 287.218 98.2616 286.952 98.9802 286.952C99.7829 286.952 100.46 287.237 101.01 287.806C101.57 288.366 101.85 289.103 101.85 290.018C101.85 290.961 101.561 291.726 100.982 292.314C100.404 292.893 99.7409 293.182 98.9942 293.182C98.2942 293.182 97.7062 292.893 97.2302 292.314ZM98.8122 288.184C98.3456 288.184 97.9489 288.352 97.6222 288.688C97.3049 289.015 97.1462 289.481 97.1462 290.088C97.1462 290.676 97.3049 291.133 97.6222 291.46C97.9489 291.787 98.3456 291.95 98.8122 291.95C99.2976 291.95 99.6896 291.768 99.9882 291.404C100.296 291.04 100.45 290.597 100.45 290.074C100.45 289.542 100.296 289.094 99.9882 288.73C99.6896 288.366 99.2976 288.184 98.8122 288.184ZM102.61 293L104.038 286.574L106.474 291.068L108.91 286.574L110.338 293H108.938L108.35 290.046L106.474 293.448L104.598 290.046L104.01 293H102.61ZM115.715 287.792V287.106H117.087V293H115.715V292.384C115.258 292.916 114.67 293.182 113.951 293.182C113.083 293.182 112.388 292.874 111.865 292.258C111.352 291.642 111.095 290.905 111.095 290.046C111.095 289.113 111.37 288.366 111.921 287.806C112.481 287.237 113.162 286.952 113.965 286.952C114.702 286.952 115.286 287.232 115.715 287.792ZM114.133 288.184C113.648 288.184 113.251 288.366 112.943 288.73C112.644 289.094 112.495 289.542 112.495 290.074C112.495 290.597 112.644 291.04 112.943 291.404C113.251 291.768 113.648 291.95 114.133 291.95C114.6 291.95 114.992 291.787 115.309 291.46C115.636 291.133 115.799 290.676 115.799 290.088C115.799 289.481 115.636 289.015 115.309 288.688C114.992 288.352 114.6 288.184 114.133 288.184ZM123.467 292.314V296.206H122.095V287.106H123.467V287.75C123.915 287.218 124.498 286.952 125.217 286.952C126.019 286.952 126.696 287.237 127.247 287.806C127.807 288.366 128.087 289.103 128.087 290.018C128.087 290.961 127.797 291.726 127.219 292.314C126.64 292.893 125.977 293.182 125.231 293.182C124.531 293.182 123.943 292.893 123.467 292.314ZM125.049 288.184C124.582 288.184 124.185 288.352 123.859 288.688C123.541 289.015 123.383 289.481 123.383 290.088C123.383 290.676 123.541 291.133 123.859 291.46C124.185 291.787 124.582 291.95 125.049 291.95C125.534 291.95 125.926 291.768 126.225 291.404C126.533 291.04 126.687 290.597 126.687 290.074C126.687 289.542 126.533 289.094 126.225 288.73C125.926 288.366 125.534 288.184 125.049 288.184ZM133.648 291.012L134.796 291.656C134.535 292.123 134.204 292.482 133.802 292.734C133.345 293.033 132.766 293.182 132.066 293.182C131.245 293.182 130.582 292.93 130.078 292.426C129.5 291.847 129.21 291.096 129.21 290.172C129.21 289.201 129.523 288.394 130.148 287.75C130.68 287.218 131.338 286.952 132.122 286.952C132.888 286.952 133.518 287.209 134.012 287.722C134.563 288.291 134.838 289.122 134.838 290.214V290.382H130.61C130.648 290.877 130.816 291.273 131.114 291.572C131.366 291.824 131.716 291.95 132.164 291.95C132.528 291.95 132.841 291.852 133.102 291.656C133.317 291.488 133.499 291.273 133.648 291.012ZM130.708 289.262H133.438C133.382 288.935 133.242 288.669 133.018 288.464C132.776 288.24 132.468 288.128 132.094 288.128C131.702 288.128 131.38 288.254 131.128 288.506C130.923 288.693 130.783 288.945 130.708 289.262ZM136.776 287.106H141.2V291.74H142.096V294.68H140.836V293H136.72V294.68H135.46V291.74C135.936 291.712 136.296 291.455 136.538 290.97C136.697 290.625 136.776 290.107 136.776 289.416V287.106ZM139.828 291.74V288.366H138.092V289.934C138.092 290.783 137.864 291.385 137.406 291.74H139.828ZM147.393 287.792V287.106H148.765V293H147.393V292.384C146.936 292.916 146.348 293.182 145.629 293.182C144.761 293.182 144.066 292.874 143.543 292.258C143.03 291.642 142.773 290.905 142.773 290.046C142.773 289.113 143.048 288.366 143.599 287.806C144.159 287.237 144.84 286.952 145.643 286.952C146.38 286.952 146.964 287.232 147.393 287.792ZM145.811 288.184C145.326 288.184 144.929 288.366 144.621 288.73C144.322 289.094 144.173 289.542 144.173 290.074C144.173 290.597 144.322 291.04 144.621 291.404C144.929 291.768 145.326 291.95 145.811 291.95C146.278 291.95 146.67 291.787 146.987 291.46C147.314 291.133 147.477 290.676 147.477 290.088C147.477 289.481 147.314 289.015 146.987 288.688C146.67 288.352 146.278 288.184 145.811 288.184ZM150.505 287.106H151.877V289.206L153.837 287.106H155.657L153.081 289.682L155.797 293H154.061L152.101 290.578L151.877 290.802V293H150.505V287.106ZM160.895 288.366H159.173V293H157.801V288.366H156.079V287.106H160.895V288.366ZM161.88 287.106H163.252V290.452L167.284 286.574V293H165.912V289.57L161.88 293.448V287.106ZM170.388 292.314V296.206H169.016V287.106H170.388V287.75C170.836 287.218 171.42 286.952 172.138 286.952C172.941 286.952 173.618 287.237 174.168 287.806C174.728 288.366 175.008 289.103 175.008 290.018C175.008 290.961 174.719 291.726 174.14 292.314C173.562 292.893 172.899 293.182 172.152 293.182C171.452 293.182 170.864 292.893 170.388 292.314ZM171.97 288.184C171.504 288.184 171.107 288.352 170.78 288.688C170.463 289.015 170.304 289.481 170.304 290.088C170.304 290.676 170.463 291.133 170.78 291.46C171.107 291.787 171.504 291.95 171.97 291.95C172.456 291.95 172.848 291.768 173.146 291.404C173.454 291.04 173.608 290.597 173.608 290.074C173.608 289.542 173.454 289.094 173.146 288.73C172.848 288.366 172.456 288.184 171.97 288.184ZM177.028 287.834C177.635 287.246 178.386 286.952 179.282 286.952C180.178 286.952 180.925 287.246 181.522 287.834C182.129 288.413 182.432 289.155 182.432 290.06C182.432 290.956 182.129 291.703 181.522 292.3C180.925 292.888 180.178 293.182 179.282 293.182C178.386 293.182 177.635 292.888 177.028 292.3C176.431 291.703 176.132 290.956 176.132 290.06C176.132 289.155 176.431 288.413 177.028 287.834ZM178.008 291.446C178.326 291.782 178.75 291.95 179.282 291.95C179.814 291.95 180.239 291.782 180.556 291.446C180.874 291.101 181.032 290.643 181.032 290.074C181.032 289.449 180.86 288.977 180.514 288.66C180.178 288.343 179.768 288.184 179.282 288.184C178.797 288.184 178.382 288.343 178.036 288.66C177.7 288.977 177.532 289.449 177.532 290.074C177.532 290.643 177.691 291.101 178.008 291.446ZM183.864 287.106H186.174C186.762 287.106 187.21 287.223 187.518 287.456C187.882 287.745 188.064 288.123 188.064 288.59C188.064 289.122 187.831 289.505 187.364 289.738C187.663 289.794 187.929 289.925 188.162 290.13C188.47 290.41 188.624 290.788 188.624 291.264C188.624 291.833 188.409 292.281 187.98 292.608C187.625 292.869 187.173 293 186.622 293H183.864V287.106ZM185.236 289.402H185.936C186.179 289.402 186.361 289.36 186.482 289.276C186.659 289.164 186.748 289.005 186.748 288.8C186.748 288.604 186.669 288.45 186.51 288.338C186.398 288.263 186.197 288.226 185.908 288.226H185.236V289.402ZM185.236 291.88H186.258C186.566 291.88 186.804 291.824 186.972 291.712C187.159 291.591 187.252 291.418 187.252 291.194C187.252 290.951 187.163 290.779 186.986 290.676C186.827 290.573 186.599 290.522 186.3 290.522H185.236V291.88ZM194.369 287.792V287.106H195.741V293H194.369V292.384C193.912 292.916 193.324 293.182 192.605 293.182C191.737 293.182 191.042 292.874 190.519 292.258C190.006 291.642 189.749 290.905 189.749 290.046C189.749 289.113 190.025 288.366 190.575 287.806C191.135 287.237 191.817 286.952 192.619 286.952C193.357 286.952 193.94 287.232 194.369 287.792ZM192.787 288.184C192.302 288.184 191.905 288.366 191.597 288.73C191.299 289.094 191.149 289.542 191.149 290.074C191.149 290.597 191.299 291.04 191.597 291.404C191.905 291.768 192.302 291.95 192.787 291.95C193.254 291.95 193.646 291.787 193.963 291.46C194.29 291.133 194.453 290.676 194.453 290.088C194.453 289.481 194.29 289.015 193.963 288.688C193.646 288.352 193.254 288.184 192.787 288.184ZM197.481 293V287.106H198.853V289.29H201.289V287.106H202.661V293H201.289V290.55H198.853V293H197.481ZM204.399 287.106H205.771V290.452L209.803 286.574V293H208.431V289.57L204.399 293.448V287.106ZM210.78 293L212.628 290.662C212.264 290.606 211.951 290.457 211.69 290.214C211.363 289.897 211.2 289.491 211.2 288.996C211.2 288.436 211.382 287.983 211.746 287.638C212.119 287.283 212.689 287.106 213.454 287.106H215.652V293H214.28V290.83H214L212.39 293H210.78ZM214.28 289.71V288.282H213.482C213.155 288.282 212.917 288.324 212.768 288.408C212.544 288.548 212.432 288.744 212.432 288.996C212.432 289.248 212.525 289.439 212.712 289.57C212.852 289.663 213.104 289.71 213.468 289.71H214.28ZM220.655 287.106H225.779V293H224.407V288.366H222.027V293H220.655V287.106ZM228.89 292.314V296.206H227.518V287.106H228.89V287.75C229.338 287.218 229.922 286.952 230.64 286.952C231.443 286.952 232.12 287.237 232.67 287.806C233.23 288.366 233.51 289.103 233.51 290.018C233.51 290.961 233.221 291.726 232.642 292.314C232.064 292.893 231.401 293.182 230.654 293.182C229.954 293.182 229.366 292.893 228.89 292.314ZM230.472 288.184C230.006 288.184 229.609 288.352 229.282 288.688C228.965 289.015 228.806 289.481 228.806 290.088C228.806 290.676 228.965 291.133 229.282 291.46C229.609 291.787 230.006 291.95 230.472 291.95C230.958 291.95 231.35 291.768 231.648 291.404C231.956 291.04 232.11 290.597 232.11 290.074C232.11 289.542 231.956 289.094 231.648 288.73C231.35 288.366 230.958 288.184 230.472 288.184ZM235.53 287.834C236.137 287.246 236.888 286.952 237.784 286.952C238.68 286.952 239.427 287.246 240.024 287.834C240.631 288.413 240.934 289.155 240.934 290.06C240.934 290.956 240.631 291.703 240.024 292.3C239.427 292.888 238.68 293.182 237.784 293.182C236.888 293.182 236.137 292.888 235.53 292.3C234.933 291.703 234.634 290.956 234.634 290.06C234.634 289.155 234.933 288.413 235.53 287.834ZM236.51 291.446C236.828 291.782 237.252 291.95 237.784 291.95C238.316 291.95 238.741 291.782 239.058 291.446C239.376 291.101 239.534 290.643 239.534 290.074C239.534 289.449 239.362 288.977 239.016 288.66C238.68 288.343 238.27 288.184 237.784 288.184C237.299 288.184 236.884 288.343 236.538 288.66C236.202 288.977 236.034 289.449 236.034 290.074C236.034 290.643 236.193 291.101 236.51 291.446ZM245.502 296.206V293.098C244.494 293.107 243.687 292.851 243.08 292.328C242.417 291.768 242.086 291.007 242.086 290.046C242.086 289.094 242.413 288.338 243.066 287.778C243.663 287.265 244.475 287.008 245.502 287.008V283.662H246.874V287.008C247.901 287.008 248.713 287.265 249.31 287.778C249.963 288.338 250.29 289.094 250.29 290.046C250.29 291.007 249.959 291.768 249.296 292.328C248.689 292.851 247.882 293.107 246.874 293.098V296.206H245.502ZM245.502 291.866V288.24C244.961 288.24 244.531 288.343 244.214 288.548C243.729 288.837 243.486 289.337 243.486 290.046C243.486 290.709 243.715 291.199 244.172 291.516C244.527 291.768 244.97 291.885 245.502 291.866ZM246.874 288.24V291.866C247.406 291.885 247.849 291.768 248.204 291.516C248.661 291.199 248.89 290.709 248.89 290.046C248.89 289.337 248.647 288.837 248.162 288.548C247.845 288.343 247.415 288.24 246.874 288.24ZM251.745 287.106H253.117V290.452L257.149 286.574V293H255.777V289.57L251.745 293.448V287.106ZM263.726 287.106V293H262.354V288.366H260.618V290.704C260.618 291.432 260.431 291.997 260.058 292.398C259.582 292.93 258.938 293.131 258.126 293V291.74C258.527 291.833 258.849 291.745 259.092 291.474C259.232 291.306 259.302 291.049 259.302 290.704V287.106H263.726ZM264.702 293L266.55 290.662C266.186 290.606 265.873 290.457 265.612 290.214C265.285 289.897 265.122 289.491 265.122 288.996C265.122 288.436 265.304 287.983 265.668 287.638C266.041 287.283 266.611 287.106 267.376 287.106H269.574V293H268.202V290.83H267.922L266.312 293H264.702ZM268.202 289.71V288.282H267.404C267.077 288.282 266.839 288.324 266.69 288.408C266.466 288.548 266.354 288.744 266.354 288.996C266.354 289.248 266.447 289.439 266.634 289.57C266.774 289.663 267.026 289.71 267.39 289.71H268.202Z" fill="black"/>
</svg>
