<svg width="240" height="400" viewBox="0 0 240 400" fill="none" xmlns="http://www.w3.org/2000/svg">
<rect x="40" width="102" height="48" rx="8" fill="#D2DDF8"/>
<path d="M81.936 29V25.164C81.0867 25.2293 80.452 25.262 80.032 25.262C78.996 25.262 78.2353 25.0707 77.75 24.688C77.1433 24.212 76.84 23.456 76.84 22.42V19.662H78.268V22.21C78.268 22.91 78.436 23.3907 78.772 23.652C79.024 23.848 79.5187 23.946 80.256 23.946C80.788 23.946 81.348 23.9133 81.936 23.848V19.662H83.364V29H81.936ZM89.6702 23.792V23.106H91.0422V29H89.6702V28.384C89.2129 28.916 88.6249 29.182 87.9062 29.182C87.0382 29.182 86.3429 28.874 85.8202 28.258C85.3069 27.642 85.0502 26.9047 85.0502 26.046C85.0502 25.1127 85.3256 24.366 85.8762 23.806C86.4362 23.2367 87.1176 22.952 87.9202 22.952C88.6576 22.952 89.2409 23.232 89.6702 23.792ZM88.0882 24.184C87.6029 24.184 87.2062 24.366 86.8982 24.73C86.5996 25.094 86.4502 25.542 86.4502 26.074C86.4502 26.5967 86.5996 27.04 86.8982 27.404C87.2062 27.768 87.6029 27.95 88.0882 27.95C88.5549 27.95 88.9469 27.7867 89.2642 27.46C89.5909 27.1333 89.7542 26.676 89.7542 26.088C89.7542 25.4813 89.5909 25.0147 89.2642 24.688C88.9469 24.352 88.5549 24.184 88.0882 24.184ZM96.8421 24.366H95.1201V29H93.7481V24.366H92.0261V23.106H96.8421V24.366ZM97.827 29V23.106H99.199V25.192H99.983C100.235 25.192 100.44 25.2013 100.599 25.22C100.758 25.2293 100.949 25.2807 101.173 25.374C101.397 25.4673 101.593 25.6073 101.761 25.794C102.069 26.1393 102.223 26.5687 102.223 27.082C102.223 27.67 102.046 28.1413 101.691 28.496C101.532 28.6547 101.341 28.776 101.117 28.86C100.902 28.9347 100.72 28.9767 100.571 28.986C100.431 28.9953 100.23 29 99.969 29H97.827ZM99.199 27.824H99.829C100.165 27.824 100.403 27.782 100.543 27.698C100.748 27.5487 100.851 27.348 100.851 27.096C100.851 26.8347 100.753 26.6387 100.557 26.508C100.408 26.4147 100.17 26.368 99.843 26.368H99.199V27.824ZM102.839 29V23.106H104.211V29H102.839Z" fill="black"/>
<rect x="40.5" y="88.5" width="178" height="47" rx="7.5" stroke="#6A8EE8"/>
<path d="M77.12 107.662H83.98V117H82.552V109.006H78.548V117H77.12V107.662ZM90.2855 111.792V111.106H91.6575V117H90.2855V116.384C89.8281 116.916 89.2401 117.182 88.5215 117.182C87.6535 117.182 86.9581 116.874 86.4355 116.258C85.9221 115.642 85.6655 114.905 85.6655 114.046C85.6655 113.113 85.9408 112.366 86.4915 111.806C87.0515 111.237 87.7328 110.952 88.5355 110.952C89.2728 110.952 89.8561 111.232 90.2855 111.792ZM88.7035 112.184C88.2181 112.184 87.8215 112.366 87.5135 112.73C87.2148 113.094 87.0655 113.542 87.0655 114.074C87.0655 114.597 87.2148 115.04 87.5135 115.404C87.8215 115.768 88.2181 115.95 88.7035 115.95C89.1701 115.95 89.5621 115.787 89.8795 115.46C90.2061 115.133 90.3695 114.676 90.3695 114.088C90.3695 113.481 90.2061 113.015 89.8795 112.688C89.5621 112.352 89.1701 112.184 88.7035 112.184ZM93.3973 117V111.106H94.7693V113.29H97.2053V111.106H98.5773V117H97.2053V114.55H94.7693V117H93.3973ZM104.445 115.012L105.593 115.656C105.332 116.123 105.001 116.482 104.599 116.734C104.142 117.033 103.563 117.182 102.863 117.182C102.042 117.182 101.379 116.93 100.875 116.426C100.297 115.847 100.007 115.096 100.007 114.172C100.007 113.201 100.32 112.394 100.945 111.75C101.477 111.218 102.135 110.952 102.919 110.952C103.685 110.952 104.315 111.209 104.809 111.722C105.36 112.291 105.635 113.122 105.635 114.214V114.382H101.407C101.445 114.877 101.613 115.273 101.911 115.572C102.163 115.824 102.513 115.95 102.961 115.95C103.325 115.95 103.638 115.852 103.899 115.656C104.114 115.488 104.296 115.273 104.445 115.012ZM101.505 113.262H104.235C104.179 112.935 104.039 112.669 103.815 112.464C103.573 112.24 103.265 112.128 102.891 112.128C102.499 112.128 102.177 112.254 101.925 112.506C101.72 112.693 101.58 112.945 101.505 113.262ZM111.913 111.106V117H110.541V112.366H108.805V114.704C108.805 115.432 108.619 115.997 108.245 116.398C107.769 116.93 107.125 117.131 106.313 117V115.74C106.715 115.833 107.037 115.745 107.279 115.474C107.419 115.306 107.489 115.049 107.489 114.704V111.106H111.913ZM113.645 117V111.106H115.017V113.192H115.801C116.053 113.192 116.259 113.201 116.417 113.22C116.576 113.229 116.767 113.281 116.991 113.374C117.215 113.467 117.411 113.607 117.579 113.794C117.887 114.139 118.041 114.569 118.041 115.082C118.041 115.67 117.864 116.141 117.509 116.496C117.351 116.655 117.159 116.776 116.935 116.86C116.721 116.935 116.539 116.977 116.389 116.986C116.249 116.995 116.049 117 115.787 117H113.645ZM115.017 115.824H115.647C115.983 115.824 116.221 115.782 116.361 115.698C116.567 115.549 116.669 115.348 116.669 115.096C116.669 114.835 116.571 114.639 116.375 114.508C116.226 114.415 115.988 114.368 115.661 114.368H115.017V115.824ZM122.518 117V111.106H123.89V113.29H126.326V111.106H127.698V117H126.326V114.55H123.89V117H122.518ZM133.748 111.792V111.106H135.12V117H133.748V116.384C133.291 116.916 132.703 117.182 131.984 117.182C131.116 117.182 130.421 116.874 129.898 116.258C129.385 115.642 129.128 114.905 129.128 114.046C129.128 113.113 129.404 112.366 129.954 111.806C130.514 111.237 131.196 110.952 131.998 110.952C132.736 110.952 133.319 111.232 133.748 111.792ZM132.166 112.184C131.681 112.184 131.284 112.366 130.976 112.73C130.678 113.094 130.528 113.542 130.528 114.074C130.528 114.597 130.678 115.04 130.976 115.404C131.284 115.768 131.681 115.95 132.166 115.95C132.633 115.95 133.025 115.787 133.342 115.46C133.669 115.133 133.832 114.676 133.832 114.088C133.832 113.481 133.669 113.015 133.342 112.688C133.025 112.352 132.633 112.184 132.166 112.184ZM136.86 111.106H139.17C139.758 111.106 140.206 111.223 140.514 111.456C140.878 111.745 141.06 112.123 141.06 112.59C141.06 113.122 140.827 113.505 140.36 113.738C140.659 113.794 140.925 113.925 141.158 114.13C141.466 114.41 141.62 114.788 141.62 115.264C141.62 115.833 141.406 116.281 140.976 116.608C140.622 116.869 140.169 117 139.618 117H136.86V111.106ZM138.232 113.402H138.932C139.175 113.402 139.357 113.36 139.478 113.276C139.656 113.164 139.744 113.005 139.744 112.8C139.744 112.604 139.665 112.45 139.506 112.338C139.394 112.263 139.194 112.226 138.904 112.226H138.232V113.402ZM138.232 115.88H139.254C139.562 115.88 139.8 115.824 139.968 115.712C140.155 115.591 140.248 115.418 140.248 115.194C140.248 114.951 140.16 114.779 139.982 114.676C139.824 114.573 139.595 114.522 139.296 114.522H138.232V115.88ZM143.054 111.106H144.426V114.452L148.458 110.574V117H147.086V113.57L143.054 117.448V111.106ZM150.19 117V111.106H153.802V112.366H151.562V117H150.19ZM158.959 111.792V111.106H160.331V117H158.959V116.384C158.502 116.916 157.914 117.182 157.195 117.182C156.327 117.182 155.632 116.874 155.109 116.258C154.596 115.642 154.339 114.905 154.339 114.046C154.339 113.113 154.615 112.366 155.165 111.806C155.725 111.237 156.407 110.952 157.209 110.952C157.947 110.952 158.53 111.232 158.959 111.792ZM157.377 112.184C156.892 112.184 156.495 112.366 156.187 112.73C155.889 113.094 155.739 113.542 155.739 114.074C155.739 114.597 155.889 115.04 156.187 115.404C156.495 115.768 156.892 115.95 157.377 115.95C157.844 115.95 158.236 115.787 158.553 115.46C158.88 115.133 159.043 114.676 159.043 114.088C159.043 113.481 158.88 113.015 158.553 112.688C158.236 112.352 157.844 112.184 157.377 112.184ZM162.071 117V111.106H163.443V115.74H165.767V111.106H167.139V115.74H168.119V118.68H166.859V117H162.071ZM169.098 111.106H170.47V114.452L174.502 110.574V117H173.13V113.57L169.098 117.448V111.106ZM176.235 111.106H177.607V114.452L181.639 110.574V117H180.267V113.57L176.235 117.448V111.106Z" fill="black"/>
<rect x="40.5" y="176.5" width="101" height="47" rx="7.5" stroke="#6A8EE8"/>
<path d="M81.936 205V201.164C81.0867 201.229 80.452 201.262 80.032 201.262C78.996 201.262 78.2353 201.071 77.75 200.688C77.1433 200.212 76.84 199.456 76.84 198.42V195.662H78.268V198.21C78.268 198.91 78.436 199.391 78.772 199.652C79.024 199.848 79.5187 199.946 80.256 199.946C80.788 199.946 81.348 199.913 81.936 199.848V195.662H83.364V205H81.936ZM89.6702 199.792V199.106H91.0422V205H89.6702V204.384C89.2129 204.916 88.6249 205.182 87.9062 205.182C87.0382 205.182 86.3429 204.874 85.8202 204.258C85.3069 203.642 85.0502 202.905 85.0502 202.046C85.0502 201.113 85.3256 200.366 85.8762 199.806C86.4362 199.237 87.1176 198.952 87.9202 198.952C88.6576 198.952 89.2409 199.232 89.6702 199.792ZM88.0882 200.184C87.6029 200.184 87.2062 200.366 86.8982 200.73C86.5996 201.094 86.4502 201.542 86.4502 202.074C86.4502 202.597 86.5996 203.04 86.8982 203.404C87.2062 203.768 87.6029 203.95 88.0882 203.95C88.5549 203.95 88.9469 203.787 89.2642 203.46C89.5909 203.133 89.7542 202.676 89.7542 202.088C89.7542 201.481 89.5909 201.015 89.2642 200.688C88.9469 200.352 88.5549 200.184 88.0882 200.184ZM96.8421 200.366H95.1201V205H93.7481V200.366H92.0261V199.106H96.8421V200.366ZM97.827 205V199.106H99.199V201.192H99.983C100.235 201.192 100.44 201.201 100.599 201.22C100.758 201.229 100.949 201.281 101.173 201.374C101.397 201.467 101.593 201.607 101.761 201.794C102.069 202.139 102.223 202.569 102.223 203.082C102.223 203.67 102.046 204.141 101.691 204.496C101.532 204.655 101.341 204.776 101.117 204.86C100.902 204.935 100.72 204.977 100.571 204.986C100.431 204.995 100.23 205 99.969 205H97.827ZM99.199 203.824H99.829C100.165 203.824 100.403 203.782 100.543 203.698C100.748 203.549 100.851 203.348 100.851 203.096C100.851 202.835 100.753 202.639 100.557 202.508C100.408 202.415 100.17 202.368 99.843 202.368H99.199V203.824ZM102.839 205V199.106H104.211V205H102.839Z" fill="black"/>
<rect x="40.5" y="264.5" width="199" height="47" rx="7.5" stroke="#6A8EE8"/>
<path d="M81.068 293V291.684H80.816C79.4347 291.684 78.3987 291.348 77.708 290.676C77.0173 289.995 76.672 289.117 76.672 288.044C76.672 286.971 77.0173 286.098 77.708 285.426C78.3987 284.745 79.4347 284.404 80.816 284.404H81.068V283.284H82.496V284.404H82.748C84.1293 284.404 85.1653 284.745 85.856 285.426C86.5467 286.098 86.892 286.971 86.892 288.044C86.892 289.117 86.5467 289.995 85.856 290.676C85.1653 291.348 84.1293 291.684 82.748 291.684H82.496V293H81.068ZM81.068 290.368V285.72H80.788C79.892 285.72 79.22 285.935 78.772 286.364C78.324 286.784 78.1 287.344 78.1 288.044C78.1 288.744 78.324 289.309 78.772 289.738C79.22 290.158 79.892 290.368 80.788 290.368H81.068ZM82.496 285.72V290.368H82.776C83.672 290.368 84.344 290.158 84.792 289.738C85.24 289.309 85.464 288.744 85.464 288.044C85.464 287.344 85.24 286.784 84.792 286.364C84.344 285.935 83.672 285.72 82.776 285.72H82.496ZM89.0224 287.834C89.6291 287.246 90.3804 286.952 91.2764 286.952C92.1724 286.952 92.9191 287.246 93.5164 287.834C94.1231 288.413 94.4264 289.155 94.4264 290.06C94.4264 290.956 94.1231 291.703 93.5164 292.3C92.9191 292.888 92.1724 293.182 91.2764 293.182C90.3804 293.182 89.6291 292.888 89.0224 292.3C88.4251 291.703 88.1264 290.956 88.1264 290.06C88.1264 289.155 88.4251 288.413 89.0224 287.834ZM90.0024 291.446C90.3197 291.782 90.7444 291.95 91.2764 291.95C91.8084 291.95 92.2331 291.782 92.5504 291.446C92.8677 291.101 93.0264 290.643 93.0264 290.074C93.0264 289.449 92.8537 288.977 92.5084 288.66C92.1724 288.343 91.7617 288.184 91.2764 288.184C90.7911 288.184 90.3757 288.343 90.0304 288.66C89.6944 288.977 89.5264 289.449 89.5264 290.074C89.5264 290.643 89.6851 291.101 90.0024 291.446ZM97.2302 292.314V296.206H95.8582V287.106H97.2302V287.75C97.6782 287.218 98.2616 286.952 98.9802 286.952C99.7829 286.952 100.46 287.237 101.01 287.806C101.57 288.366 101.85 289.103 101.85 290.018C101.85 290.961 101.561 291.726 100.982 292.314C100.404 292.893 99.7409 293.182 98.9942 293.182C98.2942 293.182 97.7062 292.893 97.2302 292.314ZM98.8122 288.184C98.3456 288.184 97.9489 288.352 97.6222 288.688C97.3049 289.015 97.1462 289.481 97.1462 290.088C97.1462 290.676 97.3049 291.133 97.6222 291.46C97.9489 291.787 98.3456 291.95 98.8122 291.95C99.2976 291.95 99.6896 291.768 99.9882 291.404C100.296 291.04 100.45 290.597 100.45 290.074C100.45 289.542 100.296 289.094 99.9882 288.73C99.6896 288.366 99.2976 288.184 98.8122 288.184ZM102.61 293L104.038 286.574L106.474 291.068L108.91 286.574L110.338 293H108.938L108.35 290.046L106.474 293.448L104.598 290.046L104.01 293H102.61ZM115.715 287.792V287.106H117.087V293H115.715V292.384C115.258 292.916 114.67 293.182 113.951 293.182C113.083 293.182 112.388 292.874 111.865 292.258C111.352 291.642 111.095 290.905 111.095 290.046C111.095 289.113 111.37 288.366 111.921 287.806C112.481 287.237 113.162 286.952 113.965 286.952C114.702 286.952 115.286 287.232 115.715 287.792ZM114.133 288.184C113.648 288.184 113.251 288.366 112.943 288.73C112.644 289.094 112.495 289.542 112.495 290.074C112.495 290.597 112.644 291.04 112.943 291.404C113.251 291.768 113.648 291.95 114.133 291.95C114.6 291.95 114.992 291.787 115.309 291.46C115.636 291.133 115.799 290.676 115.799 290.088C115.799 289.481 115.636 289.015 115.309 288.688C114.992 288.352 114.6 288.184 114.133 288.184ZM126.659 287.372V288.912C126.164 288.427 125.609 288.184 124.993 288.184C124.47 288.184 124.036 288.357 123.691 288.702C123.355 289.038 123.187 289.491 123.187 290.06C123.187 290.648 123.364 291.119 123.719 291.474C124.055 291.791 124.47 291.95 124.965 291.95C125.646 291.95 126.211 291.698 126.659 291.194V292.72C126.164 293.028 125.567 293.182 124.867 293.182C123.924 293.182 123.177 292.893 122.627 292.314C122.067 291.735 121.787 290.998 121.787 290.102C121.787 289.178 122.085 288.417 122.683 287.82C123.261 287.241 124.05 286.952 125.049 286.952C125.618 286.952 126.155 287.092 126.659 287.372ZM128.561 287.834C129.168 287.246 129.919 286.952 130.815 286.952C131.711 286.952 132.458 287.246 133.055 287.834C133.662 288.413 133.965 289.155 133.965 290.06C133.965 290.956 133.662 291.703 133.055 292.3C132.458 292.888 131.711 293.182 130.815 293.182C129.919 293.182 129.168 292.888 128.561 292.3C127.964 291.703 127.665 290.956 127.665 290.06C127.665 289.155 127.964 288.413 128.561 287.834ZM129.541 291.446C129.859 291.782 130.283 291.95 130.815 291.95C131.347 291.95 131.772 291.782 132.089 291.446C132.407 291.101 132.565 290.643 132.565 290.074C132.565 289.449 132.393 288.977 132.047 288.66C131.711 288.343 131.301 288.184 130.815 288.184C130.33 288.184 129.915 288.343 129.569 288.66C129.233 288.977 129.065 289.449 129.065 290.074C129.065 290.643 129.224 291.101 129.541 291.446ZM135.895 288.632L135.013 287.862C135.237 287.591 135.535 287.372 135.909 287.204C136.301 287.036 136.763 286.952 137.295 286.952C137.911 286.952 138.41 287.087 138.793 287.358C139.203 287.657 139.409 288.058 139.409 288.562C139.409 288.889 139.325 289.159 139.157 289.374C139.017 289.561 138.83 289.701 138.597 289.794C138.951 289.869 139.236 290.013 139.451 290.228C139.703 290.48 139.829 290.807 139.829 291.208C139.829 291.74 139.661 292.174 139.325 292.51C138.877 292.958 138.186 293.182 137.253 293.182C136.627 293.182 136.114 293.065 135.713 292.832C135.293 292.589 134.985 292.239 134.789 291.782L135.881 291.222C136.011 291.502 136.184 291.707 136.399 291.838C136.632 291.987 136.926 292.062 137.281 292.062C137.71 292.062 138.023 291.964 138.219 291.768C138.359 291.609 138.429 291.437 138.429 291.25C138.429 291.054 138.368 290.895 138.247 290.774C138.088 290.606 137.761 290.522 137.267 290.522H136.651V289.402H137.169C137.467 289.402 137.691 289.351 137.841 289.248C138.009 289.117 138.093 288.945 138.093 288.73C138.093 288.506 138.009 288.338 137.841 288.226C137.701 288.123 137.481 288.072 137.183 288.072C136.903 288.072 136.646 288.128 136.413 288.24C136.217 288.333 136.044 288.464 135.895 288.632ZM141.767 287.106H146.191V291.74H147.087V294.68H145.827V293H141.711V294.68H140.451V291.74C140.927 291.712 141.286 291.455 141.529 290.97C141.687 290.625 141.767 290.107 141.767 289.416V287.106ZM144.819 291.74V288.366H143.083V289.934C143.083 290.783 142.854 291.385 142.397 291.74H144.819ZM152.383 287.792V287.106H153.755V293H152.383V292.384C151.926 292.916 151.338 293.182 150.619 293.182C149.751 293.182 149.056 292.874 148.533 292.258C148.02 291.642 147.763 290.905 147.763 290.046C147.763 289.113 148.038 288.366 148.589 287.806C149.149 287.237 149.83 286.952 150.633 286.952C151.37 286.952 151.954 287.232 152.383 287.792ZM150.801 288.184C150.316 288.184 149.919 288.366 149.611 288.73C149.312 289.094 149.163 289.542 149.163 290.074C149.163 290.597 149.312 291.04 149.611 291.404C149.919 291.768 150.316 291.95 150.801 291.95C151.268 291.95 151.66 291.787 151.977 291.46C152.304 291.133 152.467 290.676 152.467 290.088C152.467 289.481 152.304 289.015 151.977 288.688C151.66 288.352 151.268 288.184 150.801 288.184ZM155.495 293V287.106H156.867V289.29H159.303V287.106H160.675V293H159.303V290.55H156.867V293H155.495ZM162.413 287.106H163.785V290.452L167.817 286.574V293H166.445V289.57L162.413 293.448V287.106ZM168.794 293L170.642 290.662C170.278 290.606 169.965 290.457 169.704 290.214C169.377 289.897 169.214 289.491 169.214 288.996C169.214 288.436 169.396 287.983 169.76 287.638C170.133 287.283 170.702 287.106 171.468 287.106H173.666V293H172.294V290.83H172.014L170.404 293H168.794ZM172.294 289.71V288.282H171.496C171.169 288.282 170.931 288.324 170.782 288.408C170.558 288.548 170.446 288.744 170.446 288.996C170.446 289.248 170.539 289.439 170.726 289.57C170.866 289.663 171.118 289.71 171.482 289.71H172.294ZM181.861 293V290.718C181.441 290.802 181.039 290.844 180.657 290.844C179.985 290.844 179.467 290.699 179.103 290.41C178.72 290.102 178.529 289.631 178.529 288.996V287.106H179.901V288.716C179.901 289.117 180.017 289.388 180.251 289.528C180.409 289.621 180.638 289.668 180.937 289.668C181.273 289.668 181.581 289.617 181.861 289.514V287.106H183.233V293H181.861ZM189.284 287.792V287.106H190.656V293H189.284V292.384C188.826 292.916 188.238 293.182 187.52 293.182C186.652 293.182 185.956 292.874 185.434 292.258C184.92 291.642 184.664 290.905 184.664 290.046C184.664 289.113 184.939 288.366 185.49 287.806C186.05 287.237 186.731 286.952 187.534 286.952C188.271 286.952 188.854 287.232 189.284 287.792ZM187.702 288.184C187.216 288.184 186.82 288.366 186.512 288.73C186.213 289.094 186.064 289.542 186.064 290.074C186.064 290.597 186.213 291.04 186.512 291.404C186.82 291.768 187.216 291.95 187.702 291.95C188.168 291.95 188.56 291.787 188.878 291.46C189.204 291.133 189.368 290.676 189.368 290.088C189.368 289.481 189.204 289.015 188.878 288.688C188.56 288.352 188.168 288.184 187.702 288.184ZM196.455 288.366H194.733V293H193.361V288.366H191.639V287.106H196.455V288.366ZM201.602 287.792V287.106H202.974V293H201.602V292.384C201.145 292.916 200.557 293.182 199.838 293.182C198.97 293.182 198.275 292.874 197.752 292.258C197.239 291.642 196.982 290.905 196.982 290.046C196.982 289.113 197.257 288.366 197.808 287.806C198.368 287.237 199.049 286.952 199.852 286.952C200.589 286.952 201.173 287.232 201.602 287.792ZM200.02 288.184C199.535 288.184 199.138 288.366 198.83 288.73C198.531 289.094 198.382 289.542 198.382 290.074C198.382 290.597 198.531 291.04 198.83 291.404C199.138 291.768 199.535 291.95 200.02 291.95C200.487 291.95 200.879 291.787 201.196 291.46C201.523 291.133 201.686 290.676 201.686 290.088C201.686 289.481 201.523 289.015 201.196 288.688C200.879 288.352 200.487 288.184 200.02 288.184Z" fill="black"/>
<rect x="40.5" y="352.5" width="92" height="47" rx="7.5" stroke="#6A8EE8"/>
<path d="M81.936 381V377.164C81.0867 377.229 80.452 377.262 80.032 377.262C78.996 377.262 78.2353 377.071 77.75 376.688C77.1433 376.212 76.84 375.456 76.84 374.42V371.662H78.268V374.21C78.268 374.91 78.436 375.391 78.772 375.652C79.024 375.848 79.5187 375.946 80.256 375.946C80.788 375.946 81.348 375.913 81.936 375.848V371.662H83.364V381H81.936ZM89.6702 375.792V375.106H91.0422V381H89.6702V380.384C89.2129 380.916 88.6249 381.182 87.9062 381.182C87.0382 381.182 86.3429 380.874 85.8202 380.258C85.3069 379.642 85.0502 378.905 85.0502 378.046C85.0502 377.113 85.3256 376.366 85.8762 375.806C86.4362 375.237 87.1176 374.952 87.9202 374.952C88.6576 374.952 89.2409 375.232 89.6702 375.792ZM88.0882 376.184C87.6029 376.184 87.2062 376.366 86.8982 376.73C86.5996 377.094 86.4502 377.542 86.4502 378.074C86.4502 378.597 86.5996 379.04 86.8982 379.404C87.2062 379.768 87.6029 379.95 88.0882 379.95C88.5549 379.95 88.9469 379.787 89.2642 379.46C89.5909 379.133 89.7542 378.676 89.7542 378.088C89.7542 377.481 89.5909 377.015 89.2642 376.688C88.9469 376.352 88.5549 376.184 88.0882 376.184ZM96.8421 376.366H95.1201V381H93.7481V376.366H92.0261V375.106H96.8421V376.366Z" fill="black"/>
<path d="M1 199.1C0.447715 199.1 -1.23907e-07 199.548 0 200.1C1.23907e-07 200.652 0.447715 201.1 1 201.1L1 199.1ZM39.7071 200.807C40.0976 200.417 40.0976 199.784 39.7071 199.393L33.3431 193.029C32.9526 192.639 32.3194 192.639 31.9289 193.029C31.5384 193.42 31.5384 194.053 31.9289 194.443L37.5858 200.1L31.9289 205.757C31.5384 206.147 31.5384 206.781 31.9289 207.171C32.3194 207.562 32.9526 207.562 33.3431 207.171L39.7071 200.807ZM1 201.1L39 201.1L39 199.1L1 199.1L1 201.1Z" fill="#A6AEBF"/>
<path d="M1 287.35C0.447715 287.35 -1.23907e-07 287.798 0 288.35C1.23907e-07 288.902 0.447715 289.35 1 289.35L1 287.35ZM39.7071 289.057C40.0976 288.667 40.0976 288.034 39.7071 287.643L33.3431 281.279C32.9526 280.889 32.3194 280.889 31.9289 281.279C31.5384 281.67 31.5384 282.303 31.9289 282.693L37.5858 288.35L31.9289 294.007C31.5384 294.397 31.5384 295.031 31.9289 295.421C32.3194 295.812 32.9526 295.812 33.3431 295.421L39.7071 289.057ZM1 289.35L39 289.35L39 287.35L1 287.35L1 289.35Z" fill="#A6AEBF"/>
<path d="M1 110.975C0.447715 110.975 -1.23907e-07 111.423 0 111.975C1.23907e-07 112.527 0.447715 112.975 1 112.975L1 110.975ZM39.7071 112.682C40.0976 112.292 40.0976 111.659 39.7071 111.268L33.3431 104.904C32.9526 104.514 32.3194 104.514 31.9289 104.904C31.5384 105.295 31.5384 105.928 31.9289 106.318L37.5858 111.975L31.9289 117.632C31.5384 118.022 31.5384 118.656 31.9289 119.046C32.3194 119.437 32.9526 119.437 33.3431 119.046L39.7071 112.682ZM1 112.975L39 112.975L39 110.975L1 110.975L1 112.975Z" fill="#A6AEBF"/>
<path d="M39 25L40 25L40 23L39 23L39 25ZM39.7071 376.707C40.0976 376.317 40.0976 375.683 39.7071 375.293L33.3432 368.929C32.9526 368.538 32.3195 368.538 31.9289 368.929C31.5384 369.319 31.5384 369.953 31.9289 370.343L37.5858 376L31.9289 381.657C31.5384 382.047 31.5384 382.681 31.9289 383.071C32.3195 383.462 32.9526 383.462 33.3432 383.071L39.7071 376.707ZM2 368L1.99998 32L-1.50367e-05 32L-3.49691e-07 368L2 368ZM8.99998 25L39 25L39 23L8.99998 23L8.99998 25ZM39 375L9 375L9 377L39 377L39 375ZM1.99998 32C1.99998 28.134 5.13399 25 8.99998 25L8.99998 23C4.02942 23 -1.5254e-05 27.0294 -1.50367e-05 32L1.99998 32ZM-3.49691e-07 368C-1.32421e-07 372.971 4.02944 377 9 377L9 375C5.13401 375 2 371.866 2 368L-3.49691e-07 368Z" fill="#A6AEBF"/>
</svg>
