<svg width="517" height="312" viewBox="0 0 517 312" fill="none" xmlns="http://www.w3.org/2000/svg">
<rect x="40" width="148" height="48" rx="8" fill="#D2DDF8"/>
<path d="M76.084 19.662H77.82L80.228 24.646L82.412 19.662H83.896L79.682 29H78.198L79.402 26.354L76.084 19.662ZM84.0184 23.106H86.3284C86.9164 23.106 87.3644 23.2227 87.6724 23.456C88.0364 23.7453 88.2184 24.1233 88.2184 24.59C88.2184 25.122 87.9851 25.5047 87.5184 25.738C87.8171 25.794 88.0831 25.9247 88.3164 26.13C88.6244 26.41 88.7784 26.788 88.7784 27.264C88.7784 27.8333 88.5637 28.2813 88.1344 28.608C87.7797 28.8693 87.3271 29 86.7764 29H84.0184V23.106ZM85.3904 25.402H86.0904C86.3331 25.402 86.5151 25.36 86.6364 25.276C86.8137 25.164 86.9024 25.0053 86.9024 24.8C86.9024 24.604 86.8231 24.45 86.6644 24.338C86.5524 24.2633 86.3517 24.226 86.0624 24.226H85.3904V25.402ZM85.3904 27.88H86.4124C86.7204 27.88 86.9584 27.824 87.1264 27.712C87.3131 27.5907 87.4064 27.418 87.4064 27.194C87.4064 26.9513 87.3177 26.7787 87.1404 26.676C86.9817 26.5733 86.7531 26.522 86.4544 26.522H85.3904V27.88ZM94.3418 27.012L95.4898 27.656C95.2284 28.1227 94.8971 28.482 94.4958 28.734C94.0384 29.0327 93.4598 29.182 92.7598 29.182C91.9384 29.182 91.2758 28.93 90.7718 28.426C90.1931 27.8473 89.9038 27.096 89.9038 26.172C89.9038 25.2013 90.2164 24.394 90.8418 23.75C91.3738 23.218 92.0318 22.952 92.8158 22.952C93.5811 22.952 94.2111 23.2087 94.7058 23.722C95.2564 24.2913 95.5318 25.122 95.5318 26.214V26.382H91.3038C91.3411 26.8767 91.5091 27.2733 91.8078 27.572C92.0598 27.824 92.4098 27.95 92.8578 27.95C93.2218 27.95 93.5344 27.852 93.7958 27.656C94.0104 27.488 94.1924 27.2733 94.3418 27.012ZM91.4017 25.262H94.1318C94.0758 24.9353 93.9358 24.6693 93.7118 24.464C93.4691 24.24 93.1611 24.128 92.7878 24.128C92.3958 24.128 92.0738 24.254 91.8218 24.506C91.6164 24.6927 91.4764 24.9447 91.4017 25.262ZM97.4697 23.106H101.894V27.74H102.79V30.68H101.53V29H97.4137V30.68H96.1537V27.74C96.6297 27.712 96.989 27.4553 97.2317 26.97C97.3903 26.6247 97.4697 26.1067 97.4697 25.416V23.106ZM100.522 27.74V24.366H98.7857V25.934C98.7857 26.7833 98.557 27.3853 98.0997 27.74H100.522ZM104.362 23.834C104.969 23.246 105.72 22.952 106.616 22.952C107.512 22.952 108.259 23.246 108.856 23.834C109.463 24.4127 109.766 25.1547 109.766 26.06C109.766 26.956 109.463 27.7027 108.856 28.3C108.259 28.888 107.512 29.182 106.616 29.182C105.72 29.182 104.969 28.888 104.362 28.3C103.765 27.7027 103.466 26.956 103.466 26.06C103.466 25.1547 103.765 24.4127 104.362 23.834ZM105.342 27.446C105.66 27.782 106.084 27.95 106.616 27.95C107.148 27.95 107.573 27.782 107.89 27.446C108.208 27.1007 108.366 26.6433 108.366 26.074C108.366 25.4487 108.194 24.9773 107.848 24.66C107.512 24.3427 107.102 24.184 106.616 24.184C106.131 24.184 105.716 24.3427 105.37 24.66C105.034 24.9773 104.866 25.4487 104.866 26.074C104.866 26.6433 105.025 27.1007 105.342 27.446ZM110.526 29L111.954 22.574L114.39 27.068L116.826 22.574L118.254 29H116.854L116.266 26.046L114.39 29.448L112.514 26.046L111.926 29H110.526ZM124.464 23.106V29H123.092V24.366H121.356V26.704C121.356 27.432 121.169 27.9967 120.796 28.398C120.32 28.93 119.676 29.1307 118.864 29V27.74C119.265 27.8333 119.587 27.7447 119.83 27.474C119.97 27.306 120.04 27.0493 120.04 26.704V23.106H124.464ZM130.326 27.012L131.474 27.656C131.213 28.1227 130.881 28.482 130.48 28.734C130.023 29.0327 129.444 29.182 128.744 29.182C127.923 29.182 127.26 28.93 126.756 28.426C126.177 27.8473 125.888 27.096 125.888 26.172C125.888 25.2013 126.201 24.394 126.826 23.75C127.358 23.218 128.016 22.952 128.8 22.952C129.565 22.952 130.195 23.2087 130.69 23.722C131.241 24.2913 131.516 25.122 131.516 26.214V26.382H127.288C127.325 26.8767 127.493 27.2733 127.792 27.572C128.044 27.824 128.394 27.95 128.842 27.95C129.206 27.95 129.519 27.852 129.78 27.656C129.995 27.488 130.177 27.2733 130.326 27.012ZM127.386 25.262H130.116C130.06 24.9353 129.92 24.6693 129.696 24.464C129.453 24.24 129.145 24.128 128.772 24.128C128.38 24.128 128.058 24.254 127.806 24.506C127.601 24.6927 127.461 24.9447 127.386 25.262ZM132.95 29V23.106H134.322V25.29H136.758V23.106H138.13V29H136.758V26.55H134.322V29H132.95ZM139.868 23.106H141.24V26.452L145.272 22.574V29H143.9V25.57L139.868 29.448V23.106ZM146.249 29L148.097 26.662C147.733 26.606 147.42 26.4567 147.159 26.214C146.832 25.8967 146.669 25.4907 146.669 24.996C146.669 24.436 146.851 23.9833 147.215 23.638C147.588 23.2833 148.157 23.106 148.923 23.106H151.121V29H149.749V26.83H149.469L147.859 29H146.249ZM149.749 25.71V24.282H148.951C148.624 24.282 148.386 24.324 148.237 24.408C148.013 24.548 147.901 24.744 147.901 24.996C147.901 25.248 147.994 25.4393 148.181 25.57C148.321 25.6633 148.573 25.71 148.937 25.71H149.749Z" fill="black"/>
<rect x="40.5" y="88.5" width="178" height="47" rx="7.5" stroke="#6A8EE8"/>
<path d="M77.12 107.662H83.98V117H82.552V109.006H78.548V117H77.12V107.662ZM90.2855 111.792V111.106H91.6575V117H90.2855V116.384C89.8281 116.916 89.2401 117.182 88.5215 117.182C87.6535 117.182 86.9581 116.874 86.4355 116.258C85.9221 115.642 85.6655 114.905 85.6655 114.046C85.6655 113.113 85.9408 112.366 86.4915 111.806C87.0515 111.237 87.7328 110.952 88.5355 110.952C89.2728 110.952 89.8561 111.232 90.2855 111.792ZM88.7035 112.184C88.2181 112.184 87.8215 112.366 87.5135 112.73C87.2148 113.094 87.0655 113.542 87.0655 114.074C87.0655 114.597 87.2148 115.04 87.5135 115.404C87.8215 115.768 88.2181 115.95 88.7035 115.95C89.1701 115.95 89.5621 115.787 89.8795 115.46C90.2061 115.133 90.3695 114.676 90.3695 114.088C90.3695 113.481 90.2061 113.015 89.8795 112.688C89.5621 112.352 89.1701 112.184 88.7035 112.184ZM93.3973 117V111.106H94.7693V113.29H97.2053V111.106H98.5773V117H97.2053V114.55H94.7693V117H93.3973ZM104.445 115.012L105.593 115.656C105.332 116.123 105.001 116.482 104.599 116.734C104.142 117.033 103.563 117.182 102.863 117.182C102.042 117.182 101.379 116.93 100.875 116.426C100.297 115.847 100.007 115.096 100.007 114.172C100.007 113.201 100.32 112.394 100.945 111.75C101.477 111.218 102.135 110.952 102.919 110.952C103.685 110.952 104.315 111.209 104.809 111.722C105.36 112.291 105.635 113.122 105.635 114.214V114.382H101.407C101.445 114.877 101.613 115.273 101.911 115.572C102.163 115.824 102.513 115.95 102.961 115.95C103.325 115.95 103.638 115.852 103.899 115.656C104.114 115.488 104.296 115.273 104.445 115.012ZM101.505 113.262H104.235C104.179 112.935 104.039 112.669 103.815 112.464C103.573 112.24 103.265 112.128 102.891 112.128C102.499 112.128 102.177 112.254 101.925 112.506C101.72 112.693 101.58 112.945 101.505 113.262ZM111.913 111.106V117H110.541V112.366H108.805V114.704C108.805 115.432 108.619 115.997 108.245 116.398C107.769 116.93 107.125 117.131 106.313 117V115.74C106.715 115.833 107.037 115.745 107.279 115.474C107.419 115.306 107.489 115.049 107.489 114.704V111.106H111.913ZM113.645 117V111.106H115.017V113.192H115.801C116.053 113.192 116.259 113.201 116.417 113.22C116.576 113.229 116.767 113.281 116.991 113.374C117.215 113.467 117.411 113.607 117.579 113.794C117.887 114.139 118.041 114.569 118.041 115.082C118.041 115.67 117.864 116.141 117.509 116.496C117.351 116.655 117.159 116.776 116.935 116.86C116.721 116.935 116.539 116.977 116.389 116.986C116.249 116.995 116.049 117 115.787 117H113.645ZM115.017 115.824H115.647C115.983 115.824 116.221 115.782 116.361 115.698C116.567 115.549 116.669 115.348 116.669 115.096C116.669 114.835 116.571 114.639 116.375 114.508C116.226 114.415 115.988 114.368 115.661 114.368H115.017V115.824ZM122.518 117V111.106H123.89V113.29H126.326V111.106H127.698V117H126.326V114.55H123.89V117H122.518ZM133.748 111.792V111.106H135.12V117H133.748V116.384C133.291 116.916 132.703 117.182 131.984 117.182C131.116 117.182 130.421 116.874 129.898 116.258C129.385 115.642 129.128 114.905 129.128 114.046C129.128 113.113 129.404 112.366 129.954 111.806C130.514 111.237 131.196 110.952 131.998 110.952C132.736 110.952 133.319 111.232 133.748 111.792ZM132.166 112.184C131.681 112.184 131.284 112.366 130.976 112.73C130.678 113.094 130.528 113.542 130.528 114.074C130.528 114.597 130.678 115.04 130.976 115.404C131.284 115.768 131.681 115.95 132.166 115.95C132.633 115.95 133.025 115.787 133.342 115.46C133.669 115.133 133.832 114.676 133.832 114.088C133.832 113.481 133.669 113.015 133.342 112.688C133.025 112.352 132.633 112.184 132.166 112.184ZM136.86 111.106H139.17C139.758 111.106 140.206 111.223 140.514 111.456C140.878 111.745 141.06 112.123 141.06 112.59C141.06 113.122 140.827 113.505 140.36 113.738C140.659 113.794 140.925 113.925 141.158 114.13C141.466 114.41 141.62 114.788 141.62 115.264C141.62 115.833 141.406 116.281 140.976 116.608C140.622 116.869 140.169 117 139.618 117H136.86V111.106ZM138.232 113.402H138.932C139.175 113.402 139.357 113.36 139.478 113.276C139.656 113.164 139.744 113.005 139.744 112.8C139.744 112.604 139.665 112.45 139.506 112.338C139.394 112.263 139.194 112.226 138.904 112.226H138.232V113.402ZM138.232 115.88H139.254C139.562 115.88 139.8 115.824 139.968 115.712C140.155 115.591 140.248 115.418 140.248 115.194C140.248 114.951 140.16 114.779 139.982 114.676C139.824 114.573 139.595 114.522 139.296 114.522H138.232V115.88ZM143.054 111.106H144.426V114.452L148.458 110.574V117H147.086V113.57L143.054 117.448V111.106ZM150.19 117V111.106H153.802V112.366H151.562V117H150.19ZM158.959 111.792V111.106H160.331V117H158.959V116.384C158.502 116.916 157.914 117.182 157.195 117.182C156.327 117.182 155.632 116.874 155.109 116.258C154.596 115.642 154.339 114.905 154.339 114.046C154.339 113.113 154.615 112.366 155.165 111.806C155.725 111.237 156.407 110.952 157.209 110.952C157.947 110.952 158.53 111.232 158.959 111.792ZM157.377 112.184C156.892 112.184 156.495 112.366 156.187 112.73C155.889 113.094 155.739 113.542 155.739 114.074C155.739 114.597 155.889 115.04 156.187 115.404C156.495 115.768 156.892 115.95 157.377 115.95C157.844 115.95 158.236 115.787 158.553 115.46C158.88 115.133 159.043 114.676 159.043 114.088C159.043 113.481 158.88 113.015 158.553 112.688C158.236 112.352 157.844 112.184 157.377 112.184ZM162.071 117V111.106H163.443V115.74H165.767V111.106H167.139V115.74H168.119V118.68H166.859V117H162.071ZM169.098 111.106H170.47V114.452L174.502 110.574V117H173.13V113.57L169.098 117.448V111.106ZM176.235 111.106H177.607V114.452L181.639 110.574V117H180.267V113.57L176.235 117.448V111.106Z" fill="black"/>
<rect x="40.5" y="176.5" width="194" height="47" rx="7.5" stroke="#6A8EE8"/>
<path d="M84.036 196.166V197.846C83.2707 197.155 82.426 196.81 81.502 196.81C80.494 196.81 79.6727 197.146 79.038 197.818C78.4127 198.481 78.1 199.33 78.1 200.366C78.1 201.365 78.422 202.2 79.066 202.872C79.71 203.535 80.5267 203.866 81.516 203.866C82.44 203.866 83.28 203.507 84.036 202.788V204.482C83.252 204.949 82.398 205.182 81.474 205.182C80.1767 205.182 79.0753 204.753 78.17 203.894C77.1713 202.961 76.672 201.785 76.672 200.366C76.672 198.873 77.1713 197.655 78.17 196.712C79.0287 195.9 80.1533 195.494 81.544 195.494C82.5053 195.494 83.336 195.718 84.036 196.166ZM85.5496 199.106H90.6736V205H89.3016V200.366H86.9216V205H85.5496V199.106ZM92.4129 199.106H93.7849V202.452L97.8169 198.574V205H96.4449V201.57L92.4129 205.448V199.106ZM104.114 199.372V200.912C103.619 200.427 103.064 200.184 102.448 200.184C101.925 200.184 101.491 200.357 101.146 200.702C100.81 201.038 100.642 201.491 100.642 202.06C100.642 202.648 100.819 203.119 101.174 203.474C101.51 203.791 101.925 203.95 102.42 203.95C103.101 203.95 103.666 203.698 104.114 203.194V204.72C103.619 205.028 103.022 205.182 102.322 205.182C101.379 205.182 100.632 204.893 100.082 204.314C99.5216 203.735 99.2416 202.998 99.2416 202.102C99.2416 201.178 99.5403 200.417 100.138 199.82C100.716 199.241 101.505 198.952 102.504 198.952C103.073 198.952 103.61 199.092 104.114 199.372ZM106.017 199.834C106.623 199.246 107.375 198.952 108.271 198.952C109.167 198.952 109.913 199.246 110.511 199.834C111.117 200.413 111.421 201.155 111.421 202.06C111.421 202.956 111.117 203.703 110.511 204.3C109.913 204.888 109.167 205.182 108.271 205.182C107.375 205.182 106.623 204.888 106.017 204.3C105.419 203.703 105.121 202.956 105.121 202.06C105.121 201.155 105.419 200.413 106.017 199.834ZM106.997 203.446C107.314 203.782 107.739 203.95 108.271 203.95C108.803 203.95 109.227 203.782 109.545 203.446C109.862 203.101 110.021 202.643 110.021 202.074C110.021 201.449 109.848 200.977 109.503 200.66C109.167 200.343 108.756 200.184 108.271 200.184C107.785 200.184 107.37 200.343 107.025 200.66C106.689 200.977 106.521 201.449 106.521 202.074C106.521 202.643 106.679 203.101 106.997 203.446ZM112.852 199.106H114.224V201.206L116.184 199.106H118.004L115.428 201.682L118.144 205H116.408L114.448 202.578L114.224 202.802V205H112.852V199.106ZM121.879 208.206L124.049 204.076L121.529 199.106H123.181L124.861 202.55L126.569 199.106H128.109L123.419 208.206H121.879ZM129.067 199.106H131.377C131.965 199.106 132.413 199.223 132.721 199.456C133.085 199.745 133.267 200.123 133.267 200.59C133.267 201.122 133.034 201.505 132.567 201.738C132.866 201.794 133.132 201.925 133.365 202.13C133.673 202.41 133.827 202.788 133.827 203.264C133.827 203.833 133.613 204.281 133.183 204.608C132.829 204.869 132.376 205 131.825 205H129.067V199.106ZM130.439 201.402H131.139C131.382 201.402 131.564 201.36 131.685 201.276C131.863 201.164 131.951 201.005 131.951 200.8C131.951 200.604 131.872 200.45 131.713 200.338C131.601 200.263 131.401 200.226 131.111 200.226H130.439V201.402ZM130.439 203.88H131.461C131.769 203.88 132.007 203.824 132.175 203.712C132.362 203.591 132.455 203.418 132.455 203.194C132.455 202.951 132.367 202.779 132.189 202.676C132.031 202.573 131.802 202.522 131.503 202.522H130.439V203.88ZM139.391 203.012L140.539 203.656C140.277 204.123 139.946 204.482 139.545 204.734C139.087 205.033 138.509 205.182 137.809 205.182C136.987 205.182 136.325 204.93 135.821 204.426C135.242 203.847 134.953 203.096 134.953 202.172C134.953 201.201 135.265 200.394 135.891 199.75C136.423 199.218 137.081 198.952 137.865 198.952C138.63 198.952 139.26 199.209 139.755 199.722C140.305 200.291 140.581 201.122 140.581 202.214V202.382H136.353C136.39 202.877 136.558 203.273 136.857 203.572C137.109 203.824 137.459 203.95 137.907 203.95C138.271 203.95 138.583 203.852 138.845 203.656C139.059 203.488 139.241 203.273 139.391 203.012ZM136.451 201.262H139.181C139.125 200.935 138.985 200.669 138.761 200.464C138.518 200.24 138.21 200.128 137.837 200.128C137.445 200.128 137.123 200.254 136.871 200.506C136.665 200.693 136.525 200.945 136.451 201.262ZM142.518 199.106H146.942V203.74H147.838V206.68H146.578V205H142.462V206.68H141.202V203.74C141.678 203.712 142.038 203.455 142.28 202.97C142.439 202.625 142.518 202.107 142.518 201.416V199.106ZM145.57 203.74V200.366H143.834V201.934C143.834 202.783 143.606 203.385 143.148 203.74H145.57ZM149.411 199.834C150.018 199.246 150.769 198.952 151.665 198.952C152.561 198.952 153.308 199.246 153.905 199.834C154.512 200.413 154.815 201.155 154.815 202.06C154.815 202.956 154.512 203.703 153.905 204.3C153.308 204.888 152.561 205.182 151.665 205.182C150.769 205.182 150.018 204.888 149.411 204.3C148.814 203.703 148.515 202.956 148.515 202.06C148.515 201.155 148.814 200.413 149.411 199.834ZM150.391 203.446C150.708 203.782 151.133 203.95 151.665 203.95C152.197 203.95 152.622 203.782 152.939 203.446C153.256 203.101 153.415 202.643 153.415 202.074C153.415 201.449 153.242 200.977 152.897 200.66C152.561 200.343 152.15 200.184 151.665 200.184C151.18 200.184 150.764 200.343 150.419 200.66C150.083 200.977 149.915 201.449 149.915 202.074C149.915 202.643 150.074 203.101 150.391 203.446ZM155.575 205L157.003 198.574L159.439 203.068L161.875 198.574L163.303 205H161.903L161.315 202.046L159.439 205.448L157.563 202.046L156.975 205H155.575ZM169.513 199.106V205H168.141V200.366H166.405V202.704C166.405 203.432 166.218 203.997 165.845 204.398C165.369 204.93 164.725 205.131 163.913 205V203.74C164.314 203.833 164.636 203.745 164.879 203.474C165.019 203.306 165.089 203.049 165.089 202.704V199.106H169.513ZM175.375 203.012L176.523 203.656C176.262 204.123 175.93 204.482 175.529 204.734C175.072 205.033 174.493 205.182 173.793 205.182C172.972 205.182 172.309 204.93 171.805 204.426C171.226 203.847 170.937 203.096 170.937 202.172C170.937 201.201 171.25 200.394 171.875 199.75C172.407 199.218 173.065 198.952 173.849 198.952C174.614 198.952 175.244 199.209 175.739 199.722C176.29 200.291 176.565 201.122 176.565 202.214V202.382H172.337C172.374 202.877 172.542 203.273 172.841 203.572C173.093 203.824 173.443 203.95 173.891 203.95C174.255 203.95 174.568 203.852 174.829 203.656C175.044 203.488 175.226 203.273 175.375 203.012ZM172.435 201.262H175.165C175.109 200.935 174.969 200.669 174.745 200.464C174.502 200.24 174.194 200.128 173.821 200.128C173.429 200.128 173.107 200.254 172.855 200.506C172.65 200.693 172.51 200.945 172.435 201.262ZM177.999 205V199.106H179.371V201.29H181.807V199.106H183.179V205H181.807V202.55H179.371V205H177.999ZM184.917 199.106H186.289V202.452L190.321 198.574V205H188.949V201.57L184.917 205.448V199.106ZM192.054 199.106H193.426V202.452L197.458 198.574V205H196.086V201.57L192.054 205.448V199.106ZM192.502 196.558L193.622 196.236C193.799 196.843 194.182 197.146 194.77 197.146C195.348 197.146 195.731 196.843 195.918 196.236L197.038 196.558C196.888 197.09 196.585 197.501 196.128 197.79C195.68 198.07 195.227 198.21 194.77 198.21C194.312 198.21 193.855 198.07 193.398 197.79C192.95 197.501 192.651 197.09 192.502 196.558Z" fill="black"/>
<rect x="311.5" y="264.5" width="205" height="47" rx="7.5" stroke="#015CA3"/>
<path d="M349.548 283.662V287.386L353.16 283.662H355.036L350.822 287.89L355.064 293H353.16L349.828 288.856L349.548 289.136V293H348.12V283.662H349.548ZM359.809 287.792V287.106H361.181V293H359.809V292.384C359.352 292.916 358.764 293.182 358.045 293.182C357.177 293.182 356.482 292.874 355.959 292.258C355.446 291.642 355.189 290.905 355.189 290.046C355.189 289.113 355.464 288.366 356.015 287.806C356.575 287.237 357.256 286.952 358.059 286.952C358.796 286.952 359.38 287.232 359.809 287.792ZM358.227 288.184C357.742 288.184 357.345 288.366 357.037 288.73C356.738 289.094 356.589 289.542 356.589 290.074C356.589 290.597 356.738 291.04 357.037 291.404C357.345 291.768 357.742 291.95 358.227 291.95C358.694 291.95 359.086 291.787 359.403 291.46C359.73 291.133 359.893 290.676 359.893 290.088C359.893 289.481 359.73 289.015 359.403 288.688C359.086 288.352 358.694 288.184 358.227 288.184ZM364.293 292.314V296.206H362.921V287.106H364.293V287.75C364.741 287.218 365.324 286.952 366.043 286.952C366.845 286.952 367.522 287.237 368.073 287.806C368.633 288.366 368.913 289.103 368.913 290.018C368.913 290.961 368.623 291.726 368.045 292.314C367.466 292.893 366.803 293.182 366.057 293.182C365.357 293.182 364.769 292.893 364.293 292.314ZM365.875 288.184C365.408 288.184 365.011 288.352 364.685 288.688C364.367 289.015 364.209 289.481 364.209 290.088C364.209 290.676 364.367 291.133 364.685 291.46C365.011 291.787 365.408 291.95 365.875 291.95C366.36 291.95 366.752 291.768 367.051 291.404C367.359 291.04 367.513 290.597 367.513 290.074C367.513 289.542 367.359 289.094 367.051 288.73C366.752 288.366 366.36 288.184 365.875 288.184ZM374.405 288.366H372.683V293H371.311V288.366H369.589V287.106H374.405V288.366ZM375.827 287.834C376.434 287.246 377.185 286.952 378.081 286.952C378.977 286.952 379.724 287.246 380.321 287.834C380.928 288.413 381.231 289.155 381.231 290.06C381.231 290.956 380.928 291.703 380.321 292.3C379.724 292.888 378.977 293.182 378.081 293.182C377.185 293.182 376.434 292.888 375.827 292.3C375.23 291.703 374.931 290.956 374.931 290.06C374.931 289.155 375.23 288.413 375.827 287.834ZM376.807 291.446C377.124 291.782 377.549 291.95 378.081 291.95C378.613 291.95 379.038 291.782 379.355 291.446C379.672 291.101 379.831 290.643 379.831 290.074C379.831 289.449 379.658 288.977 379.313 288.66C378.977 288.343 378.566 288.184 378.081 288.184C377.596 288.184 377.18 288.343 376.835 288.66C376.499 288.977 376.331 289.449 376.331 290.074C376.331 290.643 376.49 291.101 376.807 291.446ZM385.855 293V290.718C385.435 290.802 385.034 290.844 384.651 290.844C383.979 290.844 383.461 290.699 383.097 290.41C382.714 290.102 382.523 289.631 382.523 288.996V287.106H383.895V288.716C383.895 289.117 384.012 289.388 384.245 289.528C384.404 289.621 384.632 289.668 384.931 289.668C385.267 289.668 385.575 289.617 385.855 289.514V287.106H387.227V293H385.855ZM388.966 287.106H390.338V289.206L392.298 287.106H394.118L391.542 289.682L394.258 293H392.522L390.562 290.578L390.338 290.802V293H388.966V287.106ZM399.471 287.792V287.106H400.843V293H399.471V292.384C399.014 292.916 398.426 293.182 397.707 293.182C396.839 293.182 396.144 292.874 395.621 292.258C395.108 291.642 394.851 290.905 394.851 290.046C394.851 289.113 395.126 288.366 395.677 287.806C396.237 287.237 396.918 286.952 397.721 286.952C398.458 286.952 399.042 287.232 399.471 287.792ZM397.889 288.184C397.404 288.184 397.007 288.366 396.699 288.73C396.4 289.094 396.251 289.542 396.251 290.074C396.251 290.597 396.4 291.04 396.699 291.404C397.007 291.768 397.404 291.95 397.889 291.95C398.356 291.95 398.748 291.787 399.065 291.46C399.392 291.133 399.555 290.676 399.555 290.088C399.555 289.481 399.392 289.015 399.065 288.688C398.748 288.352 398.356 288.184 397.889 288.184ZM405.416 296.206L407.586 292.076L405.066 287.106H406.718L408.398 290.55L410.106 287.106H411.646L406.956 296.206H405.416ZM412.604 287.106H414.914C415.502 287.106 415.95 287.223 416.258 287.456C416.622 287.745 416.804 288.123 416.804 288.59C416.804 289.122 416.571 289.505 416.104 289.738C416.403 289.794 416.669 289.925 416.902 290.13C417.21 290.41 417.364 290.788 417.364 291.264C417.364 291.833 417.15 292.281 416.72 292.608C416.366 292.869 415.913 293 415.362 293H412.604V287.106ZM413.976 289.402H414.676C414.919 289.402 415.101 289.36 415.222 289.276C415.4 289.164 415.488 289.005 415.488 288.8C415.488 288.604 415.409 288.45 415.25 288.338C415.138 288.263 414.938 288.226 414.648 288.226H413.976V289.402ZM413.976 291.88H414.998C415.306 291.88 415.544 291.824 415.712 291.712C415.899 291.591 415.992 291.418 415.992 291.194C415.992 290.951 415.904 290.779 415.726 290.676C415.568 290.573 415.339 290.522 415.04 290.522H413.976V291.88ZM422.928 291.012L424.076 291.656C423.814 292.123 423.483 292.482 423.082 292.734C422.624 293.033 422.046 293.182 421.346 293.182C420.524 293.182 419.862 292.93 419.358 292.426C418.779 291.847 418.49 291.096 418.49 290.172C418.49 289.201 418.802 288.394 419.428 287.75C419.96 287.218 420.618 286.952 421.402 286.952C422.167 286.952 422.797 287.209 423.292 287.722C423.842 288.291 424.118 289.122 424.118 290.214V290.382H419.89C419.927 290.877 420.095 291.273 420.394 291.572C420.646 291.824 420.996 291.95 421.444 291.95C421.808 291.95 422.12 291.852 422.382 291.656C422.596 291.488 422.778 291.273 422.928 291.012ZM419.988 289.262H422.718C422.662 288.935 422.522 288.669 422.298 288.464C422.055 288.24 421.747 288.128 421.374 288.128C420.982 288.128 420.66 288.254 420.408 288.506C420.202 288.693 420.062 288.945 419.988 289.262ZM426.056 287.106H430.48V291.74H431.376V294.68H430.116V293H426V294.68H424.74V291.74C425.216 291.712 425.575 291.455 425.818 290.97C425.976 290.625 426.056 290.107 426.056 289.416V287.106ZM429.108 291.74V288.366H427.372V289.934C427.372 290.783 427.143 291.385 426.686 291.74H429.108ZM432.948 287.834C433.555 287.246 434.306 286.952 435.202 286.952C436.098 286.952 436.845 287.246 437.442 287.834C438.049 288.413 438.352 289.155 438.352 290.06C438.352 290.956 438.049 291.703 437.442 292.3C436.845 292.888 436.098 293.182 435.202 293.182C434.306 293.182 433.555 292.888 432.948 292.3C432.351 291.703 432.052 290.956 432.052 290.06C432.052 289.155 432.351 288.413 432.948 287.834ZM433.928 291.446C434.246 291.782 434.67 291.95 435.202 291.95C435.734 291.95 436.159 291.782 436.476 291.446C436.794 291.101 436.952 290.643 436.952 290.074C436.952 289.449 436.78 288.977 436.434 288.66C436.098 288.343 435.688 288.184 435.202 288.184C434.717 288.184 434.302 288.343 433.956 288.66C433.62 288.977 433.452 289.449 433.452 290.074C433.452 290.643 433.611 291.101 433.928 291.446ZM439.112 293L440.54 286.574L442.976 291.068L445.412 286.574L446.84 293H445.44L444.852 290.046L442.976 293.448L441.1 290.046L440.512 293H439.112ZM453.05 287.106V293H451.678V288.366H449.942V290.704C449.942 291.432 449.755 291.997 449.382 292.398C448.906 292.93 448.262 293.131 447.45 293V291.74C447.851 291.833 448.173 291.745 448.416 291.474C448.556 291.306 448.626 291.049 448.626 290.704V287.106H453.05ZM458.912 291.012L460.06 291.656C459.799 292.123 459.467 292.482 459.066 292.734C458.609 293.033 458.03 293.182 457.33 293.182C456.509 293.182 455.846 292.93 455.342 292.426C454.763 291.847 454.474 291.096 454.474 290.172C454.474 289.201 454.787 288.394 455.412 287.75C455.944 287.218 456.602 286.952 457.386 286.952C458.151 286.952 458.781 287.209 459.276 287.722C459.827 288.291 460.102 289.122 460.102 290.214V290.382H455.874C455.911 290.877 456.079 291.273 456.378 291.572C456.63 291.824 456.98 291.95 457.428 291.95C457.792 291.95 458.105 291.852 458.366 291.656C458.581 291.488 458.763 291.273 458.912 291.012ZM455.972 289.262H458.702C458.646 288.935 458.506 288.669 458.282 288.464C458.039 288.24 457.731 288.128 457.358 288.128C456.966 288.128 456.644 288.254 456.392 288.506C456.187 288.693 456.047 288.945 455.972 289.262ZM461.536 293V287.106H462.908V289.29H465.344V287.106H466.716V293H465.344V290.55H462.908V293H461.536ZM468.454 287.106H469.826V290.452L473.858 286.574V293H472.486V289.57L468.454 293.448V287.106ZM474.835 293L476.683 290.662C476.319 290.606 476.006 290.457 475.745 290.214C475.418 289.897 475.255 289.491 475.255 288.996C475.255 288.436 475.437 287.983 475.801 287.638C476.174 287.283 476.743 287.106 477.509 287.106H479.707V293H478.335V290.83H478.055L476.445 293H474.835ZM478.335 289.71V288.282H477.537C477.21 288.282 476.972 288.324 476.823 288.408C476.599 288.548 476.487 288.744 476.487 288.996C476.487 289.248 476.58 289.439 476.767 289.57C476.907 289.663 477.159 289.71 477.523 289.71H478.335Z" fill="black"/>
<path d="M0.999999 110.941C0.447715 110.941 -2.78374e-07 111.389 0 111.941C2.78374e-07 112.493 0.447716 112.941 1 112.941L0.999999 110.941ZM39.7071 112.648C40.0976 112.258 40.0976 111.625 39.7071 111.234L33.3431 104.87C32.9526 104.48 32.3194 104.48 31.9289 104.87C31.5384 105.261 31.5384 105.894 31.9289 106.284L37.5858 111.941L31.9289 117.598C31.5384 117.989 31.5384 118.622 31.9289 119.012C32.3194 119.403 32.9526 119.403 33.3431 119.012L39.7071 112.648ZM1 112.941L39 112.941L39 110.941L0.999999 110.941L1 112.941Z" fill="#A6AEBF"/>
<path d="M39 25L40 25L40 23L39 23L39 25ZM39.7071 200.707C40.0976 200.317 40.0976 199.683 39.7071 199.293L33.3431 192.929C32.9526 192.538 32.3194 192.538 31.9289 192.929C31.5384 193.319 31.5384 193.953 31.9289 194.343L37.5858 200L31.9289 205.657C31.5384 206.047 31.5384 206.681 31.9289 207.071C32.3194 207.462 32.9526 207.462 33.3431 207.071L39.7071 200.707ZM2 192L1.99999 32L-7.34351e-06 32L-3.49691e-07 192L2 192ZM8.99999 25L39 25L39 23L8.99999 23L8.99999 25ZM39 199L9 199L9 201L39 201L39 199ZM1.99999 32C1.99999 28.134 5.134 25 8.99999 25L8.99999 23C4.02943 23 -7.56078e-06 27.0294 -7.34351e-06 32L1.99999 32ZM-3.49691e-07 192C-1.32421e-07 196.971 4.02943 201 9 201L9 199C5.134 199 2 195.866 2 192L-3.49691e-07 192Z" fill="#A6AEBF"/>
<path d="M79 225L79 224L77 224L77 225L79 225ZM310.707 288.707C311.098 288.317 311.098 287.683 310.707 287.293L304.343 280.929C303.953 280.538 303.319 280.538 302.929 280.929C302.538 281.319 302.538 281.953 302.929 282.343L308.586 288L302.929 293.657C302.538 294.047 302.538 294.681 302.929 295.071C303.319 295.462 303.953 295.462 304.343 295.071L310.707 288.707ZM79 280L79 225L77 225L77 280L79 280ZM310 287L86 287L86 289L310 289L310 287ZM77 280C77 284.971 81.0294 289 86 289L86 287C82.134 287 79 283.866 79 280L77 280Z" fill="#A6AEBF"/>
</svg>
